<svg width="30" height="30" viewBox="0 0 30 30" fill="none" xmlns="http://www.w3.org/2000/svg">
<path d="M23.562 1.5625H20.188C16.8616 1.5625 15.3125 3.11158 15.3125 6.43799V11.062C15.3125 14.3884 16.8616 15.9375 20.188 15.9375H23.562C26.8884 15.9375 28.4375 14.3884 28.4375 11.062V6.43799C28.4375 3.11158 26.8884 1.5625 23.562 1.5625ZM26.5625 11.062C26.5625 13.3618 25.8618 14.0625 23.562 14.0625H20.188C17.8882 14.0625 17.1875 13.3618 17.1875 11.062V6.43799C17.1875 4.13819 17.8882 3.4375 20.188 3.4375H23.562C25.8618 3.4375 26.5625 4.13819 26.5625 6.43799V11.062ZM9.81201 14.0625H6.43799C3.11158 14.0625 1.5625 15.6116 1.5625 18.938V23.562C1.5625 26.8884 3.11158 28.4375 6.43799 28.4375H9.81201C13.1384 28.4375 14.6875 26.8884 14.6875 23.562V18.938C14.6875 15.6116 13.1384 14.0625 9.81201 14.0625ZM12.8125 23.562C12.8125 25.8618 12.1118 26.5625 9.81201 26.5625H6.43799C4.13819 26.5625 3.4375 25.8618 3.4375 23.562V18.938C3.4375 16.6382 4.13819 15.9375 6.43799 15.9375H9.81201C12.1118 15.9375 12.8125 16.6382 12.8125 18.938V23.562ZM28.4375 18.75C28.4346 21.3184 27.4131 23.7808 25.5969 25.5969C23.7808 27.4131 21.3184 28.4346 18.75 28.4375C18.5842 28.4373 18.4214 28.3932 18.2782 28.3096C18.135 28.226 18.0165 28.106 17.9347 27.9617C17.853 27.8175 17.8109 27.6541 17.8128 27.4883C17.8147 27.3225 17.8605 27.1602 17.9456 27.0178L19.2578 24.8303C19.3861 24.6179 19.5934 24.465 19.8343 24.4051C20.0751 24.3452 20.3299 24.3832 20.5428 24.5108C20.7556 24.6384 20.9093 24.8452 20.97 25.0858C21.0307 25.3265 20.9936 25.5814 20.8667 25.7947L20.5286 26.3586C22.2441 25.9549 23.7731 24.9841 24.8682 23.6032C25.9632 22.2224 26.5602 20.5124 26.5625 18.75C26.5625 18.5014 26.6613 18.2629 26.8371 18.0871C27.0129 17.9113 27.2514 17.8125 27.5 17.8125C27.7486 17.8125 27.9871 17.9113 28.1629 18.0871C28.3387 18.2629 28.4375 18.5014 28.4375 18.75ZM1.5625 11.25C1.56537 8.6816 2.58694 6.21921 4.40308 4.40308C6.21921 2.58694 8.6816 1.56537 11.25 1.5625C11.4158 1.56271 11.5786 1.60685 11.7218 1.69043C11.865 1.774 11.9835 1.89403 12.0653 2.03829C12.147 2.18255 12.1891 2.34589 12.1872 2.51169C12.1853 2.67749 12.1395 2.83983 12.0544 2.98218L10.7422 5.16968C10.6139 5.38211 10.4066 5.53501 10.1657 5.5949C9.92487 5.65478 9.6701 5.61676 9.45723 5.48917C9.24436 5.36158 9.09074 5.15481 9.03002 4.91417C8.96931 4.67353 9.00644 4.41864 9.1333 4.20533L9.47144 3.64136C7.75594 4.04507 6.2269 5.01593 5.13183 6.39678C4.03677 7.77763 3.43978 9.48764 3.4375 11.25C3.4375 11.4986 3.33873 11.7371 3.16291 11.9129C2.9871 12.0887 2.74864 12.1875 2.5 12.1875C2.25136 12.1875 2.0129 12.0887 1.83709 11.9129C1.66127 11.7371 1.5625 11.4986 1.5625 11.25Z" fill="#569A59"/>
</svg>
