<svg width="29" height="30" viewBox="0 0 29 30" fill="none" xmlns="http://www.w3.org/2000/svg">
<path d="M19 28.75C19 29.44 18.4412 30 17.75 30H6.5C3.05375 30 0.25 27.1963 0.25 23.75V6.25C0.25 2.80375 3.05375 0 6.5 0H12.1438C14.48 0 16.6775 0.91 18.3312 2.5625L22.6862 6.92C23.025 7.25875 23.34 7.63 23.6213 8.02375C24.0225 8.585 23.8925 9.36625 23.3312 9.7675C22.77 10.1675 21.9875 10.0387 21.5875 9.47625C21.3862 9.195 21.1612 8.92875 20.92 8.68875L16.5637 4.33125C16.1662 3.93375 15.725 3.5975 15.25 3.325V8.75C15.25 9.43875 15.81 10 16.5 10H20.25C20.9412 10 21.5 10.56 21.5 11.25C21.5 11.94 20.9412 12.5 20.25 12.5H16.5C14.4325 12.5 12.75 10.8175 12.75 8.75V2.52875C12.55 2.51 12.3475 2.5 12.1438 2.5H6.5C4.4325 2.5 2.75 4.1825 2.75 6.25V23.75C2.75 25.8175 4.4325 27.5 6.5 27.5H17.75C18.4412 27.5 19 28.06 19 28.75ZM26.1062 20.3337L22.305 19.7C21.8387 19.6225 21.5 19.2225 21.5 18.75C21.5 18.0613 22.06 17.5 22.75 17.5H25.585C26.03 17.5 26.445 17.74 26.6688 18.125C27.0125 18.7225 27.775 18.9263 28.3762 18.5812C28.9737 18.235 29.1787 17.4712 28.8312 16.8737C28.1637 15.7175 26.9188 14.9987 25.5837 14.9987H25.2488V13.7487C25.2488 13.0587 24.69 12.4987 23.9988 12.4987C23.3075 12.4987 22.7488 13.0587 22.7488 13.7487V14.9987C20.6813 14.9987 18.9987 16.6812 18.9987 18.7487C18.9987 20.4487 20.2162 21.8862 21.8925 22.165L25.6937 22.7987C26.16 22.8763 26.4988 23.2763 26.4988 23.7488C26.4988 24.4375 25.9388 24.9988 25.2488 24.9988H22.4138C21.9688 24.9988 21.5538 24.7588 21.33 24.3738C20.9862 23.775 20.2225 23.5713 19.6225 23.9175C19.025 24.2638 18.82 25.0275 19.1675 25.625C19.835 26.7812 21.08 27.4988 22.415 27.4988H22.75V28.7488C22.75 29.4388 23.3088 29.9988 24 29.9988C24.6912 29.9988 25.25 29.4388 25.25 28.7488V27.4988C27.3175 27.4988 29 25.8162 29 23.7488C29 22.0487 27.7825 20.6125 26.1062 20.3337ZM8.375 18.75H15.25C15.9412 18.75 16.5 18.19 16.5 17.5C16.5 16.81 15.9412 16.25 15.25 16.25H8.375C6.6525 16.25 5.25 17.6525 5.25 19.375V21.875C5.25 23.5975 6.6525 25 8.375 25H15.25C15.9412 25 16.5 24.44 16.5 23.75C16.5 23.06 15.9412 22.5 15.25 22.5H8.375C8.03 22.5 7.75 22.22 7.75 21.875V19.375C7.75 19.03 8.03 18.75 8.375 18.75ZM6.5 13.75H9C9.69 13.75 10.25 13.19 10.25 12.5C10.25 11.81 9.69 11.25 9 11.25H6.5C5.81 11.25 5.25 11.81 5.25 12.5C5.25 13.19 5.81 13.75 6.5 13.75ZM6.5 8.75H9C9.69 8.75 10.25 8.19 10.25 7.5C10.25 6.81 9.69 6.25 9 6.25H6.5C5.81 6.25 5.25 6.81 5.25 7.5C5.25 8.19 5.81 8.75 6.5 8.75Z" fill="#569A59"/>
</svg>
