<svg width="324" height="324" viewBox="0 0 324 324" fill="none" xmlns="http://www.w3.org/2000/svg">
<path opacity="0.7" d="M44.0189 108.275C44.0189 108.275 25.9527 154.931 51.3413 201.911C76.73 248.891 129.024 273.709 170.878 294.931C212.732 316.153 256.194 305.817 276.845 271.059C297.497 236.3 269.173 211.488 269.134 161.922C269.095 112.357 276.554 99.235 249.694 57.3612C222.835 15.4874 156.991 6.21457 107.199 37.2732C57.4066 68.3318 44.0189 108.275 44.0189 108.275Z" fill="white"/>
<path d="M39.6974 119.53C64.2048 95.0292 84.9602 115.584 93.7082 82.6848C113.459 8.3657 195.379 9.07202 206.149 61.9553C225.557 157.211 310.088 96.7205 309.46 164.942C308.812 237.784 255.222 294.542 159.124 300.186C73.0241 305.273 -0.91272 160.127 39.6974 119.53Z" fill="#92E3A9"/>
<path opacity="0.7" d="M39.6974 119.53C64.2048 95.0292 84.9602 115.584 93.7082 82.6848C113.459 8.3657 195.379 9.07202 206.149 61.9553C225.557 157.211 310.088 96.7205 309.46 164.942C308.812 237.784 255.222 294.542 159.124 300.186C73.0241 305.273 -0.91272 160.127 39.6974 119.53Z" fill="white"/>
<path d="M100.505 77.7604C100.349 76.4644 100.939 75.6285 102.203 75.4794C103.466 75.3304 104.231 75.9849 104.386 77.3068L104.885 81.5253C105.034 82.8213 104.445 83.6572 103.181 83.8062C101.918 83.9553 101.153 83.3008 100.997 81.9789L100.505 77.7604ZM102.287 81.9205C102.358 82.4908 102.624 82.6981 103.045 82.6528C103.466 82.6074 103.693 82.3353 103.609 81.765L103.097 77.3651C103.026 76.7949 102.74 76.5875 102.339 76.6393C101.937 76.6912 101.691 76.9504 101.775 77.5206L102.287 81.9205ZM107.276 74.9805L108.469 74.8379L104.911 88.2645L103.719 88.407L107.276 74.9805ZM107.413 81.7132C107.257 80.4172 107.853 79.5748 109.117 79.4322C110.38 79.2897 111.145 79.9377 111.301 81.2531L111.793 85.4716C111.949 86.7676 111.359 87.6035 110.089 87.7525C108.819 87.9016 108.061 87.2471 107.905 85.9252L107.413 81.7132ZM109.201 85.8668C109.266 86.4371 109.532 86.6509 109.953 86.5991C110.374 86.5473 110.601 86.2816 110.523 85.7113L110.005 81.3114C109.94 80.7477 109.655 80.5403 109.253 80.5857C108.851 80.631 108.605 80.9032 108.689 81.4669L109.201 85.8668Z" fill="#263238"/>
<path d="M114.8 90.6696L99.7928 92.4257C99.4517 92.4659 99.1085 92.369 98.8388 92.1564C98.5691 91.9437 98.3948 91.6327 98.3542 91.2917L96.5528 75.8174C96.521 75.5295 96.5539 75.2381 96.6492 74.9645C96.7445 74.691 96.8998 74.4422 97.1036 74.2363L103.363 68.0738C103.665 67.7749 104.058 67.5856 104.479 67.5363C104.901 67.487 105.327 67.5804 105.69 67.8017L113.2 72.3377C113.447 72.4879 113.657 72.6927 113.813 72.9364C113.969 73.1801 114.068 73.4563 114.101 73.7438L115.915 89.2181C115.959 89.5583 115.867 89.9021 115.658 90.1742C115.449 90.4463 115.141 90.6244 114.8 90.6696Z" stroke="#263238" stroke-linecap="round" stroke-linejoin="round"/>
<path d="M105.729 69.7901C105.752 69.9802 105.718 70.173 105.632 70.3438C105.545 70.5147 105.41 70.656 105.243 70.7497C105.076 70.8434 104.884 70.8853 104.694 70.8701C104.503 70.8549 104.321 70.7832 104.17 70.6642C104.02 70.5453 103.909 70.3844 103.851 70.2019C103.792 70.0195 103.789 69.8239 103.843 69.6399C103.896 69.4559 104.002 69.2918 104.149 69.1686C104.295 69.0453 104.475 68.9684 104.666 68.9477C104.918 68.9186 105.172 68.9909 105.372 69.1489C105.571 69.3069 105.699 69.5375 105.729 69.7901Z" stroke="#263238" stroke-linecap="round" stroke-linejoin="round"/>
<path d="M104.775 58.9688C104.775 58.9688 107.704 70.244 104.775 69.92" stroke="#263238" stroke-linecap="round" stroke-linejoin="round"/>
<path d="M104.031 67.6525C104.601 64.5162 107.472 59.2285 107.472 59.2285" stroke="#263238" stroke-linecap="round" stroke-linejoin="round"/>
<path d="M104.776 69.9015C104.605 69.8905 104.441 69.8266 104.308 69.7187C104.175 69.6107 104.078 69.464 104.031 69.2988" stroke="#263238" stroke-linecap="round" stroke-linejoin="round"/>
<path d="M117.846 63.1348C120.472 65.2576 122.486 68.0425 123.678 71.2024" stroke="#263238" stroke-linecap="round" stroke-linejoin="round"/>
<path d="M87.5137 73.1406C88.2666 70.2438 89.6931 67.5658 91.677 65.3246C93.6608 63.0834 96.1459 61.3424 98.93 60.2435C101.714 59.1445 104.718 58.7186 107.698 59.0005C110.678 59.2823 113.549 60.264 116.078 61.8654" stroke="#263238" stroke-linecap="round" stroke-linejoin="round"/>
<path d="M93.4293 92.2432C90.0029 89.2685 87.7605 85.1608 87.1113 80.6699" stroke="#263238" stroke-linecap="round" stroke-linejoin="round"/>
<path d="M105.165 96.9084C101.699 96.7698 98.3368 95.6828 95.4453 93.7656" stroke="#263238" stroke-linecap="round" stroke-linejoin="round"/>
<path d="M124.709 75.168C125.439 80.1544 124.159 85.2267 121.15 89.2696C118.142 93.3125 113.65 95.9949 108.664 96.7269" stroke="#263238" stroke-linecap="round" stroke-linejoin="round"/>
<path d="M57.8091 138.398L81.6675 143.023L78.8887 157.356C78.8345 157.636 78.6715 157.882 78.4354 158.042C78.1994 158.201 77.9098 158.26 77.6302 158.206L55.8737 153.988C55.5941 153.934 55.3475 153.771 55.1882 153.535C55.0288 153.299 54.9697 153.009 55.0239 152.729L57.8027 138.396L57.8091 138.398Z" stroke="#263238" stroke-width="0.998248" stroke-linecap="round" stroke-linejoin="round"/>
<path d="M82.498 143.35L57.3838 138.509L58.1196 134.691C58.1736 134.411 58.3367 134.164 58.573 134.004C58.8092 133.844 59.0993 133.784 59.3795 133.838L82.4067 138.277C82.6779 138.336 82.9158 138.498 83.0706 138.728C83.2254 138.958 83.2853 139.239 83.2376 139.513L82.5017 143.331L82.498 143.35Z" stroke="#263238" stroke-linecap="round" stroke-linejoin="round"/>
<path d="M72.62 136.37L69.2031 135.711L65.2883 156.021L68.7052 156.68L72.62 136.37Z" stroke="#263238" stroke-linecap="round" stroke-linejoin="round"/>
<path d="M70.9102 136.042C70.9102 136.042 76.8394 131.713 79.5804 133.022C82.3214 134.331 80.9671 137.979 79.5804 137.714" stroke="#263238" stroke-linecap="round" stroke-linejoin="round"/>
<path d="M73.2578 136.488C73.2578 136.488 78.0789 134.09 78.7788 135.192C79.4786 136.293 77.3985 137.311 75.798 137" stroke="#263238" stroke-linecap="round" stroke-linejoin="round"/>
<path d="M71.0723 135.743C71.0723 135.743 73.5735 131.207 73.2495 129.742H74.9149C74.9149 129.742 75.4592 131.466 73.5152 134.414" stroke="#263238" stroke-linecap="round" stroke-linejoin="round"/>
<path d="M70.9113 136.04C70.9113 136.04 67.0233 129.82 63.9842 130.02C60.9451 130.221 60.8608 134.103 62.2411 134.368" stroke="#263238" stroke-linecap="round" stroke-linejoin="round"/>
<path d="M68.5654 135.587C68.5654 135.587 64.9819 131.563 63.9257 132.314C62.8695 133.066 64.4247 134.79 66.0252 135.094" stroke="#263238" stroke-linecap="round" stroke-linejoin="round"/>
<path d="M70.8725 135.704C70.8725 135.704 70.2245 130.552 71.0864 129.328L69.5312 128.68C69.5312 128.68 68.3907 130.079 69.1035 133.54" stroke="#263238" stroke-linecap="round" stroke-linejoin="round"/>
<path d="M88.5566 128.758C91.2281 132.133 92.9525 136.159 93.5527 140.422" stroke="#263238" stroke-linecap="round" stroke-linejoin="round"/>
<path d="M47.9531 132.646C49.7092 129.251 52.2423 126.319 55.3462 124.088C58.45 121.858 62.0369 120.392 65.8146 119.81C69.5922 119.228 73.4539 119.547 77.085 120.741C80.7161 121.934 84.014 123.968 86.71 126.678" stroke="#263238" stroke-linecap="round" stroke-linejoin="round"/>
<path d="M49.8965 158.112C46.4725 153.437 44.84 147.689 45.2957 141.912" stroke="#263238" stroke-linecap="round" stroke-linejoin="round"/>
<path d="M63.2252 167.23C58.9368 166.084 55.0469 163.78 51.9824 160.568" stroke="#263238" stroke-linecap="round" stroke-linejoin="round"/>
<path d="M93.7077 145.67C93.2097 152.086 90.1835 158.042 85.2947 162.227C80.4059 166.412 74.055 168.484 67.6387 167.987" stroke="#263238" stroke-linecap="round" stroke-linejoin="round"/>
<path d="M189.689 81.0589L187.654 80.0221C187.956 79.1286 188.058 78.1795 187.952 77.2422C188.6 77.5532 189.287 77.8902 189.896 78.1688C189.864 79.0047 189.812 79.9897 189.689 81.0589Z" stroke="#263238" stroke-linecap="round" stroke-linejoin="round"/>
<path d="M192.651 79.5048C193.296 79.8335 193.986 80.065 194.699 80.1917C195.446 84.176 194.86 88.2952 193.034 91.914C192.509 92.9378 186.994 90.1126 187.513 89.0887C188.694 86.5574 189.431 83.8414 189.69 81.06C189.813 79.9908 189.885 79.0058 189.917 78.1699C191.07 78.7142 192.081 79.2132 192.651 79.5048Z" stroke="#263238" stroke-linecap="round" stroke-linejoin="round"/>
<path d="M199.227 66.6538C200.766 67.4408 201.971 68.7537 202.624 70.3539C203.276 71.9542 203.333 73.7355 202.784 75.3742C202.235 77.0129 201.116 78.4002 199.631 79.284C198.146 80.1678 196.393 80.4895 194.691 80.1905C193.978 80.0638 193.288 79.8324 192.643 79.5036C192.073 79.212 191.062 78.7131 189.909 78.1688C189.261 77.8642 188.613 77.5531 187.965 77.2421C186.371 76.5099 184.828 75.836 184.031 75.5768L191.004 61.9688C192.455 63.0315 197.594 65.8179 199.227 66.6538Z" stroke="#263238" stroke-linecap="round" stroke-linejoin="round"/>
<path d="M184.234 55.5273C186.187 57.9643 188.46 60.1265 190.992 61.9554L184.02 75.5634C181.053 74.5916 177.969 74.0227 174.851 73.8721L172.148 73.7296L182.516 53.4277L184.234 55.5273Z" stroke="#263238" stroke-linecap="round" stroke-linejoin="round"/>
<path d="M169.005 74.2932L181.161 50.544C181.255 50.3647 181.416 50.2295 181.609 50.1677C181.801 50.1059 182.011 50.1223 182.191 50.2135L183.086 50.6736C183.266 50.7664 183.403 50.9267 183.466 51.1196C183.529 51.3124 183.513 51.5224 183.423 51.7039L182.535 53.4341L172.167 73.7359L171.286 75.4661C171.24 75.5555 171.177 75.6349 171.1 75.6999C171.023 75.7649 170.935 75.8142 170.839 75.8449C170.743 75.8756 170.642 75.8871 170.542 75.8788C170.442 75.8705 170.345 75.8426 170.255 75.7966L169.355 75.3365C169.261 75.2931 169.178 75.2311 169.109 75.1544C169.04 75.0776 168.988 74.9877 168.955 74.8901C168.923 74.7924 168.91 74.6892 168.919 74.5865C168.927 74.4839 168.956 74.3841 169.005 74.2932Z" stroke="#263238" stroke-linecap="round" stroke-linejoin="round"/>
<path d="M169.369 59.4874L164.684 57.0898" stroke="#263238" stroke-linecap="round" stroke-linejoin="round"/>
<path d="M174.857 51.9699L171.902 46.7988" stroke="#263238" stroke-linecap="round" stroke-linejoin="round"/>
<path d="M166.485 68.332L160.568 68.9606" stroke="#263238" stroke-linecap="round" stroke-linejoin="round"/>
<path d="M205.649 45.9643C201.559 42.1757 196.529 39.5512 191.082 38.3633" stroke="#263238" stroke-linecap="round" stroke-linejoin="round"/>
<path d="M196.578 97.8487C201.123 95.9252 205.149 92.9562 208.329 89.1831C211.509 85.4101 213.754 80.9395 214.881 76.1352C216.007 71.3308 215.984 66.3284 214.812 61.5348C213.641 56.7412 211.354 52.2919 208.138 48.5488" stroke="#263238" stroke-linecap="round" stroke-linejoin="round"/>
<path d="M163.977 92.7871C169.652 97.6655 176.892 100.342 184.376 100.33" stroke="#263238" stroke-linecap="round" stroke-linejoin="round"/>
<path d="M153.576 74.7402C154.623 80.3796 157.204 85.6214 161.035 89.8905" stroke="#263238" stroke-linecap="round" stroke-linejoin="round"/>
<path d="M184.376 37.6367C176.061 37.6367 168.087 40.9397 162.208 46.819C156.328 52.6983 153.025 60.6724 153.025 68.987" stroke="#263238" stroke-linecap="round" stroke-linejoin="round"/>
<path d="M128.855 119.459C126.224 117.107 123.496 118.163 122.103 118.96C121.824 117.366 120.807 114.618 117.333 114.152C113.536 113.646 110.426 117.346 111.443 122.504C112.182 126.217 114.554 129.632 115.824 131.22C115.973 131.414 116.115 131.583 116.232 131.719H116.88C118.927 131.635 123.049 131.226 126.341 129.373C130.896 126.781 131.706 122.012 128.855 119.459Z" stroke="#263238" stroke-linecap="round" stroke-linejoin="round"/>
<path d="M114.081 134.137C114.081 134.137 113.906 134.454 113.666 135.012" stroke="#263238" stroke-linecap="round" stroke-linejoin="round"/>
<path d="M113.006 136.818C111.969 140.207 111.256 146.013 116.777 149.532C130.424 158.235 135.018 137.706 124.553 139.553C117.367 140.849 124.968 159.842 136.217 156.012" stroke="#263238" stroke-linecap="round" stroke-linejoin="round" stroke-dasharray="2.98 2.98"/>
<path d="M137.156 155.656C137.441 155.527 137.733 155.384 138.025 155.229" stroke="#263238" stroke-linecap="round" stroke-linejoin="round"/>
<path d="M120.326 281.077C120.326 281.077 112.622 286.319 109.518 285.969C109.177 285.952 108.853 285.814 108.604 285.58C106.582 283.494 104.956 279.826 104.956 279.826C104.956 279.826 105.921 278.491 108.896 282.036L110.781 280.306L106.893 276.379C106.893 276.379 109.09 274.636 112.823 276.858C112.693 276.586 110.289 271.35 112.103 264.222L103.031 255.468L111.079 248.456L111.727 247.912C111.727 247.912 112.233 248.411 113.023 249.208C113.814 250.005 114.909 250.964 116.095 252.007C118.933 254.502 122.368 257.191 123.871 257.191C126.58 257.101 120.326 281.077 120.326 281.077Z" fill="white"/>
<mask id="mask0_499_16581" style="mask-type:luminance" maskUnits="userSpaceOnUse" x="103" y="247" width="22" height="39">
<path d="M120.326 281.077C120.326 281.077 112.622 286.319 109.518 285.969C109.177 285.952 108.853 285.814 108.604 285.58C106.582 283.494 104.956 279.826 104.956 279.826C104.956 279.826 105.921 278.491 108.896 282.036L110.781 280.306L106.893 276.379C106.893 276.379 109.09 274.636 112.823 276.858C112.693 276.586 110.289 271.35 112.103 264.222L103.031 255.468L111.079 248.456L111.727 247.912C111.727 247.912 112.233 248.411 113.023 249.208C113.814 250.005 114.909 250.964 116.095 252.007C118.933 254.502 122.368 257.191 123.871 257.191C126.58 257.101 120.326 281.077 120.326 281.077Z" fill="white"/>
</mask>
<g mask="url(#mask0_499_16581)">
<path opacity="0.4" d="M114.371 277.643C114.371 277.643 109.978 282.179 109.518 285.97C109.177 285.952 108.853 285.814 108.604 285.581C106.582 283.494 104.956 279.827 104.956 279.827C104.956 279.827 105.921 278.492 108.896 282.036L110.781 280.306L106.893 276.379C106.893 276.379 109.09 274.636 112.823 276.859C112.693 276.587 110.289 271.351 112.103 264.223L103.031 255.468L111.079 248.457L113.023 249.189C113.82 249.941 114.909 250.945 116.095 251.989C114.391 254.483 110.742 259.648 110.742 259.648L113.898 263.925C113.898 263.925 111.954 274.707 114.371 277.643Z" fill="#92E3A9"/>
</g>
<path d="M120.326 281.077C120.326 281.077 112.622 286.319 109.518 285.969C109.177 285.952 108.853 285.814 108.604 285.58C106.582 283.494 104.956 279.826 104.956 279.826C104.956 279.826 105.921 278.491 108.896 282.036L110.781 280.306L106.893 276.379C106.893 276.379 109.09 274.636 112.823 276.858C112.693 276.586 110.289 271.35 112.103 264.222L103.031 255.468L111.079 248.456L111.727 247.912C111.727 247.912 112.233 248.411 113.023 249.208C113.814 250.005 114.909 250.964 116.095 252.007C118.933 254.502 122.368 257.191 123.871 257.191C126.58 257.101 120.326 281.077 120.326 281.077Z" stroke="#263238" stroke-linecap="round" stroke-linejoin="round"/>
<path d="M110.809 280.306C111.236 279.03 111.927 277.857 112.837 276.865" stroke="#263238" stroke-linecap="round" stroke-linejoin="round"/>
<path d="M254.527 220.048C253.312 221.821 251.842 223.406 250.166 224.752C236.001 236.481 203.342 242.248 203.342 242.248C203.342 242.248 202.247 243.888 200.562 246.22C197.542 250.413 192.598 256.854 188.567 260.081C186.863 261.448 185.327 262.239 184.154 262.025L190.285 284.66L193.026 294.483C193.026 294.483 164.864 306.795 116.698 292.721C116.698 292.721 116.147 286.435 116.555 285.094C116.555 285.029 116.594 284.964 116.62 284.893C117.11 284 117.75 283.198 118.512 282.521C118.512 282.521 118.24 278.478 118.104 274.363C117.948 271.74 117.981 269.109 118.201 266.49C118.544 264.416 120.061 259.401 120.825 256.938L121.273 255.506L118.875 233.06L118.188 226.58L118.149 226.243C118.149 226.197 118.149 226.145 118.149 226.081L117.773 222.614L105.384 226.398C105.384 226.398 106.032 227.85 106.926 229.884C108.552 233.61 110.943 239.28 111.462 241.548C111.501 241.733 111.553 241.915 111.617 242.093C112.764 245.365 117.132 248.339 117.132 248.339L105.397 262.051L101.93 259.628C101.486 259.956 101.018 260.251 100.53 260.509C98.2491 261.746 93.4669 263.567 88.2181 260.787C85.9436 259.509 83.9685 257.759 82.425 255.655C73.2234 243.706 69.2187 233.928 70.5212 222.478C71.8237 211.028 123.353 175.692 133.578 176.061L148.787 179.418C149.117 179.146 150.005 178.446 150.692 178.478C153.459 178.621 153.53 181.835 153.53 181.835L187.615 187.369C187.615 187.369 191.146 185.6 191.762 185.626C192.207 185.656 192.638 185.797 193.015 186.036C193.391 186.274 193.703 186.604 193.92 186.993C193.92 186.993 202.746 181.706 205.584 182.937C214.928 186.967 261.428 209.563 254.527 220.048Z" fill="#92E3A9"/>
<path opacity="0.2" d="M136.112 276.049C132.239 280.306 127.038 283.127 121.357 284.052C119.562 284.337 117.988 284.622 116.607 284.907C117.098 284.014 117.738 283.212 118.5 282.535C118.5 282.535 118.227 278.492 118.091 274.377C122.09 277.014 129.062 280.06 136.112 276.049Z" fill="black"/>
<path opacity="0.2" d="M120.814 256.971L121.261 255.539L118.863 233.092C122.447 238.23 135.225 255.733 144.032 257.625C153.24 259.595 128.622 263.088 120.814 256.971Z" fill="black"/>
<path opacity="0.2" d="M190.271 284.692C180.649 283.597 167.047 281.173 165.686 276.138C163.567 268.272 173.877 263.554 188.567 260.113C186.863 261.481 185.327 262.271 184.154 262.057L190.271 284.692Z" fill="black"/>
<path opacity="0.2" d="M250.159 224.759C235.994 236.488 203.335 242.255 203.335 242.255C203.335 242.255 202.24 243.895 200.555 246.227C195.75 234.755 195.016 221.984 198.475 210.037C198.475 210.037 200.989 223.645 211.435 226.885C211.435 226.885 203.439 220.929 206.251 206.596C206.251 206.596 208.979 223.444 226.728 228.122C235.34 230.436 243.77 227.921 250.159 224.759Z" fill="black"/>
<path opacity="0.2" d="M118.136 226.288L117.747 222.659L105.357 226.444C105.357 226.444 106.005 227.895 106.9 229.93C102.163 229.444 93.175 233.818 91.6069 229.049C89.7147 223.269 101.327 225.258 101.327 225.258L112.304 218.875C110.23 209.998 115.512 203.323 115.512 203.323L116.516 209.518C116.996 197.744 121.603 191.303 121.603 191.303C117.793 200.614 117.896 223.56 118.136 226.288Z" fill="black"/>
<path opacity="0.2" d="M117.127 248.359L105.391 262.071L101.925 259.647C101.481 259.976 101.013 260.27 100.525 260.528C98.2439 261.766 93.4617 263.587 88.2129 260.807C92.0167 255.545 99.8769 247.802 109.215 244.814C106.922 248.226 104.857 251.785 103.033 255.468L105.443 257.839C105.443 257.839 111.457 250.983 117.127 248.359Z" fill="black"/>
<path opacity="0.2" d="M145.618 187.965C145.618 189.177 144.854 202.869 154.833 206.517C164.812 210.165 173.664 203.996 173.664 203.996C173.664 203.996 158.364 218.758 149.04 210.865C139.715 202.973 145.618 187.965 145.618 187.965Z" fill="black"/>
<path d="M116.679 292.748C116.679 292.748 116.141 286.462 116.543 285.127C116.88 284 118.487 282.535 118.487 282.535C118.487 282.535 117.638 269.796 118.182 266.51C118.649 263.691 121.254 255.494 121.254 255.494L117.741 222.615L105.352 226.406C105.352 226.406 110.626 238.07 111.443 241.53C112.259 244.99 117.119 248.314 117.119 248.314L105.384 262.02L101.917 259.603C101.917 259.603 91.6788 267.612 82.4318 255.637C73.1849 243.662 69.2126 233.909 70.5086 222.427C71.8046 210.944 123.353 175.648 133.578 176.011L148.787 179.374C149.111 179.102 150.005 178.402 150.686 178.434C153.453 178.577 153.524 181.791 153.524 181.791L187.609 187.325C187.609 187.325 191.147 185.556 191.762 185.582C192.206 185.613 192.636 185.754 193.011 185.993C193.387 186.231 193.697 186.56 193.914 186.949C193.914 186.949 202.74 181.668 205.578 182.892C214.909 186.923 261.403 209.519 254.508 220.003C244.717 234.907 203.316 242.236 203.316 242.236C203.316 242.236 189.546 262.972 184.122 262.013L192.994 294.471" stroke="#263238" stroke-linecap="round" stroke-linejoin="round"/>
<path d="M218.506 222.322C234.149 232.651 246.759 230.746 256.628 217.449C256.628 217.449 264.845 206.854 264.261 195.417C263.678 183.98 260.95 146.72 225.342 156.245C219.478 157.813 205.799 176.132 204.652 181.167C204.12 183.468 198.632 195.177 193.299 207.301" fill="#92E3A9"/>
<path d="M218.506 222.322C234.149 232.651 246.759 230.746 256.628 217.449C256.628 217.449 264.845 206.854 264.261 195.417C263.678 183.98 260.95 146.72 225.342 156.245C219.478 157.813 205.799 176.132 204.652 181.167C204.12 183.468 198.632 195.177 193.299 207.301" stroke="#263238" stroke-linecap="round" stroke-linejoin="round"/>
<path d="M176.185 112.855C176.185 112.855 186.151 111.345 193.072 117.54C201.826 125.375 211.657 146.499 197.66 181.504C197.66 181.504 176.982 167.78 141.692 176.968C141.692 176.968 144.731 168.758 139.398 142.909C136.988 131.213 143.053 104.269 176.185 112.855Z" fill="#263238"/>
<path d="M161.08 200.698C175.829 203.089 191.497 186.759 191.497 186.759C191.497 186.759 183.481 185.774 182.762 182.009C180.462 170.132 189.715 155.441 189.715 155.441C189.715 155.441 153.907 156.433 160.166 164.513C161.331 165.992 162.284 167.625 162.998 169.367C165.169 174.7 163.646 178.724 162.512 179.735C162.43 179.802 162.341 179.861 162.246 179.91C160.082 180.895 151.185 179.424 151.185 179.424C151.185 179.424 147.621 198.514 161.08 200.698Z" fill="white" stroke="#263238" stroke-linecap="round" stroke-linejoin="round"/>
<path d="M186.424 191.283C186.424 191.283 179.62 194.005 169.66 193.195L165.176 195.392" stroke="#263238" stroke-linecap="round" stroke-linejoin="round"/>
<path d="M160.705 195.047L160.381 192.105C160.381 192.105 153.032 189.805 150.758 185.438" stroke="#263238" stroke-linecap="round" stroke-linejoin="round"/>
<path d="M162.512 179.755C173.476 182.62 178.627 168.558 178.627 168.558C178.627 168.558 169.854 165.966 162.998 169.413C165.169 174.746 163.665 178.771 162.512 179.755Z" fill="#263238"/>
<path d="M190.351 148.062C193.014 133.087 190.053 115.118 167.256 116.608C150.972 117.671 151.108 135.524 152.183 140.857C153.998 149.818 151.399 153.344 154.192 160.873C156.201 166.284 160.86 172.336 166.349 174.604C169.725 175.998 183.391 166.407 184.402 162.02" fill="white"/>
<path d="M190.351 148.062C193.014 133.087 190.053 115.118 167.256 116.608C150.972 117.671 151.108 135.524 152.183 140.857C153.998 149.818 151.399 153.344 154.192 160.873C156.201 166.284 160.86 172.336 166.349 174.604C169.725 175.998 183.391 166.407 184.402 162.02" stroke="#263238" stroke-linecap="round" stroke-linejoin="round"/>
<path d="M161.709 143.648C161.573 145.333 161.372 149.48 157.821 152.565C155.514 154.554 160.802 156.589 160.802 156.589" stroke="#263238" stroke-linecap="round" stroke-linejoin="round"/>
<path d="M157.924 137.706C157.924 137.706 152.896 135.256 149.5 139.3" stroke="#263238" stroke-linecap="round" stroke-linejoin="round"/>
<path d="M166.361 137.376C169.897 136.351 173.669 136.501 177.112 137.803" stroke="#263238" stroke-linecap="round" stroke-linejoin="round"/>
<path d="M171.584 144.459C171.739 145.904 172.711 146.987 173.754 146.87C174.798 146.753 175.517 145.496 175.361 144.051C175.206 142.606 174.234 141.53 173.191 141.641C172.147 141.751 171.428 143.014 171.584 144.459Z" fill="#263238"/>
<path d="M161.047 161.352C165.045 160.801 168.878 159.4 172.29 157.244C172.29 157.244 172.763 163.53 167.501 164.832C163.464 165.837 161.902 161.229 161.902 161.229" stroke="#263238" stroke-linecap="round" stroke-linejoin="round"/>
<path d="M175.834 122.31C175.834 122.31 174.395 140.059 190.057 146.507L197.399 129.445L186.292 117.133L169.567 112.299C144.574 113.861 133.817 129.387 147.691 170.761C147.691 170.781 143.809 121.507 175.834 122.31Z" fill="#263238"/>
<path d="M186.624 147.258C186.404 145.262 191.452 140.182 193.156 143.442C196.066 149.001 193.947 153.81 190.94 155.754C189.592 156.602 187.881 158.197 186.682 156.693" fill="white"/>
<path d="M186.624 147.258C186.404 145.262 191.452 140.182 193.156 143.442C196.066 149.001 193.947 153.81 190.94 155.754C189.592 156.602 187.881 158.197 186.682 156.693" stroke="#263238" stroke-linecap="round" stroke-linejoin="round"/>
<path d="M156.329 145.152C156.491 146.597 157.463 147.679 158.507 147.562C159.55 147.446 160.269 146.188 160.114 144.743C159.958 143.298 158.98 142.216 157.936 142.333C156.893 142.449 156.167 143.674 156.329 145.152Z" fill="#263238"/>
<g opacity="0.2">
<path d="M145.477 142.209C145.289 143.408 145.159 144.626 145.088 145.838" stroke="white" stroke-linecap="round" stroke-linejoin="round"/>
<path d="M173.243 119.082C160.581 118.752 148.814 126.819 146.027 139.488" stroke="white" stroke-linecap="round" stroke-linejoin="round"/>
<path d="M170.982 115.467C170.982 115.467 152.722 111.17 145.879 123.281" stroke="white" stroke-linecap="round" stroke-linejoin="round"/>
<path d="M185.795 136.566C186.896 138.134 188.221 139.531 189.728 140.714" stroke="white" stroke-linecap="round" stroke-linejoin="round"/>
<path d="M178.551 117.832C179.484 123.633 181.446 129.22 184.344 134.33" stroke="white" stroke-linecap="round" stroke-linejoin="round"/>
<path d="M196.896 172.756C196.572 174.207 196.189 175.646 195.762 177.072" stroke="white" stroke-linecap="round" stroke-linejoin="round"/>
<path d="M195.84 148.625C198.801 155.202 198.6 163.386 197.382 170.307" stroke="white" stroke-linecap="round" stroke-linejoin="round"/>
<path d="M193.669 160.055C193.814 162.546 193.429 165.039 192.541 167.371C191.654 169.703 190.282 171.821 188.518 173.585" stroke="white" stroke-linecap="round" stroke-linejoin="round"/>
<path d="M185.25 119.951C188.354 124.15 190.661 128.654 194.257 132.49C198.048 136.527 201.839 141.154 202.552 146.843" stroke="white" stroke-linecap="round" stroke-linejoin="round"/>
<path d="M180.871 115.584C181.76 116.167 182.578 116.852 183.308 117.625" stroke="white" stroke-linecap="round" stroke-linejoin="round"/>
</g>
<path d="M243.33 213.029C242.967 213.107 242.605 213.172 242.229 213.224C232.431 214.623 221.441 206.497 217.734 196.745C214.805 189.04 217.365 180.299 218.765 176.56C219.205 175.387 219.523 174.706 219.523 174.706C225.433 166.282 259.79 182.774 260.191 191.872C260.593 200.97 253.368 210.826 243.33 213.029Z" fill="#263238" stroke="#263238" stroke-linecap="round" stroke-linejoin="round"/>
<path d="M254.081 193.103C254.081 193.103 252.137 207.567 242.229 213.224C232.431 214.623 221.441 206.497 217.734 196.745C214.805 189.04 217.365 180.299 218.765 176.56C230.344 169.944 254.081 193.103 254.081 193.103Z" fill="white"/>
<mask id="mask1_499_16581" style="mask-type:luminance" maskUnits="userSpaceOnUse" x="216" y="175" width="39" height="39">
<path d="M254.081 193.103C254.081 193.103 252.137 207.567 242.229 213.224C232.431 214.623 221.441 206.497 217.734 196.745C214.805 189.04 217.365 180.299 218.765 176.56C230.344 169.944 254.081 193.103 254.081 193.103Z" fill="white"/>
</mask>
<g mask="url(#mask1_499_16581)">
<path opacity="0.4" d="M254.081 193.103C254.081 193.103 252.137 207.567 242.229 213.224C232.431 214.623 221.441 206.497 217.734 196.745C214.805 189.04 217.365 180.299 218.765 176.56C230.344 169.944 254.081 193.103 254.081 193.103Z" fill="#92E3A9"/>
</g>
<path d="M254.081 193.103C254.081 193.103 252.137 207.567 242.229 213.224C232.431 214.623 221.441 206.497 217.734 196.745C214.805 189.04 217.365 180.299 218.765 176.56C230.344 169.944 254.081 193.103 254.081 193.103Z" stroke="#263238" stroke-linecap="round" stroke-linejoin="round"/>
<path d="M213.561 200.718C213.561 200.718 224.719 216.737 237.75 218.071C250.782 219.406 259.134 208.429 259.646 200.154" stroke="#263238" stroke-linecap="round" stroke-linejoin="round"/>
<path d="M207.289 128.433C208.268 125.692 215.305 126.612 217.54 135.166C219.776 143.72 228.556 164.514 228.556 164.514C228.556 164.514 263.548 113.056 269.795 111.073C276.042 109.09 273.586 118.007 265.207 130.377C265.207 130.377 273.055 128.997 275.115 130.377C277.176 131.757 276.171 140.097 277.267 142.987C279.107 147.867 275.018 148.897 275.018 148.897C277.024 148.942 278.953 149.677 280.481 150.977C282.729 153.083 281.602 161.786 282.243 164.248C282.885 166.711 278.595 168.784 278.595 168.784C278.595 168.784 288.905 174.402 286.578 175.815C282.651 178.187 280.416 175.757 280.416 175.757C280.416 175.757 264.572 195.65 252.623 200.083C240.674 204.515 217.417 186.902 214.916 177.312C212.415 167.721 215.402 168.311 213.503 152.351C211.605 136.391 207.289 128.433 207.289 128.433Z" fill="white" stroke="#263238" stroke-linecap="round" stroke-linejoin="round"/>
<path d="M258.305 96.8158L212.229 108.826C210.595 109.252 209.615 110.923 210.041 112.557L231.821 196.111C232.247 197.746 233.917 198.726 235.552 198.299L281.627 186.289C283.262 185.863 284.242 184.193 283.816 182.558L262.036 99.004C261.61 97.3694 259.939 96.3898 258.305 96.8158Z" fill="white" stroke="#263238" stroke-linecap="round" stroke-linejoin="round"/>
<path d="M231.905 106.421C231.93 106.516 231.936 106.614 231.922 106.712C231.909 106.809 231.876 106.902 231.827 106.987C231.777 107.071 231.711 107.145 231.633 107.204C231.555 107.263 231.466 107.306 231.371 107.331C231.276 107.356 231.177 107.362 231.08 107.348C230.983 107.335 230.889 107.302 230.805 107.252C230.72 107.203 230.646 107.137 230.587 107.059C230.528 106.981 230.485 106.891 230.46 106.797C230.434 106.702 230.427 106.602 230.44 106.505C230.452 106.407 230.484 106.313 230.534 106.228C230.583 106.143 230.649 106.068 230.728 106.009C230.807 105.95 230.896 105.907 230.992 105.883C231.184 105.834 231.388 105.862 231.56 105.963C231.731 106.064 231.855 106.229 231.905 106.421Z" fill="#92E3A9" stroke="#263238" stroke-linecap="round" stroke-linejoin="round"/>
<path d="M241.398 103.946C241.414 104.006 241.418 104.068 241.409 104.129C241.401 104.19 241.38 104.249 241.349 104.302C241.317 104.355 241.276 104.401 241.227 104.438C241.177 104.475 241.121 104.501 241.061 104.517C240.972 104.539 240.878 104.535 240.791 104.504C240.704 104.473 240.629 104.418 240.573 104.344C240.518 104.27 240.486 104.182 240.481 104.09C240.476 103.998 240.498 103.906 240.545 103.827C240.592 103.748 240.662 103.684 240.745 103.644C240.827 103.604 240.92 103.589 241.012 103.602C241.103 103.615 241.188 103.654 241.257 103.716C241.326 103.777 241.375 103.857 241.398 103.946Z" fill="#92E3A9" stroke="#263238" stroke-linecap="round" stroke-linejoin="round"/>
<path d="M239.131 105.114L233.568 106.548C233.457 106.576 233.39 106.69 233.419 106.801L233.448 106.914C233.477 107.025 233.59 107.092 233.701 107.063L239.264 105.629C239.375 105.601 239.442 105.488 239.413 105.377L239.384 105.263C239.355 105.152 239.242 105.085 239.131 105.114Z" fill="#92E3A9" stroke="#263238" stroke-width="1.0017" stroke-linecap="round" stroke-linejoin="round"/>
<path d="M260.652 99.8705L282.25 182.737C282.37 183.202 282.301 183.695 282.059 184.109C281.816 184.524 281.418 184.825 280.954 184.946L235.471 196.798C235.006 196.919 234.512 196.85 234.098 196.607C233.684 196.364 233.383 195.967 233.261 195.502L211.663 112.636C211.543 112.171 211.612 111.678 211.855 111.263C212.098 110.849 212.495 110.548 212.959 110.426L222.297 107.99C222.597 107.911 222.913 107.926 223.204 108.033C223.495 108.139 223.746 108.333 223.924 108.586L224.604 109.552C224.782 109.805 225.033 109.998 225.324 110.105C225.614 110.211 225.931 110.226 226.23 110.148L246.727 104.808C247.023 104.731 247.289 104.566 247.491 104.334C247.692 104.103 247.818 103.817 247.854 103.512L247.977 102.339C248.011 102.034 248.137 101.747 248.339 101.515C248.54 101.284 248.807 101.119 249.105 101.043L258.442 98.6069C258.903 98.4854 259.393 98.5498 259.806 98.7862C260.219 99.0226 260.523 99.4121 260.652 99.8705Z" fill="#92E3A9" stroke="#263238" stroke-linecap="round" stroke-linejoin="round"/>
<path d="M262.235 146.37C266.461 136.637 261.997 125.32 252.264 121.094C242.53 116.868 231.214 121.332 226.988 131.066C222.762 140.799 227.226 152.115 236.96 156.341C246.693 160.568 258.009 156.103 262.235 146.37Z" fill="white" stroke="#263238" stroke-linecap="round" stroke-linejoin="round"/>
<path d="M236.675 149.753C236.839 150.139 237.141 150.451 237.521 150.628C237.902 150.805 238.335 150.835 238.736 150.712L245.054 148.891C245.068 149.027 245.094 149.161 245.132 149.293C245.227 149.623 245.387 149.931 245.602 150.199C245.817 150.468 246.082 150.691 246.384 150.857C246.685 151.023 247.016 151.127 247.357 151.165C247.699 151.203 248.045 151.173 248.375 151.078C248.705 150.982 249.013 150.822 249.282 150.607C249.55 150.393 249.773 150.127 249.939 149.826C250.105 149.525 250.21 149.194 250.248 148.852C250.286 148.51 250.256 148.165 250.16 147.835C250.12 147.704 250.07 147.576 250.011 147.452L256.323 145.631C256.735 145.521 257.091 145.26 257.32 144.9C257.549 144.54 257.635 144.107 257.56 143.687C257.52 143.459 257.433 143.241 257.303 143.049C257.173 142.857 257.004 142.694 256.807 142.572C256.61 142.45 256.39 142.37 256.16 142.339C255.93 142.308 255.696 142.326 255.474 142.391L254.942 142.067C253.791 141.379 252.943 140.279 252.571 138.989L251.372 134.836C250.878 133.125 249.782 131.651 248.286 130.686C246.79 129.721 244.995 129.331 243.233 129.587C243.536 129.268 243.725 128.858 243.771 128.421C243.817 127.983 243.719 127.543 243.49 127.168C243.261 126.792 242.915 126.502 242.505 126.343C242.095 126.184 241.644 126.164 241.222 126.286C240.8 126.409 240.43 126.667 240.169 127.021C239.907 127.374 239.77 127.804 239.778 128.244C239.785 128.684 239.938 129.109 240.211 129.453C240.484 129.798 240.863 130.043 241.289 130.151C239.646 130.868 238.321 132.161 237.562 133.785C236.803 135.41 236.663 137.256 237.168 138.976L238.38 143.175C238.595 143.909 238.649 144.681 238.537 145.437C238.425 146.193 238.15 146.916 237.732 147.556C237.512 147.622 237.309 147.733 237.135 147.882C236.96 148.031 236.819 148.215 236.72 148.422C236.621 148.628 236.565 148.853 236.558 149.082C236.55 149.312 236.59 149.54 236.675 149.753ZM242.903 127.941C242.967 128.163 242.963 128.398 242.893 128.618C242.823 128.838 242.69 129.032 242.51 129.176C242.329 129.32 242.111 129.407 241.881 129.426C241.651 129.446 241.42 129.397 241.219 129.286C241.017 129.174 240.852 129.005 240.746 128.801C240.64 128.596 240.597 128.364 240.623 128.135C240.648 127.906 240.741 127.689 240.89 127.513C241.038 127.336 241.236 127.208 241.458 127.144C241.605 127.1 241.759 127.086 241.912 127.103C242.064 127.12 242.212 127.166 242.347 127.241C242.481 127.315 242.599 127.415 242.695 127.535C242.79 127.655 242.861 127.793 242.903 127.941Z" fill="#92E3A9" stroke="#263238" stroke-linecap="round" stroke-linejoin="round"/>
<path d="M248.865 147.557L246.078 148.367" stroke="#263238" stroke-linecap="round" stroke-linejoin="round"/>
<path d="M252.985 143.098L240.213 146.791" stroke="#263238" stroke-linecap="round" stroke-linejoin="round"/>
<path d="M266.328 168.908L240.408 175.661C239.667 175.856 238.894 175.903 238.135 175.8C237.375 175.697 236.644 175.445 235.982 175.058C235.32 174.672 234.74 174.159 234.277 173.548C233.813 172.938 233.475 172.242 233.28 171.5C233.085 170.759 233.038 169.986 233.142 169.226C233.245 168.466 233.498 167.734 233.885 167.072C234.272 166.41 234.786 165.831 235.397 165.368C236.008 164.904 236.705 164.566 237.447 164.372L263.367 157.62C264.859 157.235 266.443 157.457 267.773 158.237C269.102 159.016 270.069 160.29 270.462 161.78C270.858 163.274 270.645 164.863 269.87 166.2C269.095 167.536 267.821 168.51 266.328 168.908Z" fill="#263238"/>
<path d="M203.336 242.28C203.336 242.28 195.469 223.974 199.448 201.773" stroke="#263238" stroke-linecap="round" stroke-linejoin="round"/>
<path d="M184.142 262.059C184.142 262.059 168.24 266.919 166.646 270.58C165.052 274.241 173.774 271.157 173.774 271.157" stroke="#263238" stroke-linecap="round" stroke-linejoin="round"/>
<path d="M193.921 186.994C193.921 186.994 179.276 201.509 169.479 205.378" stroke="#263238" stroke-linecap="round" stroke-linejoin="round"/>
<path d="M145.937 183.092C145.937 183.092 143.267 202.687 153.227 206.387" stroke="#263238" stroke-linecap="round" stroke-linejoin="round"/>
<path d="M117.748 222.659C117.748 222.659 117.67 196.972 122.77 189.027" stroke="#263238" stroke-linecap="round" stroke-linejoin="round"/>
<path d="M115.843 196.486C115.843 196.486 114.411 212.44 117.631 217.644" stroke="#263238" stroke-linecap="round" stroke-linejoin="round"/>
<path d="M105.357 226.45C105.357 226.45 94.2182 222.614 91.9113 227.37C89.6044 232.127 98.5533 227.908 98.5533 227.908" stroke="#263238" stroke-linecap="round" stroke-linejoin="round"/>
<path d="M112.059 243.104C112.059 243.104 101.12 249.266 100.557 252.791" stroke="#263238" stroke-linecap="round" stroke-linejoin="round"/>
<path d="M129.924 226.061C129.924 226.061 150.861 257.702 162.415 254.799" stroke="#263238" stroke-linecap="round" stroke-linejoin="round"/>
<path d="M144.226 270.443C144.226 270.443 127.812 282.477 125.434 281.459" stroke="#263238" stroke-linecap="round" stroke-linejoin="round"/>
<path opacity="0.2" d="M259.199 219.096C260.307 218.189 261.04 217.586 261.279 217.398C261.033 217.612 260.32 218.234 259.199 219.096Z" fill="black"/>
</svg>
