<svg width="340" height="340" viewBox="0 0 340 340" fill="none" xmlns="http://www.w3.org/2000/svg">
<path opacity="0.7" d="M46.1919 113.621C46.1919 113.621 27.2335 162.581 53.8759 211.881C80.5183 261.181 135.394 287.225 179.316 309.495C223.237 331.765 268.844 320.919 290.516 284.444C312.188 247.969 282.465 221.932 282.424 169.919C282.383 117.905 290.21 104.135 262.024 60.1938C233.838 16.2522 164.743 6.52139 112.492 39.1138C60.2407 71.7062 46.1919 113.621 46.1919 113.621Z" fill="white"/>
<path d="M67.7951 56.3516C76.9411 45.4172 89.3103 36.9512 104.039 37.1348C129.199 37.4476 142.799 59.7108 157.229 76.8944C164.709 85.8024 173.202 94.3976 184.313 98.5796C200.98 104.863 219.544 101.198 235.782 95.37C243.058 92.7588 251.681 89.0868 259.868 90.9636C284.776 96.662 282.186 127.058 278.072 146.302C272.516 172.292 263.486 199.961 245.187 219.926C201.374 267.723 122.528 238.422 83.0067 200.28C80.1031 197.479 77.3219 194.548 74.7039 191.474C67.9079 183.528 62.1581 174.743 57.5951 165.335C44.8791 138.849 43.1043 106.651 54.1543 79.288C57.4936 70.986 62.0947 63.2493 67.7951 56.3516Z" fill="#92E3A9"/>
<path opacity="0.7" d="M67.7951 56.3516C76.9411 45.4172 89.3103 36.9512 104.039 37.1348C129.199 37.4476 142.799 59.7108 157.229 76.8944C164.709 85.8024 173.202 94.3976 184.313 98.5796C200.98 104.863 219.544 101.198 235.782 95.37C243.058 92.7588 251.681 89.0868 259.868 90.9636C284.776 96.662 282.186 127.058 278.072 146.302C272.516 172.292 263.486 199.961 245.187 219.926C201.374 267.723 122.528 238.422 83.0067 200.28C80.1031 197.479 77.3219 194.548 74.7039 191.474C67.9079 183.528 62.1581 174.743 57.5951 165.335C44.8791 138.849 43.1043 106.651 54.1543 79.288C57.4936 70.986 62.0947 63.2493 67.7951 56.3516Z" fill="white"/>
<path d="M204.231 220.81H221.197V213.996H204.231V220.81Z" stroke="#92E3A9" stroke-linecap="round" stroke-linejoin="round"/>
<path d="M195.753 211.807H212.719V204.993H195.753V211.807Z" stroke="#92E3A9" stroke-linecap="round" stroke-linejoin="round"/>
<path d="M156.823 156.801H173.789V149.988H156.823V156.801Z" stroke="#92E3A9" stroke-linecap="round" stroke-linejoin="round"/>
<path d="M166.112 148.322H183.078V141.508H166.112V148.322Z" stroke="#92E3A9" stroke-linecap="round" stroke-linejoin="round"/>
<path d="M229.257 71.5635H246.223V64.7499H229.257V71.5635Z" stroke="#92E3A9" stroke-linecap="round" stroke-linejoin="round"/>
<path d="M220.288 62.4854H237.254V55.6718H220.288V62.4854Z" stroke="#92E3A9" stroke-linecap="round" stroke-linejoin="round"/>
<path d="M97.534 66.1572H114.5V59.3436H97.534V66.1572Z" stroke="#92E3A9" stroke-linecap="round" stroke-linejoin="round"/>
<path d="M88.5633 57.0859H105.529V50.2723H88.5633V57.0859Z" stroke="#92E3A9" stroke-linecap="round" stroke-linejoin="round"/>
<path d="M148.581 95.5469H165.547V88.7333H148.581V95.5469Z" stroke="#92E3A9" stroke-linecap="round" stroke-linejoin="round"/>
<path d="M239.11 136.816H256.076V130.002H239.11V136.816Z" stroke="#92E3A9" stroke-linecap="round" stroke-linejoin="round"/>
<path d="M259.264 196.534H276.23V189.72H259.264V196.534Z" stroke="#92E3A9" stroke-linecap="round" stroke-linejoin="round"/>
<path d="M175.821 156.801H192.787V149.988H175.821V156.801Z" stroke="#92E3A9" stroke-linecap="round" stroke-linejoin="round"/>
<path d="M242.869 176.603C226.379 176.419 209.379 176.419 193.393 176.603" stroke="#92E3A9" stroke-linecap="round" stroke-linejoin="round"/>
<path d="M249.663 176.603H245.521" stroke="#92E3A9" stroke-linecap="round" stroke-linejoin="round"/>
<path d="M51.6816 195.779C68.1716 195.962 85.1716 195.962 101.158 195.779" stroke="#92E3A9" stroke-linecap="round" stroke-linejoin="round"/>
<path d="M44.9141 195.779H49.0621" stroke="#92E3A9" stroke-linecap="round" stroke-linejoin="round"/>
<path d="M164.779 106.264H167.118" stroke="#92E3A9" stroke-linecap="round" stroke-linejoin="round"/>
<path d="M140.129 106.264H162.127" stroke="#92E3A9" stroke-linecap="round" stroke-linejoin="round"/>
<path d="M60.1262 150.273H43.1602V157.087H60.1262V150.273Z" stroke="#92E3A9" stroke-linecap="round" stroke-linejoin="round"/>
<path d="M43.9154 139.557H41.5762" stroke="#92E3A9" stroke-linecap="round" stroke-linejoin="round"/>
<path d="M68.5722 139.557H46.5742" stroke="#92E3A9" stroke-linecap="round" stroke-linejoin="round"/>
<path d="M23.6562 276.101H316.342" stroke="#263238" stroke-linecap="round" stroke-linejoin="round"/>
<path d="M203.51 283.01C203.51 283.01 199.131 289.204 203.667 291.285C208.202 293.366 248.363 288.565 267.158 288.388C285.953 288.212 296.221 281.112 295.82 278.964C295.419 276.815 290.836 272.721 290.836 272.721L287.64 276.454C287.64 276.454 291.04 277.474 290.945 279.052C290.849 280.63 278.399 285.764 262.738 283.601C247.078 281.439 213.703 288.144 211.058 287.844C208.413 287.545 210.943 281.629 210.943 281.629L203.51 283.01Z" fill="#263238"/>
<path d="M266.56 285.478C241.869 287.191 200.845 286.613 200.845 286.613C179.67 285.07 175.685 278.086 178.99 270.137C184.137 257.897 206.747 243.379 210.868 243.039C217.668 242.488 224.822 245.188 224.822 245.188L229.242 244.256C227.882 240.591 241.856 232.431 248.241 235.953C254.626 239.476 267.825 234.641 271.803 237.123C272.859 237.802 273.765 238.688 274.469 239.727C275.596 241.41 276.388 243.294 276.801 245.276H276.855C277.855 245.008 278.881 244.848 279.915 244.8C282.105 244.685 285.022 245.018 287.307 247.01C287.891 247.529 288.447 248.078 288.973 248.656C293.094 253.157 298.398 261.664 299.622 266.628C301.05 272.272 291.244 283.757 266.56 285.478Z" fill="#999999"/>
<mask id="mask0_498_11506" style="mask-type:luminance" maskUnits="userSpaceOnUse" x="177" y="235" width="123" height="52">
<path d="M266.56 285.478C241.869 287.191 200.845 286.613 200.845 286.613C179.67 285.07 175.685 278.086 178.99 270.137C184.137 257.897 206.747 243.379 210.868 243.039C217.668 242.488 224.822 245.188 224.822 245.188L229.242 244.256C227.882 240.591 241.856 232.431 248.241 235.953C254.626 239.476 267.825 234.641 271.803 237.123C272.859 237.802 273.765 238.688 274.469 239.727C275.596 241.41 276.388 243.294 276.801 245.276H276.855C277.855 245.008 278.881 244.848 279.915 244.8C282.105 244.685 285.022 245.018 287.307 247.01C287.891 247.529 288.447 248.078 288.973 248.656C293.094 253.157 298.398 261.664 299.622 266.628C301.05 272.272 291.244 283.757 266.56 285.478Z" fill="white"/>
</mask>
<g mask="url(#mask0_498_11506)">
<path opacity="0.2" d="M245.392 239.809C244.188 237.694 259.386 238.694 260.998 239.809C262.61 240.924 262.616 244.419 264.364 243.474C265.758 242.726 271.069 239.85 274.469 239.727C275.596 241.409 276.388 243.293 276.801 245.276C276.801 245.276 255.891 251.185 254.545 249.614C253.198 248.044 258.312 246.738 259.924 243.29C261.535 239.843 255.082 240.788 253.742 240.815C252.403 240.842 246.596 241.917 245.392 239.809Z" fill="black"/>
<path opacity="0.2" d="M266.56 285.478C241.869 287.191 200.845 286.613 200.845 286.613C179.67 285.07 175.685 278.086 178.99 270.137C179.806 270.776 181.207 271.062 183.505 270.62C191.06 269.165 195.357 268.763 200.206 273.34C205.054 277.916 210.569 280.697 213.126 279.8C213.126 279.8 213.479 269.695 223.326 262.439C233.172 255.184 235.491 257.244 237.456 255.32C239.421 253.395 240.584 249.88 234.94 247.894C229.296 245.909 226.549 245.174 226.549 245.174C226.549 245.174 232.764 244.691 238.15 247.105C243.535 249.519 248.234 255.265 245.949 256.564C243.665 257.863 249.309 260.175 253.212 259.556C256.666 258.999 268.131 258.937 270.429 258.842C268.389 259.277 259.264 262.127 259.264 264.316C259.264 264.316 262.079 268.94 262.059 274.169C262.038 279.399 268.179 280.065 270.837 278.107C273.496 276.148 274.054 273.462 273.047 268.349C272.041 263.235 269.226 262.854 265.567 263.65C265.567 263.65 270.273 260.814 271.755 261.753C273.238 262.691 277.399 262.297 278.209 266.73C279.018 271.164 276.169 274.802 277.529 276.012C278.889 277.223 286.675 275.876 288.021 273.292C289.367 270.708 288.477 255.905 287.178 255.612C285.879 255.32 279.385 257.292 279.201 257.346C279.509 256.481 280.039 255.712 280.737 255.115C281.435 254.519 282.277 254.115 283.179 253.946C285.573 253.525 288.524 251.172 288.993 248.601C293.114 253.103 298.418 261.61 299.642 266.574C301.05 272.272 291.244 283.757 266.56 285.478Z" fill="black"/>
</g>
<path d="M266.56 285.478C241.869 287.191 200.845 286.613 200.845 286.613C179.67 285.07 175.685 278.086 178.99 270.137C184.137 257.897 206.747 243.379 210.868 243.039C217.668 242.488 224.822 245.188 224.822 245.188L229.242 244.256C227.882 240.591 241.856 232.431 248.241 235.953C254.626 239.476 267.825 234.641 271.803 237.123C272.859 237.802 273.765 238.688 274.469 239.727C275.596 241.41 276.388 243.294 276.801 245.276H276.855C277.855 245.008 278.881 244.848 279.915 244.8C282.105 244.685 285.022 245.018 287.307 247.01C287.891 247.529 288.447 248.078 288.973 248.656C293.094 253.157 298.398 261.664 299.622 266.628C301.05 272.272 291.244 283.757 266.56 285.478Z" stroke="#263238" stroke-linecap="round" stroke-linejoin="round"/>
<path d="M224.823 245.188C224.823 245.188 227.917 246.222 235.703 248.078C243.489 249.934 239.198 256.238 233.547 256.578C227.896 256.918 213.392 269.546 213.12 278.12C212.848 286.695 224.401 285.444 224.401 285.444" stroke="#263238" stroke-linecap="round" stroke-linejoin="round"/>
<path d="M229.248 244.256C229.248 244.256 240.019 243.801 247.282 248.078C254.544 252.355 273.917 246.371 273.917 246.371" stroke="#263238" stroke-linecap="round" stroke-linejoin="round"/>
<path d="M259.924 264.33C263.161 268.763 261.801 282.948 261.801 282.948C261.801 282.948 283.132 281.003 289.001 276.23C294.869 271.456 289.769 255.925 286.539 255.347C283.309 254.769 271.477 261.515 262.059 262.827" stroke="#263238" stroke-linecap="round" stroke-linejoin="round"/>
<path d="M263.426 264.33C263.426 264.33 270.151 261.773 271.497 264.33C272.844 266.887 275.509 275.536 273.918 278.535C272.327 281.534 266.384 280.976 266.384 280.976" stroke="#263238" stroke-linecap="round" stroke-linejoin="round"/>
<path d="M238.137 237.32C238.137 237.32 246.732 240.945 251.58 240.877C256.429 240.809 262.08 240.448 259.924 243.318C258.964 244.547 258.067 245.825 257.238 247.146" stroke="#263238" stroke-linecap="round" stroke-linejoin="round"/>
<path d="M216.92 269.314C216.92 269.314 226.583 272.714 237.076 271.13C247.568 269.545 249.282 271.436 249.282 271.436V278.535C249.282 278.535 242.482 277.277 238.15 278.535C233.818 279.793 219.586 280.752 213.133 278.12" stroke="#263238" stroke-linecap="round" stroke-linejoin="round"/>
<path d="M214.07 274.183C214.07 274.183 217.627 275.176 226.535 275.196C235.443 275.217 243.786 274.462 243.786 274.462" stroke="#263238" stroke-linecap="round" stroke-linejoin="round"/>
<path d="M211.971 253.334L211.692 250.24C211.678 250.068 211.727 249.897 211.829 249.758C211.932 249.62 212.081 249.523 212.249 249.486L219.471 247.908C219.569 247.881 219.671 247.877 219.771 247.895C219.871 247.913 219.965 247.954 220.047 248.013C220.129 248.072 220.197 248.149 220.245 248.238C220.294 248.327 220.322 248.426 220.328 248.527L220.62 251.451C220.635 251.621 220.59 251.791 220.491 251.93C220.393 252.07 220.248 252.17 220.083 252.212L212.841 253.96C212.742 253.989 212.637 253.995 212.535 253.978C212.434 253.96 212.337 253.92 212.253 253.859C212.169 253.799 212.1 253.721 212.051 253.63C212.002 253.539 211.975 253.438 211.971 253.334Z" fill="#92E3A9" stroke="#263238" stroke-linecap="round" stroke-linejoin="round"/>
<path d="M214.596 249.934L218.499 250.607L217.628 251.124L213.453 250.526L214.596 249.934Z" fill="#263238"/>
<path d="M222.598 246.16C223.936 245.023 225.605 244.348 227.358 244.236C229.976 244.236 231.995 245.045 231.723 245.201C231.451 245.358 227.29 246.174 226.514 247.112L222.598 246.16Z" fill="#263238"/>
<path d="M183.797 278.977C183.797 278.977 175.324 281.745 179.894 284.975C184.463 288.205 190.658 287.531 195.697 284.295L196.234 281.269C194.255 281.573 192.331 282.164 190.522 283.023C187.897 284.383 181.777 283.023 182.179 282.275C182.349 282.043 182.573 281.855 182.831 281.726C183.088 281.597 183.373 281.531 183.661 281.534L183.797 278.977Z" fill="#263238"/>
<path d="M209.903 286.409C210.529 289.809 234.166 284.913 253.362 281.527C272.559 278.14 289.538 282.064 290.953 279.052C292.367 276.039 295.821 278.963 295.821 278.963C294.144 282.314 291.336 284.964 287.893 286.443C282.262 288.748 255.817 288.211 240.973 291.251C226.128 294.29 199.792 298.731 201.689 287.171L209.903 286.409Z" fill="#263238"/>
<path d="M51.0003 247.52C51.0003 247.52 50.6127 265.043 79.6283 277.963C108.644 290.883 187.497 297.16 201.865 251.641L157.182 238.809H97.2403L84.0483 244.8L51.0003 247.52Z" fill="#92E3A9"/>
<mask id="mask1_498_11506" style="mask-type:luminance" maskUnits="userSpaceOnUse" x="51" y="238" width="151" height="50">
<path d="M51.0003 247.52C51.0003 247.52 50.6127 265.043 79.6283 277.963C108.644 290.883 187.497 297.16 201.865 251.641L157.182 238.809H97.2403L84.0483 244.8L51.0003 247.52Z" fill="white"/>
</mask>
<g mask="url(#mask1_498_11506)">
<path opacity="0.2" d="M51.0003 247.52C51.0003 247.52 50.6127 265.043 79.6283 277.963C108.644 290.883 187.497 297.16 201.865 251.641L157.182 238.809H97.2403L84.0483 244.8L51.0003 247.52Z" fill="black"/>
</g>
<path d="M51.0003 247.52C51.0003 247.52 50.6127 265.043 79.6283 277.963C108.644 290.883 187.497 297.16 201.865 251.641L157.182 238.809H97.2403L84.0483 244.8L51.0003 247.52Z" stroke="#263238" stroke-linecap="round" stroke-linejoin="round"/>
<path d="M85.0615 170.578C79.7983 175.276 61.5471 228.378 63.9067 234.171C66.2663 239.965 97.2267 245.255 97.2267 245.255C97.2267 245.255 94.1667 185.3 94.0103 184.3C93.8539 183.3 85.0615 170.578 85.0615 170.578Z" fill="#263238"/>
<path d="M167.064 170.578C172.327 175.276 190.578 228.378 188.218 234.171C185.859 239.965 154.898 245.255 154.898 245.255C154.898 245.255 157.958 185.3 158.115 184.3C158.271 183.3 167.064 170.578 167.064 170.578Z" fill="#263238"/>
<path d="M85.0625 170.578C85.0625 170.578 97.2073 156.855 125.931 156.039C149.01 155.359 164.806 166.817 167.064 170.578C169.321 174.338 156.796 224.461 156.796 224.461L163.807 251.443C163.807 251.443 126.209 263.969 92.6309 251.443L97.1393 222.951C97.1393 222.951 85.3141 177.595 85.0625 170.578Z" fill="#263238"/>
<g opacity="0.5">
<path d="M141.951 161.554C141.951 161.554 131.547 173.019 120.986 169.823" stroke="white" stroke-linecap="round" stroke-linejoin="round"/>
<path d="M133.281 182.716C135.714 183.186 138.173 183.504 140.646 183.668" stroke="white" stroke-linecap="round" stroke-linejoin="round"/>
<path d="M103.408 168.286C110.011 174.291 119.728 179.431 130.03 182.002" stroke="white" stroke-linecap="round" stroke-linejoin="round"/>
<path d="M160.685 180.2C158.477 184.299 157.169 188.822 156.85 193.467" stroke="white" stroke-linecap="round" stroke-linejoin="round"/>
<path d="M165.494 172.835C164.384 174.167 163.37 175.576 162.461 177.051" stroke="white" stroke-linecap="round" stroke-linejoin="round"/>
<path d="M166.438 187.115C161.739 189.155 157.414 196.513 157.414 196.513C159.368 200.339 160.88 204.374 161.922 208.542" stroke="white" stroke-linecap="round" stroke-linejoin="round"/>
<path d="M159.291 226.215C159.291 226.215 163.691 225.501 166.438 222.564C169.185 219.626 177.148 220.415 178.277 222.564" stroke="white" stroke-linecap="round" stroke-linejoin="round"/>
<path d="M169.254 219.048C169.254 219.048 172.076 214.751 178.278 217.756" stroke="white" stroke-linecap="round" stroke-linejoin="round"/>
<path d="M87.5039 174.155C87.5039 174.155 93.6987 178.282 94.3039 189.55" stroke="white" stroke-linecap="round" stroke-linejoin="round"/>
<path d="M91.7198 200.865C90.0402 205.51 88.2178 210.256 87.3066 215.145" stroke="white" stroke-linecap="round" stroke-linejoin="round"/>
<path d="M88.8359 189.55C90.4747 189.965 94.1943 191.522 94.5071 193.439C94.6567 194.33 93.3511 196.465 93.0451 197.281" stroke="white" stroke-linecap="round" stroke-linejoin="round"/>
<path d="M82.0781 219.64C82.715 219.489 83.3799 219.505 84.0088 219.686C84.6377 219.867 85.2093 220.207 85.6685 220.674" stroke="white" stroke-linecap="round" stroke-linejoin="round"/>
<path d="M75.2773 222.564C76.3966 221.819 77.5773 221.171 78.8065 220.626" stroke="white" stroke-linecap="round" stroke-linejoin="round"/>
<path d="M81.4785 224.706C81.4785 224.706 81.8797 221.353 87.5033 222.564C93.1269 223.774 106.475 227.909 106.475 227.909" stroke="white" stroke-linecap="round" stroke-linejoin="round"/>
</g>
<path d="M140.693 160.514C140.693 160.514 134.233 166.872 126.413 166.872C118.593 166.872 111.127 159.507 111.127 159.507C111.127 159.507 115.159 157.501 116.241 153.483C116.309 153.239 116.364 152.992 116.404 152.741C116.696 150.98 116.227 147.981 115.547 145.023C114.479 140.365 112.895 135.701 112.895 135.701H138.157C138.157 135.701 136.96 141.528 136.171 146.9C136.029 147.886 135.893 148.852 135.791 149.77C135.689 150.688 135.58 151.674 135.532 152.49C135.219 158.181 140.693 160.514 140.693 160.514Z" fill="white" stroke="#263238" stroke-linecap="round" stroke-linejoin="round"/>
<path d="M164.473 251.491V254.408C164.472 254.566 164.454 254.724 164.418 254.878C164.308 255.298 164.063 255.671 163.72 255.939C163.377 256.207 162.956 256.355 162.521 256.36H93.2835C92.8421 256.36 92.4132 256.213 92.0647 255.942C91.7162 255.671 91.4679 255.292 91.3591 254.864C91.3238 254.71 91.3056 254.553 91.3047 254.395V251.478L164.473 251.491Z" fill="#757575"/>
<mask id="mask2_498_11506" style="mask-type:luminance" maskUnits="userSpaceOnUse" x="91" y="251" width="74" height="6">
<path d="M164.473 251.491V254.408C164.472 254.566 164.454 254.724 164.418 254.878C164.308 255.298 164.063 255.671 163.72 255.939C163.377 256.207 162.956 256.355 162.521 256.36H93.2835C92.8421 256.36 92.4132 256.213 92.0647 255.942C91.7162 255.671 91.4679 255.292 91.3591 254.864C91.3238 254.71 91.3056 254.553 91.3047 254.395V251.478L164.473 251.491Z" fill="white"/>
</mask>
<g mask="url(#mask2_498_11506)">
<path opacity="0.2" d="M164.473 251.491V254.408C164.472 254.566 164.454 254.724 164.418 254.878H91.3591C91.3238 254.724 91.3056 254.566 91.3047 254.408V251.491H164.473Z" fill="black"/>
</g>
<path d="M164.473 251.491V254.408C164.472 254.566 164.454 254.724 164.418 254.878C164.308 255.298 164.063 255.671 163.72 255.939C163.377 256.207 162.956 256.355 162.521 256.36H93.2835C92.8421 256.36 92.4132 256.213 92.0647 255.942C91.7162 255.671 91.4679 255.292 91.3591 254.864C91.3238 254.71 91.3056 254.553 91.3047 254.395V251.478L164.473 251.491Z" stroke="#263238" stroke-linecap="round" stroke-linejoin="round"/>
<path d="M163.786 253.436H91.9845C91.6493 253.447 91.3206 253.342 91.055 253.137C90.7894 252.932 90.6035 252.641 90.5293 252.314L84.2937 201.994C84.2674 201.8 84.2829 201.604 84.3394 201.417C84.3958 201.23 84.4918 201.058 84.6208 200.911C84.7498 200.765 84.9089 200.648 85.0871 200.568C85.2653 200.489 85.4586 200.448 85.6537 200.45H170.123C170.318 200.448 170.512 200.489 170.69 200.568C170.868 200.648 171.027 200.765 171.156 200.911C171.285 201.058 171.381 201.23 171.438 201.417C171.494 201.604 171.51 201.8 171.483 201.994L165.248 252.314C165.176 252.643 164.99 252.937 164.722 253.142C164.454 253.348 164.123 253.452 163.786 253.436Z" fill="#757575" stroke="#263238" stroke-linecap="round" stroke-linejoin="round"/>
<path opacity="0.2" d="M92.2757 252.375L86.1557 204.143C86.1415 204.006 86.156 203.867 86.1982 203.736C86.2404 203.605 86.3095 203.484 86.4009 203.381C86.4924 203.278 86.6042 203.195 86.7294 203.138C86.8546 203.081 86.9904 203.05 87.1281 203.048H168.64C168.778 203.05 168.914 203.081 169.039 203.138C169.165 203.195 169.277 203.278 169.369 203.381C169.461 203.484 169.531 203.605 169.574 203.736C169.617 203.867 169.632 204.005 169.619 204.143L163.499 252.375" fill="white"/>
<path d="M92.2757 252.375L86.1557 204.143C86.1415 204.006 86.156 203.867 86.1982 203.736C86.2404 203.605 86.3095 203.484 86.4009 203.381C86.4924 203.278 86.6042 203.195 86.7294 203.138C86.8546 203.081 86.9904 203.05 87.1281 203.048H168.64C168.778 203.05 168.914 203.081 169.039 203.138C169.165 203.195 169.277 203.278 169.369 203.381C169.461 203.484 169.531 203.605 169.574 203.736C169.617 203.867 169.632 204.005 169.619 204.143L163.499 252.375" stroke="#263238" stroke-linecap="round" stroke-linejoin="round"/>
<path d="M128.704 231.329H121.326L129.894 222.353L125.916 229.479L128.704 231.329Z" fill="#92E3A9" stroke="#263238" stroke-linecap="round" stroke-linejoin="round"/>
<path d="M125.814 236.035L134.913 227.256H127.705L130.289 229.16L125.814 236.035Z" fill="#92E3A9" stroke="#263238" stroke-linecap="round" stroke-linejoin="round"/>
<path d="M187.585 282.071L189.761 284.546C189.761 284.546 191.801 289.184 186.164 294.862C180.527 300.54 165.913 301.662 160.229 300.676L156.645 301.158L144.453 298.52C144.453 298.52 138.278 295.501 140.801 290.204C143.324 284.906 187.585 282.071 187.585 282.071Z" fill="#92E3A9" stroke="#263238" stroke-linecap="round" stroke-linejoin="round"/>
<path d="M183.844 293.984C179.132 298.901 164.036 299.88 157.732 298.445C156.012 298.051 149.749 297.826 145.084 296.154C142.568 295.263 140.515 293.95 139.889 291.965C138.08 286.3 154.02 275.522 154.02 275.522C154.02 275.522 164.186 277.481 166.294 277.984C168.749 278.562 171.253 278.909 173.774 279.018C178.608 279.228 181.879 278.582 185.422 280.106C189.434 281.84 189.488 288.096 183.844 293.984Z" fill="#757575"/>
<mask id="mask3_498_11506" style="mask-type:luminance" maskUnits="userSpaceOnUse" x="139" y="275" width="50" height="25">
<path d="M183.844 293.984C179.132 298.901 164.036 299.88 157.732 298.445C156.012 298.051 149.749 297.826 145.084 296.154C142.568 295.263 140.515 293.95 139.889 291.965C138.08 286.3 154.02 275.522 154.02 275.522C154.02 275.522 164.186 277.481 166.294 277.984C168.749 278.562 171.253 278.909 173.774 279.018C178.608 279.228 181.879 278.582 185.422 280.106C189.434 281.84 189.488 288.096 183.844 293.984Z" fill="white"/>
</mask>
<g mask="url(#mask3_498_11506)">
<path opacity="0.2" d="M173.746 279.018C170.115 284.947 161.051 296.33 145.084 296.154C142.568 295.263 140.515 293.95 139.889 291.965C138.08 286.3 154.02 275.522 154.02 275.522C154.02 275.522 164.186 277.481 166.294 277.984C168.74 278.561 171.235 278.907 173.746 279.018Z" fill="black"/>
</g>
<path d="M183.844 293.984C179.132 298.901 164.036 299.88 157.732 298.445C156.012 298.051 149.749 297.826 145.084 296.154C142.568 295.263 140.515 293.95 139.889 291.965C138.08 286.3 154.02 275.522 154.02 275.522C154.02 275.522 164.186 277.481 166.294 277.984C168.749 278.562 171.253 278.909 173.774 279.018C178.608 279.228 181.879 278.582 185.422 280.106C189.434 281.84 189.488 288.096 183.844 293.984Z" stroke="#263238" stroke-linecap="round" stroke-linejoin="round"/>
<path d="M151.131 282.438C151.131 282.438 166.771 287.157 169.708 286.851C172.646 286.545 173.006 288.952 173.006 288.952" stroke="#263238" stroke-linecap="round" stroke-linejoin="round"/>
<path d="M153.639 276.76C153.639 276.76 170.802 280.432 172.876 281.044C174.128 281.403 175.462 281.343 176.677 280.874" stroke="#263238" stroke-linecap="round" stroke-linejoin="round"/>
<path d="M156.823 277.032C156.676 278.7 156.097 280.302 155.143 281.679C154.189 283.056 152.893 284.161 151.383 284.886" stroke="#263238" stroke-linecap="round" stroke-linejoin="round"/>
<path d="M160.031 277.617C159.876 279.236 159.394 280.808 158.613 282.235C157.832 283.662 156.769 284.916 155.488 285.919" stroke="#263238" stroke-linecap="round" stroke-linejoin="round"/>
<path d="M163.452 278.8C163.452 278.8 164.377 283.818 159.039 287.511" stroke="#263238" stroke-linecap="round" stroke-linejoin="round"/>
<path d="M167.056 279.194C167.056 279.194 167.865 285.518 162.711 288.762" stroke="#263238" stroke-linecap="round" stroke-linejoin="round"/>
<path d="M170.911 279.745C170.911 279.745 170.775 286.348 166.43 289.177" stroke="#263238" stroke-linecap="round" stroke-linejoin="round"/>
<path d="M173.937 280.588C173.937 280.588 175.08 286.198 170.408 289.619" stroke="#263238" stroke-linecap="round" stroke-linejoin="round"/>
<path d="M155.224 272.918C153.708 283.193 137.864 294.358 137.864 294.358C137.864 294.358 133.478 290.244 132.029 290.414C130.581 290.584 124.549 290.156 124.549 290.156C124.549 290.156 76.8404 272.299 71.1148 272.204C67.538 272.149 57.2292 269.015 52.1292 260.882C49.0964 256.054 47.9064 249.458 51.0412 240.706C56.2092 226.27 81.6888 236.905 106.672 250.702C114.968 255.292 122.312 258.971 128.276 261.773C138.17 266.431 144.188 268.675 144.188 268.675L147.492 267.491L155.224 272.918Z" fill="#92E3A9"/>
<mask id="mask4_498_11506" style="mask-type:luminance" maskUnits="userSpaceOnUse" x="49" y="233" width="107" height="62">
<path d="M155.224 272.918C153.708 283.193 137.864 294.358 137.864 294.358C137.864 294.358 133.478 290.244 132.029 290.414C130.581 290.584 124.549 290.156 124.549 290.156C124.549 290.156 76.8404 272.299 71.1148 272.204C67.538 272.149 57.2292 269.015 52.1292 260.882C49.0964 256.054 47.9064 249.458 51.0412 240.706C56.2092 226.27 81.6888 236.905 106.672 250.702C114.968 255.292 122.312 258.971 128.276 261.773C138.17 266.431 144.188 268.675 144.188 268.675L147.492 267.491L155.224 272.918Z" fill="white"/>
</mask>
<g mask="url(#mask4_498_11506)">
<path opacity="0.2" d="M155.224 272.918C153.707 283.193 137.863 294.358 137.863 294.358C137.863 294.358 133.477 290.244 132.029 290.414C130.581 290.584 124.549 290.156 124.549 290.156C124.549 290.156 76.8401 272.299 71.1145 272.204C67.5377 272.149 57.2289 269.015 52.1289 260.882C58.1197 261.324 68.3265 262.323 73.2089 264.146C73.2089 264.146 67.7689 265.506 69.2649 266.811C70.7609 268.117 92.6025 270.687 100.287 268.749C107.236 267.002 121.108 262.276 128.289 261.773C138.183 266.431 144.201 268.675 144.201 268.675L147.506 267.491L155.224 272.918Z" fill="black"/>
</g>
<path d="M155.224 272.918C153.708 283.193 137.864 294.358 137.864 294.358C137.864 294.358 133.478 290.244 132.029 290.414C130.581 290.584 124.549 290.156 124.549 290.156C124.549 290.156 76.8404 272.299 71.1148 272.204C67.538 272.149 57.2292 269.015 52.1292 260.882C49.0964 256.054 47.9064 249.458 51.0412 240.706C56.2092 226.27 81.6888 236.905 106.672 250.702C114.968 255.292 122.312 258.971 128.276 261.773C138.17 266.431 144.188 268.675 144.188 268.675L147.492 267.491L155.224 272.918Z" stroke="#263238" stroke-linecap="round" stroke-linejoin="round"/>
<path d="M112.977 262.99C114.67 262.698 116.377 262.351 118.015 261.916" stroke="#263238" stroke-linecap="round" stroke-linejoin="round"/>
<path d="M67.7969 263.894C81.6213 265.003 95.8537 265.316 109.624 263.5" stroke="#263238" stroke-linecap="round" stroke-linejoin="round"/>
<path d="M66.7968 283.022L64.6004 285.498C64.6004 285.498 62.5604 290.135 68.1908 295.813C73.8212 301.491 88.4412 302.613 94.126 301.627L97.7164 302.11L109.902 299.492C109.902 299.492 116.104 296.48 113.56 291.176C111.017 285.872 66.7968 283.022 66.7968 283.022Z" fill="#92E3A9" stroke="#263238" stroke-linecap="round" stroke-linejoin="round"/>
<path d="M100.368 276.474C100.368 276.474 90.2021 278.433 88.0873 278.929C78.6421 281.159 74.0861 278.868 68.9929 281.057C64.9537 282.791 64.9129 289.047 70.5365 294.936C75.2489 299.853 90.3449 300.832 96.6485 299.397C99.2937 298.799 112.697 298.561 114.499 292.91C116.301 287.259 100.368 276.474 100.368 276.474Z" fill="#757575" stroke="#263238" stroke-linecap="round" stroke-linejoin="round"/>
<path d="M103.253 283.39C103.253 283.39 87.6126 288.109 84.675 287.803C81.7374 287.497 81.377 289.904 81.377 289.904" stroke="#263238" stroke-linecap="round" stroke-linejoin="round"/>
<path d="M100.748 277.691C100.748 277.691 83.5783 281.37 81.5043 281.975C80.2535 282.339 78.9182 282.281 77.7031 281.812" stroke="#263238" stroke-linecap="round" stroke-linejoin="round"/>
<path d="M97.5664 277.984C97.7134 279.653 98.2923 281.254 99.2461 282.631C100.2 284.009 101.496 285.114 103.006 285.838" stroke="#263238" stroke-linecap="round" stroke-linejoin="round"/>
<path d="M94.3496 278.569C94.5041 280.189 94.9872 281.761 95.7694 283.189C96.5515 284.616 97.6163 285.869 98.8988 286.872" stroke="#263238" stroke-linecap="round" stroke-linejoin="round"/>
<path d="M90.9374 279.745C90.9374 279.745 90.0058 284.764 95.3438 288.456" stroke="#263238" stroke-linecap="round" stroke-linejoin="round"/>
<path d="M87.3255 280.16C87.3255 280.16 86.5163 286.484 91.6707 289.727" stroke="#263238" stroke-linecap="round" stroke-linejoin="round"/>
<path d="M83.4766 280.697C83.4766 280.697 83.6058 287.3 87.9578 290.129" stroke="#263238" stroke-linecap="round" stroke-linejoin="round"/>
<path d="M80.4516 281.52C80.4516 281.52 79.3092 287.123 83.974 290.55" stroke="#263238" stroke-linecap="round" stroke-linejoin="round"/>
<path d="M202.348 240.611C197.146 226.182 171.694 236.864 146.745 250.709C124.685 262.949 109.256 268.75 109.256 268.75L105.951 267.58L98.2266 273.02C99.7634 283.288 115.635 294.42 115.635 294.42C115.635 294.42 120.007 290.292 121.462 290.462C122.917 290.632 128.942 290.19 128.942 290.19C128.942 290.19 176.651 272.245 182.343 272.143C188.034 272.041 210.801 264.105 202.348 240.611Z" fill="#92E3A9" stroke="#263238" stroke-linecap="round" stroke-linejoin="round"/>
<path d="M133.131 277.678C134.491 277.773 135.892 277.827 137.272 277.834" stroke="#263238" stroke-linecap="round" stroke-linejoin="round"/>
<path d="M109.256 268.75C114.24 274.04 122.4 276.338 129.35 277.29" stroke="#263238" stroke-linecap="round" stroke-linejoin="round"/>
<path d="M165.404 259.393C175.162 261.249 186.015 262.949 195.834 260.657" stroke="#263238" stroke-linecap="round" stroke-linejoin="round"/>
<path d="M157.916 257.761C159.276 258.108 160.677 258.441 162.071 258.72" stroke="#263238" stroke-linecap="round" stroke-linejoin="round"/>
<path d="M136.204 146.88C136.061 147.866 135.925 148.831 135.823 149.749C133.28 152.354 129.023 155.937 124.943 156.06C121.958 156.148 118.823 154.87 116.28 153.462C116.348 153.218 116.403 152.971 116.443 152.721C116.735 150.96 116.266 147.961 115.586 145.003L136.204 146.88Z" fill="#263238"/>
<path d="M142.8 130.41C142.8 130.41 144.657 128.663 145.568 129.241C146.479 129.819 147.56 131.437 147.064 132.92C146.567 134.402 144.412 137 144.242 138.496C144.072 139.992 142.963 141.705 141.739 140.706C140.515 139.706 142.8 130.41 142.8 130.41Z" fill="white" stroke="#263238" stroke-linecap="round" stroke-linejoin="round"/>
<path d="M109.738 130.41C109.738 130.41 107.882 128.663 106.971 129.241C106.06 129.819 104.978 131.437 105.482 132.92C105.985 134.402 108.134 137 108.297 138.496C108.46 139.992 109.582 141.705 110.799 140.706C112.016 139.706 109.738 130.41 109.738 130.41Z" fill="white" stroke="#263238" stroke-linecap="round" stroke-linejoin="round"/>
<path d="M125.868 106.556C150.008 106.556 143.48 135.741 139.033 146.064C137.475 149.688 129.778 154.768 125.868 154.768C122.23 154.768 114.988 150.008 113.492 146.608C108.997 136.204 102.863 106.556 125.868 106.556Z" fill="white" stroke="#263238" stroke-linecap="round" stroke-linejoin="round"/>
<path d="M129.963 130.206C129.963 130.206 136.246 128.262 138.191 132.151" stroke="#263238" stroke-linecap="round" stroke-linejoin="round"/>
<path d="M134.641 135.49C134.641 136.231 134.267 136.85 133.797 136.85C133.328 136.85 132.961 136.245 132.961 135.49C132.961 134.735 133.335 134.13 133.797 134.13C134.26 134.13 134.641 134.749 134.641 135.49Z" fill="#263238"/>
<path d="M122.59 130.206C122.59 130.206 116.3 128.262 114.355 132.151" stroke="#263238" stroke-linecap="round" stroke-linejoin="round"/>
<path d="M117.934 135.49C117.934 136.231 118.314 136.85 118.777 136.85C119.239 136.85 119.62 136.245 119.62 135.49C119.62 134.735 119.239 134.13 118.777 134.13C118.314 134.13 117.934 134.749 117.934 135.49Z" fill="#263238"/>
<path d="M123.441 141.004C122.53 141.977 125.685 143.575 126.277 143.575C126.869 143.575 129.269 142.317 129.269 141.576" fill="white"/>
<path d="M123.441 141.004C122.53 141.977 125.685 143.575 126.277 143.575C126.869 143.575 129.269 142.317 129.269 141.576" stroke="#263238" stroke-linecap="round" stroke-linejoin="round"/>
<path d="M135.892 114.777C129.84 116.708 123.338 116.708 117.287 114.777C117.287 114.777 114.03 114.587 112.744 116.226C111.459 117.864 112.744 122.917 113.084 124.977C113.424 127.038 110.256 128.459 110.684 133.661L110.256 135.626C110.256 135.626 106.747 126.691 107.604 119.49C108.46 112.288 112.316 109.888 112.316 109.888C112.316 109.888 114.39 103.673 126.535 103.714C139.625 103.768 140.944 110.854 140.944 110.854C140.944 110.854 149.104 116.974 142.522 136.292L141.842 133.661C142.178 131.102 141.59 128.507 140.182 126.344C139.04 124.678 140.862 119.66 140.441 117.089C140.019 114.519 135.892 114.777 135.892 114.777Z" fill="#263238"/>
<path d="M121.041 145.941C122.683 146.705 124.473 147.095 126.284 147.084C127.993 147.118 129.693 146.83 131.295 146.234" fill="white"/>
<path d="M121.041 145.941C122.683 146.705 124.473 147.095 126.284 147.084C127.993 147.118 129.693 146.83 131.295 146.234" stroke="#263238" stroke-linecap="round" stroke-linejoin="round"/>
<path d="M135.361 117.075C135.884 119.719 136.839 122.258 138.189 124.589C140.229 127.847 142.637 128.18 143.323 132.151C143.323 132.151 149.586 121.584 144.289 112.309C144.289 112.309 142.623 101.782 126.276 101.782C109.929 101.782 102.36 113.172 108.711 130.662C110.249 129.993 111.582 128.928 112.574 127.576C113.565 126.223 114.18 124.632 114.355 122.964C114.686 125.347 114.085 127.766 112.676 129.717C112.676 129.717 121.094 128.472 123.277 121.455C123.277 121.455 122.427 126.119 119.619 128.098C119.619 128.098 122.794 132.11 126.419 125.841C130.043 119.571 132.226 115.817 135.361 117.075Z" fill="#263238"/>
<path opacity="0.2" d="M122.462 118.442C121.442 119.904 120.008 122.162 117.934 121.944" stroke="white" stroke-linecap="round" stroke-linejoin="round"/>
<path opacity="0.2" d="M134.641 112.37C131.887 106.766 125.916 113.634 123.965 116.341" stroke="white" stroke-linecap="round" stroke-linejoin="round"/>
<path opacity="0.2" d="M111.575 113.614C110.899 114.223 110.098 114.676 109.229 114.94" stroke="white" stroke-linecap="round" stroke-linejoin="round"/>
<path opacity="0.2" d="M131.289 107.141C125.733 101.327 117.859 108.086 113.459 111.955" stroke="white" stroke-linecap="round" stroke-linejoin="round"/>
<path opacity="0.2" d="M142.508 113.757C143.458 115.254 144.066 116.942 144.289 118.7" stroke="white" stroke-linecap="round" stroke-linejoin="round"/>
<path opacity="0.2" d="M138.189 111.316C139.072 111.294 139.942 111.53 140.692 111.996" stroke="white" stroke-linecap="round" stroke-linejoin="round"/>
<path opacity="0.2" d="M136.504 108.392C136.504 108.392 137.708 105.202 140.128 107.535" stroke="white" stroke-linecap="round" stroke-linejoin="round"/>
<path d="M154.835 187.517H99.6195C97.8168 187.517 96.3555 188.978 96.3555 190.781V193.12C96.3555 194.922 97.8168 196.384 99.6195 196.384H154.835C156.638 196.384 158.099 194.922 158.099 193.12V190.781C158.099 188.978 156.638 187.517 154.835 187.517Z" stroke="white" stroke-width="1.35896" stroke-linecap="round" stroke-linejoin="round"/>
<path d="M120.828 189.944C121.04 189.972 121.255 189.917 121.427 189.79C121.599 189.663 121.716 189.475 121.753 189.264H122.317V194.623H121.481V190.543H120.801L120.828 189.944Z" fill="white"/>
<path d="M123.27 190.556C123.27 190.217 123.404 189.892 123.644 189.652C123.884 189.413 124.209 189.278 124.548 189.278C124.887 189.278 125.212 189.413 125.452 189.652C125.692 189.892 125.826 190.217 125.826 190.556V193.344C125.826 193.683 125.692 194.008 125.452 194.248C125.212 194.488 124.887 194.623 124.548 194.623C124.209 194.623 123.884 194.488 123.644 194.248C123.404 194.008 123.27 193.683 123.27 193.344V190.556ZM124.113 193.399C124.113 193.779 124.276 193.922 124.548 193.922C124.82 193.922 124.983 193.779 124.983 193.399V190.502C124.983 190.121 124.813 189.978 124.548 189.978C124.283 189.978 124.113 190.121 124.113 190.502V193.399Z" fill="white"/>
<path d="M126.303 190.556C126.303 190.388 126.336 190.222 126.4 190.067C126.464 189.912 126.558 189.771 126.677 189.652C126.796 189.534 126.937 189.439 127.092 189.375C127.247 189.311 127.413 189.278 127.581 189.278C127.749 189.278 127.915 189.311 128.07 189.375C128.225 189.439 128.366 189.534 128.485 189.652C128.604 189.771 128.698 189.912 128.762 190.067C128.826 190.222 128.86 190.388 128.86 190.556V193.344C128.86 193.512 128.826 193.678 128.762 193.833C128.698 193.989 128.604 194.129 128.485 194.248C128.366 194.367 128.225 194.461 128.07 194.525C127.915 194.59 127.749 194.623 127.581 194.623C127.413 194.623 127.247 194.59 127.092 194.525C126.937 194.461 126.796 194.367 126.677 194.248C126.558 194.129 126.464 193.989 126.4 193.833C126.336 193.678 126.303 193.512 126.303 193.344V190.556ZM127.139 193.399C127.139 193.779 127.309 193.922 127.581 193.922C127.853 193.922 128.016 193.779 128.016 193.399V190.502C128.016 190.121 127.846 189.978 127.581 189.978C127.316 189.978 127.139 190.121 127.139 190.502V193.399Z" fill="white"/>
<path d="M129.355 190.087C129.355 189.872 129.441 189.667 129.592 189.515C129.744 189.363 129.95 189.278 130.165 189.278C130.379 189.278 130.585 189.363 130.737 189.515C130.889 189.667 130.974 189.872 130.974 190.087V191.848C130.974 192.063 130.889 192.269 130.737 192.42C130.585 192.572 130.379 192.657 130.165 192.657C129.95 192.657 129.744 192.572 129.592 192.42C129.441 192.269 129.355 192.063 129.355 191.848V190.087ZM129.893 191.889C129.893 192.127 129.988 192.229 130.165 192.229C130.341 192.229 130.443 192.127 130.443 191.889V190.053C130.443 189.815 130.335 189.713 130.165 189.713C129.995 189.713 129.893 189.815 129.893 190.053V191.889ZM132.279 189.271H132.776L130.661 194.629H130.165L132.279 189.271ZM132.007 192.052C131.997 191.939 132.01 191.825 132.047 191.718C132.083 191.61 132.141 191.512 132.217 191.428C132.294 191.344 132.387 191.277 132.491 191.231C132.594 191.185 132.707 191.162 132.82 191.162C132.934 191.162 133.046 191.185 133.149 191.231C133.253 191.277 133.346 191.344 133.423 191.428C133.499 191.512 133.557 191.61 133.594 191.718C133.63 191.825 133.643 191.939 133.633 192.052V193.8C133.643 193.913 133.63 194.027 133.594 194.134C133.557 194.242 133.499 194.34 133.423 194.424C133.346 194.508 133.253 194.575 133.149 194.621C133.046 194.667 132.934 194.69 132.82 194.69C132.707 194.69 132.594 194.667 132.491 194.621C132.387 194.575 132.294 194.508 132.217 194.424C132.141 194.34 132.083 194.242 132.047 194.134C132.01 194.027 131.997 193.913 132.007 193.8V192.052ZM132.545 193.847C132.545 194.085 132.647 194.187 132.823 194.187C133 194.187 133.095 194.085 133.095 193.847V192.011C133.095 191.773 132.993 191.671 132.823 191.671C132.653 191.671 132.545 191.773 132.545 192.011V193.847Z" fill="white"/>
<path d="M94.9067 113.714C101.028 105.166 99.0599 93.2743 90.5119 87.1536C81.9639 81.0328 70.0726 83.0004 63.9518 91.5484C57.831 100.096 59.7986 111.988 68.3466 118.109C76.8946 124.229 88.786 122.262 94.9067 113.714Z" stroke="#263238" stroke-width="0.996243" stroke-linecap="round" stroke-linejoin="round"/>
<path d="M94.6687 87.7201C90.8922 84.0258 85.8663 81.8842 80.586 81.7193C75.3057 81.5543 70.1559 83.378 66.1562 86.8293" stroke="#263238" stroke-linecap="round" stroke-linejoin="round"/>
<path d="M99.5305 110.452C100.931 106.882 101.331 102.998 100.687 99.2174C100.044 95.437 98.3814 91.9037 95.8789 88.998" stroke="#263238" stroke-linecap="round" stroke-linejoin="round"/>
<path d="M95.0293 122.4L98.8645 124.685L95.6141 116.824C96.1488 116.23 96.6483 115.606 97.1101 114.954" stroke="#263238" stroke-linecap="round" stroke-linejoin="round"/>
<path d="M66.1562 118.701C69.6351 121.701 73.9988 123.483 78.5835 123.775C83.1681 124.067 87.7227 122.854 91.5542 120.319L93.4446 121.441" stroke="#263238" stroke-linecap="round" stroke-linejoin="round"/>
<path d="M60.3701 94.9551C58.9403 98.5413 58.5227 102.451 59.1631 106.258C59.8034 110.066 61.477 113.624 64.0013 116.545" stroke="#263238" stroke-linecap="round" stroke-linejoin="round"/>
<path d="M62.505 90.9429C62.0398 91.6207 61.6173 92.3271 61.2402 93.0577" stroke="#263238" stroke-linecap="round" stroke-linejoin="round"/>
<path d="M76.4935 109.643L69.8907 103.285C69.5958 103.001 69.4259 102.611 69.4182 102.202C69.4106 101.793 69.5659 101.397 69.8499 101.102C70.134 100.807 70.5235 100.637 70.9329 100.63C71.3422 100.622 71.7378 100.777 72.0327 101.061" stroke="#263238" stroke-linecap="round" stroke-linejoin="round"/>
<path d="M87.4274 94.5677C87.6546 94.2269 88.008 93.9902 88.4097 93.9099C88.8114 93.8295 89.2285 93.9121 89.5694 94.1393C89.9103 94.3665 90.1469 94.7199 90.2272 95.1216C90.3076 95.5233 90.225 95.9404 89.9978 96.2813L80.2942 110.786C80.1697 110.974 80.0052 111.133 79.8124 111.25C79.6197 111.368 79.4034 111.441 79.179 111.466H79.043C78.6328 111.471 78.2369 111.315 77.9414 111.031" stroke="#263238" stroke-linecap="round" stroke-linejoin="round"/>
<path d="M73.5352 102.517L78.7508 107.535L86.156 96.4648" stroke="#263238" stroke-linecap="round" stroke-linejoin="round"/>
<path d="M276.759 103.768C276.759 103.768 267.239 102.714 261.411 92.2622C255.584 81.8106 224.283 85.2446 224.283 85.2446C224.283 85.2446 224.467 88.903 229.308 89.8482L225.908 91.4802C225.908 91.4802 226.901 95.669 235.768 95.295L233.402 97.9198C233.402 97.9198 237.128 100.959 246.472 99.6266L244.71 101.891C244.71 101.891 249.076 104.931 256.488 102.795L255.679 104.869C255.679 104.869 261.296 105.277 264.607 103.829C264.621 103.829 271.026 107.78 276.759 103.768Z" fill="white"/>
<mask id="mask5_498_11506" style="mask-type:luminance" maskUnits="userSpaceOnUse" x="224" y="84" width="53" height="22">
<path d="M276.759 103.768C276.759 103.768 267.239 102.714 261.411 92.2622C255.584 81.8106 224.283 85.2446 224.283 85.2446C224.283 85.2446 224.467 88.903 229.308 89.8482L225.908 91.4802C225.908 91.4802 226.901 95.669 235.768 95.295L233.402 97.9198C233.402 97.9198 237.128 100.959 246.472 99.6266L244.71 101.891C244.71 101.891 249.076 104.931 256.488 102.795L255.679 104.869C255.679 104.869 261.296 105.277 264.607 103.829C264.621 103.829 271.026 107.78 276.759 103.768Z" fill="white"/>
</mask>
<g mask="url(#mask5_498_11506)">
<path opacity="0.4" d="M276.759 103.775C271.006 107.78 264.601 103.836 264.601 103.836C261.289 105.271 255.672 104.876 255.672 104.876L256.461 102.768C249.056 104.91 244.69 101.864 244.69 101.864L246.451 99.5994C237.108 100.959 233.382 97.8858 233.382 97.8858L235.789 95.3018C226.949 95.6622 225.936 91.4802 225.936 91.4802L229.336 89.855C224.494 88.903 224.311 85.2446 224.311 85.2446C224.311 85.2446 226.085 88.4066 231.199 88.3046C231.199 88.3046 230.342 90.4398 235.578 90.8342C235.578 90.8342 240.005 92.7178 243.215 91.3102C243.215 91.3102 244.289 93.4998 248.138 93.1258L246.839 94.8462C246.839 94.8462 247.24 97.1038 252.007 95.9818L251.327 98.1986C251.327 98.1986 252.891 100.014 259.025 98.661C259.025 98.661 257.107 99.9122 257.739 100.551C258.372 101.191 260.303 101.497 261.976 101.333C261.949 101.32 268.497 106.495 276.759 103.775Z" fill="#92E3A9"/>
</g>
<path d="M276.759 103.768C276.759 103.768 267.239 102.714 261.411 92.2622C255.584 81.8106 224.283 85.2446 224.283 85.2446C224.283 85.2446 224.467 88.903 229.308 89.8482L225.908 91.4802C225.908 91.4802 226.901 95.669 235.768 95.295L233.402 97.9198C233.402 97.9198 237.128 100.959 246.472 99.6266L244.71 101.891C244.71 101.891 249.076 104.931 256.488 102.795L255.679 104.869C255.679 104.869 261.296 105.277 264.607 103.829C264.621 103.829 271.026 107.78 276.759 103.768Z" stroke="#263238" stroke-linecap="round" stroke-linejoin="round"/>
<path d="M236.231 87.23C233.083 88.0256 231.179 87.774 228.84 88.964C228.84 88.964 230.88 91.752 236.252 91.378" fill="white"/>
<path d="M236.231 87.23C233.083 88.0256 231.179 87.774 228.84 88.964C228.84 88.964 230.88 91.752 236.252 91.378" stroke="#263238" stroke-linecap="round" stroke-linejoin="round"/>
<path d="M238.626 92.48C237.271 92.7685 235.946 93.1828 234.668 93.7176C234.668 93.7176 235.443 97.342 243.95 95.608" stroke="#263238" stroke-linecap="round" stroke-linejoin="round"/>
<path d="M247.26 96.791L244.799 98.3958C247.689 99.5772 250.878 99.8152 253.911 99.0758" stroke="#263238" stroke-linecap="round" stroke-linejoin="round"/>
<path d="M256.359 99.1372C256.359 99.1372 253.924 100.851 254.006 101.089C254.088 101.327 258.882 103.129 263.22 100.769" fill="white"/>
<path d="M256.359 99.1372C256.359 99.1372 253.924 100.851 254.006 101.089C254.088 101.327 258.882 103.129 263.22 100.769" stroke="#263238" stroke-linecap="round" stroke-linejoin="round"/>
<path d="M241.4 88.2568C239.911 88.9368 235.497 89.576 235.205 90.222C235.205 90.222 236.647 94.2612 244.045 91.9832" fill="white"/>
<path d="M241.4 88.2568C239.911 88.9368 235.497 89.576 235.205 90.222C235.205 90.222 236.647 94.2612 244.045 91.9832" stroke="#263238" stroke-linecap="round" stroke-linejoin="round"/>
<path d="M246.356 92.9692C245.23 93.4208 244.175 94.0298 243.221 94.778C243.221 94.778 246.09 98.7628 253.06 95.322" fill="white"/>
<path d="M246.356 92.9692C245.23 93.4208 244.175 94.0298 243.221 94.778C243.221 94.778 246.09 98.7628 253.06 95.322" stroke="#263238" stroke-linecap="round" stroke-linejoin="round"/>
<path d="M253.946 95.3154C253.332 95.5907 252.781 95.9884 252.326 96.4842C251.871 96.98 251.522 97.5633 251.301 98.1986C251.301 98.1986 254.748 100.429 260.658 98.1102" fill="white"/>
<path d="M253.946 95.3154C253.332 95.5907 252.781 95.9884 252.326 96.4842C251.871 96.98 251.522 97.5633 251.301 98.1986C251.301 98.1986 254.748 100.429 260.658 98.1102" stroke="#263238" stroke-linecap="round" stroke-linejoin="round"/>
<path d="M247.519 89.6372C247.519 89.6372 243.317 90.5348 243.201 91.31C243.201 91.31 246.601 94.2136 251.98 92.7516" fill="white"/>
<path d="M247.519 89.6372C247.519 89.6372 243.317 90.5348 243.201 91.31C243.201 91.31 246.601 94.2136 251.98 92.7516" stroke="#263238" stroke-linecap="round" stroke-linejoin="round"/>
<path d="M252.612 92.3779C251.959 92.7088 251.392 93.1859 250.953 93.7719C250.953 93.7719 252.578 96.1791 256.767 94.8667" fill="white"/>
<path d="M252.612 92.3779C251.959 92.7088 251.392 93.1859 250.953 93.7719C250.953 93.7719 252.578 96.1791 256.767 94.8667" stroke="#263238" stroke-linecap="round" stroke-linejoin="round"/>
<path d="M281.519 89.1546L278.228 90.2902L276.65 86.9922C276.573 86.8253 276.435 86.6935 276.265 86.6229C276.095 86.5524 275.905 86.5483 275.732 86.6114L264.519 90.4398C264.337 90.507 264.181 90.6315 264.076 90.7946C263.97 90.9576 263.921 91.1505 263.934 91.3442L264.226 95.0774L245.533 101.517C245.098 101.675 244.736 101.989 244.52 102.399C244.304 102.809 244.248 103.285 244.364 103.734L251.912 132.192C251.965 132.403 252.061 132.602 252.195 132.774C252.329 132.946 252.497 133.088 252.689 133.192C252.881 133.296 253.092 133.358 253.31 133.376C253.527 133.393 253.746 133.365 253.952 133.293L289.917 120.904C290.352 120.745 290.713 120.43 290.93 120.021C291.147 119.612 291.205 119.137 291.093 118.687L283.559 90.263C283.506 90.0514 283.409 89.8531 283.275 89.6807C283.142 89.5083 282.974 89.3655 282.782 89.2613C282.59 89.1571 282.379 89.0939 282.162 89.0755C281.944 89.0571 281.725 89.0841 281.519 89.1546Z" fill="#92E3A9"/>
<mask id="mask6_498_11506" style="mask-type:luminance" maskUnits="userSpaceOnUse" x="244" y="86" width="48" height="48">
<path d="M281.519 89.1546L278.228 90.2902L276.65 86.9922C276.573 86.8253 276.435 86.6935 276.265 86.6229C276.095 86.5524 275.905 86.5483 275.732 86.6114L264.519 90.4398C264.337 90.507 264.181 90.6315 264.076 90.7946C263.97 90.9576 263.921 91.1505 263.934 91.3442L264.226 95.0774L245.533 101.517C245.098 101.675 244.736 101.989 244.52 102.399C244.304 102.809 244.248 103.285 244.364 103.734L251.912 132.192C251.965 132.403 252.061 132.602 252.195 132.774C252.329 132.946 252.497 133.088 252.689 133.192C252.881 133.296 253.092 133.358 253.31 133.376C253.527 133.393 253.746 133.365 253.952 133.293L289.917 120.904C290.352 120.745 290.713 120.43 290.93 120.021C291.147 119.612 291.205 119.137 291.093 118.687L283.559 90.263C283.506 90.0514 283.409 89.8531 283.275 89.6807C283.142 89.5083 282.974 89.3655 282.782 89.2613C282.59 89.1571 282.379 89.0939 282.162 89.0755C281.944 89.0571 281.725 89.0841 281.519 89.1546Z" fill="white"/>
</mask>
<g mask="url(#mask6_498_11506)">
<path opacity="0.2" d="M281.519 89.1546L278.228 90.2902L276.65 86.9922C276.573 86.8253 276.435 86.6935 276.265 86.6229C276.095 86.5524 275.905 86.5483 275.732 86.6114L264.519 90.4398C264.337 90.507 264.181 90.6315 264.076 90.7946C263.97 90.9576 263.921 91.1505 263.934 91.3442L264.226 95.0774L245.533 101.517C245.098 101.675 244.736 101.989 244.52 102.399C244.304 102.809 244.248 103.285 244.364 103.734L251.912 132.192C251.965 132.403 252.061 132.602 252.195 132.774C252.329 132.946 252.497 133.088 252.689 133.192C252.881 133.296 253.092 133.358 253.31 133.376C253.527 133.393 253.746 133.365 253.952 133.293L289.917 120.904C290.352 120.745 290.713 120.43 290.93 120.021C291.147 119.612 291.205 119.137 291.093 118.687L283.559 90.263C283.506 90.0514 283.409 89.8531 283.275 89.6807C283.142 89.5083 282.974 89.3655 282.782 89.2613C282.59 89.1571 282.379 89.0939 282.162 89.0755C281.944 89.0571 281.725 89.0841 281.519 89.1546Z" fill="black"/>
</g>
<path d="M281.519 89.1546L278.228 90.2902L276.65 86.9922C276.573 86.8253 276.435 86.6935 276.265 86.6229C276.095 86.5524 275.905 86.5483 275.732 86.6114L264.519 90.4398C264.337 90.507 264.181 90.6315 264.076 90.7946C263.97 90.9576 263.921 91.1505 263.934 91.3442L264.226 95.0774L245.533 101.517C245.098 101.675 244.736 101.989 244.52 102.399C244.304 102.809 244.248 103.285 244.364 103.734L251.912 132.192C251.965 132.403 252.061 132.602 252.195 132.774C252.329 132.946 252.497 133.088 252.689 133.192C252.881 133.296 253.092 133.358 253.31 133.376C253.527 133.393 253.746 133.365 253.952 133.293L289.917 120.904C290.352 120.745 290.713 120.43 290.93 120.021C291.147 119.612 291.205 119.137 291.093 118.687L283.559 90.263C283.506 90.0514 283.409 89.8531 283.275 89.6807C283.142 89.5083 282.974 89.3655 282.782 89.2613C282.59 89.1571 282.379 89.0939 282.162 89.0755C281.944 89.0571 281.725 89.0841 281.519 89.1546Z" stroke="#263238" stroke-linecap="round" stroke-linejoin="round"/>
<path d="M289.734 120.965L253.769 133.355C253.32 133.495 252.836 133.472 252.402 133.289C251.969 133.106 251.615 132.775 251.403 132.355L251.226 131.995L242.76 114.43L238.564 105.753C238.464 105.561 238.406 105.348 238.396 105.131C238.386 104.914 238.423 104.697 238.506 104.496C238.588 104.294 238.713 104.113 238.872 103.965C239.031 103.817 239.221 103.706 239.428 103.639L275.4 91.2559C275.848 91.1118 276.333 91.1326 276.767 91.3147C277.201 91.4968 277.555 91.828 277.766 92.2487L290.625 118.857C290.725 119.051 290.781 119.265 290.79 119.483C290.798 119.701 290.758 119.919 290.673 120.12C290.588 120.321 290.46 120.501 290.298 120.647C290.136 120.793 289.943 120.902 289.734 120.965Z" fill="#92E3A9"/>
<mask id="mask7_498_11506" style="mask-type:luminance" maskUnits="userSpaceOnUse" x="238" y="91" width="53" height="43">
<path d="M289.734 120.965L253.769 133.355C253.32 133.495 252.836 133.472 252.402 133.289C251.969 133.106 251.615 132.775 251.403 132.355L251.226 131.995L242.76 114.43L238.564 105.753C238.464 105.561 238.406 105.348 238.396 105.131C238.386 104.914 238.423 104.697 238.506 104.496C238.588 104.294 238.713 104.113 238.872 103.965C239.031 103.817 239.221 103.706 239.428 103.639L275.4 91.2559C275.848 91.1118 276.333 91.1326 276.767 91.3147C277.201 91.4968 277.555 91.828 277.766 92.2487L290.625 118.857C290.725 119.051 290.781 119.265 290.79 119.483C290.798 119.701 290.758 119.919 290.673 120.12C290.588 120.321 290.46 120.501 290.298 120.647C290.136 120.793 289.943 120.902 289.734 120.965Z" fill="white"/>
</mask>
<g mask="url(#mask7_498_11506)">
<path opacity="0.2" d="M264.044 114.668C263.85 117.025 262.875 119.249 261.274 120.988C259.672 122.727 257.536 123.882 255.204 124.27C254.455 127.1 253.102 129.736 251.239 131.995L242.76 114.43C249.92 115.668 258.162 116.361 264.044 114.668Z" fill="black"/>
</g>
<path d="M289.734 120.965L253.769 133.355C253.32 133.495 252.836 133.472 252.402 133.289C251.969 133.106 251.615 132.775 251.403 132.355L251.226 131.995L242.76 114.43L238.564 105.753C238.464 105.561 238.406 105.348 238.396 105.131C238.386 104.914 238.423 104.697 238.506 104.496C238.588 104.294 238.713 104.113 238.872 103.965C239.031 103.817 239.221 103.706 239.428 103.639L275.4 91.2559C275.848 91.1118 276.333 91.1326 276.767 91.3147C277.201 91.4968 277.555 91.828 277.766 92.2487L290.625 118.857C290.725 119.051 290.781 119.265 290.79 119.483C290.798 119.701 290.758 119.919 290.673 120.12C290.588 120.321 290.46 120.501 290.298 120.647C290.136 120.793 289.943 120.902 289.734 120.965Z" stroke="#263238" stroke-linecap="round" stroke-linejoin="round"/>
<path d="M264.043 114.661C264.043 114.661 254.713 116.701 245.812 108.691C236.911 100.681 208.412 113.954 208.412 113.954C208.412 113.954 209.772 117.354 214.641 116.674L211.969 119.306C211.969 119.306 214.247 122.951 222.529 119.755L221.081 122.985C221.081 122.985 225.582 124.671 234.001 120.407L233.055 123.127C233.055 123.127 238.169 124.603 244.5 120.21L244.425 122.454C244.425 122.454 249.865 121.033 252.551 118.605C252.551 118.626 259.881 120.305 264.043 114.661Z" fill="white"/>
<mask id="mask8_498_11506" style="mask-type:luminance" maskUnits="userSpaceOnUse" x="208" y="106" width="57" height="18">
<path d="M264.043 114.661C264.043 114.661 254.713 116.701 245.812 108.691C236.911 100.681 208.412 113.954 208.412 113.954C208.412 113.954 209.772 117.354 214.641 116.674L211.969 119.306C211.969 119.306 214.247 122.951 222.529 119.755L221.081 122.985C221.081 122.985 225.582 124.671 234.001 120.407L233.055 123.127C233.055 123.127 238.169 124.603 244.5 120.21L244.425 122.454C244.425 122.454 249.865 121.033 252.551 118.605C252.551 118.626 259.881 120.305 264.043 114.661Z" fill="white"/>
</mask>
<g mask="url(#mask8_498_11506)">
<path opacity="0.4" d="M264.044 114.668C259.882 120.306 252.552 118.626 252.552 118.626C249.879 121.054 244.426 122.475 244.426 122.475L244.501 120.224C238.17 124.63 233.056 123.148 233.056 123.148L234.001 120.428C225.583 124.698 221.081 123.005 221.081 123.005L222.53 119.782C214.247 122.971 211.969 119.326 211.969 119.326L214.649 116.695C209.753 117.375 208.406 113.975 208.406 113.975C208.406 113.975 211.126 116.396 215.886 114.655C215.886 114.655 215.757 116.953 220.843 115.648C220.843 115.648 225.644 116.015 228.228 113.648C228.228 113.648 229.955 115.376 233.478 113.791L232.798 115.831C232.798 115.831 233.899 117.837 238.061 115.246L238.109 117.572C238.109 117.572 240.149 118.782 245.555 115.532C245.555 115.532 244.14 117.334 244.936 117.735C245.731 118.136 247.656 117.803 249.206 117.116C249.22 117.116 257.074 119.904 264.044 114.668Z" fill="#92E3A9"/>
</g>
<path d="M264.043 114.661C264.043 114.661 254.713 116.701 245.812 108.691C236.911 100.681 208.412 113.954 208.412 113.954C208.412 113.954 209.772 117.354 214.641 116.674L211.969 119.306C211.969 119.306 214.247 122.951 222.529 119.755L221.081 122.985C221.081 122.985 225.582 124.671 234.001 120.407L233.055 123.127C233.055 123.127 238.169 124.603 244.5 120.21L244.425 122.454C244.425 122.454 249.865 121.033 252.551 118.605C252.551 118.626 259.881 120.305 264.043 114.661Z" stroke="#263238" stroke-linecap="round" stroke-linejoin="round"/>
<path d="M220.319 112.009C217.599 113.777 215.708 114.138 213.879 116.021C213.879 116.021 216.728 118 221.672 115.926" fill="white"/>
<path d="M220.319 112.009C217.599 113.777 215.708 114.138 213.879 116.021C213.879 116.021 216.728 118 221.672 115.926" stroke="#263238" stroke-linecap="round" stroke-linejoin="round"/>
<path d="M224.277 116.185C223.088 116.892 221.968 117.709 220.932 118.626C220.932 118.626 222.822 121.815 230.322 117.436" stroke="#263238" stroke-linecap="round" stroke-linejoin="round"/>
<path d="M233.851 117.524L232.008 119.843C235.125 120.024 238.218 119.214 240.848 117.531" stroke="#263238" stroke-linecap="round" stroke-linejoin="round"/>
<path d="M243.188 116.837C243.188 116.837 241.434 119.238 241.59 119.442C241.746 119.646 246.86 119.809 250.212 116.178" fill="white"/>
<path d="M243.188 116.837C243.188 116.837 241.434 119.238 241.59 119.442C241.746 119.646 246.86 119.809 250.212 116.178" stroke="#263238" stroke-linecap="round" stroke-linejoin="round"/>
<path d="M225.568 111.316C224.364 112.404 220.4 114.458 220.332 115.165C220.332 115.165 222.998 118.531 229.288 113.995" fill="white"/>
<path d="M225.568 111.316C224.364 112.404 220.4 114.458 220.332 115.165C220.332 115.165 222.998 118.531 229.288 113.995" stroke="#263238" stroke-linecap="round" stroke-linejoin="round"/>
<path d="M231.764 114.192C230.844 114.982 230.041 115.898 229.377 116.912C229.377 116.912 233.375 119.768 238.897 114.274" fill="white"/>
<path d="M231.764 114.192C230.844 114.982 230.041 115.898 229.377 116.912C229.377 116.912 233.375 119.768 238.897 114.274" stroke="#263238" stroke-linecap="round" stroke-linejoin="round"/>
<path d="M239.707 113.981C239.213 114.44 238.819 114.994 238.547 115.61C238.276 116.226 238.134 116.892 238.129 117.565C238.129 117.565 242.1 118.571 246.969 114.478" fill="white"/>
<path d="M239.707 113.981C239.213 114.44 238.819 114.994 238.547 115.61C238.276 116.226 238.134 116.892 238.129 117.565C238.129 117.565 242.1 118.571 246.969 114.478" stroke="#263238" stroke-linecap="round" stroke-linejoin="round"/>
<path d="M231.798 110.663C231.798 110.663 228.105 112.866 228.248 113.635C228.248 113.635 232.376 115.301 237.02 112.186" fill="white"/>
<path d="M231.798 110.663C231.798 110.663 228.105 112.866 228.248 113.635C228.248 113.635 232.376 115.301 237.02 112.186" stroke="#263238" stroke-linecap="round" stroke-linejoin="round"/>
<path d="M237.503 111.628C236.989 112.148 236.604 112.782 236.381 113.478C236.381 113.478 238.693 115.239 242.236 112.655" fill="white"/>
<path d="M237.503 111.628C236.989 112.148 236.604 112.782 236.381 113.478C236.381 113.478 238.693 115.239 242.236 112.655" stroke="#263238" stroke-linecap="round" stroke-linejoin="round"/>
<path d="M191.297 211.432C192.106 211.16 192.963 210.847 193.854 210.5" stroke="#263238" stroke-width="2" stroke-linecap="round" stroke-linejoin="round"/>
<path d="M196.947 209.202C212.288 202.334 234.755 185.878 229.92 159.099C225.936 137.067 207.718 139.033 202.238 143.575C192.942 151.286 191.528 169.415 204.958 173.209C227.262 179.459 244.214 151.613 249.756 141.018" stroke="#263238" stroke-width="2" stroke-linecap="round" stroke-linejoin="round" stroke-dasharray="7.9 4.94"/>
<path d="M250.553 139.522C251.321 137.985 251.722 137.067 251.722 137.067" stroke="#263238" stroke-width="2" stroke-linecap="round" stroke-linejoin="round"/>
</svg>
