<svg width="30" height="30" viewBox="0 0 30 30" fill="none" xmlns="http://www.w3.org/2000/svg">
<g clip-path="url(#clip0_418_9708)">
<path d="M24.4141 7.53123H21.5273V3.70312C21.5273 1.65779 19.8725 0 17.8242 0H6.52734C4.48201 0 2.82422 1.6548 2.82422 3.70312V26.2969C2.82422 28.3422 4.47902 30 6.52734 30H17.8242C19.892 30.0021 21.5623 28.3039 21.5273 26.2344H24.4141C25.9581 26.2344 27.1758 24.9802 27.1758 23.4726V10.293C27.1758 8.77998 25.953 7.53123 24.4141 7.53123ZM19.7695 26.2969C19.7695 27.3721 18.8999 28.2422 17.8242 28.2422H6.52734C5.45209 28.2422 4.58203 27.3726 4.58203 26.2969V3.70312C4.58203 2.62793 5.45162 1.75781 6.52734 1.75781H17.8242C18.8995 1.75781 19.7695 2.62746 19.7695 3.70312V7.53123H9.35156C7.8075 7.53123 6.58986 8.78537 6.58986 10.293V23.4727C6.58986 24.9857 7.8126 26.2344 9.35156 26.2344H19.7695V26.2969ZM25.418 19.7695H21.5899C21.0363 19.7695 20.586 19.3191 20.586 18.7656C20.586 18.212 21.0363 17.7617 21.5899 17.7617H25.418V19.7695ZM25.418 16.0039H21.5899C20.0671 16.0039 18.8282 17.2429 18.8282 18.7656C18.8282 20.2884 20.0671 21.5274 21.5899 21.5274H25.418V23.4727C25.418 24.021 24.9746 24.4766 24.4141 24.4766H9.35156C8.80465 24.4766 8.34768 24.0345 8.34768 23.4727V12.8674C8.66332 12.9904 9.00246 13.0547 9.35156 13.0547H24.414C24.9609 13.0547 25.4179 13.4968 25.4179 14.0586L25.418 16.0039ZM25.418 11.4854C25.107 11.3637 24.7686 11.2969 24.415 11.2969H9.35156C8.79803 11.2969 8.34768 10.8465 8.34768 10.293C8.34768 9.73945 8.79803 9.28904 9.35156 9.28904H24.414C24.9609 9.28904 25.4179 9.73119 25.4179 10.293L25.418 11.4854Z" fill="#569A59"/>
<path d="M11.2346 5.52344H13.1174C14.2815 5.48061 14.2822 3.80869 13.1174 3.76562H11.2346C10.0705 3.80846 10.0699 5.48031 11.2346 5.52344Z" fill="#569A59"/>
</g>
<defs>
<clipPath id="clip0_418_9708">
<rect width="30" height="30" fill="white"/>
</clipPath>
</defs>
</svg>
