<svg width="34" height="34" viewBox="0 0 34 34" fill="none" xmlns="http://www.w3.org/2000/svg">
<g clip-path="url(#clip0_421_9942)">
<path d="M12.75 5.66667H9.91667C9.91667 2.5415 12.4582 0 15.5833 0C18.7085 0 21.25 2.5415 21.25 5.66667H18.4167C18.4167 4.10408 17.1459 2.83333 15.5833 2.83333C14.0207 2.83333 12.75 4.10408 12.75 5.66667ZM24.0833 15.5833C23.3013 15.5833 22.6667 16.218 22.6667 17C22.6667 17.782 23.3013 18.4167 24.0833 18.4167C24.8653 18.4167 25.5 17.782 25.5 17C25.5 16.218 24.8653 15.5833 24.0833 15.5833ZM34 15.5833V24.0833H31.7517C30.8097 26.3982 29.1054 28.3518 26.9167 29.6197V34H18.4167V31.1667H15.5833V34H7.08333V29.6367C3.61392 27.625 1.41667 23.8708 1.41667 19.8333C1.41667 18.1716 1.7765 16.592 2.42108 15.1697C0.99025 14.4854 0 13.0234 0 11.3333C0 8.99017 1.90683 7.08333 4.25 7.08333V9.91667C3.46942 9.91667 2.83333 10.5513 2.83333 11.3333C2.83333 12.0077 3.3065 12.5729 3.93833 12.7146C6.018 10.1448 9.19558 8.5 12.75 8.5H21.25C21.4087 8.5 21.5673 8.50425 21.726 8.50992C23.3027 4.2585 28.3333 4.25 28.3333 4.25V11.0117C29.8208 12.2046 31.0151 13.7686 31.7532 15.5833H34ZM31.1667 18.4167H29.6933L29.3916 17.4037C28.3277 13.8309 24.9787 11.3333 21.2486 11.3333H12.7486C8.06083 11.3333 4.24858 15.1456 4.24858 19.8333C4.24858 23.0888 6.15542 26.0992 9.10775 27.5032L9.91525 27.8871V31.1653H12.7486V28.3319H21.2486V31.1653H24.0819V27.8715L24.888 27.4876C27.0725 26.4449 28.713 24.5395 29.3916 22.2629L29.6933 21.25H31.1667V18.4167Z" fill="#74EEAE"/>
</g>
<defs>
<clipPath id="clip0_421_9942">
<rect width="34" height="34" fill="white"/>
</clipPath>
</defs>
</svg>
