<svg width="120" height="120" viewBox="0 0 120 120" fill="none" xmlns="http://www.w3.org/2000/svg">
<path d="M95 19.9967H89.495C87.17 8.60357 77.07 0 65 0H25C11.215 0 0 11.2131 0 24.9958V89.2551C0 93.2245 2.175 96.8539 5.67 98.7235C7.26 99.5784 9.005 99.9983 10.745 99.9983C12.825 99.9983 14.9 99.3934 16.695 98.1986L31.445 88.3653C34.9 98.0387 44.15 104.983 55 104.983H83.485L103.305 118.195C105.105 119.395 107.175 120 109.255 120C110.995 120 112.735 119.575 114.33 118.72C117.83 116.851 120 113.221 120 109.252V44.9925C120 31.2098 108.785 19.9967 95 19.9967ZM11.15 89.88C11.055 89.94 10.775 90.12 10.39 89.915C9.995 89.7051 9.995 89.3701 9.995 89.2601V24.9958C9.995 16.7272 16.725 9.99833 24.995 9.99833H64.995C73.265 9.99833 79.995 16.7272 79.995 24.9958V59.99C79.995 68.2586 73.265 74.9875 64.995 74.9875H34.995C33.36 74.9875 32.29 75.7824 32.17 75.8624L11.15 89.88ZM110 109.257C110 109.362 110 109.702 109.605 109.912C109.21 110.117 108.94 109.937 108.85 109.877L87.775 95.824C86.955 95.2791 85.99 94.9842 85 94.9842H55C48.48 94.9842 42.925 90.8049 40.86 84.9858H65C78.785 84.9858 90 73.7727 90 59.99V29.995H95C103.27 29.995 110 36.7239 110 44.9925V109.257Z" fill="#74EEAE"/>
</svg>
