<svg width="40" height="40" viewBox="0 0 40 40" fill="none" xmlns="http://www.w3.org/2000/svg">
<path fill-rule="evenodd" clip-rule="evenodd" d="M10.416 15C10.416 14.3097 10.9757 13.75 11.666 13.75H21.666C22.3563 13.75 22.916 14.3097 22.916 15C22.916 15.6903 22.3563 16.25 21.666 16.25H11.666C10.9757 16.25 10.416 15.6903 10.416 15Z" fill="#569A59"/>
<path fill-rule="evenodd" clip-rule="evenodd" d="M31.5334 17.833C30.935 17.833 30.4087 18.065 30.029 18.455L30.0065 18.4775C29.5632 18.9103 29.3155 19.5265 29.3779 20.1812L29.3792 20.1958C29.4674 21.2542 30.4848 22.1663 31.7334 22.1663H34.9714C35.2409 22.1488 35.4167 21.9382 35.4167 21.7163V18.283C35.4167 18.061 35.2409 17.8503 34.9714 17.833H31.5334ZM28.2488 16.6995C29.1017 15.8299 30.2707 15.333 31.5334 15.333H35C35.015 15.333 35.0299 15.3333 35.0447 15.3338C36.633 15.3905 37.9167 16.6758 37.9167 18.283V21.7163C37.9167 23.3235 36.633 24.6088 35.0447 24.6655C35.0299 24.666 35.015 24.6663 35 24.6663H31.7334C29.3842 24.6663 27.104 22.9485 26.8884 20.4108C26.7539 18.9738 27.3008 17.6313 28.2488 16.6995Z" fill="#569A59"/>
<path fill-rule="evenodd" clip-rule="evenodd" d="M11.6663 7.08301C11.2593 7.08301 10.873 7.11207 10.5064 7.16847L10.472 7.17327C8.62644 7.40487 7.17566 8.19502 6.18226 9.36052C5.18629 10.529 4.58301 12.1545 4.58301 14.1663V25.833C4.58301 28.049 5.31619 29.7985 6.50856 30.9908C7.70092 32.1832 9.45041 32.9163 11.6663 32.9163H26.6663C28.8823 32.9163 30.6318 32.1832 31.8242 30.9908C33.0165 29.7985 33.7497 28.049 33.7497 25.833V24.6663H31.733C29.3837 24.6663 27.1035 22.9485 26.888 20.4108C26.7533 18.9738 27.3005 17.6313 28.2485 16.6997C29.1012 15.8299 30.2702 15.333 31.533 15.333H33.7497V14.1663C33.7497 12.1408 33.1358 10.5053 32.1242 9.33299C31.1148 8.16337 29.6415 7.37536 27.772 7.15796C27.7515 7.15557 27.7312 7.15269 27.7108 7.14931C27.411 7.09934 27.074 7.08301 26.6663 7.08301H11.6663ZM10.1436 4.69489C10.6382 4.61974 11.1462 4.58301 11.6663 4.58301H26.6663C27.1158 4.58301 27.601 4.59926 28.0905 4.67819C30.508 4.96591 32.5655 6.01784 34.0168 7.69967C35.4718 9.38572 36.2497 11.6252 36.2497 14.1663V16.583C36.2497 17.2733 35.69 17.833 34.9997 17.833H31.533C30.9345 17.833 30.4082 18.065 30.0285 18.455L30.0062 18.4775C29.5627 18.9103 29.315 19.5267 29.3773 20.1812L29.3788 20.1958C29.467 21.2542 30.4845 22.1663 31.733 22.1663H34.9997C35.69 22.1663 36.2497 22.726 36.2497 23.4163V25.833C36.2497 28.617 35.3162 31.0342 33.5918 32.7585C31.8675 34.4828 29.4503 35.4163 26.6663 35.4163H11.6663C8.88228 35.4163 6.46509 34.4828 4.74079 32.7585C3.01649 31.0342 2.08301 28.617 2.08301 25.833V14.1663C2.08301 11.6449 2.84639 9.42032 4.27961 7.73882C5.71196 6.05832 7.74654 4.99951 10.1436 4.69489Z" fill="#569A59"/>
</svg>
