<svg width="61" height="74" viewBox="0 0 61 74" fill="none" xmlns="http://www.w3.org/2000/svg">
<g id="Group 1171275145">
<g id="Group 1171275139">
<path id="Vector" d="M35.0337 38.9492C35.0337 38.9492 34.1963 34.7458 30.6449 34.8168C27.6363 34.8765 26.3486 38.9573 26.3486 38.9573C26.3486 38.9573 28.3401 38.6022 30.4309 38.6038C32.4515 38.607 35.0337 38.9492 35.0337 38.9492Z" stroke="#00A24D" stroke-width="3" stroke-miterlimit="10"/>
<path id="Vector_2" d="M30.6458 38.9456C14.8511 38.9456 2.04443 51.1314 2.04443 66.0226C2.04443 66.0743 2.04957 65.879 2.04957 66.2922H59.2438C59.2438 65.879 59.2473 66.0565 59.2473 66.0049C59.2473 51.112 46.4423 38.9456 30.6458 38.9456Z" fill="#FFFDFD" stroke="#00A24D" stroke-width="3" stroke-miterlimit="10"/>
<path id="Vector_3" d="M22.9564 26.621C19.0745 23.1279 21.1173 18.6161 23.5129 15.3408C27.9565 9.2697 25.6568 6.09128 20.5454 1M41.4087 26.2078C38.871 23.9237 40.2083 20.9745 41.7734 18.8324C44.6776 14.863 43.1741 12.7855 39.8333 9.45695" stroke="#00A24D" stroke-width="2" stroke-miterlimit="10" stroke-linecap="round"/>
<path id="Vector_4" d="M60.217 73.2448H1.03809V69.5256H60.217V73.2448Z" fill="#00A24D"/>
</g>
</g>
</svg>
