<svg width="44" height="64" viewBox="0 0 44 64" fill="none" xmlns="http://www.w3.org/2000/svg">
<g id="Group 1171275300">
<g id="Group 1171275148">
<g id="Group 1171275147">
<rect id="Rectangle 40736" x="6.47705" y="22.9802" width="30.6339" height="40.5195" fill="white" stroke="#00A24D"/>
<g id="Union" filter="url(#filter0_d_290_34049)">
<mask id="path-2-inside-1_290_34049" fill="white">
<path fill-rule="evenodd" clip-rule="evenodd" d="M21.381 15.6509H35.8705L39.6193 28.2584H39.6191V38.785C39.6191 38.785 36.8102 40.4079 34.8453 40.3762C33.3118 40.3515 31.256 39.3021 30.5591 38.9212C29.8314 39.3112 27.6471 40.4023 26.0327 40.3762C24.541 40.3522 22.5554 39.3587 21.8066 38.954C21.024 39.3687 18.9129 40.4016 17.3416 40.3762C15.808 40.3515 13.7523 39.3021 13.0554 38.9212C12.3276 39.3112 10.1434 40.4023 8.52892 40.3762C6.65452 40.346 4 38.785 4 38.785V28.4419L4.01791 28.4416L7.71561 15.651H21.381V15.6509Z"/>
</mask>
<path fill-rule="evenodd" clip-rule="evenodd" d="M21.381 15.6509H35.8705L39.6193 28.2584H39.6191V38.785C39.6191 38.785 36.8102 40.4079 34.8453 40.3762C33.3118 40.3515 31.256 39.3021 30.5591 38.9212C29.8314 39.3112 27.6471 40.4023 26.0327 40.3762C24.541 40.3522 22.5554 39.3587 21.8066 38.954C21.024 39.3687 18.9129 40.4016 17.3416 40.3762C15.808 40.3515 13.7523 39.3021 13.0554 38.9212C12.3276 39.3112 10.1434 40.4023 8.52892 40.3762C6.65452 40.346 4 38.785 4 38.785V28.4419L4.01791 28.4416L7.71561 15.651H21.381V15.6509Z" fill="white"/>
<path d="M35.8705 15.6509L36.829 15.3659L36.6164 14.6509H35.8705V15.6509ZM21.381 15.6509V14.6509H20.381V15.6509H21.381ZM39.6193 28.2584V29.2584H40.9599L40.5778 27.9734L39.6193 28.2584ZM39.6191 28.2584V27.2584H38.6191V28.2584H39.6191ZM39.6191 38.785L40.1193 39.6508L40.6191 39.3621V38.785H39.6191ZM34.8453 40.3762L34.8292 41.3761L34.8453 40.3762ZM30.5591 38.9212L31.0386 38.0437L30.5637 37.7842L30.0868 38.0398L30.5591 38.9212ZM26.0327 40.3762L26.0165 41.3761L26.0327 40.3762ZM21.8066 38.954L22.2821 38.0743L21.8113 37.8197L21.3384 38.0704L21.8066 38.954ZM17.3416 40.3762L17.3255 41.3761H17.3255L17.3416 40.3762ZM13.0554 38.9212L13.5349 38.0437L13.06 37.7842L12.583 38.0398L13.0554 38.9212ZM8.52892 40.3762L8.51279 41.3761H8.51279L8.52892 40.3762ZM4 38.785H3V39.357L3.49309 39.647L4 38.785ZM4 28.4419L3.98025 27.4421L3 27.4615V28.4419H4ZM4.01791 28.4416L4.03766 29.4414L4.77402 29.4268L4.97857 28.7193L4.01791 28.4416ZM7.71561 15.651V14.651H6.96375L6.75494 15.3733L7.71561 15.651ZM21.381 15.651V16.651H22.381V15.651H21.381ZM35.8705 14.6509H21.381V16.6509H35.8705V14.6509ZM40.5778 27.9734L36.829 15.3659L34.9119 15.9359L38.6608 28.5434L40.5778 27.9734ZM39.6191 29.2584H39.6193V27.2584H39.6191V29.2584ZM40.6191 38.785V28.2584H38.6191V38.785H40.6191ZM34.8292 41.3761C36.0349 41.3955 37.3933 40.9227 38.3593 40.5132C38.8617 40.3002 39.2975 40.0869 39.6079 39.9268C39.7635 39.8466 39.8886 39.7791 39.9761 39.731C40.0199 39.707 40.0543 39.6877 40.0785 39.6741C40.0905 39.6673 40.1001 39.6619 40.1069 39.658C40.1103 39.656 40.1131 39.6544 40.1152 39.6532C40.1162 39.6526 40.1171 39.6521 40.1178 39.6517C40.1181 39.6515 40.1184 39.6514 40.1187 39.6512C40.1188 39.6511 40.119 39.651 40.119 39.651C40.1192 39.6509 40.1193 39.6508 39.6191 38.785C39.1188 37.9191 39.1189 37.919 39.119 37.919C39.119 37.919 39.1191 37.9189 39.1192 37.9189C39.1193 37.9188 39.1193 37.9188 39.1193 37.9188C39.1193 37.9188 39.1192 37.9189 39.1189 37.9191C39.1182 37.9194 39.1169 37.9202 39.115 37.9213C39.1111 37.9235 39.1046 37.9272 39.0956 37.9323C39.0777 37.9424 39.0498 37.958 39.0129 37.9783C38.9391 38.0188 38.8295 38.0779 38.6911 38.1493C38.4134 38.2925 38.0241 38.483 37.5787 38.6718C36.6491 39.0658 35.6206 39.3886 34.8615 39.3763L34.8292 41.3761ZM30.0796 39.7988C30.4479 40 31.1758 40.3785 32.0212 40.7124C32.8451 41.0377 33.8784 41.3608 34.8292 41.3761L34.8615 39.3763C34.2788 39.3669 33.5173 39.1529 32.7558 38.8522C32.0156 38.5599 31.3672 38.2233 31.0386 38.0437L30.0796 39.7988ZM26.0165 41.3761C27.0179 41.3922 28.1119 41.0702 28.9831 40.7397C29.8772 40.4005 30.6469 40.0087 31.0314 39.8027L30.0868 38.0398C29.7435 38.2237 29.0572 38.5725 28.2737 38.8698C27.4672 39.1757 26.6619 39.3862 26.0488 39.3763L26.0165 41.3761ZM21.3311 39.8337C21.7258 40.047 22.4493 40.4173 23.2786 40.7399C24.0878 41.0545 25.0904 41.3611 26.0165 41.3761L26.0488 39.3763C25.4833 39.3672 24.7473 39.1651 24.0035 38.8759C23.2799 38.5944 22.6363 38.2657 22.2821 38.0743L21.3311 39.8337ZM17.3255 41.3761C18.3014 41.3918 19.3636 41.0865 20.2196 40.767C21.0972 40.4393 21.8625 40.0561 22.2749 39.8375L21.3384 38.0704C20.9681 38.2666 20.2866 38.6071 19.5201 38.8933C18.7321 39.1875 17.9531 39.386 17.3577 39.3763L17.3255 41.3761ZM12.5758 39.7988C12.9442 40 13.6721 40.3785 14.5174 40.7124C15.3414 41.0377 16.3746 41.3608 17.3255 41.3761L17.3577 39.3763C16.775 39.3669 16.0136 39.1529 15.252 38.8522C14.5119 38.5599 13.8635 38.2233 13.5349 38.0437L12.5758 39.7988ZM8.51279 41.3761C9.51414 41.3922 10.6082 41.0702 11.4794 40.7397C12.3735 40.4005 13.1432 40.0087 13.5277 39.8027L12.583 38.0398C12.2398 38.2237 11.5535 38.5725 10.7699 38.8698C9.96347 39.1757 9.15813 39.3862 8.54504 39.3763L8.51279 41.3761ZM4 38.785C3.49309 39.647 3.49323 39.6471 3.49338 39.6471C3.49344 39.6472 3.4936 39.6473 3.49372 39.6473C3.49397 39.6475 3.49426 39.6477 3.49459 39.6479C3.49526 39.6482 3.49608 39.6487 3.49707 39.6493C3.49904 39.6505 3.50166 39.652 3.50491 39.6539C3.5114 39.6577 3.52042 39.6629 3.53186 39.6695C3.55473 39.6826 3.5873 39.7012 3.62872 39.7244C3.71152 39.7708 3.82996 39.836 3.97726 39.9137C4.27107 40.0688 4.68361 40.276 5.15972 40.485C6.07541 40.8868 7.36324 41.3575 8.51279 41.3761L8.54504 39.3763C7.82019 39.3647 6.84357 39.0398 5.96339 38.6535C5.54158 38.4684 5.17334 38.2835 4.91086 38.145C4.78 38.0759 4.67642 38.0189 4.60672 37.9798C4.5719 37.9603 4.54561 37.9453 4.52868 37.9356C4.52022 37.9307 4.5141 37.9272 4.51044 37.925C4.5086 37.924 4.50738 37.9233 4.50679 37.9229C4.5065 37.9227 4.50636 37.9227 4.50637 37.9227C4.50638 37.9227 4.50643 37.9227 4.50652 37.9227C4.50657 37.9228 4.50666 37.9228 4.50668 37.9228C4.50679 37.9229 4.50691 37.923 4 38.785ZM3 28.4419V38.785H5V28.4419H3ZM3.99815 27.4418L3.98025 27.4421L4.01975 29.4417L4.03766 29.4414L3.99815 27.4418ZM6.75494 15.3733L3.05725 28.1638L4.97857 28.7193L8.67627 15.9287L6.75494 15.3733ZM21.381 14.651H7.71561V16.651H21.381V14.651ZM20.381 15.6509V15.651H22.381V15.6509H20.381Z" fill="#00A24D" mask="url(#path-2-inside-1_290_34049)"/>
</g>
<rect id="Rectangle 40737" x="4.8893" y="28.9059" width="34.2042" height="0.98856" fill="#100F0F" stroke="#00A24D" stroke-width="0.98856"/>
<path id="Line 9" d="M12.8745 38.6624L12.8745 28.8701L14.2821 16.1402" stroke="#00A24D"/>
<path id="Line 10" d="M12.8745 38.6624L12.8745 28.8701L14.2821 16.1402" stroke="#00A24D"/>
<path id="Line 11" d="M30.5718 38.54L30.5718 28.7478L29.1641 16.0179" stroke="#00A24D"/>
<line id="Line 12" x1="22.0845" y1="37.9019" x2="22.0845" y2="15.7581" stroke="#00A24D"/>
</g>
</g>
<path id="Subtract" fill-rule="evenodd" clip-rule="evenodd" d="M27.5952 5.05175C27.5952 6.14208 27.2498 7.15173 26.6624 7.97725L22.4406 15.6705L17.8011 6.90725L17.8423 6.90457C17.616 6.33089 17.4917 5.70583 17.4917 5.05175C17.4917 2.26174 19.7534 0 22.5434 0C25.3334 0 27.5952 2.26174 27.5952 5.05175ZM22.5431 8.45384C24.3082 8.45384 25.7391 7.02294 25.7391 5.25784C25.7391 3.49273 24.3082 2.06183 22.5431 2.06183C20.778 2.06183 19.3471 3.49273 19.3471 5.25784C19.3471 7.02294 20.778 8.45384 22.5431 8.45384Z" fill="#00A24D"/>
<path id="Vector 14" d="M13.7144 63.6829V46.9526H29.9049V62.3445" stroke="#00A24D"/>
</g>
<defs>
<filter id="filter0_d_290_34049" x="0.403147" y="15.6509" width="42.8128" height="31.9195" filterUnits="userSpaceOnUse" color-interpolation-filters="sRGB">
<feFlood flood-opacity="0" result="BackgroundImageFix"/>
<feColorMatrix in="SourceAlpha" type="matrix" values="0 0 0 0 0 0 0 0 0 0 0 0 0 0 0 0 0 0 127 0" result="hardAlpha"/>
<feOffset dy="3.59685"/>
<feGaussianBlur stdDeviation="1.79843"/>
<feComposite in2="hardAlpha" operator="out"/>
<feColorMatrix type="matrix" values="0 0 0 0 0 0 0 0 0 0 0 0 0 0 0 0 0 0 0.25 0"/>
<feBlend mode="normal" in2="BackgroundImageFix" result="effect1_dropShadow_290_34049"/>
<feBlend mode="normal" in="SourceGraphic" in2="effect1_dropShadow_290_34049" result="shape"/>
</filter>
</defs>
</svg>
