<svg width="57" height="57" viewBox="0 0 57 57" fill="none" xmlns="http://www.w3.org/2000/svg">
<g id="Group 1171275229">
<g id="Group 1171275147">
<g id="Group 1171275144">
<g id="Vector">
<mask id="path-1-inside-1_290_33957" fill="white">
<path d="M56.3718 8.6645C56.3718 8.6645 56.3844 7.4472 55.1944 7.48918L51.5068 11.1767C51.5068 11.1767 51.1501 11.5335 50.7009 11.6847L45.3364 6.32015C45.4602 5.83953 45.859 5.52891 45.859 5.52891L49.5487 1.84134C49.5886 0.651329 48.3818 0.674416 48.3818 0.674416C38.8029 -0.297322 37.3484 10.545 37.3484 10.545C37.2624 14.1486 37.2519 14.1381 36.022 15.368C34.9348 16.4552 15.754 35.6339 14.7823 36.6056C13.5524 37.8355 13.5335 37.8166 9.93197 37.9027C9.93197 37.9027 -0.908263 39.3614 0.0613761 48.9402C0.0613761 48.9402 0.0676722 50.1743 1.25559 50.1323L4.94525 46.4427C4.94525 46.4427 5.07328 46.1845 5.24748 46.1572L10.7925 51.7022C10.7715 51.8827 10.5931 52.0905 10.5931 52.0905L6.90342 55.7802C6.86145 56.9681 8.05985 56.9387 8.05985 56.9387C17.6387 57.9083 19.0848 47.0555 19.0848 47.0555C19.1708 43.454 19.2002 43.4834 20.4301 42.2535C21.4018 41.2817 40.5827 22.103 41.6677 21.0138C42.8976 19.7839 42.906 19.7923 46.5096 19.7062C46.5096 19.7062 57.3415 18.2434 56.3718 8.6645Z"/>
</mask>
<path d="M56.3718 8.6645C56.3718 8.6645 56.3844 7.4472 55.1944 7.48918L51.5068 11.1767C51.5068 11.1767 51.1501 11.5335 50.7009 11.6847L45.3364 6.32015C45.4602 5.83953 45.859 5.52891 45.859 5.52891L49.5487 1.84134C49.5886 0.651329 48.3818 0.674416 48.3818 0.674416C38.8029 -0.297322 37.3484 10.545 37.3484 10.545C37.2624 14.1486 37.2519 14.1381 36.022 15.368C34.9348 16.4552 15.754 35.6339 14.7823 36.6056C13.5524 37.8355 13.5335 37.8166 9.93197 37.9027C9.93197 37.9027 -0.908263 39.3614 0.0613761 48.9402C0.0613761 48.9402 0.0676722 50.1743 1.25559 50.1323L4.94525 46.4427C4.94525 46.4427 5.07328 46.1845 5.24748 46.1572L10.7925 51.7022C10.7715 51.8827 10.5931 52.0905 10.5931 52.0905L6.90342 55.7802C6.86145 56.9681 8.05985 56.9387 8.05985 56.9387C17.6387 57.9083 19.0848 47.0555 19.0848 47.0555C19.1708 43.454 19.2002 43.4834 20.4301 42.2535C21.4018 41.2817 40.5827 22.103 41.6677 21.0138C42.8976 19.7839 42.906 19.7923 46.5096 19.7062C46.5096 19.7062 57.3415 18.2434 56.3718 8.6645Z" fill="white"/>
<path d="M56.3718 8.6645L55.3719 8.65415L55.3713 8.70982L55.3769 8.76521L56.3718 8.6645ZM55.1944 7.48918L55.1592 6.4898L54.7657 6.50368L54.4873 6.78207L55.1944 7.48918ZM51.5068 11.1767L50.7997 10.4696L51.5068 11.1767ZM50.7009 11.6847L49.9938 12.3918L50.4322 12.8301L51.0198 12.6324L50.7009 11.6847ZM45.3364 6.32015L44.368 6.07066L44.2256 6.62354L44.6293 7.02726L45.3364 6.32015ZM45.859 5.52891L46.4735 6.31782L46.5222 6.27987L46.5659 6.23622L45.859 5.52891ZM49.5487 1.84134L50.2556 2.54865L50.5349 2.2695L50.5481 1.87483L49.5487 1.84134ZM48.3818 0.674416L48.2808 1.66931L48.3407 1.67538L48.4009 1.67423L48.3818 0.674416ZM37.3484 10.545L36.3573 10.4121L36.35 10.4664L36.3487 10.5211L37.3484 10.545ZM9.93197 37.9027L9.90809 36.903L9.85311 36.9043L9.79861 36.9116L9.93197 37.9027ZM0.0613761 48.9402L1.06136 48.9351L1.06112 48.8872L1.05629 48.8395L0.0613761 48.9402ZM1.25559 50.1323L1.2909 51.1317L1.68433 51.1178L1.96269 50.8394L1.25559 50.1323ZM4.94525 46.4427L5.65236 47.1498L5.76829 47.0338L5.84113 46.887L4.94525 46.4427ZM5.24748 46.1572L5.95459 45.4501L5.59506 45.0906L5.09274 45.1693L5.24748 46.1572ZM10.7925 51.7022L11.7858 51.8177L11.8417 51.3372L11.4996 50.9951L10.7925 51.7022ZM10.5931 52.0905L11.3002 52.7976L11.3271 52.7707L11.3518 52.7419L10.5931 52.0905ZM6.90342 55.7802L6.19632 55.0731L5.91795 55.3514L5.90405 55.7449L6.90342 55.7802ZM8.05985 56.9387L8.16057 55.9438L8.0981 55.9375L8.03534 55.939L8.05985 56.9387ZM19.0848 47.0555L20.076 47.1876L20.0832 47.1337L20.0845 47.0794L19.0848 47.0555ZM20.4301 42.2535L21.1372 42.9606L20.4301 42.2535ZM41.6677 21.0138L40.9606 20.3067L40.9593 20.308L41.6677 21.0138ZM46.5096 19.7062L46.5335 20.7059L46.5887 20.7046L46.6435 20.6972L46.5096 19.7062ZM56.3718 8.6645C57.3718 8.67484 57.3718 8.67436 57.3718 8.67387C57.3718 8.6737 57.3718 8.67321 57.3718 8.67287C57.3718 8.67219 57.3718 8.67149 57.3718 8.67077C57.3718 8.66933 57.3718 8.66781 57.3718 8.6662C57.3718 8.66299 57.3718 8.65945 57.3718 8.65558C57.3718 8.64785 57.3717 8.63882 57.3714 8.62858C57.371 8.60811 57.3701 8.5826 57.3683 8.55275C57.3647 8.49341 57.3577 8.41489 57.3436 8.32326C57.3163 8.14535 57.2584 7.89024 57.1285 7.62337C56.9966 7.35248 56.7788 7.04682 56.4262 6.81716C56.0663 6.58276 55.6354 6.473 55.1592 6.4898L55.2297 8.48856C55.3485 8.48437 55.3623 8.51102 55.3347 8.49307C55.3144 8.47984 55.3166 8.47064 55.3303 8.49882C55.346 8.53103 55.3593 8.57762 55.3668 8.62664C55.3701 8.64848 55.3714 8.66473 55.3718 8.6718C55.372 8.67515 55.372 8.67575 55.3719 8.6731C55.3719 8.67176 55.3719 8.66956 55.3718 8.66643C55.3718 8.66487 55.3718 8.66307 55.3718 8.66103C55.3718 8.66001 55.3718 8.65892 55.3719 8.65778C55.3719 8.65721 55.3719 8.65662 55.3719 8.65601C55.3719 8.65571 55.3719 8.65525 55.3719 8.6551C55.3719 8.65463 55.3719 8.65415 56.3718 8.6645ZM54.4873 6.78207L50.7997 10.4696L52.214 11.8839L55.9015 8.19628L54.4873 6.78207ZM51.5068 11.1767C50.7997 10.4696 50.7999 10.4695 50.8 10.4694C50.8001 10.4693 50.8002 10.4692 50.8003 10.4691C50.8005 10.4689 50.8007 10.4687 50.8008 10.4685C50.8012 10.4682 50.8015 10.4679 50.8018 10.4676C50.8024 10.467 50.803 10.4664 50.8034 10.466C50.8043 10.4651 50.8049 10.4645 50.8053 10.4642C50.8059 10.4636 50.8054 10.4641 50.8037 10.4657C50.8004 10.4688 50.7928 10.4759 50.7814 10.486C50.7582 10.5065 50.7217 10.5373 50.6756 10.5716C50.5749 10.6465 50.4689 10.7076 50.382 10.7369L51.0198 12.6324C51.3821 12.5106 51.679 12.3178 51.8691 12.1765C51.9683 12.1027 52.049 12.0349 52.1068 11.9837C52.1359 11.958 52.1596 11.936 52.1776 11.9191C52.1866 11.9106 52.1941 11.9033 52.2002 11.8974C52.2032 11.8944 52.2059 11.8918 52.2082 11.8896C52.2094 11.8884 52.2104 11.8874 52.2114 11.8864C52.2118 11.886 52.2123 11.8855 52.2127 11.8851C52.2129 11.8849 52.2132 11.8847 52.2134 11.8844C52.2135 11.8843 52.2136 11.8842 52.2137 11.8841C52.2138 11.884 52.214 11.8839 51.5068 11.1767ZM51.408 10.9775L46.0435 5.61305L44.6293 7.02726L49.9938 12.3918L51.408 10.9775ZM46.3048 6.56965C46.3168 6.52292 46.3521 6.45661 46.4113 6.38578C46.4377 6.35419 46.4617 6.33032 46.4764 6.31664C46.4799 6.31336 46.4827 6.31084 46.4847 6.30913C46.4866 6.30742 46.4876 6.30654 46.4876 6.30654C46.4876 6.30654 46.4866 6.30745 46.4843 6.3093C46.4831 6.31023 46.4817 6.3114 46.4799 6.31282C46.479 6.31352 46.478 6.31429 46.477 6.31513C46.4764 6.31554 46.4759 6.31598 46.4753 6.31642C46.475 6.31665 46.4747 6.31688 46.4744 6.31711C46.4743 6.31722 46.4741 6.3174 46.474 6.31746C46.4738 6.31764 46.4735 6.31782 45.859 5.52891C45.2445 4.74001 45.2443 4.74019 45.244 4.74037C45.2439 4.74043 45.2437 4.74062 45.2436 4.74074C45.2432 4.74099 45.2429 4.74125 45.2426 4.74151C45.2419 4.74203 45.2412 4.74258 45.2405 4.74315C45.239 4.74428 45.2375 4.74551 45.2358 4.74682C45.2325 4.74944 45.2288 4.75241 45.2247 4.75573C45.2165 4.76237 45.2068 4.77042 45.1956 4.77985C45.1734 4.79868 45.1454 4.82324 45.1131 4.85327C45.0492 4.91285 44.9658 4.99667 44.877 5.10282C44.7059 5.30746 44.4798 5.63677 44.368 6.07066L46.3048 6.56965ZM46.5659 6.23622L50.2556 2.54865L48.8418 1.13403L45.1521 4.8216L46.5659 6.23622ZM50.5481 1.87483C50.564 1.40057 50.4552 0.970742 50.2212 0.611406C49.9917 0.258753 49.6859 0.04164 49.4143 -0.0892389C49.147 -0.21801 48.8919 -0.27416 48.7142 -0.300103C48.6226 -0.313471 48.5442 -0.319882 48.4849 -0.322932C48.4551 -0.324466 48.4295 -0.325176 48.409 -0.325458C48.3988 -0.325599 48.3897 -0.325633 48.382 -0.325608C48.3781 -0.325596 48.3745 -0.325568 48.3713 -0.325532C48.3697 -0.325514 48.3682 -0.325493 48.3667 -0.325471C48.366 -0.32546 48.3653 -0.325449 48.3646 -0.325437C48.3643 -0.325431 48.3638 -0.325422 48.3636 -0.325419C48.3631 -0.32541 48.3626 -0.325401 48.3818 0.674416C48.4009 1.67423 48.4004 1.67424 48.3999 1.67425C48.3998 1.67425 48.3993 1.67426 48.399 1.67427C48.3984 1.67428 48.3978 1.67429 48.3972 1.6743C48.3961 1.67431 48.395 1.67433 48.3939 1.67434C48.3919 1.67436 48.39 1.67438 48.3884 1.67438C48.3853 1.67439 48.383 1.67437 48.3815 1.67435C48.3787 1.67431 48.3791 1.67427 48.3822 1.67443C48.3887 1.67476 48.4042 1.67585 48.4252 1.67891C48.4726 1.68582 48.5166 1.69828 48.5461 1.71249C48.5712 1.72459 48.5596 1.72483 48.5451 1.70254C48.5262 1.67357 48.5533 1.68711 48.5492 1.80785L50.5481 1.87483ZM48.4827 -0.320477C45.8857 -0.583929 43.783 -0.0476377 42.1066 0.94665C40.4435 1.93306 39.2565 3.33599 38.4166 4.72899C37.5771 6.1215 37.0657 7.53476 36.7638 8.59141C36.6122 9.12206 36.5118 9.56881 36.4488 9.8863C36.4172 10.0452 36.395 10.1722 36.3803 10.2616C36.373 10.3063 36.3675 10.3416 36.3638 10.3669C36.3619 10.3796 36.3604 10.3897 36.3593 10.3973C36.3588 10.4011 36.3584 10.4042 36.358 10.4066C36.3579 10.4079 36.3577 10.4089 36.3576 10.4099C36.3575 10.4103 36.3575 10.4109 36.3574 10.4111C36.3574 10.4116 36.3573 10.4121 37.3484 10.545C38.3396 10.678 38.3395 10.6784 38.3395 10.6787C38.3394 10.6788 38.3394 10.6791 38.3394 10.6792C38.3394 10.6794 38.3393 10.6795 38.3394 10.6794C38.3394 10.6793 38.3395 10.6785 38.3397 10.677C38.3401 10.6742 38.3409 10.6688 38.342 10.6609C38.3444 10.6453 38.3483 10.6199 38.3539 10.5854C38.3652 10.5165 38.3836 10.4114 38.4105 10.2757C38.4644 10.0041 38.5525 9.61139 38.6869 9.14075C38.9571 8.19483 39.408 6.95824 40.1294 5.76163C40.8506 4.56551 41.8232 3.44007 43.1268 2.66684C44.4172 1.90149 46.0883 1.44689 48.2808 1.66931L48.4827 -0.320477ZM36.3487 10.5211C36.304 12.3958 36.2755 13.1296 36.1506 13.579C36.0651 13.8871 35.9607 14.0151 35.3149 14.6609L36.7291 16.0751C37.3132 15.4911 37.829 15.0094 38.0777 14.1143C38.287 13.3606 38.3069 12.2979 38.3481 10.5689L36.3487 10.5211ZM35.3149 14.6609C34.7713 15.2045 29.7044 20.2709 24.6518 25.323C19.5992 30.375 14.5611 35.4126 14.0752 35.8985L15.4894 37.3128C15.9752 36.8269 21.0133 31.7893 26.0659 26.7373C31.1185 21.6852 36.1855 16.6187 36.7291 16.0751L35.3149 14.6609ZM14.0752 35.8985C13.4421 36.5316 13.305 36.6339 12.9926 36.7159C12.7884 36.7695 12.4914 36.8096 11.9803 36.8382C11.4731 36.8667 10.8171 36.8813 9.90809 36.903L9.95586 38.9024C10.8476 38.8811 11.5445 38.8658 12.0922 38.8351C12.636 38.8047 13.0959 38.7565 13.5004 38.6503C14.4053 38.4128 14.8926 37.9095 15.4894 37.3128L14.0752 35.8985ZM9.93197 37.9027C9.79861 36.9116 9.79815 36.9117 9.79764 36.9118C9.79741 36.9118 9.79686 36.9119 9.79641 36.9119C9.79551 36.9121 9.79444 36.9122 9.79321 36.9124C9.79074 36.9127 9.78762 36.9131 9.78385 36.9137C9.7763 36.9147 9.76616 36.9162 9.75351 36.9181C9.7282 36.9219 9.69285 36.9273 9.64814 36.9347C9.55876 36.9494 9.43182 36.9717 9.27295 37.0033C8.95551 37.0665 8.50883 37.1671 7.97827 37.3189C6.9218 37.6211 5.50877 38.1331 4.11645 38.9732C2.72363 39.8135 1.32089 41.0011 0.334462 42.6644C-0.659831 44.3411 -1.19642 46.444 -0.933539 49.0409L1.05629 48.8395C0.834351 46.647 1.28918 44.9755 2.05472 43.6846C2.82813 42.3804 3.95363 41.4073 5.14967 40.6856C6.34621 39.9637 7.58263 39.5123 8.5284 39.2417C8.99896 39.1071 9.3916 39.0189 9.6632 38.9649C9.79885 38.9379 9.90386 38.9195 9.97279 38.9082C10.0072 38.9025 10.0326 38.8986 10.0483 38.8963C10.0561 38.8951 10.0615 38.8943 10.0644 38.8939C10.0658 38.8937 10.0666 38.8936 10.0668 38.8936C10.0669 38.8936 10.0668 38.8936 10.0665 38.8936C10.0664 38.8936 10.0661 38.8937 10.0661 38.8937C10.0657 38.8937 10.0653 38.8938 9.93197 37.9027ZM0.0613761 48.9402C-0.938611 48.9453 -0.938608 48.9458 -0.938606 48.9463C-0.938605 48.9464 -0.938601 48.9469 -0.938599 48.9473C-0.938594 48.9479 -0.938589 48.9486 -0.938583 48.9493C-0.93857 48.9508 -0.938554 48.9523 -0.938534 48.9539C-0.938493 48.957 -0.938436 48.9606 -0.938357 48.9644C-0.938198 48.9721 -0.937951 48.9811 -0.937571 48.9913C-0.936811 49.0117 -0.935513 49.0372 -0.933304 49.067C-0.92891 49.1263 -0.920768 49.2049 -0.905503 49.2966C-0.875842 49.4748 -0.814905 49.7295 -0.683267 49.9955C-0.549948 50.2649 -0.331558 50.5701 0.0199555 50.8003C0.379714 51.0359 0.811576 51.1486 1.2909 51.1317L1.22027 49.133C1.10564 49.137 1.09125 49.1112 1.11572 49.1272C1.13196 49.1378 1.12604 49.1424 1.10929 49.1085C1.09087 49.0713 1.07599 49.0201 1.06735 48.9682C1.06346 48.9448 1.06183 48.9273 1.06124 48.9193C1.06095 48.9155 1.06096 48.9145 1.06104 48.9169C1.06109 48.918 1.06116 48.9201 1.06122 48.9231C1.06125 48.9246 1.06128 48.9264 1.0613 48.9284C1.06132 48.9294 1.06133 48.9304 1.06134 48.9315C1.06134 48.9321 1.06135 48.9327 1.06135 48.9333C1.06135 48.9336 1.06136 48.934 1.06136 48.9342C1.06136 48.9347 1.06136 48.9351 0.0613761 48.9402ZM1.96269 50.8394L5.65236 47.1498L4.23815 45.7356L0.548479 49.4252L1.96269 50.8394ZM4.94525 46.4427C5.84113 46.887 5.84102 46.8872 5.84092 46.8874C5.84088 46.8875 5.84077 46.8877 5.8407 46.8878C5.84056 46.8881 5.84042 46.8884 5.84028 46.8887C5.84 46.8892 5.83973 46.8898 5.83946 46.8903C5.83893 46.8914 5.83841 46.8924 5.83792 46.8934C5.83693 46.8953 5.83602 46.8971 5.83518 46.8987C5.83351 46.902 5.83212 46.9046 5.83098 46.9067C5.82875 46.9108 5.82725 46.9134 5.82628 46.9151C5.82534 46.9166 5.82235 46.9217 5.81515 46.9308C5.81017 46.9371 5.78522 46.9685 5.73596 47.0064C5.68903 47.0424 5.57625 47.1179 5.40222 47.1452L5.09274 45.1693C4.60732 45.2453 4.32631 45.5893 4.24693 45.6895C4.18595 45.7666 4.14007 45.8379 4.10968 45.8887C4.09398 45.915 4.08112 45.938 4.07121 45.9563C4.06623 45.9656 4.06192 45.9738 4.05829 45.9808C4.05647 45.9843 4.05482 45.9875 4.05334 45.9905C4.05259 45.9919 4.05189 45.9933 4.05123 45.9946C4.0509 45.9953 4.05058 45.9959 4.05027 45.9966C4.05012 45.9969 4.04997 45.9972 4.04982 45.9975C4.04974 45.9976 4.04963 45.9978 4.04959 45.9979C4.04948 45.9981 4.04938 45.9984 4.94525 46.4427ZM4.54037 46.8643L10.0854 52.4093L11.4996 50.9951L5.95459 45.4501L4.54037 46.8643ZM9.79917 51.5867C9.80921 51.5003 9.83232 51.4473 9.83668 51.4374C9.84293 51.4231 9.84553 51.4204 9.84027 51.4287C9.8359 51.4356 9.83072 51.4428 9.82693 51.4478C9.82534 51.4498 9.82478 51.4505 9.82571 51.4494C9.8262 51.4488 9.82712 51.4476 9.82852 51.446C9.82923 51.4451 9.83006 51.4441 9.83103 51.443C9.83152 51.4424 9.83204 51.4418 9.8326 51.4412C9.83287 51.4408 9.83316 51.4405 9.83346 51.4401C9.83361 51.44 9.83376 51.4398 9.83391 51.4396C9.83399 51.4395 9.8341 51.4394 9.83414 51.4393C9.83426 51.4392 9.83437 51.4391 10.5931 52.0905C11.3518 52.7419 11.3519 52.7418 11.352 52.7416C11.3521 52.7416 11.3522 52.7415 11.3523 52.7414C11.3525 52.7412 11.3526 52.741 11.3528 52.7408C11.3531 52.7404 11.3535 52.74 11.3538 52.7395C11.3546 52.7387 11.3553 52.7378 11.3562 52.7368C11.3578 52.7349 11.3597 52.7327 11.3617 52.7303C11.3657 52.7255 11.3705 52.7197 11.3759 52.7131C11.3867 52.6999 11.4002 52.6829 11.4157 52.6627C11.446 52.623 11.4867 52.567 11.5296 52.4994C11.5953 52.3956 11.7482 52.1406 11.7858 51.8177L9.79917 51.5867ZM9.88598 51.3834L6.19632 55.0731L7.61053 56.4873L11.3002 52.7976L9.88598 51.3834ZM5.90405 55.7449C5.88735 56.2173 5.99425 56.6466 6.22716 57.0061C6.45599 57.3593 6.76168 57.5762 7.03353 57.7066C7.30075 57.8347 7.55583 57.8898 7.73314 57.9149C7.82454 57.9278 7.90286 57.9338 7.96209 57.9366C7.99189 57.9379 8.01738 57.9385 8.03787 57.9387C8.04813 57.9388 8.05719 57.9388 8.06495 57.9387C8.06884 57.9387 8.0724 57.9386 8.07564 57.9386C8.07726 57.9385 8.0788 57.9385 8.08025 57.9385C8.08098 57.9385 8.08168 57.9385 8.08237 57.9384C8.08271 57.9384 8.08321 57.9384 8.08338 57.9384C8.08388 57.9384 8.08436 57.9384 8.05985 56.9387C8.03534 55.939 8.03582 55.939 8.0363 55.939C8.03645 55.939 8.03692 55.939 8.03723 55.9389C8.03784 55.9389 8.03844 55.9389 8.03902 55.9389C8.04018 55.9389 8.04129 55.9389 8.04233 55.9389C8.04442 55.9388 8.04626 55.9388 8.04788 55.9388C8.05111 55.9388 8.05344 55.9388 8.05494 55.9388C8.05789 55.9388 8.05768 55.9388 8.05479 55.9387C8.04865 55.9384 8.03367 55.9375 8.01338 55.9346C7.96729 55.9281 7.9254 55.9162 7.89826 55.9032C7.87576 55.8924 7.88972 55.894 7.90565 55.9186C7.92567 55.9495 7.8985 55.937 7.9028 55.8155L5.90405 55.7449ZM7.95914 57.9336C10.5563 58.1965 12.6588 57.659 14.3345 56.6632C15.9968 55.6752 17.1827 54.2706 18.0213 52.8761C18.8597 51.4821 19.37 50.0675 19.671 49.0098C19.8221 48.4787 19.9222 48.0315 19.985 47.7137C20.0164 47.5547 20.0386 47.4276 20.0532 47.3382C20.0605 47.2934 20.0659 47.258 20.0696 47.2327C20.0715 47.2201 20.0729 47.2099 20.074 47.2024C20.0745 47.1986 20.075 47.1955 20.0753 47.193C20.0755 47.1918 20.0756 47.1907 20.0757 47.1898C20.0758 47.1893 20.0759 47.1888 20.0759 47.1886C20.076 47.188 20.076 47.1876 19.0848 47.0555C18.0935 46.9234 18.0936 46.923 18.0936 46.9227C18.0936 46.9226 18.0937 46.9223 18.0937 46.9222C18.0937 46.922 18.0937 46.9219 18.0937 46.922C18.0937 46.9221 18.0936 46.9229 18.0934 46.9244C18.093 46.9273 18.0922 46.9327 18.0911 46.9405C18.0888 46.9562 18.0849 46.9816 18.0793 47.0161C18.068 47.0852 18.0497 47.1903 18.0229 47.3261C17.9692 47.5981 17.8814 47.9912 17.7474 48.4624C17.4779 49.4094 17.0279 50.6473 16.3074 51.8453C15.5872 53.0429 14.6155 54.1696 13.3127 54.9439C12.0232 55.7102 10.3528 56.1657 8.16057 55.9438L7.95914 57.9336ZM20.0845 47.0794C20.1292 45.2078 20.1627 44.4818 20.2894 44.0419C20.3774 43.7366 20.483 43.6148 21.1372 42.9606L19.723 41.5464C19.1474 42.122 18.6233 42.6005 18.3676 43.4883C18.1506 44.2416 18.1264 45.3017 18.0851 47.0316L20.0845 47.0794ZM21.1372 42.9606C22.108 41.9898 41.2902 22.8097 42.3762 21.7195L40.9593 20.308C39.8751 21.3964 20.6956 40.5737 19.723 41.5464L21.1372 42.9606ZM42.3748 21.7209C43.0124 21.0833 43.1463 20.9803 43.4573 20.897C43.6592 20.8429 43.9542 20.8017 44.4636 20.7722C44.9692 20.7429 45.6247 20.7276 46.5335 20.7059L46.4858 18.7065C45.5928 18.7278 44.8959 18.7438 44.3479 18.7755C43.8038 18.8071 43.3441 18.8568 42.9398 18.9651C42.0382 19.2066 41.5529 19.7143 40.9606 20.3067L42.3748 21.7209ZM46.5096 19.7062C46.6435 20.6972 46.6439 20.6972 46.6444 20.6971C46.6447 20.6971 46.6452 20.697 46.6457 20.6969C46.6466 20.6968 46.6476 20.6966 46.6489 20.6965C46.6513 20.6961 46.6545 20.6957 46.6582 20.6952C46.6658 20.6941 46.6759 20.6926 46.6886 20.6907C46.7139 20.687 46.7492 20.6815 46.7939 20.6741C46.8832 20.6594 47.01 20.637 47.1688 20.6053C47.486 20.542 47.9324 20.4413 48.4626 20.2892C49.5183 19.9866 50.9303 19.474 52.3215 18.6333C53.7133 17.7923 55.1148 16.6042 56.1003 14.9405C57.0936 13.2635 57.6296 11.1605 57.3668 8.56379L55.3769 8.76521C55.5989 10.9579 55.1445 12.6298 54.3795 13.9212C53.6068 15.2258 52.4822 16.1995 51.2872 16.9216C50.0917 17.6439 48.8563 18.0958 47.9113 18.3667C47.4412 18.5015 47.0489 18.5898 46.7775 18.644C46.642 18.671 46.5371 18.6894 46.4682 18.7008C46.4338 18.7065 46.4084 18.7104 46.3928 18.7127C46.385 18.7139 46.3796 18.7147 46.3767 18.7151C46.3753 18.7153 46.3745 18.7154 46.3743 18.7154C46.3743 18.7154 46.3743 18.7154 46.3746 18.7154C46.3747 18.7154 46.375 18.7153 46.3751 18.7153C46.3754 18.7153 46.3758 18.7152 46.5096 19.7062Z" fill="#00A24D" mask="url(#path-1-inside-1_290_33957)"/>
</g>
</g>
<g id="Vector_2">
<path d="M3.70825 1.6936C7.22609 4.60164 12.7162 9.1401 12.7162 9.1401L13.8244 11.8014L30.8309 28.8078L33.9161 28.0984L36.4262 33.2363L37.0454 32.6192C37.7674 31.8972 38.9448 31.9014 39.6017 32.5563L55.0593 48.0159C55.7162 48.6708 55.5399 49.6677 54.8179 50.3918L52.2112 52.9985L52.1105 52.8977L49.594 55.4142C48.872 56.1361 47.8835 56.3019 47.2266 55.645L31.769 40.1875C31.1121 39.5326 31.0974 38.3657 31.8215 37.6416L32.4385 37.0246L27.3049 34.5081L28.0185 31.4166L11.0141 14.4123L8.34866 13.3062L1.08057 4.32129" fill="white"/>
<path d="M3.70825 1.6936C7.22609 4.60164 12.7162 9.1401 12.7162 9.1401L13.8244 11.8014L30.8309 28.8078L33.9161 28.0984L36.4262 33.2363L37.0454 32.6192C37.7674 31.8972 38.9448 31.9014 39.6017 32.5563L55.0593 48.0159C55.7162 48.6708 55.5399 49.6677 54.8179 50.3918L52.2112 52.9985L52.1105 52.8977L49.594 55.4142C48.872 56.1361 47.8835 56.3019 47.2266 55.645L31.769 40.1875C31.1121 39.5326 31.0974 38.3657 31.8215 37.6416L32.4385 37.0246L27.3049 34.5081L28.0185 31.4166L11.0141 14.4123L8.34866 13.3062L1.08057 4.32129L3.70825 1.6936Z" stroke="#00A24D" stroke-miterlimit="10"/>
</g>
</g>
</g>
</svg>
