<svg width="62" height="58" viewBox="0 0 62 58" fill="none" xmlns="http://www.w3.org/2000/svg">
<g id="Group 1171275148">
<g id="Group 1171275141">
<g id="Group 1171275140">
<path id="Vector" d="M59.5777 30.3404C59.5777 45.0644 47.642 57.0001 32.918 57.0001C18.194 57.0001 6.2583 45.0644 6.2583 30.3404C6.2583 15.6165 18.194 3.67871 32.918 3.67871C47.642 3.67871 59.5777 15.6165 59.5777 30.3404Z" fill="white"/>
<path id="Vector_2" d="M59.5777 30.3404C59.5777 45.0644 47.642 57.0001 32.918 57.0001C18.194 57.0001 6.2583 45.0644 6.2583 30.3404C6.2583 15.6165 18.194 3.67871 32.918 3.67871C47.642 3.67871 59.5777 15.6165 59.5777 30.3404Z" stroke="#00A24D" stroke-miterlimit="10"/>
<path id="Vector_3" d="M6.20947 30.216H59.431M32.8202 56.8268V3.60522" stroke="#00A24D" stroke-miterlimit="10"/>
<path id="Vector_4" d="M33.1487 3.81128C11.8209 9.73633 15.3755 52.3918 32.951 56.935M33.0468 3.81128C54.3765 9.73633 50.8219 52.3918 33.2465 56.935" stroke="#00A24D" stroke-miterlimit="10"/>
<path id="Vector_5" d="M8.2661 41.9255C8.03375 42.2618 7.81158 42.588 7.59961 42.9059" stroke="#00A24D" stroke-miterlimit="10"/>
<path id="Vector_6" d="M3.83756 47.2246C-8.50661 67.6851 23.4124 50.8579 38.7438 36.7584C54.8366 21.958 64.4964 6.31937 60.3206 1.82777C58.7118 0.0976415 55.284 0.272902 50.7625 1.9873" stroke="#00A24D" stroke-miterlimit="10" stroke-dasharray="4.48 4.48"/>
<path id="Vector_7" d="M47.5091 4.36548C47.1524 4.51631 46.7917 4.67732 46.4248 4.84649" stroke="#00A24D" stroke-miterlimit="10"/>
</g>
</g>
</g>
</svg>
