<svg width="64" height="66" viewBox="0 0 64 66" fill="none" xmlns="http://www.w3.org/2000/svg">
<g id="Group 1171275312">
<g id="Group 1171275261">
<g id="Group 1171275231">
<g id="Group 1171275307">
<path id="Vector 15" d="M1.03087 29.3947C1.29153 26.0061 2.8772 23.7471 3.96327 22.8782C5.26655 21.2491 6.56984 20.2717 7.87313 19.62C9.55432 18.7794 11.783 19.2942 13.4121 21.575C15.0412 23.8557 16.6051 29.525 16.3445 32.6529C16.0187 36.5627 10.1539 41.1242 6.56984 41.7759C2.9858 42.4275 0.70505 33.6304 1.03087 29.3947Z" fill="white" stroke="#00A24D"/>
<g id="Vector 16">
<path d="M31.3327 20.2716C31.3327 24.9634 23.513 28.1999 21.5581 26.4622C15.6933 21.2491 16.345 16.6876 16.345 14.081C16.345 11.4744 24.8163 -0.580967 27.4229 3.65471C30.0295 7.89039 31.3327 14.4068 31.3327 20.2716Z" fill="white"/>
<path d="M34.9168 18.9683C33.9393 14.081 36.7631 6.5871 38.8266 2.67724C42.7365 -1.23261 45.6689 4.958 47.298 8.21621C48.9271 11.4744 51.2079 20.2716 45.6689 24.5073C40.1299 28.743 36.0491 24.6298 34.9168 18.9683Z" fill="white"/>
<path d="M54.4661 40.1467C49.2529 37.5402 48.4927 32.2184 48.6013 29.7204C50.2304 25.8106 48.2755 27.4397 53.4886 20.2716C58.3759 13.5515 60.9825 22.5524 62.2858 26.4622C63.5891 30.3721 60.9825 43.4049 54.4661 40.1467Z" fill="white"/>
<path d="M12.4351 44.3824C19.7335 41.7758 22.8614 36.5627 23.513 34.2819C24.3668 32.327 27.444 27.1157 34.9168 27.7655C42.4107 28.4172 39.108 35.9967 46.6464 40.4726C55.0777 45.4787 54.4661 47.6406 53.4886 52.8538C52.1339 60.0787 47.8722 65.7955 40.7816 64.9092C32.9618 63.9317 25.7938 64.5833 18.9515 64.9092C14.0642 65.1419 3.31209 47.6406 12.4351 44.3824Z" fill="white"/>
<path d="M31.3327 20.2716C31.3327 24.9634 23.513 28.1999 21.5581 26.4622C15.6933 21.2491 16.345 16.6876 16.345 14.081C16.345 11.4744 24.8163 -0.580967 27.4229 3.65471C30.0295 7.89039 31.3327 14.4068 31.3327 20.2716Z" stroke="#00A24D"/>
<path d="M34.9168 18.9683C33.9393 14.081 36.7631 6.5871 38.8266 2.67724C42.7365 -1.23261 45.6689 4.958 47.298 8.21621C48.9271 11.4744 51.2079 20.2716 45.6689 24.5073C40.1299 28.743 36.0491 24.6298 34.9168 18.9683Z" stroke="#00A24D"/>
<path d="M54.4661 40.1467C49.2529 37.5402 48.4927 32.2184 48.6013 29.7204C50.2304 25.8106 48.2755 27.4397 53.4886 20.2716C58.3759 13.5515 60.9825 22.5524 62.2858 26.4622C63.5891 30.3721 60.9825 43.4049 54.4661 40.1467Z" stroke="#00A24D"/>
<path d="M12.4351 44.3824C19.7335 41.7758 22.8614 36.5627 23.513 34.2819C24.3668 32.327 27.444 27.1157 34.9168 27.7655C42.4107 28.4172 39.108 35.9967 46.6464 40.4726C55.0777 45.4787 54.4661 47.6406 53.4886 52.8538C52.1339 60.0787 47.8722 65.7955 40.7816 64.9092C32.9618 63.9317 25.7938 64.5833 18.9515 64.9092C14.0642 65.1419 3.31209 47.6406 12.4351 44.3824Z" stroke="#00A24D"/>
</g>
</g>
</g>
</g>
</g>
</svg>
