<svg width="75" height="72" viewBox="0 0 75 72" fill="none" xmlns="http://www.w3.org/2000/svg">
<g id="Group 1171275239">
<g id="Group 1">
<rect id="Rectangle 1" width="4.82783" height="36.6797" rx="2.41392" transform="matrix(0.763161 -0.646208 -0.646208 -0.763161 34.5762 61.8535)" fill="#00A24D"/>
<rect id="Rectangle 4" width="4.82783" height="26.7297" rx="2.41392" transform="matrix(-0.646208 -0.763161 -0.763161 0.646208 49.0229 28.7139)" fill="#00A24D"/>
<rect id="Rectangle 2" width="4.82783" height="28.6137" rx="2.41392" transform="matrix(0.763161 -0.646208 -0.646208 -0.763161 26.5146 63.3569)" fill="#00A24D"/>
<rect id="Rectangle 3" width="4.82783" height="11.2453" rx="2.41392" transform="matrix(0.763161 -0.646208 -0.646208 -0.763161 15.4849 61.3555)" fill="#00A24D"/>
<rect id="Rectangle 4_2" x="63.6924" y="37.1997" width="4.82783" height="36.6797" rx="2.41392" transform="rotate(139.744 63.6924 37.1997)" fill="#00A24D"/>
<rect id="Rectangle 2_2" x="66.5039" y="29.4958" width="4.82783" height="28.6137" rx="2.41392" transform="rotate(139.744 66.5039 29.4958)" fill="#00A24D"/>
<rect id="Rectangle 3_2" x="66.3477" y="18.2874" width="4.82783" height="11.2453" rx="2.41392" transform="rotate(139.744 66.3477 18.2874)" fill="#00A24D"/>
</g>
</g>
</svg>
