<svg width="61" height="57" viewBox="0 0 61 57" fill="none" xmlns="http://www.w3.org/2000/svg">
<g id="Group 1171275248">
<g id="Group 1171275247">
<g id="Group 1171275149">
<g id="Group 1171275137">
<g id="Group 1171275092">
<path id="Vector" d="M60.1977 43.872L44.0259 10.8513L36.3778 26.2774L24.4886 2L3.84814 43.6293" stroke="#00A24D" stroke-miterlimit="10"/>
<g id="Vector_2">
<path d="M38.4127 23.311C31.0722 24.9686 31.9314 33.8496 29.7832 37.5589C27.8083 40.9693 22.498 41.639 20.3836 45.1105C19.2061 47.0449 19.0281 47.2617 18.9165 49.4549" fill="white"/>
<path d="M38.4127 23.311C31.0722 24.9686 31.9314 33.8496 29.7832 37.5589C27.8083 40.9693 22.498 41.639 20.3836 45.1105C19.2061 47.0449 19.0281 47.2617 18.9165 49.4549" stroke="#00A24D" stroke-miterlimit="10"/>
</g>
<path id="Vector_3" d="M38.4125 21.8904C28.3456 24.7122 30.4805 31.451 28.2308 35.861C26.8082 38.6496 22.6082 39.4904 19.583 42.4573C17.3343 44.6619 16.813 47.1518 16.7012 49.455" stroke="#00A24D" stroke-miterlimit="10"/>
<path id="Vector_4" d="M38.8862 20.4697C27.0148 22.4723 28.7515 30.5803 26.5731 34.4404C24.5707 37.9894 20.6524 38.5063 17.5866 41.4448C15.3073 43.6294 14.5347 47.1728 14.4209 49.4551" stroke="#00A24D" stroke-miterlimit="10"/>
<g id="Vector_5">
<path d="M1 48.011C4.24979 50.2791 5.30338 47.61 8.2554 47.2345C11.6645 46.8011 13.4264 49.3679 16.3636 49.4712C16.4783 49.475 17.4655 49.476 17.5753 49.4732C20.3681 49.3992 20.9133 47.188 23.9603 47.5265C27.5205 48.011 27.5162 50.0222 30.5988 49.4732C38.2637 44.7032 41.2544 48.0129 43.1487 49.4731" fill="white"/>
<path d="M1 48.011C4.2498 50.2791 5.30338 47.61 8.2554 47.2345C11.6645 46.8011 13.4264 49.3679 16.3636 49.4712C16.4783 49.475 17.4655 49.476 17.5753 49.4732C20.3681 49.3992 20.9133 47.188 23.9603 47.5265C27.5205 48.011 27.5162 50.0222 30.5988 49.4732C38.2637 44.7032 41.2544 48.0129 43.1487 49.4731" stroke="#00A24D" stroke-miterlimit="10"/>
</g>
<g id="Vector_6">
<path d="M1 48.011C4.24979 50.2791 5.30338 47.61 8.2554 47.2345C11.6645 46.8011 13.4264 49.3679 16.3636 49.4712C16.4783 49.475 17.4655 49.476 17.5753 49.4732C20.3681 49.3992 20.9133 47.188 23.9603 47.5265C27.5205 48.011 27.5162 50.0222 30.5988 49.4732C38.2637 44.7032 41.2544 48.0129 43.1487 49.4731" fill="white"/>
<path d="M1 48.011C4.2498 50.2791 5.30338 47.61 8.2554 47.2345C11.6645 46.8011 13.4264 49.3679 16.3636 49.4712C16.4783 49.475 17.4655 49.476 17.5753 49.4732C20.3681 49.3992 20.9133 47.188 23.9603 47.5265C27.5205 48.011 27.5162 50.0222 30.5988 49.4732C38.2637 44.7032 41.2544 48.0129 43.1487 49.4731" stroke="#00A24D" stroke-miterlimit="10"/>
</g>
<g id="Vector_7">
<path d="M1 51.3262C4.24979 53.5943 5.30338 50.9251 8.2554 50.5497C11.6645 50.1163 13.4264 52.6831 16.3636 52.7864C16.4783 52.7902 17.4655 52.7912 17.5753 52.7883C20.3681 52.7144 20.9133 50.5032 23.9603 50.8417C27.5205 51.3262 27.5162 53.3373 30.5988 52.7883C38.2637 48.0184 41.2544 51.3281 43.1487 52.7883" fill="white"/>
<path d="M1 51.3262C4.2498 53.5943 5.30338 50.9251 8.2554 50.5497C11.6645 50.1163 13.4264 52.6831 16.3636 52.7864C16.4783 52.7902 17.4655 52.7912 17.5753 52.7883C20.3681 52.7144 20.9133 50.5032 23.9603 50.8417C27.5205 51.3262 27.5162 53.3373 30.5988 52.7883C38.2637 48.0184 41.2544 51.3281 43.1487 52.7883" stroke="#00A24D" stroke-miterlimit="10"/>
</g>
<g id="Vector_8">
<path d="M1 54.6412C4.24979 56.9092 5.30338 54.2401 8.2554 53.8646C11.6645 53.4313 13.4264 55.998 16.3636 56.1014C16.4783 56.1052 17.4655 56.1061 17.5753 56.1033C20.3681 56.0293 20.9133 53.8181 23.9603 54.1566C27.5205 54.6412 27.5162 56.6523 30.5988 56.1033C38.2637 51.3333 41.2544 54.6431 43.1487 56.1033" fill="white"/>
<path d="M1 54.6412C4.2498 56.9092 5.30338 54.2401 8.2554 53.8646C11.6645 53.4313 13.4264 55.998 16.3636 56.1014C16.4783 56.1052 17.4655 56.1061 17.5753 56.1033C20.3681 56.0293 20.9133 53.8181 23.9603 54.1566C27.5205 54.6412 27.5162 56.6523 30.5988 56.1033C38.2637 51.3333 41.2544 54.6431 43.1487 56.1033" stroke="#00A24D" stroke-miterlimit="10"/>
</g>
<path id="Vector 1" d="M36.2964 26.1523L43.1343 41.0806" stroke="#00A24D"/>
</g>
<path id="Vector 9" d="M44.0958 10.7612L36.0449 26.6262" stroke="#00A24D"/>
</g>
</g>
</g>
</g>
</svg>
