<svg width="59" height="50" viewBox="0 0 59 50" fill="none" xmlns="http://www.w3.org/2000/svg">
<g id="Group 1171275188">
<g id="Group 1171275185">
<g id="Group 1171275170">
<g id="Group 8">
<rect id="Rectangle 21" x="0.5" y="0.5" width="57.5906" height="34.1971" fill="white" stroke="#00A24D"/>
<path id="Polygon 1" d="M26.3859 11.9547L35.1888 17.5983L26.3859 23.242L26.3859 11.9547Z" fill="#00A24D" stroke="#00A24D"/>
<g id="Group 6">
<rect id="Rectangle 22" x="53.3276" y="0.5" width="4.76301" height="34.1971" fill="#00A24D" stroke="#00A24D"/>
<rect id="Rectangle 25" x="54.2881" y="1.56641" width="2.84201" height="3.053" fill="white" stroke="#00A24D"/>
<rect id="Rectangle 26" x="54.2881" y="7.32593" width="2.84201" height="3.053" fill="white" stroke="#00A24D"/>
<rect id="Rectangle 27" x="54.2881" y="13.0854" width="2.84201" height="3.053" fill="white" stroke="#00A24D"/>
<rect id="Rectangle 28" x="54.2881" y="18.8452" width="2.84201" height="3.053" fill="white" stroke="#00A24D"/>
<rect id="Rectangle 29" x="54.2881" y="24.6047" width="2.84201" height="3.053" fill="white" stroke="#00A24D"/>
<rect id="Rectangle 30" x="54.2881" y="30.3643" width="2.84201" height="3.053" fill="white" stroke="#00A24D"/>
</g>
<g id="Group 7">
<rect id="Rectangle 22_2" x="0.5" y="0.5" width="4.76301" height="34.1971" fill="#00A24D" stroke="#00A24D"/>
<rect id="Rectangle 25_2" x="1.46094" y="1.56641" width="2.84201" height="3.053" fill="white" stroke="#00A24D"/>
<rect id="Rectangle 26_2" x="1.46094" y="7.32593" width="2.84201" height="3.053" fill="white" stroke="#00A24D"/>
<rect id="Rectangle 27_2" x="1.46094" y="13.0854" width="2.84201" height="3.053" fill="white" stroke="#00A24D"/>
<rect id="Rectangle 28_2" x="1.46094" y="18.8452" width="2.84201" height="3.053" fill="white" stroke="#00A24D"/>
<rect id="Rectangle 29_2" x="1.46094" y="24.6047" width="2.84201" height="3.053" fill="white" stroke="#00A24D"/>
<rect id="Rectangle 30_2" x="1.46094" y="30.3643" width="2.84201" height="3.053" fill="white" stroke="#00A24D"/>
</g>
</g>
</g>
</g>
<g id="Group 1171275186">
<g id="Group 1171275178">
<g id="Group 1171275176">
<path id="Rectangle 40741" d="M9.95605 38.857C9.95605 33.8523 14.0132 29.7952 19.0179 29.7952C24.0226 29.7952 28.0798 33.8523 28.0798 38.857V48.7159H9.95605V38.857Z" fill="white" stroke="#00A24D"/>
</g>
</g>
<g id="Group 1171275179">
<g id="Group 1171275176_2">
<path id="Rectangle 40741_2" d="M30.1006 38.857C30.1006 33.8523 34.1577 29.7952 39.1624 29.7952C44.1672 29.7952 48.2243 33.8523 48.2243 38.857V48.7159H30.1006V38.857Z" fill="white" stroke="#00A24D"/>
</g>
</g>
<g id="Group 1171275174">
<g id="Group 1171275176_3">
<path id="Rectangle 40741_3" d="M0.5 46.4747C0.5 41.47 4.55713 37.4128 9.56185 37.4128C14.5666 37.4128 18.6237 41.47 18.6237 46.4747V48.8392H0.5V46.4747Z" fill="white" stroke="#00A24D"/>
</g>
</g>
<g id="Group 1171275176_4">
<g id="Group 1171275176_5">
<path id="Rectangle 40741_4" d="M20.2334 46.4132C20.2334 41.4084 24.2905 37.3513 29.2952 37.3513C34.3 37.3513 38.3571 41.4084 38.3571 46.4132V48.7776H20.2334V46.4132Z" fill="white" stroke="#00A24D"/>
</g>
</g>
<g id="Group 1171275177">
<g id="Group 1171275176_6">
<path id="Rectangle 40741_5" d="M39.9673 46.4132C39.9673 41.4084 44.0244 37.3513 49.0291 37.3513C54.0339 37.3513 58.091 41.4084 58.091 46.4132V48.7776H39.9673V46.4132Z" fill="white" stroke="#00A24D"/>
</g>
</g>
</g>
</g>
</svg>
