<svg width="55" height="61" viewBox="0 0 55 61" fill="none" xmlns="http://www.w3.org/2000/svg">
<g id="Group 1171275246">
<g id="Group 1171275208">
<path id="Rectangle 31" d="M4.72217 18.5109C4.72217 8.56377 12.7859 0.5 22.7331 0.5C32.6803 0.5 40.7441 8.56378 40.7441 18.511V52.4348H4.72217V18.5109Z" fill="white" stroke="#00A24D"/>
<rect id="Rectangle 33" x="0.5" y="49.8625" width="44.7902" height="9.71686" rx="4.5" fill="#FFFAFA" stroke="#00A24D"/>
<rect id="Rectangle 34" x="10.2427" y="7.31982" width="24.9803" height="13.9387" rx="4.5" fill="white" stroke="#00A24D"/>
<path id="Line 5" d="M5.23389 27.2068H39.6199" stroke="#00A24D"/>
<path id="Vector 3" d="M22.5278 33.937C20.0922 36.9139 16.3577 44.1667 22.5278 45.3034C25.7756 45.3034 29.1526 41.6012 22.5278 33.937Z" fill="#00A24D"/>
<path id="Vector 4" d="M39.6196 33.2091C42.0012 33.2091 44.6629 32.7681 44.6629 39.0894C44.6629 45.4107 53.9088 46.2928 53.9088 39.0894V25.7117M43.679 9.74268C49.843 12.9768 53.8154 15.0292 53.9088 16.5972V25.7117M49.0056 12.498V20.8086C49.0056 23.5165 51.2009 25.7117 53.9088 25.7117V25.7117" stroke="#00A24D"/>
</g>
</g>
</svg>
