<svg width="65" height="70" viewBox="0 0 65 70" fill="none" xmlns="http://www.w3.org/2000/svg">
<g id="Group 1171275245">
<g id="Group 1171275235">
<g id="Group 1171275097">
<g id="Group 1171275096">
<path id="Vector" d="M64.2408 61.76C64.2408 64.8124 49.9965 69 32.5332 69C15.0699 69 1 64.8124 1 61.76C1 58.706 15.1571 56.2302 32.6204 56.2302C50.0854 56.2302 64.2408 58.706 64.2408 61.76Z" fill="white"/>
<path id="Vector_2" d="M64.2408 61.76C64.2408 64.8124 49.9965 69 32.5332 69C15.0699 69 1 64.8124 1 61.76C1 58.706 15.1571 56.2302 32.6204 56.2302C50.0854 56.2302 64.2408 58.706 64.2408 61.76Z" stroke="#00A24D" stroke-miterlimit="10"/>
<path id="Vector_3" d="M12.0742 37.4109L12.0743 42.7985C12.0572 58.1428 21.9517 65.3516 32.5928 65.3516C45.5975 65.3516 54.8762 54.4718 53.903 37.5867C53.903 37.5316 53.8996 37.4765 53.8996 37.4197L12.0742 37.4109Z" fill="white" stroke="#00A24D" stroke-miterlimit="10"/>
<path id="Vector_4" d="M53.9027 37.0764C53.9027 40.6021 44.51 43.4604 32.9229 43.4604C21.3375 43.4604 11.9448 40.6021 11.9448 37.0764C11.9448 33.5507 21.3375 30.6907 32.9229 30.6907C44.51 30.6907 53.9027 33.5507 53.9027 37.0764Z" fill="white"/>
<path id="Vector_5" d="M53.9027 37.0764C53.9027 40.6021 44.51 43.4604 32.9229 43.4604C21.3375 43.4604 11.9448 40.6021 11.9448 37.0764C11.9448 33.5507 21.3375 30.6907 32.9229 30.6907C44.51 30.6907 53.9027 33.5507 53.9027 37.0764Z" stroke="#00A24D" stroke-miterlimit="10"/>
<path id="Vector_6" d="M32.3636 42.083L32.3636 42.083C28.065 42.1425 24.3612 41.6033 21.7333 41.0494C20.5918 40.8088 19.6542 40.5657 18.9602 40.3681C19.734 40.1059 20.809 39.7699 22.1142 39.4336C24.9107 38.7131 28.7527 37.9946 32.9468 37.9946C37.1389 37.9946 40.9153 38.7333 43.646 39.4738C44.9086 39.8161 45.9454 40.1582 46.6937 40.4264C46.0702 40.5905 45.2331 40.7884 44.182 40.9896C41.569 41.4897 37.6322 42.0105 32.3636 42.083Z" fill="#00A24D" stroke="#00A24D"/>
<path id="Vector_7" d="M36.9986 10.0356C36.9675 10.0786 36.9281 10.1171 36.8806 10.1486L36.6292 9.77018L36.6318 9.76681L36.6318 9.7668L36.6332 9.76498L36.9986 10.0356ZM36.9986 10.0356C37.0933 10.1206 37.2059 10.2231 37.334 10.3421L36.9986 10.0356Z" fill="black" stroke="#00A24D"/>
</g>
<path id="Vector 2" d="M53.9785 44.0567V40.743C59.6654 38.3271 61.7606 41.3416 61.7606 41.3416C62.6586 42.5389 63.0256 43.7648 62.3593 46.43C61.4613 50.0218 58.4682 52.4162 58.4682 52.4162C55.7744 54.8107 51.1849 56.0679 49.4888 56.2675L51.584 52.6757C52.4819 52.3764 55.9677 50.7979 57.8696 48.2471C60.5634 44.634 59.6654 42.5601 57.8696 42.5601C56.6723 42.5601 54.8764 43.2585 53.9785 44.0567Z" fill="#FDF8F8" stroke="#00A24D"/>
</g>
</g>
</g>
</svg>
