<svg width="58" height="67" viewBox="0 0 58 67" fill="none" xmlns="http://www.w3.org/2000/svg">
<g id="Group 1171275251">
<g id="Group 1171275148">
<g id="Group 1171275147">
<rect id="Rectangle 40736" x="7.73486" y="10.4514" width="41.7791" height="55.4601" fill="white" stroke="#00A24D" stroke-width="2"/>
<g id="Union" filter="url(#filter0_d_290_34080)">
<mask id="path-2-inside-1_290_34080" fill="white">
<path fill-rule="evenodd" clip-rule="evenodd" d="M28.054 0H9.1413L4.02387 17.7015L3.99902 17.702V32.0161C3.99902 32.0161 7.67269 34.1764 10.2667 34.2182C12.5012 34.2543 15.5245 32.744 16.5313 32.2045C17.4955 32.7314 20.3409 34.184 22.4635 34.2182C24.6379 34.2533 27.5591 32.8242 28.6425 32.2501C29.679 32.8104 32.4266 34.1849 34.4907 34.2182C36.7251 34.2543 39.7481 32.7442 40.7551 32.2046C41.7195 32.7315 44.5647 34.184 46.6871 34.2182C49.4063 34.2621 53.2936 32.0161 53.2936 32.0161V17.4479L53.2939 17.4479L48.1058 0H28.6889H28.054Z"/>
</mask>
<path fill-rule="evenodd" clip-rule="evenodd" d="M28.054 0H9.1413L4.02387 17.7015L3.99902 17.702V32.0161C3.99902 32.0161 7.67269 34.1764 10.2667 34.2182C12.5012 34.2543 15.5245 32.744 16.5313 32.2045C17.4955 32.7314 20.3409 34.184 22.4635 34.2182C24.6379 34.2533 27.5591 32.8242 28.6425 32.2501C29.679 32.8104 32.4266 34.1849 34.4907 34.2182C36.7251 34.2543 39.7481 32.7442 40.7551 32.2046C41.7195 32.7315 44.5647 34.184 46.6871 34.2182C49.4063 34.2621 53.2936 32.0161 53.2936 32.0161V17.4479L53.2939 17.4479L48.1058 0H28.6889H28.054Z" fill="white"/>
<path d="M9.1413 0V-2H7.63759L7.21997 -0.555446L9.1413 0ZM4.02387 17.7015L4.06332 19.7011L5.53609 19.6721L5.94519 18.2569L4.02387 17.7015ZM3.99902 17.702L3.95957 15.7024L1.99902 15.7411V17.702H3.99902ZM3.99902 32.0161H1.99902V33.1601L2.98521 33.7401L3.99902 32.0161ZM10.2667 34.2182L10.299 32.2185H10.299L10.2667 34.2182ZM16.5313 32.2045L17.4904 30.4494L16.5406 29.9304L15.5866 30.4416L16.5313 32.2045ZM22.4635 34.2182L22.4313 36.218H22.4313L22.4635 34.2182ZM28.6425 32.2501L29.5935 30.4907L28.6518 29.9817L27.706 30.4829L28.6425 32.2501ZM34.4907 34.2182L34.4584 36.218L34.4907 34.2182ZM40.7551 32.2046L41.7142 30.4495L40.7644 29.9305L39.8104 30.4417L40.7551 32.2046ZM46.6871 34.2182L46.6549 36.218H46.6549L46.6871 34.2182ZM53.2936 32.0161L54.2942 33.7478L55.2936 33.1703V32.0161H53.2936ZM53.2936 17.4479L53.4552 15.4544L51.2936 15.2792V17.4479H53.2936ZM53.2939 17.4479L53.1323 19.4414L56.0434 19.6774L55.2109 16.8779L53.2939 17.4479ZM48.1058 0L50.0229 -0.570027L49.5977 -2H48.1058V0ZM9.1413 2H28.054V-2H9.1413V2ZM5.94519 18.2569L11.0626 0.555446L7.21997 -0.555446L2.10255 17.1461L5.94519 18.2569ZM3.98442 15.7019L3.95957 15.7024L4.03847 19.7016L4.06332 19.7011L3.98442 15.7019ZM1.99902 17.702V32.0161H5.99902V17.702H1.99902ZM3.99902 32.0161C2.98521 33.7401 2.98548 33.7402 2.98576 33.7404C2.98587 33.7405 2.98617 33.7406 2.98639 33.7408C2.98684 33.741 2.98735 33.7413 2.98791 33.7417C2.98904 33.7423 2.9904 33.7431 2.99198 33.744C2.99513 33.7459 2.99918 33.7482 3.00411 33.7511C3.01397 33.7568 3.02735 33.7646 3.04409 33.7742C3.07758 33.7935 3.12459 33.8203 3.18394 33.8535C3.30256 33.92 3.47106 34.0127 3.67997 34.123C4.09624 34.3427 4.6808 34.6364 5.35644 34.9329C6.63462 35.4938 8.51276 36.1902 10.2345 36.218L10.299 32.2185C9.42665 32.2044 8.17094 31.7998 6.96378 31.27C6.39675 31.0212 5.90077 30.7722 5.54716 30.5855C5.37113 30.4926 5.23236 30.4162 5.13994 30.3644C5.09378 30.3385 5.05933 30.3189 5.03773 30.3065C5.02694 30.3002 5.01937 30.2959 5.01517 30.2934C5.01307 30.2922 5.01181 30.2915 5.01142 30.2912C5.01122 30.2911 5.01124 30.2911 5.01147 30.2913C5.01159 30.2913 5.01176 30.2914 5.01199 30.2916C5.0121 30.2916 5.01232 30.2918 5.01237 30.2918C5.0126 30.2919 5.01284 30.2921 3.99902 32.0161ZM10.2345 36.218C11.74 36.2423 13.3432 35.7622 14.5689 35.2971C15.8405 34.8147 16.9313 34.2592 17.476 33.9673L15.5866 30.4416C15.1245 30.6893 14.2003 31.1587 13.1499 31.5573C12.0537 31.9732 11.0279 32.2302 10.299 32.2185L10.2345 36.218ZM15.5723 33.9595C16.0941 34.2447 17.126 34.7814 18.3284 35.2563C19.488 35.7142 21.0018 36.1949 22.4313 36.218L22.4958 32.2185C21.8027 32.2073 20.8325 31.9446 19.7976 31.5359C18.8057 31.1442 17.9327 30.6911 17.4904 30.4494L15.5723 33.9595ZM22.4313 36.218C23.8989 36.2416 25.4561 35.7863 26.6616 35.3363C27.9102 34.8702 28.9952 34.3266 29.579 34.0173L27.706 30.4829C27.2064 30.7476 26.2891 31.2057 25.2627 31.5889C24.1931 31.9882 23.2025 32.2299 22.4958 32.2185L22.4313 36.218ZM27.6915 34.0095C28.2503 34.3116 29.2762 34.8369 30.4564 35.2958C31.5963 35.7391 33.0658 36.1955 34.4584 36.218L34.523 32.2185C33.8515 32.2077 32.9152 31.9602 31.9061 31.5678C30.9374 31.191 30.0712 30.7489 29.5935 30.4907L27.6915 34.0095ZM34.4584 36.218C35.9639 36.2422 37.567 35.7622 38.7927 35.2972C40.0642 34.8148 41.155 34.2593 41.6998 33.9674L39.8104 30.4417C39.3482 30.6894 38.4241 31.1588 37.3737 31.5573C36.2775 31.9732 35.2519 32.2302 34.523 32.2185L34.4584 36.218ZM39.7961 33.9596C40.318 34.2448 41.3499 34.7816 42.5522 35.2564C43.7118 35.7143 45.2255 36.1949 46.6549 36.218L46.7194 32.2185C46.0263 32.2073 45.0562 31.9446 44.0214 31.536C43.0295 31.1443 42.1566 30.6913 41.7142 30.4495L39.7961 33.9596ZM46.6549 36.218C48.461 36.2471 50.4425 35.5464 51.7906 34.975C52.5035 34.6728 53.1209 34.3706 53.5605 34.1438C53.7812 34.03 53.9592 33.9341 54.0845 33.8653C54.1472 33.8308 54.1968 33.8031 54.2321 33.7831C54.2498 33.7732 54.2639 33.7651 54.2743 33.7592C54.2795 33.7562 54.2838 33.7538 54.2871 33.7519C54.2887 33.7509 54.2902 33.7501 54.2913 33.7494C54.2919 33.7491 54.2925 33.7488 54.2929 33.7485C54.2932 33.7484 54.2935 33.7482 54.2936 33.7481C54.2939 33.7479 54.2942 33.7478 53.2936 32.0161C52.293 30.2843 52.2933 30.2842 52.2935 30.2841C52.2936 30.284 52.2938 30.2839 52.2939 30.2838C52.2942 30.2837 52.2943 30.2836 52.2945 30.2835C52.2947 30.2834 52.2947 30.2834 52.2945 30.2835C52.294 30.2838 52.2927 30.2845 52.2905 30.2858C52.286 30.2884 52.2779 30.293 52.2665 30.2994C52.2435 30.3124 52.207 30.3328 52.1581 30.3597C52.0602 30.4135 51.9132 30.4927 51.7269 30.5888C51.3528 30.7818 50.8284 31.0384 50.2295 31.2922C48.9542 31.8328 47.6324 32.2332 46.7194 32.2185L46.6549 36.218ZM55.2936 32.0161V17.4479H51.2936V32.0161H55.2936ZM53.4555 15.4545L53.4552 15.4544L53.132 19.4414L53.1323 19.4414L53.4555 15.4545ZM46.1888 0.570027L51.3768 18.0179L55.2109 16.8779L50.0229 -0.570027L46.1888 0.570027ZM28.6889 2H48.1058V-2H28.6889V2ZM28.054 2H28.6889V-2H28.054V2Z" fill="#00A24D" mask="url(#path-2-inside-1_290_34080)"/>
</g>
<rect id="Rectangle 40737" x="5.23044" y="18.3444" width="47.3362" height="1.3681" fill="#100F0F" stroke="#00A24D" stroke-width="1.3681"/>
<path id="Line 9" d="M16.2803 31.8464V18.2947L18.2283 0.677334" stroke="#00A24D" stroke-width="2"/>
<path id="Line 10" d="M16.2803 31.8464V18.2947L18.2283 0.677334" stroke="#00A24D" stroke-width="2"/>
<path id="Line 11" d="M40.7729 31.677V18.1252L38.8249 0.507901" stroke="#00A24D" stroke-width="2"/>
<line id="Line 12" x1="28.7192" y1="30.7939" x2="28.7192" y2="0.148552" stroke="#00A24D" stroke-width="2"/>
</g>
</g>
</g>
<defs>
<filter id="filter0_d_290_34080" x="-0.000976562" y="0" width="57.2949" height="42.2188" filterUnits="userSpaceOnUse" color-interpolation-filters="sRGB">
<feFlood flood-opacity="0" result="BackgroundImageFix"/>
<feColorMatrix in="SourceAlpha" type="matrix" values="0 0 0 0 0 0 0 0 0 0 0 0 0 0 0 0 0 0 127 0" result="hardAlpha"/>
<feOffset dy="4"/>
<feGaussianBlur stdDeviation="2"/>
<feComposite in2="hardAlpha" operator="out"/>
<feColorMatrix type="matrix" values="0 0 0 0 0 0 0 0 0 0 0 0 0 0 0 0 0 0 0.25 0"/>
<feBlend mode="normal" in2="BackgroundImageFix" result="effect1_dropShadow_290_34080"/>
<feBlend mode="normal" in="SourceGraphic" in2="effect1_dropShadow_290_34080" result="shape"/>
</filter>
</defs>
</svg>
