<svg width="74" height="50" viewBox="0 0 74 50" fill="none" xmlns="http://www.w3.org/2000/svg">
<g id="Group 1171275236">
<g id="Group 1171276119">
<path id="Vector" d="M53.6589 1.09239C47.327 0.338404 40.9452 4.2668 37.702 10.4123C34.3685 4.2668 28.0447 0.338404 21.7129 1.09239C13.6523 2.05288 8.63839 10.2346 10.5138 19.3673C12.3585 28.3591 37.6408 49.032 37.7036 49C37.7664 49.032 63.0309 28.3591 64.8773 19.3673C66.7527 10.2346 61.7211 2.05288 53.6589 1.09239Z" fill="white" stroke="#00A24D" stroke-miterlimit="10" stroke-linecap="round"/>
<g id="Vector_2">
<path d="M1.43945 25.674L18.9376 25.7372L21.4739 16.278L24.7005 29.7838L28.7556 9.17017L32.2902 32.0753L35.8549 17.3913L38.9276 35.2127L43.5985 19.2744L45.319 25.5493L49.3773 25.721L72.9288 25.6595" fill="white"/>
<path d="M1.43945 25.674L18.9376 25.7372L21.4739 16.278L24.7005 29.7838L28.7556 9.17017L32.2902 32.0753L35.8549 17.3913L38.9276 35.2127L43.5985 19.2744L45.319 25.5493L49.3773 25.721L72.9288 25.6595" stroke="#00A24D" stroke-miterlimit="10" stroke-linecap="round"/>
</g>
</g>
</g>
</svg>
