<svg width="129" height="128" viewBox="0 0 129 128" fill="none" xmlns="http://www.w3.org/2000/svg">
<g id="Group 1171275256">
<g id="Rectangle 40715" filter="url(#filter0_d_290_33988)">
<rect x="4.61572" y="4" width="120" height="120" rx="20" fill="white"/>
</g>
<g id="Group 1171275109">
<path id="Vector" d="M76.3444 44.2412C76.3444 52.1109 70.9275 58.4912 64.2428 58.4912C57.558 58.4912 52.1411 52.1109 52.1411 44.2412C52.1411 36.3715 57.558 29.9912 64.2428 29.9912C70.9275 29.9912 76.3444 36.3715 76.3444 44.2412Z" fill="white"/>
<path id="Vector_2" d="M76.3444 44.2412C76.3444 52.1109 70.9275 58.4912 64.2428 58.4912C57.558 58.4912 52.1411 52.1109 52.1411 44.2412C52.1411 36.3715 57.558 29.9912 64.2428 29.9912C70.9275 29.9912 76.3444 36.3715 76.3444 44.2412Z" stroke="#00A24D" stroke-miterlimit="10"/>
<path id="Vector_3" d="M72.6218 28.5108C72.6455 28.5108 71.802 28.6776 70.376 28.83C58.5174 30.105 52.7595 39.5908 52.3108 45.5362C52.3108 45.5362 48.212 39.5346 51.7952 32.6152C55.3785 25.6977 59.3436 24.4208 60.5539 23.6899C62.6227 22.4384 67.2587 21.9596 69.4484 22.3514C71.638 22.7413 73.0985 23.1875 73.297 25.6977C73.4955 28.2079 72.2939 28.7901 72.6218 28.5108Z" fill="white"/>
<path id="Vector_4" d="M72.6218 28.5108C72.6455 28.5108 71.802 28.6776 70.376 28.83C58.5174 30.105 52.7595 39.5908 52.3108 45.5362C52.3108 45.5362 48.212 39.5346 51.7952 32.6152C55.3785 25.6977 59.3436 24.4208 60.5539 23.6899C62.6227 22.4384 67.2587 21.9596 69.4484 22.3514C71.638 22.7413 73.0985 23.1875 73.297 25.6977C73.4955 28.2079 72.2939 28.7901 72.6218 28.5108Z" stroke="#00A24D" stroke-miterlimit="10"/>
<path id="Vector_5" d="M64.2432 30.2868C64.2432 30.2868 69.828 32.9729 72.4722 36.4181C76.1442 41.2008 76.5131 45.5365 76.5131 45.5365C76.5131 45.5365 77.5782 44.2099 77.9823 41.2903C78.3886 38.3724 78.2547 34.1609 75.8894 31.4109C73.5241 28.661 72.7818 28.4365 72.7818 28.4365C72.7818 28.4365 67.2563 28.9091 64.2432 30.2868Z" fill="white"/>
<path id="Vector_6" d="M64.2432 30.2868C64.2432 30.2868 69.828 32.9729 72.4722 36.4181C76.1442 41.2008 76.5131 45.5365 76.5131 45.5365C76.5131 45.5365 77.5782 44.2099 77.9823 41.2903C78.3886 38.3724 78.2547 34.1609 75.8894 31.4109C73.5241 28.661 72.7818 28.4365 72.7818 28.4365C72.7818 28.4365 67.2563 28.9091 64.2432 30.2868Z" stroke="#00A24D" stroke-miterlimit="10"/>
<path id="Vector_7" d="M72.1089 23.5358C72.1089 23.5358 71.201 20.1418 66.4861 20.1455C60.068 20.151 57.4319 24.0996 56.597 25.174C55.7622 26.2465 54.9607 28.2373 54.5746 28.915C54.1905 29.5945 62.3493 21.2768 72.1089 23.5358Z" fill="white"/>
<g id="Vector_8">
<path d="M47.1118 16C47.1118 16 45.9322 36.5044 47.831 39.8642C48.1259 40.3896 50.5806 40.8562 51.024 42.1072C52.3479 45.8417 54.4588 49.8004 54.7049 50.2744C55.4814 51.7697 54.3591 52.2804 54.3591 52.2804C54.3591 52.2804 55.4814 54.11 56.2876 54.7566C57.0917 55.4051 57.6964 56.0021 58.3286 56.5513C58.9608 57.0988 59.9113 57.6223 60.342 58.3185C60.6963 58.8916 60.6878 59.2645 60.3993 59.5144C60.1129 59.7624 52.9228 56.3511 52.9228 56.3511L47.343 51.8689C47.343 51.8689 42.8877 43.7935 42.2809 41.6075C40.7555 36.1296 38.8291 21.1729 38.8291 21.1729" fill="white"/>
<path d="M47.1118 16C47.1118 16 45.9322 36.5044 47.831 39.8642C48.1259 40.3896 50.5806 40.8562 51.024 42.1072C52.3479 45.8417 54.4588 49.8004 54.7049 50.2744C55.4814 51.7697 54.3591 52.2804 54.3591 52.2804C54.3591 52.2804 55.4814 54.11 56.2876 54.7566C57.0917 55.4051 57.6964 56.0021 58.3286 56.5513C58.9608 57.0988 59.9113 57.6223 60.342 58.3185C60.6963 58.8916 60.6878 59.2646 60.3993 59.5144C60.1129 59.7624 52.9228 56.3511 52.9228 56.3511L47.343 51.8689C47.343 51.8689 42.8877 43.7935 42.2809 41.6075C40.7555 36.1296 38.8291 21.1729 38.8291 21.1729" stroke="#00A24D" stroke-miterlimit="10"/>
</g>
<path id="Vector_9" d="M47.9058 45.5364C49.721 47.35 50.8826 49.0951 52.6749 51.1079C53.1951 51.66 53.9513 52.3098 54.4846 52.261M48.8134 51.7546C51.0056 52.9311 52.2793 54.5906 53.8027 55.6712C55.0878 56.5854 58.9162 58.4022 59.0998 58.4909" stroke="#00A24D" stroke-miterlimit="10"/>
<g id="Vector_10">
<path d="M81.3686 16.5183C81.3686 16.5183 82.6291 36.5927 80.7224 39.9397C80.4238 40.4631 77.9583 40.9279 77.5126 42.1741C76.1818 45.8943 74.0597 49.8378 73.8101 50.31C73.0317 51.7995 74.1578 52.3083 74.1578 52.3083C74.1578 52.3083 73.0317 54.1309 72.2212 54.775C71.4108 55.421 70.8051 56.0157 70.1674 56.5629C69.5318 57.1082 68.5785 57.6297 68.1434 58.3233C67.7894 58.8942 67.7979 59.2657 68.0858 59.5145C68.3759 59.7616 75.6038 56.3634 75.6038 56.3634L81.2129 51.8983C81.2129 51.8983 85.6917 43.8539 86.3017 41.6763C87.8351 36.2194 89.6565 20.5167 89.6565 20.5167" fill="#FFFEFE"/>
<path d="M81.3686 16.5183C81.3686 16.5183 82.6291 36.5927 80.7224 39.9397C80.4238 40.4631 77.9583 40.9279 77.5126 42.1741C76.1818 45.8943 74.0597 49.8378 73.8101 50.31C73.0317 51.7995 74.1578 52.3082 74.1578 52.3082C74.1578 52.3082 73.0317 54.1309 72.2212 54.775C71.4108 55.421 70.8051 56.0157 70.1674 56.5629C69.5318 57.1082 68.5785 57.6297 68.1434 58.3233C67.7894 58.8942 67.7979 59.2657 68.0858 59.5146C68.3759 59.7616 75.6038 56.3634 75.6038 56.3634L81.2129 51.8983C81.2129 51.8983 85.6917 43.8539 86.3017 41.6763C87.8351 36.2194 89.6565 20.5167 89.6565 20.5167" stroke="#00A24D" stroke-miterlimit="10"/>
</g>
<path id="Vector_11" d="M80.5802 45.5364C78.765 47.6091 77.758 49.0951 76.0601 51.1079C75.5693 51.66 74.8529 52.3098 74.3477 52.261M79.6726 51.1079C78.4625 52.5318 76.4369 54.5906 74.9937 55.6712C73.7741 56.5854 69.5581 58.1431 69.3862 58.2318" stroke="#00A24D" stroke-miterlimit="10"/>
<path id="Vector_12" d="M76.3444 44.2412C76.3444 52.1109 70.9275 58.4912 64.2428 58.4912C57.558 58.4912 52.1411 52.1109 52.1411 44.2412C52.1411 36.3715 57.558 29.9912 64.2428 29.9912C70.9275 29.9912 76.3444 36.3715 76.3444 44.2412Z" fill="#FFFDFD"/>
<path id="Vector_13" d="M76.3444 44.2412C76.3444 52.1109 70.9275 58.4912 64.2428 58.4912C57.558 58.4912 52.1411 52.1109 52.1411 44.2412C52.1411 36.3715 57.558 29.9912 64.2428 29.9912C70.9275 29.9912 76.3444 36.3715 76.3444 44.2412Z" stroke="#00A24D" stroke-miterlimit="10"/>
<path id="Vector_14" d="M72.6218 28.5108C72.6455 28.5108 71.802 28.6776 70.376 28.83C58.5174 30.105 52.7595 39.5908 52.3108 45.5362C52.3108 45.5362 48.212 39.5346 51.7952 32.6152C55.3785 25.6977 59.3436 24.4208 60.5539 23.6899C62.6227 22.4384 67.2587 21.9596 69.4484 22.3514C71.638 22.7413 73.0985 23.1875 73.297 25.6977C73.4955 28.2079 72.2939 28.7901 72.6218 28.5108Z" fill="#FFFDFD"/>
<path id="Vector_15" d="M72.6218 28.5108C72.6455 28.5108 71.802 28.6776 70.376 28.83C58.5174 30.105 52.7595 39.5908 52.3108 45.5362C52.3108 45.5362 48.212 39.5346 51.7952 32.6152C55.3785 25.6977 59.3436 24.4208 60.5539 23.6899C62.6227 22.4384 67.2587 21.9596 69.4484 22.3514C71.638 22.7413 73.0985 23.1875 73.297 25.6977C73.4955 28.2079 72.2939 28.7901 72.6218 28.5108Z" stroke="#00A24D" stroke-miterlimit="10"/>
<path id="Vector_16" d="M64.2432 30.2868C64.2432 30.2868 69.828 32.9729 72.4722 36.4181C76.1442 41.2008 76.5131 45.5365 76.5131 45.5365C76.5131 45.5365 77.5782 44.2099 77.9823 41.2903C78.3886 38.3724 78.2547 34.1609 75.8894 31.4109C73.5241 28.661 72.7818 28.4365 72.7818 28.4365C72.7818 28.4365 67.2563 28.9091 64.2432 30.2868Z" fill="#D9D9D9"/>
<path id="Vector_17" d="M63.6377 30.7684C63.6377 30.7684 69.8276 32.973 72.4718 36.4182C76.1438 41.2009 76.5127 45.5366 76.5127 45.5366C76.5127 45.5366 77.5779 44.21 77.9819 41.2903C78.3882 38.3725 78.2543 34.1609 75.889 31.411C73.1078 28.1775 72.7814 28.4366 72.7814 28.4366C72.7814 28.4366 67.2682 28.6956 63.6377 30.7684Z" fill="#FFFDFD" stroke="#00A24D" stroke-miterlimit="10"/>
<g id="Vector_18">
<path d="M72.4139 23.5208C72.4139 23.5208 71.481 20.1419 66.6365 20.1455C60.0421 20.151 57.3335 24.0821 56.4757 25.1518C55.6179 26.2196 54.6559 28.0208 54.2592 28.6955C53.8646 29.372 62.386 21.2718 72.4139 23.5208ZM92.6819 73C92.6819 73 91.5946 69.0909 89.0834 67.48C87.5886 66.5219 83.2524 66.1891 81.9249 65.999C78.8689 65.5583 71.8048 64.4704 70.7026 62.311C70.0356 61.0074 69.9177 58.6249 70.1278 56.8915C70.0549 56.908 67.7989 58.57 64.4748 58.5902C61.2216 58.6103 58.8004 56.908 58.7275 56.8915C58.9355 58.6249 58.8175 61.0074 58.1527 62.311C57.0504 64.4704 49.9863 65.5583 46.9282 65.999C45.6008 66.1891 41.2667 66.5219 39.7719 67.48C37.2607 69.0909 35.8042 72.741 35.8042 72.741" fill="#FFFDFD"/>
<path d="M92.6819 73.0001C92.6819 73.0001 91.5946 69.0909 89.0834 67.48C87.5886 66.5219 83.2524 66.1891 81.9249 65.999C78.8689 65.5583 71.8048 64.4704 70.7026 62.311C70.0356 61.0074 69.9177 58.6249 70.1278 56.8915C70.0549 56.908 67.7989 58.5701 64.4748 58.5902C61.2216 58.6103 58.8004 56.908 58.7275 56.8915C58.9355 58.6249 58.8175 61.0074 58.1527 62.311C57.0504 64.4704 49.9863 65.5583 46.9282 65.999C45.6008 66.1891 41.2667 66.5219 39.7719 67.48C37.2607 69.0909 35.8042 72.741 35.8042 72.741M72.4139 23.5208C72.4139 23.5208 71.481 20.1419 66.6365 20.1455C60.0421 20.151 57.3335 24.0821 56.4757 25.1518C55.6179 26.2196 54.6559 28.0208 54.2592 28.6955C53.8646 29.372 62.386 21.2718 72.4139 23.5208Z" stroke="#00A24D" stroke-miterlimit="10"/>
</g>
</g>
</g>
<defs>
<filter id="filter0_d_290_33988" x="0.615723" y="0" width="128" height="128" filterUnits="userSpaceOnUse" color-interpolation-filters="sRGB">
<feFlood flood-opacity="0" result="BackgroundImageFix"/>
<feColorMatrix in="SourceAlpha" type="matrix" values="0 0 0 0 0 0 0 0 0 0 0 0 0 0 0 0 0 0 127 0" result="hardAlpha"/>
<feOffset/>
<feGaussianBlur stdDeviation="2"/>
<feComposite in2="hardAlpha" operator="out"/>
<feColorMatrix type="matrix" values="0 0 0 0 0 0 0 0 0 0 0 0 0 0 0 0 0 0 0.25 0"/>
<feBlend mode="normal" in2="BackgroundImageFix" result="effect1_dropShadow_290_33988"/>
<feBlend mode="normal" in="SourceGraphic" in2="effect1_dropShadow_290_33988" result="shape"/>
</filter>
</defs>
</svg>
