<svg width="128" height="128" viewBox="0 0 128 128" fill="none" xmlns="http://www.w3.org/2000/svg">
<g id="Group 1171275109" filter="url(#filter0_d_300_34236)">
<rect id="Rectangle 40715" x="4" y="4" width="120" height="120" rx="20" fill="white"/>
<g id="Group 1171275082">
<path id="Vector" d="M49.0087 23.4668L46.1006 24.5256L52.9221 28.0821V20H50.5875C50.8753 22.6284 49.0087 23.4668 49.0087 23.4668ZM57.3361 23.4668C57.3361 23.4668 55.4696 22.6284 55.7554 20H53.4228V28.0821L60.2443 24.5256L57.3361 23.4668Z" fill="#00A24D"/>
<path id="Vector_2" d="M43.1265 25.6567C43.1265 25.6567 42.2962 25.7216 41.9855 27.1809C40.727 33.0911 38.0186 53.1048 38.0186 53.1048L42.8942 54.349L46.2104 41.895L43.1265 25.6567ZM63.7803 25.4346C63.7803 25.4346 64.552 25.6736 64.8627 27.1329C66.1232 33.0431 68.8316 53.0568 68.8316 53.0568L63.956 54.303L60.6398 41.847L63.7803 25.4346Z" fill="#FFFDFD" stroke="#00A24D" stroke-width="2" stroke-miterlimit="10"/>
<path id="Vector_3" d="M57.482 23.5359L51.6572 26.875L51.8489 72.5238C51.8489 72.5238 60.8926 72.7644 65.2958 70.8766L62.1718 43.9622L63.7804 25.4345L57.482 23.5359Z" fill="#FFFDFD" stroke="#00A24D" stroke-width="2" stroke-miterlimit="10"/>
<path id="Vector_4" d="M48.8962 23.658L55.3654 27.1528L55.5573 72.3779C55.5573 72.3779 46.027 72.5449 41.5718 70.6776L44.7332 44.4387L43.1264 25.6567L48.8962 23.658Z" fill="#FFFDFD" stroke="#00A24D" stroke-width="2" stroke-miterlimit="10"/>
<path id="Vector_5" d="M75.5893 23.354L72.6636 24.4843L79.7354 37.8712V20.1045H77.3381C77.6338 22.6841 75.5893 23.354 75.5893 23.354Z" fill="#00A24D"/>
<path id="Vector_6" d="M84.3609 23.354L87.2866 24.4843L80.2148 37.6491V20.1045H82.6121C82.3164 22.6841 84.3609 23.354 84.3609 23.354Z" fill="#00A24D" stroke="#D9D9D9" stroke-opacity="0.01" stroke-width="2" stroke-miterlimit="10"/>
<path id="Vector_7" d="M84.2447 42.423L84.3585 42.0045L86.8167 32.9639C86.7855 32.9122 86.753 32.8567 86.7199 32.7981C86.5465 32.4912 86.2982 31.9977 86.2157 31.4901L86.2153 31.4875C86.1238 30.9147 86.2434 30.1495 86.3877 29.4708C86.5426 28.7425 86.769 27.9322 86.9972 27.1861C87.2126 26.4822 87.4339 25.8217 87.6078 25.3199L85.4261 24.5017L80.961 36.4771L80.0208 38.9987L79.0863 36.475L74.6639 24.533L72.2607 25.5225M84.2447 42.423L72.2607 25.5225M84.2447 42.423L84.4724 42.7919L84.2447 42.423ZM72.2607 25.5225C72.4562 26.001 72.7019 26.6227 72.942 27.2857C73.2031 28.0069 73.464 28.7944 73.6454 29.5077C73.8133 30.1679 73.9609 30.9356 73.8654 31.5304M72.2607 25.5225L71.336 25.9033C71.9477 27.4008 73.0503 30.3026 72.878 31.3722C72.7741 32.0234 72.1816 32.837 72.1816 32.837L73.1466 32.5744L73.2643 33.007M73.8654 31.5304C73.8653 31.5307 73.8653 31.531 73.8652 31.5313L72.8781 31.3723L73.8655 31.5298C73.8655 31.53 73.8654 31.5302 73.8654 31.5304ZM73.8654 31.5304C73.784 32.0398 73.5348 32.5343 73.3612 32.8412C73.3281 32.8998 73.2955 32.9553 73.2643 33.007M73.2643 33.007L75.7241 42.0488L75.8381 42.4675L75.6102 42.8366M73.2643 33.007L75.6102 42.8366M84.4525 74.8655C84.5517 74.425 84.6894 73.812 84.8547 73.071C85.2047 71.5026 85.6785 69.3616 86.1739 67.0705C87.1685 62.4711 88.2388 57.3195 88.581 54.9527C88.7282 53.934 88.5826 52.676 88.232 51.306C87.8847 49.9484 87.3544 48.5499 86.7932 47.2776C86.2333 46.0081 85.6509 44.8827 85.208 44.0741C84.9868 43.6703 84.8012 43.347 84.6717 43.1259C84.6069 43.0154 84.5562 42.9304 84.5221 42.8739L84.4839 42.8107L84.4747 42.7957L84.4727 42.7924L84.4725 42.7921L84.4525 74.8655ZM84.4525 74.8655L75.1365 74.9889C75.0519 74.5493 74.9367 73.9495 74.7992 73.23C74.4973 71.6514 74.0877 69.4966 73.6563 67.1916C72.7916 62.5716 71.8454 57.3793 71.4998 54.9952L84.4525 74.8655ZM75.6102 42.8366L75.61 42.8368L75.6098 42.8371L75.6078 42.8403L75.5987 42.8553L75.5604 42.9185C75.5263 42.9751 75.4756 43.06 75.4108 43.1705C75.2812 43.3916 75.0955 43.7148 74.8743 44.1184C74.4312 44.9269 73.8485 46.0521 73.2884 47.3213C72.727 48.5933 72.1965 49.9916 71.849 51.3489C71.4983 52.7185 71.3526 53.9762 71.4997 54.9948L75.6102 42.8366Z" fill="white" stroke="#00A24D" stroke-width="2"/>
</g>
</g>
<defs>
<filter id="filter0_d_300_34236" x="0" y="0" width="128" height="128" filterUnits="userSpaceOnUse" color-interpolation-filters="sRGB">
<feFlood flood-opacity="0" result="BackgroundImageFix"/>
<feColorMatrix in="SourceAlpha" type="matrix" values="0 0 0 0 0 0 0 0 0 0 0 0 0 0 0 0 0 0 127 0" result="hardAlpha"/>
<feOffset/>
<feGaussianBlur stdDeviation="2"/>
<feComposite in2="hardAlpha" operator="out"/>
<feColorMatrix type="matrix" values="0 0 0 0 0 0 0 0 0 0 0 0 0 0 0 0 0 0 0.25 0"/>
<feBlend mode="normal" in2="BackgroundImageFix" result="effect1_dropShadow_300_34236"/>
<feBlend mode="normal" in="SourceGraphic" in2="effect1_dropShadow_300_34236" result="shape"/>
</filter>
</defs>
</svg>
