<svg width="72" height="72" viewBox="0 0 72 72" fill="none" xmlns="http://www.w3.org/2000/svg">
<g id="Group 1171275237">
<g id="Group 1171275209">
<rect id="Rectangle 40725" width="72" height="72" rx="36" fill="white"/>
<path id="Vector" d="M51.4837 49.6397H17.2559L33.6386 20.7029L51.4837 49.6397Z" fill="white" stroke="#00A24D" stroke-width="3" stroke-miterlimit="10"/>
<path id="Vector_2" d="M68.8694 49.6397H34.6416L51.0244 18.0723L68.8694 49.6397Z" fill="white" stroke="#00A24D" stroke-width="3" stroke-miterlimit="10"/>
<path id="Vector_3" d="M37.3582 49.6397H3.13037L19.5141 13.8633L37.3582 49.6397Z" fill="white" stroke="#00A24D" stroke-width="3" stroke-miterlimit="10"/>
<g id="Vector_4">
<path d="M36.272 18.1196C37.8881 18.0133 39.8274 17.9357 40.734 19.6506C42.1904 18.6292 44.3111 19.3449 46.0513 19.1499" fill="white"/>
<path d="M36.272 18.1196C37.8881 18.0133 39.8274 17.9357 40.734 19.6506C42.1904 18.6292 44.3111 19.3449 46.0513 19.1499" stroke="#00A24D" stroke-width="0.761333" stroke-miterlimit="10"/>
</g>
<path id="Vector_5" d="M11.8232 30.8716L15.1963 41.4008L19.6976 32.5739L24.002 45.4309L28.8448 32.9582M40.1444 39.1936L42.8833 43.2237L48.8516 32.9582L53.3528 38.6181L57.4603 29.1211" stroke="#00A24D" stroke-width="2" stroke-miterlimit="10"/>
</g>
<path id="Vector 13" d="M2.23584 49.6396H70.4346" stroke="white" stroke-width="4"/>
</g>
</svg>
