<svg width="74" height="57" viewBox="0 0 74 57" fill="none" xmlns="http://www.w3.org/2000/svg">
<g id="Group 1171275308">
<g id="Vector">
<path fill-rule="evenodd" clip-rule="evenodd" d="M25.5387 48.2076C23.356 48.2076 22.537 47.4479 22.4203 45.2383C22.2569 42.1665 21.0546 39.5723 18.7727 37.5173C15.8177 34.8573 12.3549 34.0183 8.45641 34.8438C7.67826 35.0081 6.85147 35.1492 6.07138 35.0641C4.73296 34.9192 4.01512 33.6955 4.43337 32.4157C4.60262 31.8996 4.87303 31.4008 5.17651 30.9465C10.7189 22.6688 16.2788 14.4046 21.8172 6.12683C22.4222 5.22018 23.2121 4.73302 24.2879 4.72916C26.955 4.71756 29.6201 4.71369 32.2872 4.73109C33.4 4.73689 34.2696 5.20471 34.7014 6.26795C35.0866 7.21326 34.9252 8.1431 34.1567 8.79071C33.6996 9.1754 33.0206 9.46344 32.4292 9.49051C30.5092 9.5775 28.5832 9.52144 26.6048 9.52144C26.5328 9.73602 20.2648 32.5936 20.6695 32.8758C22.1596 33.9217 23.3871 35.2285 24.4474 36.7035C24.6049 36.9219 24.9493 37.1345 25.208 37.1365C30.3555 37.1616 35.501 37.1539 40.6465 37.1519C40.736 37.1519 40.8255 37.1326 40.9655 37.1191V28.0062C40.0901 28.0062 39.2186 28.0081 38.3471 28.0062C36.2519 28.0043 35.4134 27.0938 35.3181 25.0234C35.1839 22.1662 36.4348 21.4045 38.9326 21.4219C48.1595 21.4799 57.3845 21.447 66.6114 21.4432C67.444 21.4432 68.2299 21.5553 68.8544 22.1739C69.8738 23.183 69.8757 26.2354 68.8583 27.2542C68.3155 27.8013 67.6327 27.9598 66.8896 27.9598C65.3138 27.9579 63.7381 27.9598 62.1623 27.9598H61.3628V30.0747C62.8062 30.7455 64.277 31.2713 65.5842 32.0658C70.0177 34.7568 72.6012 38.6985 73.2996 43.8368C73.3171 43.9663 73.3852 44.092 73.4299 44.2176V46.4291C73.0681 47.1019 72.6712 47.734 71.9028 48.0259C70.4885 48.5672 69.696 47.9351 69.4276 46.4291C69.2291 45.3021 69.0793 44.504 68.5315 42.4132C67.2495 37.5204 62.3608 34.5248 57.2522 34.5325C52.1865 34.5422 47.6518 37.9581 46.3698 42.7987C46.1072 43.7904 46.0469 44.8362 45.9224 45.8627C45.7434 47.3338 44.8368 48.1864 43.3408 48.2018" fill="white"/>
<path d="M25.5387 48.2076C23.356 48.2076 22.537 47.4479 22.4203 45.2383C22.2569 42.1665 21.0546 39.5723 18.7727 37.5173C15.8177 34.8573 12.3549 34.0183 8.45641 34.8438C7.67826 35.0081 6.85147 35.1492 6.07138 35.0641C4.73296 34.9192 4.01512 33.6955 4.43337 32.4157C4.60262 31.8996 4.87303 31.4008 5.17651 30.9465C10.7189 22.6688 16.2788 14.4046 21.8172 6.12683C22.4222 5.22018 23.2121 4.73302 24.2879 4.72916C26.955 4.71756 29.6201 4.71369 32.2872 4.73109C33.4 4.73689 34.2696 5.20471 34.7014 6.26795C35.0866 7.21326 34.9252 8.1431 34.1567 8.79071C33.6996 9.1754 33.0206 9.46344 32.4292 9.49051C30.5092 9.5775 28.5832 9.52144 26.6048 9.52144C26.5328 9.73602 20.2648 32.5936 20.6695 32.8758C22.1596 33.9217 23.3871 35.2285 24.4474 36.7035C24.605 36.9219 24.9493 37.1345 25.208 37.1365C30.3555 37.1616 35.501 37.1539 40.6465 37.1519C40.736 37.1519 40.8255 37.1326 40.9655 37.1191V28.0062C40.0901 28.0062 39.2186 28.0081 38.3471 28.0062C36.2519 28.0043 35.4134 27.0938 35.3181 25.0234C35.1839 22.1662 36.4348 21.4045 38.9326 21.4219C48.1595 21.4799 57.3845 21.447 66.6114 21.4432C67.444 21.4432 68.2299 21.5553 68.8544 22.1739C69.8738 23.183 69.8757 26.2354 68.8583 27.2542C68.3155 27.8013 67.6327 27.9598 66.8896 27.9598C65.3138 27.9579 63.7381 27.9598 62.1623 27.9598H61.3628V30.0747C62.8062 30.7455 64.277 31.2713 65.5842 32.0658C70.0177 34.7568 72.6012 38.6985 73.2996 43.8368C73.3171 43.9663 73.3852 44.092 73.4299 44.2176V46.4291C73.0681 47.1019 72.6712 47.734 71.9028 48.0259C70.4885 48.5672 69.696 47.9351 69.4276 46.4291C69.2291 45.3021 69.0793 44.504 68.5315 42.4132C67.2495 37.5204 62.3608 34.5248 57.2522 34.5325C52.1865 34.5422 47.6518 37.9581 46.3698 42.7987C46.1072 43.7904 46.0469 44.8362 45.9224 45.8627C45.7434 47.3338 44.8368 48.1864 43.3408 48.2018H33.8842L25.5387 48.2076Z" stroke="#00A24D"/>
</g>
<path id="Vector_2" fill-rule="evenodd" clip-rule="evenodd" d="M15.9232 46.4228C15.9115 43.6236 13.59 41.3452 10.7887 41.3761C7.94831 41.4108 5.69514 43.6718 5.7088 46.4788C5.72245 49.2819 8.01269 51.5293 10.8452 51.5158C13.672 51.5043 15.9368 49.2317 15.9232 46.4228ZM10.8433 36.1808C16.6216 36.2078 21.2274 40.805 21.2079 46.5212C21.1864 52.1486 16.487 56.7632 10.7906 56.7478C5.01821 56.7343 0.39287 52.0657 0.431886 46.2974C0.468951 40.7163 5.16257 36.1538 10.8433 36.1808ZM62.7111 46.4228C62.6994 43.6255 60.378 41.3471 57.5766 41.378C54.7343 41.4108 52.4831 43.6718 52.4967 46.4788C52.5104 49.2819 54.8006 51.5293 57.6313 51.5178C60.458 51.5062 62.7248 49.2336 62.7111 46.4228ZM57.6313 36.1808C63.4076 36.2078 68.0154 40.805 67.9939 46.5212C67.9744 52.1505 63.2749 56.7632 57.5766 56.7497C51.8062 56.7362 47.1789 52.0676 47.2198 46.2974C47.2569 40.7163 51.9505 36.1557 57.6313 36.1808Z" fill="#00A24D"/>
<rect id="Rectangle 40766" x="45.1367" y="0.5" width="21.1026" height="18.1158" rx="4.5" fill="white" stroke="#00A24D"/>
<line id="Line 13" x1="45.8315" y1="5.47363" x2="65.5447" y2="5.47363" stroke="#00A24D"/>
</g>
</svg>
