<svg width="40" height="64" viewBox="0 0 40 64" fill="none" xmlns="http://www.w3.org/2000/svg">
<g id="Group 1171275234">
<g id="Group 1171275091">
<path id="Vector" d="M34.5397 60.7174H5.32227V10.0435H34.5397V60.7174Z" fill="white" stroke="#00A24D" stroke-miterlimit="10"/>
<path id="Vector_2" d="M13.7082 19.901H8.1203V14.1523H13.7082V19.901ZM13.6472 28.7392H8.06104V22.9905H13.6472V28.7392ZM13.6769 37.2994H8.09067V31.5507H13.6769V37.2994ZM13.6786 46.0461H8.09067V40.2974H13.6786V46.0461ZM22.7803 19.9638H17.1924V14.2151H22.7803V19.9638ZM22.7193 28.8019H17.1331V23.0533H22.7193V28.8019ZM22.749 37.3622H17.1628V31.6153H22.749V37.3622ZM22.7507 46.1089H17.1628V40.3602H22.7507V46.1089ZM31.8002 19.9638H26.2122V14.2151H31.8002V19.9638ZM31.7392 28.8019H26.1512V23.0533H31.7392V28.8019ZM31.7688 37.3622H26.1809V31.6153H31.7688V37.3622ZM31.7688 46.1089H26.1826V40.3602H31.7688V46.1089Z" fill="#00A24D"/>
<path id="Vector_3" d="M30.8876 8.67413H8.51807V4.56543H30.8876V8.67413Z" fill="#00A24D" stroke="#00A24D" stroke-miterlimit="10"/>
<path id="Vector_4" d="M19.7006 4.56543L20.2888 5.76773L21.6031 5.95967L20.6527 6.8958L20.8769 8.2176L19.7006 7.59291L18.5262 8.2176L18.7503 6.8958L17.8 5.95967L19.1143 5.76773L19.7006 4.56543ZM24.0022 4.84428L24.4702 5.80032L25.5155 5.95423L24.7589 6.69843L24.9382 7.74863L24.0022 7.2525L23.068 7.74863L23.2455 6.69843L22.4888 5.95423L23.5342 5.80032L24.0022 4.84428ZM28.0043 4.84428L28.4723 5.80032L29.5176 5.95423L28.761 6.69843L28.9403 7.74863L28.0043 7.2525L27.0701 7.74863L27.2494 6.69843L26.491 5.95423L27.5363 5.80032L28.0043 4.84428ZM15.4027 4.8479L14.9365 5.80395L13.8911 5.95785L14.6478 6.70205L14.4685 7.75225L15.4027 7.25612L16.3386 7.75225L16.1593 6.70205L16.9178 5.95785L15.8707 5.80395L15.4027 4.8479ZM11.4006 4.8479L10.9344 5.80395L9.88721 5.95785L10.6457 6.70205L10.4664 7.75225L11.4006 7.25612L12.3365 7.75225L12.1572 6.70205L12.9139 5.95785L11.8685 5.80395L11.4006 4.8479Z" fill="#F3F3F3"/>
<path id="Vector_5" d="M26.7352 3.15217H13.1265V0.5H26.7352V3.15217Z" fill="#00A24D" stroke="#00A24D"/>
<path id="Vector_6" d="M38.6482 63.0001H1.21338V60.7175H38.6482V63.0001Z" fill="#00A24D" stroke="#00A24D" stroke-miterlimit="10"/>
<path id="Vector_7" d="M23.5832 60.7175H16.2788V50.2175H23.5832V60.7175Z" fill="#00A24D"/>
</g>
</g>
</svg>
