<svg width="63" height="49" viewBox="0 0 63 49" fill="none" xmlns="http://www.w3.org/2000/svg">
<g id="Group 1171275255">
<g id="Group 1171275254">
<g id="Group 1171275252">
<g id="Union">
<mask id="path-1-inside-1_290_34119" fill="white">
<path fill-rule="evenodd" clip-rule="evenodd" d="M15.5815 1.4564C15.8854 1.07047 16.3494 0.845215 16.8406 0.845215H46.1044C46.6007 0.845215 47.069 1.07514 47.3724 1.46781L60.7552 18.785L62.5182 21.0663C62.6131 21.1891 62.5255 21.3674 62.3703 21.3674C62.2385 21.3674 62.1479 21.5004 62.1876 21.626C62.3084 22.0077 62.3735 22.4141 62.3735 22.8358V35.6362C62.3735 36.3273 62.1985 36.9775 61.8905 37.5449C61.2537 38.7179 60.8314 40.387 60.8314 41.7217V44.5012C60.8314 46.7137 59.0377 48.5074 56.8251 48.5074H55.9728C53.7602 48.5074 51.9666 46.7137 51.9666 44.5012C51.9666 44.1595 51.6896 43.882 51.3479 43.882C49.1354 43.882 47.3417 42.0884 47.3417 39.8758C47.3417 39.7469 47.2372 39.6425 47.1083 39.6425H15.9702C15.8413 39.6425 15.7368 39.7469 15.7368 39.8758C15.7368 42.0884 13.9432 43.882 11.7306 43.882H10.8783C10.7953 43.882 10.7264 43.9482 10.7264 44.0311V44.5012C10.7264 46.7137 8.9328 48.5074 6.72023 48.5074H5.86789C3.65532 48.5074 1.86168 46.7137 1.86168 44.5012V41.7217C1.86168 40.3868 1.43945 38.7174 0.802813 37.5442C0.495016 36.9769 0.320203 36.327 0.320203 35.6362V22.8358C0.320203 22.419 0.383838 22.0171 0.501922 21.6393C0.543223 21.5071 0.447925 21.3674 0.309468 21.3674C0.14557 21.3674 0.0538396 21.1784 0.155227 21.0496L1.94721 18.7736L15.5815 1.4564ZM19.5632 4.05018C18.3352 4.05018 17.1751 4.61333 16.4155 5.57813L11.6129 11.6779C9.54384 14.3059 11.4158 18.1624 14.7606 18.1624H48.0644C51.3924 18.1624 53.2694 14.3398 51.2344 11.7065L46.5205 5.60666C45.7618 4.62499 44.5912 4.05018 43.3505 4.05018H19.5632Z"/>
</mask>
<path fill-rule="evenodd" clip-rule="evenodd" d="M15.5815 1.4564C15.8854 1.07047 16.3494 0.845215 16.8406 0.845215H46.1044C46.6007 0.845215 47.069 1.07514 47.3724 1.46781L60.7552 18.785L62.5182 21.0663C62.6131 21.1891 62.5255 21.3674 62.3703 21.3674C62.2385 21.3674 62.1479 21.5004 62.1876 21.626C62.3084 22.0077 62.3735 22.4141 62.3735 22.8358V35.6362C62.3735 36.3273 62.1985 36.9775 61.8905 37.5449C61.2537 38.7179 60.8314 40.387 60.8314 41.7217V44.5012C60.8314 46.7137 59.0377 48.5074 56.8251 48.5074H55.9728C53.7602 48.5074 51.9666 46.7137 51.9666 44.5012C51.9666 44.1595 51.6896 43.882 51.3479 43.882C49.1354 43.882 47.3417 42.0884 47.3417 39.8758C47.3417 39.7469 47.2372 39.6425 47.1083 39.6425H15.9702C15.8413 39.6425 15.7368 39.7469 15.7368 39.8758C15.7368 42.0884 13.9432 43.882 11.7306 43.882H10.8783C10.7953 43.882 10.7264 43.9482 10.7264 44.0311V44.5012C10.7264 46.7137 8.9328 48.5074 6.72023 48.5074H5.86789C3.65532 48.5074 1.86168 46.7137 1.86168 44.5012V41.7217C1.86168 40.3868 1.43945 38.7174 0.802813 37.5442C0.495016 36.9769 0.320203 36.327 0.320203 35.6362V22.8358C0.320203 22.419 0.383838 22.0171 0.501922 21.6393C0.543223 21.5071 0.447925 21.3674 0.309468 21.3674C0.14557 21.3674 0.0538396 21.1784 0.155227 21.0496L1.94721 18.7736L15.5815 1.4564ZM19.5632 4.05018C18.3352 4.05018 17.1751 4.61333 16.4155 5.57813L11.6129 11.6779C9.54384 14.3059 11.4158 18.1624 14.7606 18.1624H48.0644C51.3924 18.1624 53.2694 14.3398 51.2344 11.7065L46.5205 5.60666C45.7618 4.62499 44.5912 4.05018 43.3505 4.05018H19.5632Z" fill="white"/>
<path d="M60.7552 18.785L63.1289 16.9506L60.7552 18.785ZM1.94721 18.7736L4.30432 20.6294L1.94721 18.7736ZM46.5205 5.60666L48.8942 3.77221L46.5205 5.60666ZM0.155227 21.0496L-2.20188 19.1938L0.155227 21.0496ZM61.8905 37.5449L64.527 38.9762L61.8905 37.5449ZM0.501922 21.6393L3.36534 22.5342L0.501922 21.6393ZM62.1876 21.626L59.3273 22.5309L62.1876 21.626ZM0.802813 37.5442L-1.83402 38.9749L0.802813 37.5442ZM47.3724 1.46781L49.7462 -0.366647L49.7462 -0.36665L47.3724 1.46781ZM62.5182 21.0663L60.1444 22.9008L62.5182 21.0663ZM46.1044 -2.15479H16.8406V3.84521H46.1044V-2.15479ZM63.1289 16.9506L49.7462 -0.366647L44.9986 3.30226L58.3814 20.6195L63.1289 16.9506ZM64.8919 19.2318L63.1289 16.9506L58.3814 20.6195L60.1444 22.9008L64.8919 19.2318ZM65.3735 22.8358C65.3735 22.1035 65.2601 21.3921 65.0479 20.7211L59.3273 22.5309C59.3566 22.6233 59.3735 22.7247 59.3735 22.8358H65.3735ZM65.3735 35.6362V22.8358H59.3735V35.6362H65.3735ZM64.527 38.9762C65.0676 37.9804 65.3735 36.8396 65.3735 35.6362H59.3735C59.3735 35.815 59.3294 35.9745 59.254 36.1136L64.527 38.9762ZM63.8314 44.5012V41.7217H57.8314V44.5012H63.8314ZM56.8251 51.5074C60.6946 51.5074 63.8314 48.3706 63.8314 44.5012H57.8314C57.8314 45.0569 57.3809 45.5074 56.8251 45.5074V51.5074ZM55.9728 51.5074H56.8251V45.5074H55.9728V51.5074ZM48.9666 44.5012C48.9666 48.3706 52.1034 51.5074 55.9728 51.5074V45.5074C55.4171 45.5074 54.9666 45.0569 54.9666 44.5012H48.9666ZM44.3417 39.8758C44.3417 43.7453 47.4785 46.882 51.3479 46.882V40.882C50.7922 40.882 50.3417 40.4315 50.3417 39.8758H44.3417ZM15.9702 42.6425H47.1083V36.6425H15.9702V42.6425ZM12.7368 39.8758C12.7368 40.4315 12.2863 40.882 11.7306 40.882V46.882C15.6001 46.882 18.7368 43.7452 18.7368 39.8758H12.7368ZM11.7306 40.882H10.8783V46.882H11.7306V40.882ZM7.72644 44.0311V44.5012H13.7264V44.0311H7.72644ZM7.72644 44.5012C7.72644 45.0569 7.27594 45.5074 6.72023 45.5074V51.5074C10.5897 51.5074 13.7264 48.3706 13.7264 44.5012H7.72644ZM6.72023 45.5074H5.86789V51.5074H6.72023V45.5074ZM5.86789 45.5074C5.31218 45.5074 4.86168 45.0569 4.86168 44.5012H-1.13832C-1.13832 48.3706 1.99847 51.5074 5.86789 51.5074V45.5074ZM4.86168 44.5012V41.7217H-1.13832V44.5012H4.86168ZM-2.6798 35.6362C-2.6798 36.839 -2.3742 37.9794 -1.83402 38.9749L3.43965 36.1134C3.36424 35.9744 3.3202 35.8149 3.3202 35.6362H-2.6798ZM-2.6798 22.8358V35.6362H3.3202V22.8358H-2.6798ZM-2.3615 20.7444C-2.56907 21.4086 -2.6798 22.112 -2.6798 22.8358H3.3202C3.3202 22.726 3.33675 22.6257 3.36534 22.5342L-2.3615 20.7444ZM-0.409893 16.9178L-2.20188 19.1938L2.51233 22.9055L4.30432 20.6294L-0.409893 16.9178ZM13.2244 -0.399418L-0.409893 16.9178L4.30432 20.6294L17.9386 3.31221L13.2244 -0.399418ZM13.97 13.5338L18.7726 7.43395L14.0584 3.72232L9.25582 9.82213L13.97 13.5338ZM48.0644 15.1624H14.7606V21.1624H48.0644V15.1624ZM44.1467 7.44111L48.8606 13.5409L53.6082 9.87202L48.8942 3.77221L44.1467 7.44111ZM19.5632 7.05018H43.3505V1.05018H19.5632V7.05018ZM48.8942 3.77221C47.5675 2.05542 45.5202 1.05018 43.3505 1.05018V7.05018C43.6621 7.05018 43.9561 7.19455 44.1467 7.44111L48.8942 3.77221ZM18.7726 7.43395C18.9634 7.19163 19.2547 7.05018 19.5632 7.05018V1.05018C17.4157 1.05018 15.3868 2.03504 14.0584 3.72232L18.7726 7.43395ZM9.25582 9.82213C5.63733 14.418 8.91116 21.1624 14.7606 21.1624V15.1624C13.9205 15.1624 13.4503 14.1938 13.97 13.5338L9.25582 9.82213ZM0.309468 18.3674C2.65027 18.3674 3.96035 21.0663 2.51233 22.9055L-2.20188 19.1938C-3.85267 21.2905 -2.35912 24.3674 0.309468 24.3674V18.3674ZM59.254 36.1136C58.3777 37.7277 57.8314 39.889 57.8314 41.7217H63.8314C63.8314 40.8849 64.1297 39.7081 64.527 38.9762L59.254 36.1136ZM3.36534 22.5342C3.96194 20.6252 2.63143 18.3674 0.309468 18.3674V24.3674C-1.73558 24.3674 -2.87549 22.389 -2.3615 20.7444L3.36534 22.5342ZM16.8406 -2.15479C15.4299 -2.15479 14.0971 -1.50782 13.2244 -0.399416L17.9386 3.31221C17.6736 3.64877 17.2689 3.84521 16.8406 3.84521V-2.15479ZM10.8783 40.882C9.2113 40.882 7.72644 42.2194 7.72644 44.0311H13.7264C13.7264 45.6769 12.3794 46.882 10.8783 46.882V40.882ZM15.9702 36.6425C14.1845 36.6425 12.7368 38.0901 12.7368 39.8758H18.7368C18.7368 41.4038 17.4982 42.6425 15.9702 42.6425V36.6425ZM62.3703 18.3674C60.0578 18.3674 58.7225 20.6191 59.3273 22.5309L65.0479 20.7211C65.5732 22.3816 64.4193 24.3674 62.3703 24.3674V18.3674ZM4.86168 41.7217C4.86168 39.8891 4.31557 37.7277 3.43965 36.1134L-1.83402 38.9749C-1.43666 39.7072 -1.13832 40.8846 -1.13832 41.7217H4.86168ZM50.3417 39.8758C50.3417 38.0901 48.8941 36.6425 47.1083 36.6425V42.6425C45.5804 42.6425 44.3417 41.4038 44.3417 39.8758H50.3417ZM48.0644 21.1624C53.8846 21.1624 57.1671 14.4772 53.6082 9.87202L48.8606 13.5409C49.3717 14.2023 48.9003 15.1624 48.0644 15.1624V21.1624ZM54.9666 44.5012C54.9666 42.5054 53.3492 40.882 51.3479 40.882V46.882C50.03 46.882 48.9666 45.8136 48.9666 44.5012H54.9666ZM46.1044 3.84521C45.6716 3.84521 45.2633 3.6447 44.9986 3.30226L49.7462 -0.36665C48.8746 -1.49442 47.5298 -2.15479 46.1044 -2.15479V3.84521ZM60.1444 22.9008C58.7154 21.0516 60.0334 18.3674 62.3703 18.3674V24.3674C65.0177 24.3674 66.5107 21.3266 64.8919 19.2318L60.1444 22.9008Z" fill="#00A24D" mask="url(#path-1-inside-1_290_34119)"/>
</g>
<path id="Vector 11" d="M3.11333 13.0481H7.16028C7.40534 13.0481 7.55005 13.3228 7.41147 13.5249L5.25589 16.6685C4.82467 17.2973 4.11117 17.6732 3.34866 17.6732H3.11333C1.83614 17.6732 0.800781 16.6378 0.800781 15.3606C0.800781 14.0835 1.83614 13.0481 3.11333 13.0481Z" fill="#00A24D"/>
<path id="Vector 12" d="M59.5795 13.0481H55.5326C55.2875 13.0481 55.1428 13.3228 55.2814 13.5249L57.437 16.6685C57.8682 17.2973 58.5817 17.6732 59.3442 17.6732H59.5795C60.8567 17.6732 61.8921 16.6378 61.8921 15.3606C61.8921 14.0835 60.8567 13.0481 59.5795 13.0481Z" fill="#00A24D"/>
<path id="Rectangle 40765" d="M7.98682 26.7309C7.98682 26.3886 8.26432 26.1111 8.60665 26.1111H17.8568C18.1992 26.1111 18.4767 26.3886 18.4767 26.7309C18.4767 27.0732 18.1992 27.3508 17.8568 27.3508H8.60665C8.26433 27.3508 7.98682 27.0732 7.98682 26.7309ZM44.024 26.7309C44.024 26.3886 44.3015 26.1111 44.6438 26.1111H53.894C54.2363 26.1111 54.5138 26.3886 54.5138 26.7309C54.5138 27.0732 54.2363 27.3508 53.894 27.3508H44.6438C44.3015 27.3508 44.024 27.0732 44.024 26.7309Z" fill="#00A24D" stroke="#00A24D" stroke-width="3"/>
</g>
</g>
</g>
</svg>
