<svg width="72" height="85" viewBox="0 0 72 85" fill="none" xmlns="http://www.w3.org/2000/svg">
<rect width="72" height="72" rx="36" fill="white"/>
<path d="M51.4837 49.6397H17.2559L33.6386 20.7029L51.4837 49.6397Z" fill="white" stroke="#00A24D" stroke-width="3" stroke-miterlimit="10"/>
<path d="M68.8694 49.6397H34.6416L51.0244 18.0723L68.8694 49.6397Z" fill="white" stroke="#00A24D" stroke-width="3" stroke-miterlimit="10"/>
<path d="M37.3582 49.6397H3.13037L19.5141 13.8633L37.3582 49.6397Z" fill="white" stroke="#00A24D" stroke-width="3" stroke-miterlimit="10"/>
<path d="M36.272 18.1196C37.8881 18.0133 39.8274 17.9357 40.734 19.6506C42.1904 18.6292 44.3111 19.3449 46.0513 19.1499" fill="white"/>
<path d="M36.272 18.1196C37.8881 18.0133 39.8274 17.9357 40.734 19.6506C42.1904 18.6292 44.3111 19.3449 46.0513 19.1499" stroke="#00A24D" stroke-width="0.761333" stroke-miterlimit="10"/>
<path d="M11.8232 30.8716L15.1963 41.4008L19.6976 32.5739L24.002 45.4309L28.8448 32.9582M40.1444 39.1936L42.8833 43.2237L48.8516 32.9582L53.3528 38.6181L57.4603 29.1211" stroke="#00A24D" stroke-width="2" stroke-miterlimit="10"/>
<path d="M2.23584 49.6396H70.4346" stroke="white" stroke-width="4"/>
<path d="M10.9805 73.096H7.53647V72.2H15.4605V73.096H12.0165V82H10.9805V73.096ZM23.3501 74.636V82H22.3981V80.656C22.1368 81.104 21.7775 81.454 21.3201 81.706C20.8628 81.9487 20.3401 82.07 19.7521 82.07C18.7908 82.07 18.0301 81.804 17.4701 81.272C16.9195 80.7307 16.6441 79.942 16.6441 78.906V74.636H17.6381V78.808C17.6381 79.5827 17.8295 80.1707 18.2121 80.572C18.5948 80.9733 19.1408 81.174 19.8501 81.174C20.6248 81.174 21.2361 80.9407 21.6841 80.474C22.1321 79.998 22.3561 79.34 22.3561 78.5V74.636H23.3501ZM27.086 76.078C27.3194 75.5833 27.6647 75.21 28.122 74.958C28.5887 74.706 29.1627 74.58 29.844 74.58V75.546L29.606 75.532C28.8314 75.532 28.2247 75.77 27.786 76.246C27.3474 76.722 27.128 77.3893 27.128 78.248V82H26.134V74.636H27.086V76.078ZM31.6438 74.636H32.6378V82H31.6438V74.636ZM32.1478 73.026C31.9425 73.026 31.7698 72.956 31.6298 72.816C31.4898 72.676 31.4198 72.508 31.4198 72.312C31.4198 72.1253 31.4898 71.962 31.6298 71.822C31.7698 71.682 31.9425 71.612 32.1478 71.612C32.3531 71.612 32.5258 71.682 32.6658 71.822C32.8058 71.9527 32.8758 72.1113 32.8758 72.298C32.8758 72.5033 32.8058 72.676 32.6658 72.816C32.5258 72.956 32.3531 73.026 32.1478 73.026ZM37.3776 82.07C36.7802 82.07 36.2062 81.986 35.6556 81.818C35.1142 81.6407 34.6896 81.4213 34.3816 81.16L34.8296 80.376C35.1376 80.6187 35.5249 80.8193 35.9916 80.978C36.4582 81.1273 36.9436 81.202 37.4476 81.202C38.1196 81.202 38.6142 81.0993 38.9316 80.894C39.2582 80.6793 39.4216 80.3807 39.4216 79.998C39.4216 79.7273 39.3329 79.5173 39.1556 79.368C38.9782 79.2093 38.7542 79.0927 38.4836 79.018C38.2129 78.934 37.8536 78.8547 37.4056 78.78C36.8082 78.668 36.3276 78.556 35.9636 78.444C35.5996 78.3227 35.2869 78.122 35.0256 77.842C34.7736 77.562 34.6476 77.1747 34.6476 76.68C34.6476 76.064 34.9042 75.56 35.4176 75.168C35.9309 74.776 36.6449 74.58 37.5596 74.58C38.0356 74.58 38.5116 74.6453 38.9876 74.776C39.4636 74.8973 39.8556 75.0607 40.1636 75.266L39.7296 76.064C39.1229 75.644 38.3996 75.434 37.5596 75.434C36.9249 75.434 36.4442 75.546 36.1176 75.77C35.8002 75.994 35.6416 76.288 35.6416 76.652C35.6416 76.932 35.7302 77.156 35.9076 77.324C36.0942 77.492 36.3229 77.618 36.5936 77.702C36.8642 77.7767 37.2376 77.856 37.7136 77.94C38.3016 78.052 38.7729 78.164 39.1276 78.276C39.4822 78.388 39.7856 78.5793 40.0376 78.85C40.2896 79.1207 40.4156 79.494 40.4156 79.97C40.4156 80.614 40.1449 81.1273 39.6036 81.51C39.0716 81.8833 38.3296 82.07 37.3776 82.07ZM51.4372 74.58C52.3612 74.58 53.0845 74.846 53.6072 75.378C54.1392 75.91 54.4052 76.694 54.4052 77.73V82H53.4112V77.828C53.4112 77.0627 53.2245 76.4793 52.8512 76.078C52.4872 75.6767 51.9692 75.476 51.2972 75.476C50.5319 75.476 49.9299 75.714 49.4912 76.19C49.0525 76.6567 48.8332 77.3053 48.8332 78.136V82H47.8392V77.828C47.8392 77.0627 47.6525 76.4793 47.2792 76.078C46.9152 75.6767 46.3925 75.476 45.7112 75.476C44.9552 75.476 44.3532 75.714 43.9052 76.19C43.4665 76.6567 43.2472 77.3053 43.2472 78.136V82H42.2532V74.636H43.2052V75.98C43.4665 75.532 43.8305 75.1867 44.2972 74.944C44.7639 74.7013 45.3005 74.58 45.9072 74.58C46.5232 74.58 47.0552 74.7107 47.5032 74.972C47.9605 75.2333 48.3012 75.6207 48.5252 76.134C48.7959 75.6487 49.1832 75.2707 49.6872 75C50.2005 74.72 50.7839 74.58 51.4372 74.58ZM60.1382 82.07C59.4289 82.07 58.7895 81.9113 58.2202 81.594C57.6509 81.2673 57.2029 80.8193 56.8762 80.25C56.5495 79.6807 56.3862 79.0367 56.3862 78.318C56.3862 77.5993 56.5495 76.9553 56.8762 76.386C57.2029 75.8167 57.6509 75.3733 58.2202 75.056C58.7895 74.7387 59.4289 74.58 60.1382 74.58C60.8475 74.58 61.4869 74.7387 62.0562 75.056C62.6255 75.3733 63.0689 75.8167 63.3862 76.386C63.7129 76.9553 63.8762 77.5993 63.8762 78.318C63.8762 79.0367 63.7129 79.6807 63.3862 80.25C63.0689 80.8193 62.6255 81.2673 62.0562 81.594C61.4869 81.9113 60.8475 82.07 60.1382 82.07ZM60.1382 81.188C60.6609 81.188 61.1275 81.0713 61.5382 80.838C61.9582 80.5953 62.2849 80.2547 62.5182 79.816C62.7515 79.3773 62.8682 78.878 62.8682 78.318C62.8682 77.758 62.7515 77.2587 62.5182 76.82C62.2849 76.3813 61.9582 76.0453 61.5382 75.812C61.1275 75.5693 60.6609 75.448 60.1382 75.448C59.6155 75.448 59.1442 75.5693 58.7242 75.812C58.3135 76.0453 57.9869 76.3813 57.7442 76.82C57.5109 77.2587 57.3942 77.758 57.3942 78.318C57.3942 78.878 57.5109 79.3773 57.7442 79.816C57.9869 80.2547 58.3135 80.5953 58.7242 80.838C59.1442 81.0713 59.6155 81.188 60.1382 81.188Z" fill="black"/>
</svg>
