<svg width="66" height="67" viewBox="0 0 66 67" fill="none" xmlns="http://www.w3.org/2000/svg">
<g id="Group 1171275467">
<g id="Cruz ">
<mask id="path-1-inside-1_307_8808" fill="white">
<path fill-rule="evenodd" clip-rule="evenodd" d="M22.2033 0.95752C20.5691 0.95752 19.2443 2.2823 19.2443 3.91651V20.1337L2.99595 20.0999C1.36176 20.0965 0.0342161 21.4185 0.0308133 23.0527L6.55429e-06 37.8476C-0.00339627 39.4818 1.31863 40.8093 2.95283 40.8127L19.2443 40.8466V57.1783C19.2443 58.8125 20.5691 60.1372 22.2033 60.1372H36.9982C38.6324 60.1372 39.9572 58.8125 39.9572 57.1783V40.8898L56.2145 40.9236C57.8487 40.927 59.1762 39.605 59.1796 37.9708L59.2104 23.1759C59.2138 21.5417 57.8918 20.2142 56.2576 20.2108L39.9572 20.1768V3.91651C39.9572 2.2823 38.6324 0.95752 36.9982 0.95752H22.2033Z"/>
</mask>
<path fill-rule="evenodd" clip-rule="evenodd" d="M22.2033 0.95752C20.5691 0.95752 19.2443 2.2823 19.2443 3.91651V20.1337L2.99595 20.0999C1.36176 20.0965 0.0342161 21.4185 0.0308133 23.0527L6.55429e-06 37.8476C-0.00339627 39.4818 1.31863 40.8093 2.95283 40.8127L19.2443 40.8466V57.1783C19.2443 58.8125 20.5691 60.1372 22.2033 60.1372H36.9982C38.6324 60.1372 39.9572 58.8125 39.9572 57.1783V40.8898L56.2145 40.9236C57.8487 40.927 59.1762 39.605 59.1796 37.9708L59.2104 23.1759C59.2138 21.5417 57.8918 20.2142 56.2576 20.2108L39.9572 20.1768V3.91651C39.9572 2.2823 38.6324 0.95752 36.9982 0.95752H22.2033Z" fill="#4DBE83"/>
<path d="M19.2443 20.1337L19.2374 23.4316L22.5423 23.4385V20.1337H19.2443ZM2.99595 20.0999L3.00282 16.8019H3.00282L2.99595 20.0999ZM0.0308133 23.0527L-3.26713 23.0458L0.0308133 23.0527ZM6.55429e-06 37.8476L-3.29794 37.8407L6.55429e-06 37.8476ZM2.95283 40.8127L2.95969 37.5148H2.95969L2.95283 40.8127ZM19.2443 40.8466H22.5423V37.5555L19.2512 37.5487L19.2443 40.8466ZM39.9572 40.8898L39.9641 37.5918L36.6593 37.5849V40.8898H39.9572ZM56.2145 40.9236L56.2076 44.2216L56.2145 40.9236ZM59.1796 37.9708L55.8817 37.9639L59.1796 37.9708ZM59.2104 23.1759L62.5084 23.1828V23.1828L59.2104 23.1759ZM56.2576 20.2108L56.2507 23.5087L56.2576 20.2108ZM39.9572 20.1768H36.6593V23.4679L39.9503 23.4748L39.9572 20.1768ZM22.5423 3.91651C22.5423 4.10371 22.3905 4.25547 22.2033 4.25547V-2.34043C18.7477 -2.34043 15.9464 0.460895 15.9464 3.91651H22.5423ZM22.5423 20.1337V3.91651H15.9464V20.1337H22.5423ZM2.98909 23.3978L19.2374 23.4316L19.2512 16.8357L3.00282 16.8019L2.98909 23.3978ZM3.32876 23.0595C3.32837 23.2467 3.1763 23.3982 2.98909 23.3978L3.00282 16.8019C-0.452785 16.7947 -3.25994 19.5902 -3.26713 23.0458L3.32876 23.0595ZM3.29795 37.8544L3.32876 23.0595L-3.26713 23.0458L-3.29794 37.8407L3.29795 37.8544ZM2.95969 37.5148C3.1469 37.5152 3.29834 37.6672 3.29795 37.8544L-3.29794 37.8407C-3.30514 41.2963 -0.509645 44.1035 2.94596 44.1107L2.95969 37.5148ZM19.2512 37.5487L2.95969 37.5148L2.94596 44.1107L19.2374 44.1446L19.2512 37.5487ZM22.5423 57.1783V40.8466H15.9464V57.1783H22.5423ZM22.2033 56.8393C22.3905 56.8393 22.5423 56.991 22.5423 57.1783H15.9464C15.9464 60.6339 18.7477 63.4352 22.2033 63.4352V56.8393ZM36.9982 56.8393H22.2033V63.4352H36.9982V56.8393ZM36.6593 57.1783C36.6593 56.991 36.811 56.8393 36.9982 56.8393V63.4352C40.4538 63.4352 43.2552 60.6339 43.2552 57.1783H36.6593ZM36.6593 40.8898V57.1783H43.2552V40.8898H36.6593ZM56.2213 37.6257L39.9641 37.5918L39.9503 44.1877L56.2076 44.2216L56.2213 37.6257ZM55.8817 37.9639C55.882 37.7767 56.0341 37.6253 56.2213 37.6257L56.2076 44.2216C59.6632 44.2288 62.4703 41.4333 62.4775 37.9777L55.8817 37.9639ZM55.9125 23.169L55.8817 37.9639L62.4775 37.9777L62.5084 23.1828L55.9125 23.169ZM56.2507 23.5087C56.0635 23.5083 55.9121 23.3562 55.9125 23.169L62.5084 23.1828C62.5155 19.7272 59.7201 16.92 56.2645 16.9128L56.2507 23.5087ZM39.9503 23.4748L56.2507 23.5087L56.2645 16.9128L39.9641 16.8789L39.9503 23.4748ZM36.6593 3.91651V20.1768H43.2552V3.91651H36.6593ZM36.9982 4.25547C36.811 4.25547 36.6593 4.10371 36.6593 3.91651H43.2552C43.2552 0.460892 40.4538 -2.34043 36.9982 -2.34043V4.25547ZM22.2033 4.25547H36.9982V-2.34043H22.2033V4.25547Z" fill="white" mask="url(#path-1-inside-1_307_8808)"/>
</g>
<g id="Group 1171275464">
<g id="V&#195;&#173;rus ">
<g id="Ellipse 6327">
<circle cx="50.4993" cy="50.9778" r="9.01917" fill="#4DBE83"/>
<circle cx="50.4993" cy="50.9778" r="9.01917" stroke="#4DBE83" stroke-width="1.41341"/>
<circle cx="50.4993" cy="50.9778" r="9.01917" stroke="black" stroke-opacity="0.2" stroke-width="1.41341"/>
</g>
<g id="Vector 42">
<path d="M47.2325 52.4216C46.346 52.6495 44.7554 53.4853 45.4849 55.005C45.7888 55.5875 46.8374 56.4031 48.6002 55.005M52.0195 49.1543C52.1461 49.8888 53.0832 51.3578 54.4509 50.446C55.2939 49.884 55.4539 48.4096 53.6911 47.8625" stroke="#4DBE83" stroke-width="1.41341" stroke-linecap="round"/>
<path d="M47.2325 52.4216C46.346 52.6495 44.7554 53.4853 45.4849 55.005C45.7888 55.5875 46.8374 56.4031 48.6002 55.005M52.0195 49.1543C52.1461 49.8888 53.0832 51.3578 54.4509 50.446C55.2939 49.884 55.4539 48.4096 53.6911 47.8625" stroke="black" stroke-opacity="0.2" stroke-width="1.41341" stroke-linecap="round"/>
</g>
<g id="Vector 34">
<path d="M44.4206 46.7987C44.8765 46.0389 44.4966 44.0365 42.521 42.4677C39.0258 39.6921 43.2529 36.9149 44.5726 39.9602C45.5604 42.2397 46.3962 43.8354 48.2198 44.0633" stroke="#4DBE83" stroke-width="1.41341" stroke-linecap="round"/>
<path d="M44.4206 46.7987C44.8765 46.0389 44.4966 44.0365 42.521 42.4677C39.0258 39.6921 43.2529 36.9149 44.5726 39.9602C45.5604 42.2397 46.3962 43.8354 48.2198 44.0633" stroke="black" stroke-opacity="0.2" stroke-width="1.41341" stroke-linecap="round"/>
</g>
<g id="Vector 35">
<path d="M50.8034 43.6834C51.6158 43.5479 52.9359 41.9996 52.855 39.6563C52.7119 35.5104 57.49 37.3008 55.8963 40.0426C54.7359 42.0388 54.2459 43.7681 55.1838 45.1957" stroke="#4DBE83" stroke-width="1.41341" stroke-linecap="round"/>
<path d="M50.8034 43.6834C51.6158 43.5479 52.9359 41.9996 52.855 39.6563C52.7119 35.5104 57.49 37.3008 55.8963 40.0426C54.7359 42.0388 54.2459 43.7681 55.1838 45.1957" stroke="black" stroke-opacity="0.2" stroke-width="1.41341" stroke-linecap="round"/>
</g>
<g id="Vector 36">
<path d="M56.6917 55.3974C56.1482 56.0162 56.3835 58.2487 57.9286 60.0123C60.6621 63.1327 56.3629 64.7221 55.7424 61.7675C55.2777 59.5552 54.4231 57.999 52.7936 57.4867" stroke="#4DBE83" stroke-width="1.41341" stroke-linecap="round"/>
<path d="M56.6917 55.3974C56.1482 56.0162 56.3835 58.2487 57.9286 60.0123C60.6621 63.1327 56.3629 64.7221 55.7424 61.7675C55.2777 59.5552 54.4231 57.999 52.7936 57.4867" stroke="black" stroke-opacity="0.2" stroke-width="1.41341" stroke-linecap="round"/>
</g>
<g id="Vector 40">
<path d="M56.9268 49.3822C57.2767 50.1277 59.1118 50.8641 61.3462 50.1532C65.2992 48.8954 65.013 53.8652 62.0807 52.8589C59.8968 52.1093 58.0479 52.2763 56.9268 53.565" stroke="#4DBE83" stroke-width="1.41341" stroke-linecap="round"/>
<path d="M56.9268 49.3822C57.2767 50.1277 59.1118 50.8641 61.3462 50.1532C65.2992 48.8954 65.013 53.8652 62.0807 52.8589C59.8968 52.1093 58.0479 52.2763 56.9268 53.565" stroke="black" stroke-opacity="0.2" stroke-width="1.41341" stroke-linecap="round"/>
</g>
<g id="Vector 37">
<path d="M41.3057 48.3184C39.938 47.1027 36.6708 45.811 35.9869 48.3184C35.531 49.9901 37.157 51.4489 40.9258 50.5979" stroke="#4DBE83" stroke-width="1.41341"/>
<path d="M41.3057 48.3184C39.938 47.1027 36.6708 45.811 35.9869 48.3184C35.531 49.9901 37.157 51.4489 40.9258 50.5979" stroke="black" stroke-opacity="0.2" stroke-width="1.41341"/>
</g>
<g id="Vector 38">
<path d="M42.7498 56.6006C40.9513 56.9385 37.8429 59.0016 39.3011 61.0904C40.0921 62.2234 42.5605 61.7738 44.1934 58.2722" stroke="#4DBE83" stroke-width="1.41341"/>
<path d="M42.7498 56.6006C40.9513 56.9385 37.8429 59.0016 39.3011 61.0904C40.0921 62.2234 42.5605 61.7738 44.1934 58.2722" stroke="black" stroke-opacity="0.2" stroke-width="1.41341"/>
</g>
<g id="Vector 39">
<path d="M47.9165 60.1718C46.7391 61.5727 45.5315 64.7777 47.983 65.47C49.0563 65.7731 51.075 64.2955 50.12 60.5518" stroke="#4DBE83" stroke-width="1.41341"/>
<path d="M47.9165 60.1718C46.7391 61.5727 45.5315 64.7777 47.983 65.47C49.0563 65.7731 51.075 64.2955 50.12 60.5518" stroke="black" stroke-opacity="0.2" stroke-width="1.41341"/>
</g>
<g id="Vector 41">
<path d="M59.1548 46.8907C60.9467 46.5196 63.7369 44.8077 62.2403 42.7462C61.5174 41.7505 59.2862 41.14 57.7182 44.6712" stroke="#4DBE83" stroke-width="1.41341"/>
<path d="M59.1548 46.8907C60.9467 46.5196 63.7369 44.8077 62.2403 42.7462C61.5174 41.7505 59.2862 41.14 57.7182 44.6712" stroke="black" stroke-opacity="0.2" stroke-width="1.41341"/>
</g>
<g id="Ellipse 6328">
<circle cx="47.9164" cy="36.541" r="1.87673" stroke="#4DBE83" stroke-width="1.41341"/>
<circle cx="47.9164" cy="36.541" r="1.87673" stroke="black" stroke-opacity="0.2" stroke-width="1.41341"/>
</g>
<g id="Ellipse 6329">
<circle cx="63.4164" cy="39.4283" r="1.87673" stroke="#4DBE83" stroke-width="1.41341"/>
<circle cx="63.4164" cy="39.4283" r="1.87673" stroke="black" stroke-opacity="0.2" stroke-width="1.41341"/>
</g>
<g id="Ellipse 6330">
<circle cx="62.809" cy="58.1203" r="1.87673" stroke="#4DBE83" stroke-width="1.41341"/>
<circle cx="62.809" cy="58.1203" r="1.87673" stroke="black" stroke-opacity="0.2" stroke-width="1.41341"/>
</g>
</g>
</g>
</g>
</svg>
