<svg width="36" height="55" viewBox="0 0 36 55" fill="none" xmlns="http://www.w3.org/2000/svg">
<g id="Group 1171275497">
<g id="Union">
<path fill-rule="evenodd" clip-rule="evenodd" d="M10.7586 16.2811L16.921 3L22.9157 14.0303C25.7932 18.8667 30.1261 26.5624 32.3071 31.3104L32.4636 31.5985L32.4452 31.6135C33.0644 32.9841 33.4872 34.0839 33.6193 34.7614C34.2272 37.8792 33.8909 41.1074 32.6532 44.0329C31.4156 46.9583 29.333 49.4479 26.6721 51.1827C24.0112 52.9175 20.893 53.8187 17.7169 53.7709C14.5408 53.7231 11.4512 52.7284 8.84372 50.9142C6.23624 49.1001 4.22954 46.549 3.08053 43.5876C1.93152 40.6262 1.6925 37.3893 2.39406 34.2912C3.04646 31.4103 8.06286 21.3441 10.7586 16.2811Z" fill="#4DBE83"/>
<path d="M16.921 3L17.9702 2.42974L16.8368 0.34414L15.8377 2.49735L16.921 3ZM10.7586 16.2811L11.8127 16.8423L11.8281 16.8134L11.8418 16.7837L10.7586 16.2811ZM22.9157 14.0303L21.8664 14.6006L21.8775 14.621L21.8894 14.6409L22.9157 14.0303ZM32.3071 31.3104L31.2219 31.8089L31.2386 31.8454L31.2578 31.8807L32.3071 31.3104ZM32.4636 31.5985L33.2172 32.525L33.9863 31.8994L33.5129 31.0282L32.4636 31.5985ZM32.4452 31.6135L31.6916 30.687L30.9783 31.2672L31.3569 32.1052L32.4452 31.6135ZM33.6193 34.7614L34.7914 34.5328L33.6193 34.7614ZM26.6721 51.1827L26.0198 50.1823H26.0198L26.6721 51.1827ZM17.7169 53.7709L17.7349 52.5768H17.7349L17.7169 53.7709ZM3.08053 43.5876L4.19389 43.1556L3.08053 43.5876ZM2.39406 34.2912L1.22933 34.0275L2.39406 34.2912ZM15.8377 2.49735L9.67526 15.7784L11.8418 16.7837L18.0043 3.50265L15.8377 2.49735ZM23.965 13.4601L17.9702 2.42974L15.8717 3.57026L21.8664 14.6006L23.965 13.4601ZM21.8894 14.6409C24.7633 19.4714 29.0689 27.1217 31.2219 31.8089L33.3923 30.8119C31.1834 26.0031 26.823 18.2621 23.942 13.4197L21.8894 14.6409ZM33.5129 31.0282L33.3563 30.7402L31.2578 31.8807L31.4144 32.1688L33.5129 31.0282ZM33.1987 32.54L33.2172 32.525L31.7101 30.672L31.6916 30.687L33.1987 32.54ZM31.3569 32.1052C31.9792 33.4826 32.3449 34.4659 32.4471 34.99L34.7914 34.5328C34.6294 33.702 34.1496 32.4855 33.5335 31.1218L31.3569 32.1052ZM32.4471 34.99C33.0096 37.8744 32.6984 40.8611 31.5534 43.5676L33.7531 44.4982C35.0833 41.3538 35.4449 37.8839 34.7914 34.5328L32.4471 34.99ZM31.5534 43.5676C30.4083 46.2741 28.4816 48.5773 26.0198 50.1823L27.3243 52.1831C30.1843 50.3184 32.4228 47.6426 33.7531 44.4982L31.5534 43.5676ZM26.0198 50.1823C23.5581 51.7873 20.6733 52.621 17.7349 52.5768L17.6989 54.965C21.1127 55.0164 24.4642 54.0477 27.3243 52.1831L26.0198 50.1823ZM17.7349 52.5768C14.7965 52.5325 11.9381 51.6123 9.52576 49.9339L8.16167 51.8945C10.9643 53.8445 14.2851 54.9136 17.6989 54.965L17.7349 52.5768ZM9.52576 49.9339C7.11343 48.2556 5.25691 45.8954 4.19389 43.1556L1.96717 44.0196C3.20217 47.2026 5.35905 49.9446 8.16167 51.8945L9.52576 49.9339ZM4.19389 43.1556C3.13088 40.4159 2.90974 37.4212 3.5588 34.555L1.22933 34.0275C0.475259 37.3574 0.732172 40.8366 1.96717 44.0196L4.19389 43.1556ZM3.5588 34.555C3.69558 33.951 4.09102 32.8713 4.697 31.4391C5.29159 30.0337 6.05578 28.3647 6.88812 26.6182C8.55246 23.126 10.4724 19.3596 11.8127 16.8423L9.70443 15.7198C8.349 18.2656 6.4129 22.0637 4.73202 25.5906C3.89175 27.3537 3.11104 29.0579 2.49732 30.5084C1.895 31.9321 1.41875 33.191 1.22933 34.0275L3.5588 34.555Z" fill="white"/>
</g>
<g id="Group 1171275468">
<g id="Cruz ">
<mask id="path-3-inside-1_307_8975" fill="white">
<path fill-rule="evenodd" clip-rule="evenodd" d="M15.6267 27.0393C15.1118 27.0393 14.6945 27.4567 14.6945 27.9715V33.0805L9.57567 33.0698C9.06084 33.0687 8.64262 33.4852 8.64154 34L8.63184 38.661C8.63077 39.1758 9.04725 39.594 9.56208 39.5951L14.6945 39.6058V44.7508C14.6945 45.2656 15.1118 45.683 15.6267 45.683H20.2876C20.8024 45.683 21.2198 45.2656 21.2198 44.7508V39.6193L26.3414 39.63C26.8562 39.6311 27.2744 39.2146 27.2755 38.6998L27.2852 34.0389C27.2862 33.524 26.8698 33.1058 26.3549 33.1047L21.2198 33.094V27.9715C21.2198 27.4567 20.8024 27.0393 20.2876 27.0393H15.6267Z"/>
</mask>
<path fill-rule="evenodd" clip-rule="evenodd" d="M15.6267 27.0393C15.1118 27.0393 14.6945 27.4567 14.6945 27.9715V33.0805L9.57567 33.0698C9.06084 33.0687 8.64262 33.4852 8.64154 34L8.63184 38.661C8.63077 39.1758 9.04725 39.594 9.56208 39.5951L14.6945 39.6058V44.7508C14.6945 45.2656 15.1118 45.683 15.6267 45.683H20.2876C20.8024 45.683 21.2198 45.2656 21.2198 44.7508V39.6193L26.3414 39.63C26.8562 39.6311 27.2744 39.2146 27.2755 38.6998L27.2852 34.0389C27.2862 33.524 26.8698 33.1058 26.3549 33.1047L21.2198 33.094V27.9715C21.2198 27.4567 20.8024 27.0393 20.2876 27.0393H15.6267Z" fill="white"/>
<path d="M14.6945 33.0805L14.6935 33.543L15.157 33.544V33.0805H14.6945ZM9.57567 33.0698L9.5747 33.5323H9.5747L9.57567 33.0698ZM8.64154 34L9.10407 34.001L8.64154 34ZM8.63184 38.661L9.09436 38.6619L8.63184 38.661ZM9.56208 39.5951L9.56304 39.1325H9.56304L9.56208 39.5951ZM14.6945 39.6058H15.157V39.1442L14.6954 39.1432L14.6945 39.6058ZM21.2198 39.6193L21.2207 39.1568L20.7572 39.1559V39.6193H21.2198ZM26.3414 39.63L26.3423 39.1675L26.3414 39.63ZM27.2755 38.6998L26.8129 38.6988L27.2755 38.6998ZM27.2852 34.0389L27.7477 34.0398L27.2852 34.0389ZM26.3549 33.1047L26.3559 32.6422L26.3549 33.1047ZM21.2198 33.094H20.7572V33.5556L21.2188 33.5566L21.2198 33.094ZM15.157 27.9715C15.157 27.7121 15.3673 27.5018 15.6267 27.5018V26.5768C14.8564 26.5768 14.2319 27.2012 14.2319 27.9715H15.157ZM15.157 33.0805V27.9715H14.2319V33.0805H15.157ZM9.5747 33.5323L14.6935 33.543L14.6954 32.6179L9.57663 32.6073L9.5747 33.5323ZM9.10407 34.001C9.10461 33.7416 9.31532 33.5318 9.5747 33.5323L9.57663 32.6073C8.80635 32.6057 8.18062 33.2288 8.17902 33.9991L9.10407 34.001ZM9.09436 38.6619L9.10407 34.001L8.17902 33.9991L8.16931 38.66L9.09436 38.6619ZM9.56304 39.1325C9.30366 39.132 9.09382 38.9213 9.09436 38.6619L8.16931 38.66C8.16771 39.4303 8.79084 40.056 9.56112 40.0576L9.56304 39.1325ZM14.6954 39.1432L9.56304 39.1325L9.56112 40.0576L14.6935 40.0683L14.6954 39.1432ZM15.157 44.7508V39.6058H14.2319V44.7508H15.157ZM15.6267 45.2205C15.3673 45.2205 15.157 45.0102 15.157 44.7508H14.2319C14.2319 45.5211 14.8564 46.1455 15.6267 46.1455V45.2205ZM20.2876 45.2205H15.6267V46.1455H20.2876V45.2205ZM20.7572 44.7508C20.7572 45.0102 20.547 45.2205 20.2876 45.2205V46.1455C21.0579 46.1455 21.6823 45.5211 21.6823 44.7508H20.7572ZM20.7572 39.6193V44.7508H21.6823V39.6193H20.7572ZM26.3423 39.1675L21.2207 39.1568L21.2188 40.0819L26.3404 40.0925L26.3423 39.1675ZM26.8129 38.6988C26.8124 38.9582 26.6017 39.168 26.3423 39.1675L26.3404 40.0925C27.1107 40.0941 27.7364 39.471 27.738 38.7007L26.8129 38.6988ZM26.8227 34.0379L26.8129 38.6988L27.738 38.7007L27.7477 34.0398L26.8227 34.0379ZM26.354 33.5673C26.6134 33.5678 26.8232 33.7785 26.8227 34.0379L27.7477 34.0398C27.7493 33.2696 27.1262 32.6438 26.3559 32.6422L26.354 33.5673ZM21.2188 33.5566L26.354 33.5673L26.3559 32.6422L21.2207 32.6315L21.2188 33.5566ZM20.7572 27.9715V33.094H21.6823V27.9715H20.7572ZM20.2876 27.5018C20.547 27.5018 20.7572 27.7121 20.7572 27.9715H21.6823C21.6823 27.2012 21.0579 26.5768 20.2876 26.5768V27.5018ZM15.6267 27.5018H20.2876V26.5768H15.6267V27.5018Z" fill="white" mask="url(#path-3-inside-1_307_8975)"/>
</g>
</g>
</g>
</svg>
