<svg width="53" height="58" viewBox="0 0 53 58" fill="none" xmlns="http://www.w3.org/2000/svg">
<path id="Vector 80" d="M35.0984 6.66288C32.086 9.81871 22.2278 9.01364 19.7031 7.63655C16.5473 5.91519 3.48007 -0.650965 1.47182 13.5502C1.04582 16.5626 1.60844 20.432 5.51019 27.4322C7.7489 31.4487 7.69059 34.4324 7.80534 39.4817C7.9201 44.531 9.76578 50.3836 10.6743 52.6788C11.6784 55.1652 14.3465 58.8183 16.9859 53.5395C19.6253 48.2606 21.4328 45.1239 22.0066 44.2154C23.2976 42.0159 26.769 38.9366 30.3265 44.2154L34.7733 52.6788C36.4947 55.6912 38.5603 59.4495 41.085 52.6788C41.85 50.0967 43.208 45.0474 44.2408 36.8997C45.8187 29.0101 47.2532 25.9977 48.5442 23.1288C49.8352 20.2598 52.9301 10.5863 49.2783 5.8526C46.8438 2.69681 40.7594 1.32201 36.2078 2.75937C30.7568 4.48076 29.4658 4.48075 29.4658 4.48075C28.5625 4.64498 23.0702 5.77177 20.9185 4.48075" stroke="#FFFCFC" stroke-width="2.43084" stroke-linecap="round"/>
</svg>
