<svg width="47" height="65" viewBox="0 0 47 65" fill="none" xmlns="http://www.w3.org/2000/svg">
<g id="Group 1171275509">
<path id="Vector 92" d="M5.38107 42.784H25.0708C26.1693 42.784 27.0597 43.6744 27.0597 44.7728V45.346M17.712 20.2036V24.2875H11.9443C6.45223 24.2875 2 28.7397 2 34.2318V55.7116C2 56.81 2.89045 57.7004 3.98887 57.7004H25.0708C26.1693 57.7004 27.0597 56.81 27.0597 55.7116V55.0914M26.0653 20.4432V24.2875H32.839C38.0055 24.2875 42.3115 28.244 42.7478 33.3921L44.9595 59.4904C45.5562 63.8424 39.3907 65.8313 37.6007 59.4904L35.0152 40.3973M27.0597 45.346C28.253 45.9426 30.6397 46.1415 31.0374 50.1193C31.0374 52.7048 29.6055 54.9323 27.0597 55.0914M27.0597 45.346V55.0914" stroke="white" stroke-width="2.74468" stroke-linecap="round"/>
<circle id="Ellipse 6344" cx="22.0872" cy="10.9388" r="9.56642" stroke="white" stroke-width="2.74468"/>
<path id="Vector 93" d="M16.916 24.2642C18.4408 26.253 22.4053 29.0374 26.0648 24.2642M29.6448 24.2642L7.56836 42.7606H23.6782L32.2303 24.2642H29.6448Z" stroke="white" stroke-width="2.74468" stroke-linecap="round"/>
</g>
</svg>
