<svg width="64" height="62" viewBox="0 0 64 62" fill="none" xmlns="http://www.w3.org/2000/svg">
<path id="Vector 84" d="M27.4181 24.1941C26.4917 16.161 26.8257 3.95412 14.8043 15.2334C-0.222445 29.3326 1.81822 52.8003 2.46753 56.0468C3.11683 59.2933 4.0444 59.5716 8.12574 57.8092C12.2071 56.0468 15.0826 55.0265 18.7001 54.1916C22.3177 53.3568 25.1387 51.9673 26.3062 48.3479C29.089 39.7215 28.6168 34.6198 27.9675 28.3123M27.9675 28.3123C24.4427 29.8892 22.8413 35.6401 22.6557 38.1446M27.9675 28.3123C31.4923 26.7354 34.1823 26.6247 37.7998 28.7582M37.7998 28.7582C37.7998 29.9331 37.0661 32.004 37.0661 39.7215C37.0661 49.3682 39.9465 51.7151 41.0547 52.4292C45.2288 55.1192 51.7218 56.0468 55.0611 57.0671C58.5928 58.1463 60.07 60.5919 61.0903 60.0354C62.1107 59.4788 62.4817 55.212 61.0903 38.9794C59.9772 25.9933 52.2165 17.7379 48.4753 15.2334C39.5706 7.36759 37.5299 11.8942 37.5299 15.8828L37.0661 24.5376M37.7998 28.7582C41.0547 30.3529 41.465 35.6401 41.8361 38.1446M29.7383 2.15463C30.8513 8.83318 30.9731 20.1496 29.089 22.4685C27.7538 24.1118 24.9149 27.1992 23.338 26.5499C22.6002 26.2461 20.8335 24.3237 23.338 20.4279M16.7541 22.4685C18.2295 24.1003 21.1461 26.2856 20.0915 28.3123C19.1301 30.1596 16.0014 30.6705 13.3115 31.9691M14.8043 35.9184C15.4845 34.6198 20.648 30.3613 20.0915 34.9908C19.7194 38.0861 19.0093 39.505 18.7001 39.7215M34.3761 1.96912C33.1703 8.55491 32.8492 20.4279 34.6544 22.4685C36.7878 24.8802 44.9505 30.3529 41.0547 20.4279M50.6885 35.9184C50.132 34.8362 45.7668 30.557 45.3215 32.8574C44.9984 34.527 45.6369 37.4767 45.7853 38.1446M46.7541 22.4685C42.3279 27.0511 48.4536 31.6068 52.1639 30.4937" stroke="white" stroke-width="2.95082" stroke-linecap="round"/>
</svg>
