<svg width="50" height="65" viewBox="0 0 50 65" fill="none" xmlns="http://www.w3.org/2000/svg">
<path id="Vector 83" d="M19.8851 2V15.8569C17.1997 17.6293 12.151 22.1731 13.44 26.1691C13.9234 27.8877 15.8891 31.3896 19.8851 31.6474C21.7649 30.8417 26.1691 29.7139 28.7471 31.6474C30.7343 32.0233 34.9988 31.7441 36.1589 27.6192C37.6091 22.4631 31.4863 19.0795 30.6806 15.8569V2M19.8851 63.5505V51.6271C19.4017 50.553 17.726 47.8568 14.8902 45.6654C13.4937 44.1079 11.7643 40.0582 16.0181 36.3201C17.0385 35.6756 19.7884 34.7732 22.6243 36.3201C23.2151 36.7497 25.2667 37.1579 28.7471 35.3533C30.6269 34.8162 34.741 34.741 36.1589 38.737C37.0183 40.7242 37.1257 45.891 30.6806 50.6604V63.5505M38.737 30.1972L46.1488 23.9133M38.737 33.5809H48.2435M38.737 36.3201L45.0209 41.7984M11.3454 30.1972L4.25578 25.0412M11.3454 33.5809H2M12.3121 35.3533L7.63945 41.7984" stroke="white" stroke-width="2.7202" stroke-linecap="round"/>
</svg>
