<svg width="53" height="64" viewBox="0 0 53 64" fill="none" xmlns="http://www.w3.org/2000/svg">
<g id="Group 1171275526">
<g id="Group 1171275523">
<path id="Vector 69" d="M23.5058 61.9062C23.384 61.5408 21.9556 56.1184 21.538 54.9492C21.1204 53.7799 19.798 53.4528 19.1891 53.4354C18.4409 53.5398 16.2972 53.759 13.7082 53.8008C11.1191 53.8426 9.25391 53.1222 8.64492 52.7568C6.80753 51.5458 7.00937 49.5379 7.33996 48.6853C7.79931 47.9754 7.53135 47.45 7.33996 47.276C5.29377 46.3155 5.7566 44.8226 6.24379 44.1963L4.83442 43.4655C3.83221 42.9644 3.92964 42.2127 4.10364 41.8995L5.25201 40.2814C5.7218 39.2896 5.6174 39.133 5.46081 38.7154C5.33553 38.3813 4.12104 38.3326 3.52946 38.35C3.07011 38.2665 2.50288 37.6192 2.27669 37.306C1.77558 36.6379 2.06789 35.9837 2.27669 35.7401L4.10364 33.8087C6.60918 31.2614 7.42279 28.1191 6.45258 25.1437C3.94704 17.4601 6.76577 12.9293 8.33173 10.5281C16.6 1.25764 26.1837 1.08016 31.1425 1.54995C41.9999 3.22031 44.575 7.3788 47.0631 10.6325C55.5715 20.0805 47.7417 32.2428 47.0631 32.8169C46.7492 33.0826 45.532 34.6787 44.8708 35.3747C43.7398 36.3143 41.0707 38.8615 39.4421 41.5341C37.4064 44.8748 37.824 48.3721 38.085 50.4601C38.2938 52.1304 41.8102 60.3228 42.5062 61.9062" stroke="white" stroke-width="2.67273" stroke-linecap="round"/>
</g>
<g id="Group 1171275525">
<g id="Group 1171275519">
<g id="Group 1171275518">
<g id="Group 1171275522">
<path id="Union" d="M43.1303 12.4891L42.2602 12.6804L43.1303 12.4891ZM30.8664 10.8222L30.1144 10.3445L30.0602 10.4298L30.0265 10.525L30.8664 10.8222ZM36.317 23.3948L35.7835 22.6813L35.769 22.6922L35.7549 22.7036L36.317 23.3948ZM30.9779 27.7371L30.4249 28.4356L30.9854 28.8793L31.54 28.4283L30.9779 27.7371ZM28.1153 25.4709L28.6683 24.7724L28.6609 24.7666L28.6535 24.7609L28.1153 25.4709ZM25.4158 23.4245L25.954 22.7145L25.9493 22.711L25.4158 23.4245ZM18.6025 12.5188L19.4726 12.7101H19.4726L18.6025 12.5188ZM30.8596 10.8413L30.1084 11.3203L31.0903 12.8602L31.6995 11.1385L30.8596 10.8413ZM44.0005 12.2978C43.5786 10.3791 42.7209 8.91862 41.5679 7.91825C40.4159 6.91887 39.0184 6.42183 37.5919 6.34844C34.764 6.20296 31.7853 7.71433 30.1144 10.3445L31.6184 11.2999C32.9567 9.19333 35.3357 8.01655 37.5004 8.12791C38.5702 8.18294 39.5777 8.55057 40.4002 9.26416C41.2216 9.97676 41.9078 11.0775 42.2602 12.6804L44.0005 12.2978ZM36.8506 24.1083C43.4257 19.1919 44.5741 14.9071 44.0005 12.2978L42.2602 12.6804C42.6184 14.3095 42.0918 17.9644 35.7835 22.6813L36.8506 24.1083ZM31.54 28.4283L36.8792 24.086L35.7549 22.7036L30.4157 27.0459L31.54 28.4283ZM27.5623 26.1694L30.4249 28.4356L31.5308 27.0386L28.6683 24.7724L27.5623 26.1694ZM28.6535 24.7609L25.954 22.7145L24.8776 24.1345L27.5771 26.1809L28.6535 24.7609ZM25.9493 22.711C19.641 17.9941 19.1144 14.3392 19.4726 12.7101L17.7323 12.3275C17.1587 14.9368 18.3072 19.2216 24.8823 24.138L25.9493 22.711ZM19.4726 12.7101C19.8247 11.1084 20.5102 10.0081 21.3307 9.29547C22.1524 8.58187 23.1588 8.21379 24.2276 8.15786C26.3902 8.04469 28.768 9.21786 30.1084 11.3203L31.6109 10.3623C29.9374 7.73764 26.9602 6.2306 24.1345 6.37848C22.7091 6.45307 21.3131 6.95083 20.1624 7.95018C19.0106 8.95051 18.1538 10.4103 17.7323 12.3275L19.4726 12.7101ZM30.0265 10.525L30.0198 10.5441L31.6995 11.1385L31.7063 11.1194L30.0265 10.525Z" fill="white"/>
</g>
</g>
</g>
<path id="Vector 97" d="M42.3193 16.5163H37.3484C38.6944 12.878 33.8429 13.0583 35.2983 16.5163H30.9727M30.9727 16.5163V19.9743H30.1082C29.676 19.398 28.1472 19.1988 27.947 20.6404C27.7785 21.8532 28.9195 23.0419 30.1082 21.8532H30.9727V24.279M30.9727 16.5163H26.3231L26.8082 17.7295C27.2934 19.9743 22.4419 19.9126 24.489 16.5163L19.9503 16.4083M30.9727 16.5163V14.0309H30.1082C29.676 14.6793 27.947 14.8186 27.947 13.1206C27.947 12.6354 28.5063 10.9374 30.1082 12.3928H30.9727V10.1406" stroke="white" stroke-width="0.727723" stroke-linecap="round"/>
</g>
</g>
</svg>
