<svg width="63" height="63" viewBox="0 0 63 63" fill="none" xmlns="http://www.w3.org/2000/svg">
<g id="Group 1171275527">
<g id="Group 1171275511">
<path id="Vector 85" d="M7.99559 60.2117C9.6362 57.9968 13.5737 48.3992 8.56981 41.5087C4.56671 35.9962 2.74562 31.3368 2.33547 29.6962C0.497981 17.4901 6.65575 9.73543 9.96432 7.38389C20.1361 -0.950432 33.179 2.27064 38.429 4.92296C43.843 7.87607 46.7688 13.8643 47.5344 16.8174C49.093 21.8213 49.175 23.9267 48.8469 24.6103C48.1906 26.8252 49.5139 28.1377 50.3234 29.2861C51.6359 31.148 53.5718 33.8798 53.7687 34.2079C54.0148 34.6181 54.425 35.2743 53.7687 36.2587C53.1125 37.2431 52.1281 37.7352 51.3898 37.9813C50.6515 38.2274 50.3234 38.3095 50.3234 39.1298C50.3234 39.9501 50.7336 39.6219 50.9797 40.6063C51.1765 41.3938 49.9133 42.1922 49.257 42.493C50.6515 43.4774 49.8312 44.6258 49.257 45.118C48.6828 45.6102 48.6008 46.5946 48.8469 47.3328C49.0929 48.0711 49.7492 48.7274 48.8469 51.0242C46.7961 54.1414 43.0227 53.239 41.218 53.5672C39.4133 53.8953 38.0508 54.4441 36.9524 56.2742C36.022 57.8246 35.7871 60.3984 35.5683 60.9999" stroke="white" stroke-width="2.72176" stroke-linecap="round"/>
</g>
<path id="Vector 107" d="M19.5115 34.6103C16.9252 32.8323 13.6044 25.4268 18.2992 23.2147C22.7355 21.1244 24.4476 26.7584 21.7843 27.3291C19.882 26.5682 18.9309 31.1337 21.7843 30.7533C22.7542 30.7533 25.3987 33.9872 22.1648 36.0797C21.2136 36.6952 26.3499 38.7429 19.882 60.9999M45.0948 42.1671C39.9586 41.9134 31.6604 42.1671 29.3935 50.5372C27.4151 57.8421 26.9205 60.556 26.9205 60.9999M48.7238 36.0797C42.3828 36.2699 32.0568 37.6016 29.3935 42.1671C27.2653 45.8155 25.0182 56.5612 24.0671 60.9999" stroke="white" stroke-width="1.8145" stroke-linecap="round"/>
<path id="Vector 108" d="M57.1668 37.2212C59.2593 40.4551 58.3082 43.3085 56.0254 45.7815M60.2105 34.1775C61.6055 36.7139 64.2053 43.3085 58.3082 49.3959" stroke="white" stroke-width="1.8145" stroke-linecap="round"/>
<path id="Vector 109" d="M11.248 23.5246C11.5016 21.876 12.8459 18.5406 16.194 18.3884M7.44336 24.2855C7.63359 21.7491 9.57394 16.1056 15.8135 13.8229" stroke="white" stroke-width="1.8145" stroke-linecap="round"/>
</g>
</svg>
