<svg width="66" height="45" viewBox="0 0 66 45" fill="none" xmlns="http://www.w3.org/2000/svg">
<g id="Group 1171275529">
<path id="Ellipse 6346" d="M34.9326 8.1964C34.9326 11.897 31.8713 14.9389 28.0425 14.9389C24.2137 14.9389 21.1523 11.897 21.1523 8.1964C21.1523 4.49585 24.2137 1.45386 28.0425 1.45386C31.8713 1.45386 34.9326 4.49585 34.9326 8.1964Z" stroke="white" stroke-width="2.75"/>
<path id="Ellipse 6347" d="M61.2041 29.7447C61.2041 33.4453 58.1427 36.4873 54.314 36.4873C50.4852 36.4873 47.4238 33.4453 47.4238 29.7447C47.4238 26.0442 50.4852 23.0022 54.314 23.0022C58.1427 23.0022 61.2041 26.0442 61.2041 29.7447Z" stroke="white" stroke-width="2.75"/>
<path id="Union" fill-rule="evenodd" clip-rule="evenodd" d="M11.667 28.7694C11.2552 29.5659 11.5672 30.5454 12.3637 30.9572C13.1602 31.3689 14.1397 31.057 14.5514 30.2605L20.4198 18.908L35.2809 28.1187C36.043 28.591 37.0438 28.3561 37.5161 27.594C37.9885 26.8319 37.7536 25.8311 36.9914 25.3588L20.7978 15.3221C20.6453 15.2276 20.4832 15.1614 20.3177 15.1221C19.561 14.8447 18.6984 15.1671 18.3186 15.9018L11.667 28.7694Z" fill="white"/>
<rect id="Rectangle 40869" y="41.6997" width="44.2775" height="3.24702" rx="1.62351" fill="white"/>
<path id="Union_2" fill-rule="evenodd" clip-rule="evenodd" d="M3.24707 36.534C3.24707 35.6374 3.97394 34.9105 4.87058 34.9105H42.6541C42.807 34.9105 42.9551 34.9317 43.0954 34.9712C43.4817 34.9237 43.8861 35.0141 44.2291 35.2562L52.9562 41.4143L63.9337 38.3048C64.7964 38.0604 65.6938 38.5617 65.9382 39.4244C66.1826 40.2871 65.6813 41.1845 64.8186 41.4289L53.4063 44.6616C53.0338 44.7671 52.6548 44.7336 52.3246 44.5919C52.0066 44.5887 51.6862 44.4922 51.4067 44.2949L42.7078 38.1567C42.69 38.1572 42.672 38.1575 42.6541 38.1575H4.87058C3.97394 38.1575 3.24707 37.4307 3.24707 36.534Z" fill="white"/>
</g>
</svg>
