<svg width="46" height="66" viewBox="0 0 46 66" fill="none" xmlns="http://www.w3.org/2000/svg">
<path id="Vector 112" d="M43.8742 8.28854L35.0308 26.1548C34.3443 27.1243 33.3259 29.7565 34.7438 32.5294C36.5162 35.9956 37.0834 37.013 37.3313 37.8883C37.5793 38.7636 38.5242 41.2241 35.6732 42.7602C32.8221 44.2963 28.2327 45.4413 25.8903 46.6938C24.1631 47.7101 20.3464 50.4994 18.8973 53.5264C17.0859 57.3101 15.5715 58.4211 14.2939 59C13.2718 59.4632 11.9596 60.0436 11.4312 60.276C10.9067 60.595 9.77961 61.3514 9.46714 61.8243C9.07656 62.4155 5.92966 64.3299 4.47488 64.4475C3.31106 64.5415 2.46888 63.1298 2.19327 62.4121L2.01665 60.8036L3.92106 60.2486C5.49451 59.2914 8.93271 56.6651 10.0979 53.8178C11.5543 50.2586 14.918 40.4083 16.4808 36.8965L22.2587 23.9133C23.9875 19.8378 26.8502 13.768 29.8268 2.03706" stroke="white" stroke-width="2.6024" stroke-linecap="round"/>
</svg>
