<svg width="35" height="66" viewBox="0 0 35 66" fill="none" xmlns="http://www.w3.org/2000/svg">
<g id="Group 1171275533">
<g id="Group 1171275534">
<path id="Vector 110" d="M12.7871 14.5589H16.9482H20.7973C25.2913 14.5589 27.4551 16.9169 27.9753 18.0959C29.0767 20.5925 31.9284 27.5971 32.9686 31.2035C33.3848 34.8445 29.5357 34.7404 28.8075 32.6599C28.7035 32.4865 28.3914 31.786 27.9753 30.3712C27.5592 28.9565 25.9294 25.4125 25.1665 23.8174C26.831 27.8121 27.3164 31.2035 27.2471 32.6599C27.2471 37.0291 22.7738 40.9822 17.4684 40.9822C12.1629 40.9822 8.32642 37.4312 7.58566 33.7002C7.0325 30.914 8.834 26.5569 9.87429 23.8174L6.02523 32.6599C3.94466 35.9888 1.552 33.3881 2.07215 30.9954C2.32181 28.4155 5.29703 21.8062 6.75343 18.8241C8.62595 14.9899 11.296 14.4896 12.7871 14.5589Z" stroke="white" stroke-width="2.51351" stroke-linecap="round"/>
<path id="Vector 112" d="M14.568 44.8108C11.4745 43.973 9.54101 43.1351 7.31751 41.0405C7.47864 46.9711 7.0855 56.7824 7.31752 59.1547C7.54953 61.5269 7.88619 62.3317 8.09091 62.7554C8.78696 64.1956 10.6366 64.238 11.4745 63.9203C12.9439 63.5814 13.408 61.5904 13.6013 59.7901L14.568 44.8108Z" stroke="white" stroke-width="2.51351" stroke-linecap="round"/>
<path id="Vector 113" d="M19.5951 45.2297C22.6886 44.3919 24.6221 43.5541 26.8456 41.4595C26.6844 47.39 27.0776 57.2014 26.8456 59.5736C26.6136 61.9458 26.2769 62.7507 26.0722 63.1743C25.3761 64.6146 23.5264 64.6569 22.6886 64.3392C21.2192 64.0003 20.7551 62.0094 20.5618 60.209L19.5951 45.2297Z" stroke="white" stroke-width="2.51351" stroke-linecap="round"/>
<g id="Group 1171275532">
<circle id="Ellipse 6348" cx="17.6768" cy="6.54308" r="4.88093" stroke="white" stroke-width="2.51351"/>
</g>
</g>
</g>
</svg>
