<svg width="70" height="75" viewBox="0 0 70 75" fill="none" xmlns="http://www.w3.org/2000/svg">
<g id="Group 1171275472">
<g id="Group 1171275470">
<g id="Rectangle 40849">
<mask id="path-1-inside-1_307_8831" fill="white">
<path d="M46.3584 15.5086L55.2884 23.4351L27.206 55.0728C26.5806 55.7774 25.5025 55.8415 24.7979 55.2162L18.4193 49.5544C17.7148 48.929 17.6506 47.8509 18.276 47.1463L46.3584 15.5086Z"/>
</mask>
<path d="M46.3584 15.5086L55.2884 23.4351L27.206 55.0728C26.5806 55.7774 25.5025 55.8415 24.7979 55.2162L18.4193 49.5544C17.7148 48.929 17.6506 47.8509 18.276 47.1463L46.3584 15.5086Z" fill="#4DBE83" stroke="white" stroke-width="5.04194" mask="url(#path-1-inside-1_307_8831)"/>
</g>
<rect id="Rectangle 40851" x="55.2993" y="11.4455" width="4.30214" height="6.34907" transform="rotate(41.5931 55.2993 11.4455)" fill="#4DBE83" stroke="white" stroke-width="2.52097"/>
<g id="Rectangle 40852">
<mask id="path-3-inside-2_307_8831" fill="white">
<path d="M19.6084 49.2419L24.7113 53.7714L21.9936 56.8331C21.3682 57.5376 20.2901 57.6018 19.5855 56.9764L17.0341 54.7117C16.3295 54.0863 16.2654 53.0082 16.8907 52.3037L19.6084 49.2419Z"/>
</mask>
<path d="M19.6084 49.2419L24.7113 53.7714L21.9936 56.8331C21.3682 57.5376 20.2901 57.6018 19.5855 56.9764L17.0341 54.7117C16.3295 54.0863 16.2654 53.0082 16.8907 52.3037L19.6084 49.2419Z" fill="#4DBE83" stroke="white" stroke-width="5.04194" mask="url(#path-3-inside-2_307_8831)"/>
</g>
<g id="Subtract">
<mask id="path-4-inside-3_307_8831" fill="white">
<path fill-rule="evenodd" clip-rule="evenodd" d="M55.6821 6.72217L63.5217 13.6808C65.2043 11.5137 64.9379 8.38268 62.8563 6.53503C60.7747 4.68738 57.6343 4.79435 55.6821 6.72217Z"/>
</mask>
<path fill-rule="evenodd" clip-rule="evenodd" d="M55.6821 6.72217L63.5217 13.6808C65.2043 11.5137 64.9379 8.38268 62.8563 6.53503C60.7747 4.68738 57.6343 4.79435 55.6821 6.72217Z" fill="#4DBE83"/>
<path d="M55.6821 6.72217L53.3438 4.35432L50.8149 6.85164L53.473 9.211L55.6821 6.72217ZM63.5217 13.6808L61.3125 16.1696L63.9706 18.529L66.1502 15.7217L63.5217 13.6808ZM53.473 9.211L61.3125 16.1696L65.7308 11.192L57.8912 4.23335L53.473 9.211ZM60.6472 9.02385C61.409 9.70005 61.5077 10.8483 60.8931 11.6399L66.1502 15.7217C68.9008 12.1791 68.4668 7.06531 65.0655 4.04621L60.6472 9.02385ZM58.0204 9.09003C58.7335 8.38582 59.8854 8.34765 60.6472 9.02385L65.0655 4.04621C61.6641 1.0271 56.535 1.20288 53.3438 4.35432L58.0204 9.09003Z" fill="white" mask="url(#path-4-inside-3_307_8831)"/>
</g>
<rect id="Rectangle 40853" x="18.2888" y="55.4828" width="0.852888" height="16.2049" rx="0.426444" transform="rotate(41.5931 18.2888 55.4828)" fill="#4DBE83" stroke="white" stroke-width="0.852888"/>
<g id="Group 1171275468">
<g id="Rectangle 40850">
<mask id="path-7-inside-4_307_8831" fill="white">
<rect x="46.2383" y="10.6186" width="17.7401" height="6.02821" rx="1.70578" transform="rotate(41.5931 46.2383 10.6186)"/>
</mask>
<rect x="46.2383" y="10.6186" width="17.7401" height="6.02821" rx="1.70578" transform="rotate(41.5931 46.2383 10.6186)" fill="#4DBE83" stroke="white" stroke-width="5.04194" mask="url(#path-7-inside-4_307_8831)"/>
</g>
</g>
<g id="Group 1171275469">
<g id="Rectangle 40850_2">
<mask id="path-8-inside-5_307_8831" fill="white">
<rect x="52.9229" y="4.00134" width="17.7401" height="6.15189" rx="1.70578" transform="rotate(41.5931 52.9229 4.00134)"/>
</mask>
<rect x="52.9229" y="4.00134" width="17.7401" height="6.15189" rx="1.70578" transform="rotate(41.5931 52.9229 4.00134)" fill="#4DBE83" stroke="white" stroke-width="5.04194" mask="url(#path-8-inside-5_307_8831)"/>
</g>
</g>
</g>
<path id="Rectangle 40854" d="M40.1455 24.8198L43.2612 27.5854C43.4021 27.7104 43.4149 27.9261 43.2899 28.067C43.1648 28.2079 42.9492 28.2207 42.8083 28.0956L39.6926 25.3301L40.1455 24.8198Z" fill="#4DBE83" stroke="white" stroke-width="0.852888"/>
<path id="Rectangle 40860" d="M43.7696 20.7376L46.7645 23.3959C46.9054 23.521 46.9182 23.7366 46.7931 23.8775C46.6681 24.0184 46.4524 24.0313 46.3115 23.9062L43.3166 21.2478L43.7696 20.7376Z" fill="#4DBE83" stroke="white" stroke-width="0.852888"/>
<path id="Rectangle 40855" d="M36.5225 28.9022L39.518 31.561C39.6589 31.6861 39.6717 31.9017 39.5466 32.0426C39.4216 32.1835 39.2059 32.1964 39.065 32.0713L36.0696 29.4125L36.5225 28.9022Z" fill="#4DBE83" stroke="white" stroke-width="0.852888"/>
<path id="Rectangle 40856" d="M32.8985 32.9844L36.0411 35.7739C36.182 35.899 36.1949 36.1146 36.0698 36.2555C35.9447 36.3964 35.7291 36.4092 35.5882 36.2842L32.4455 33.4947L32.8985 32.9844Z" fill="#4DBE83" stroke="white" stroke-width="0.852888"/>
<g id="Rectangle 40857">
<mask id="path-13-inside-6_307_8831" fill="white">
<path d="M29.2324 36.3443L32.6376 39.3668C32.9899 39.6795 33.022 40.2186 32.7093 40.5709C32.3966 40.9231 31.8575 40.9552 31.5053 40.6425L28.1001 37.62L29.2324 36.3443Z"/>
</mask>
<path d="M29.2324 36.3443L32.6376 39.3668C32.9899 39.6795 33.022 40.2186 32.7093 40.5709C32.3966 40.9231 31.8575 40.9552 31.5053 40.6425L28.1001 37.62L29.2324 36.3443Z" fill="#4DBE83"/>
<path d="M29.2324 36.3443L30.9059 34.4589L29.0206 32.7854L27.347 34.6708L29.2324 36.3443ZM28.1001 37.62L26.2147 35.9465L24.5412 37.8319L26.4266 39.5054L28.1001 37.62ZM27.5589 38.2297L30.9641 41.2522L34.3111 37.4815L30.9059 34.4589L27.5589 38.2297ZM33.1788 38.7572L29.7736 35.7346L26.4266 39.5054L29.8318 42.5279L33.1788 38.7572ZM29.9854 39.2935L31.1178 38.0178L27.347 34.6708L26.2147 35.9465L29.9854 39.2935ZM30.8239 38.8974C31.4355 38.2084 32.4898 38.1456 33.1788 38.7572L29.8318 42.5279C31.2253 43.7649 33.3577 43.6379 34.5947 42.2444L30.8239 38.8974ZM30.9641 41.2522C30.2751 40.6407 30.2124 39.5863 30.8239 38.8974L34.5947 42.2444C35.8316 40.8508 35.7047 38.7184 34.3111 37.4815L30.9641 41.2522Z" fill="white" mask="url(#path-13-inside-6_307_8831)"/>
</g>
<path id="Rectangle 40858" d="M25.6514 41.149L28.8798 44.0146C29.0207 44.1396 29.0335 44.3553 28.9084 44.4962C28.7834 44.6371 28.5677 44.6499 28.4268 44.5249L25.1985 41.6593L25.6514 41.149Z" fill="#4DBE83" stroke="white" stroke-width="0.852888"/>
<path id="Rectangle 40859" d="M22.0284 45.2313L26.1106 48.8548C26.2516 48.9799 26.2644 49.1955 26.1393 49.3364C26.0142 49.4773 25.7986 49.4902 25.6577 49.3651L21.5754 45.7416L22.0284 45.2313Z" fill="#4DBE83" stroke="white" stroke-width="0.852888"/>
</g>
</svg>
