<svg width="63" height="47" viewBox="0 0 63 47" fill="none" xmlns="http://www.w3.org/2000/svg">
<g id="Group 1171275541">
<path id="Union" fill-rule="evenodd" clip-rule="evenodd" d="M31.5315 8.95648C30.8297 8.73791 30.1042 8.84507 29.518 9.19244C28.7375 9.59599 28.204 10.4107 28.2042 11.35L28.2069 25.5253C26.9122 25.4647 25.5965 25.9197 24.5944 26.8949L13.368 37.8191C11.447 39.6883 11.4051 42.7609 13.2744 44.6819C14.4026 45.8413 15.9692 46.3162 17.4564 46.0996H41.5729C42.5844 46.0996 43.4043 45.2796 43.4043 44.2682V42.9862C43.4043 41.9747 42.5844 41.1548 41.5729 41.1548H23.8581L31.3635 33.8514C31.5443 33.6755 31.7085 33.4889 31.856 33.2936C32.5772 32.8728 33.0617 32.0907 33.0616 31.1955L33.0584 14.6557L48.8695 19.5799C50.1844 19.9894 51.5824 19.2554 51.9919 17.9405C52.4014 16.6256 51.6674 15.2276 50.3525 14.8181L31.5315 8.95648Z" fill="white"/>
<path id="Rectangle 40877" d="M43.5869 11.3945L52.9682 2.21847C53.9618 1.24654 55.5472 1.23759 56.5518 2.19823C57.6278 3.22722 57.6107 4.95128 56.5145 5.95875L48.8064 13.0428L43.5869 11.3945Z" fill="white"/>
<path id="Vector 115" d="M43.2214 19.178L37.7272 17.3466L34.4307 20.5515V28.6096L43.2214 19.178Z" fill="white"/>
<circle id="Ellipse 6349" cx="51.6457" cy="31.6314" r="10.1026" stroke="#FFFCFC" stroke-width="2.50417"/>
<circle id="Ellipse 6350" cx="5.7689" cy="40.3305" r="4.51681" stroke="#FFFCFC" stroke-width="2.50417"/>
</g>
</svg>
