<svg width="55" height="58" viewBox="0 0 55 58" fill="none" xmlns="http://www.w3.org/2000/svg">
<path id="Vector 114" d="M27.8361 27.4769C25.5715 15.1533 20.8682 12.6697 20.8682 12.6697C20.8682 12.6697 22.7844 8.66317 20.8682 5.87603C18.952 3.08889 13.9003 -1.61442 7.97766 5.00505C2.05498 11.6245 1.3582 20.3343 2.40338 23.644C3.44855 26.9538 7.97766 32.1797 13.0294 30.4377C17.0707 29.0441 18.7778 26.1409 19.1262 24.8634C19.3585 24.2247 19.5791 22.564 18.6036 21.0311C17.3843 19.1149 17.9069 18.9407 18.6036 19.1149C19.3004 19.2891 25.2779 23.369 24.5263 34.9668C24.4201 36.6054 19.5469 37.0619 19.9972 40.8895C20.4475 44.7171 24.5263 45.5928 24.5263 45.5928C25.5715 46.1154 25.5715 47.2999 25.5715 48.5541C25.5715 49.8083 25.4554 53.4246 25.5715 55.573C25.5715 55.573 25.4869 55.8308 27.0547 56.005C28.6224 56.1792 29.4038 55.573 29.4038 55.573V48.5541C29.4038 47.7993 29.6477 45.5231 30.6232 45.2444C31.8426 44.896 34.882 43.5024 35.1523 40.8895C35.3265 39.2056 33.9329 37.5183 30.6232 35.141C30.7974 31.3087 31.9122 22.9124 34.9781 19.9859C38.044 17.0594 37.4169 19.4633 36.7201 21.0311C35.9652 22.5408 35.3265 26.0828 38.8104 28.1732C43.1653 30.7861 48.3912 30.2635 51.3526 26.257C54.3139 22.2505 52.5343 13.9955 51.7507 11.9583C50.8797 9.69374 48.1176 4.33349 45.3607 2.82972C43.4446 1.78454 37.145 -0.821711 33.9329 5.876C33.7007 7.03731 33.5845 10.9974 34.9781 12.6697C34.9781 12.6697 31.9746 16.3943 30.6232 19.1149C28.9767 22.4297 27.8361 28.1732 27.8361 28.1732" stroke="#FFFCFC" stroke-width="2.73857" stroke-linecap="round"/>
</svg>
