<svg width="53" height="66" viewBox="0 0 53 66" fill="none" xmlns="http://www.w3.org/2000/svg">
<path id="Vector 129" d="M26.7556 26.6411C29.9731 26.7594 32.696 25.9469 34.012 25.1412C38.6067 22.4516 43.4909 24.0205 45.3586 25.1412C51.8025 30.3242 51.032 37.8186 49.5611 44.1923C48.1576 50.2735 45.0784 57.5 41.4363 61.7025C37.7942 65.9049 34.2223 62.683 30.9303 61.7025C28.8147 61.0723 25.6773 60.5818 22.2452 62.543C16.754 66.2411 12.6497 62.543 11.599 60.5818L6.83631 52.4571C0.532632 40.9704 1.77002 34.9236 2.98406 32.6356C6.83631 23.3902 15.101 22.6664 19.0233 24.3007C21.7844 26.0145 24.3794 26.5537 26.7556 26.6411ZM26.7556 26.6411C25.6743 15.898 22.8118 9.59996 17.881 4.22083C12.9501 -1.1583 12.743 4.68812 14.6114 6.55636C16.4797 8.4246 25.747 16.6208 26.7556 26.6411ZM30.0252 17.2993C28.3443 9.31462 33.6393 4.57987 41.3718 4.13161C40.1111 8.0072 41.3718 17.2993 30.0252 17.2993Z" stroke="#FFFCFC" stroke-width="3" stroke-linecap="round"/>
</svg>
