<svg width="40" height="62" viewBox="0 0 40 62" fill="none" xmlns="http://www.w3.org/2000/svg">
<path id="Vector 128" d="M15.723 42.6832C18.1247 43.6839 23.5286 42.0829 22.9281 37.2793C22.6279 34.8777 19.926 32.9262 16.9238 33.6767C12.7207 34.7275 7.91733 39.0806 9.11824 45.6853C9.77331 49.288 16.0832 54.812 24.7294 48.0871C26.7309 46.4859 31.3342 41.4825 28.9325 33.6767C27.4545 28.8733 20.4064 23.7094 10.3191 29.4736C6.71649 31.4751 0.111733 37.8798 2.51346 47.4867C3.77172 52.5197 8.39767 59.015 17.5243 59.4953C26.6508 59.9757 32.7352 54.0914 34.9368 50.4888C35.9375 48.8876 38.4193 43.1633 37.939 37.8796C37.1748 29.4736 30.7338 24.0698 28.9325 22.2685M21.1268 19.8668C17.5243 18.0655 11.7601 12.3013 17.5243 3.65509M18.7251 11.4607C19.7258 8.45855 23.8888 2.45422 32.5351 2.45422C32.9354 5.45639 31.5744 11.9411 22.9281 13.8624" stroke="#FFFCFC" stroke-width="3.08352" stroke-linecap="round"/>
</svg>
