<svg width="48" height="61" viewBox="0 0 48 61" fill="none" xmlns="http://www.w3.org/2000/svg">
<g id="Group 1171275546">
<g id="Group 1171275548">
<path id="Union" d="M8.76709 20.4942L8.29356 19.2901L8.29356 19.2901L8.76709 20.4942ZM16.6209 19.7519L16.9389 18.4977L16.9389 18.4977L16.6209 19.7519ZM1.988 28.186L3.23932 28.5151L3.23932 28.5151L1.988 28.186ZM2.21664 36.9848L0.982198 37.3724L0.982199 37.3724L2.21664 36.9848ZM2.54026 36.8831L1.30582 37.2708L1.30582 37.2708L2.54026 36.8831ZM2.31604 28.2722L3.56737 28.6013L3.56737 28.6013L2.31604 28.2722ZM8.89123 20.8099L9.36476 22.014L9.36476 22.014L8.89123 20.8099ZM16.5375 20.0807L16.8555 18.8265L16.5375 20.0807ZM23.8211 27.6078L25.0354 27.161L25.0354 27.161L23.8211 27.6078ZM23.996 28.0832L22.7817 28.53L24.1162 32.1569L25.2345 28.4577L23.996 28.0832ZM24.1426 27.5983L25.3811 27.9728L24.1426 27.5983ZM36.5135 19.9162L36.646 18.6292L36.646 18.6292L36.5135 19.9162ZM36.5221 19.9171L36.3896 21.2042L36.4557 21.211L36.5221 21.211L36.5221 19.9171ZM36.5308 19.9171L36.5308 18.6233L36.5308 18.6233L36.5308 19.9171ZM45.2981 36.8921L46.5173 37.3252L46.5576 37.2117L46.5763 37.0927L45.2981 36.8921ZM43.6862 39.3578L44.5775 40.2957L43.6862 39.3578ZM40.2869 40.6093L40.4041 39.3207L40.4041 39.3207L40.2869 40.6093ZM40.2793 40.6086L40.3964 39.32L40.3378 39.3147L40.279 39.3147L40.2793 40.6086ZM40.2716 40.6086L40.2716 41.9025L40.2719 41.9025L40.2716 40.6086ZM32.4616 40.6086L31.2376 41.0281L31.5373 41.9025L32.4616 41.9025L32.4616 40.6086ZM30.2978 34.2947L31.5218 33.8752L31.5218 33.8752L30.2978 34.2947ZM30.1047 33.7313L31.3287 33.3118L29.8558 29.0138L28.8434 33.443L30.1047 33.7313ZM29.972 34.3119L28.7107 34.0236L29.972 34.3119ZM26.579 49.1563L25.3563 49.5795L26.8339 53.848L27.8404 49.4446L26.579 49.1563ZM22.8071 38.2597L24.0298 37.8365L22.8071 38.2597ZM22.6248 37.7328L23.8474 37.3096L22.456 33.2899L21.3735 37.4036L22.6248 37.7328ZM22.4829 38.2721L23.7341 38.6013L22.4829 38.2721ZM20.4135 46.1357L19.2058 46.6002L20.6447 50.3412L21.6647 46.465L20.4135 46.1357ZM16.1959 35.17L14.9883 35.6345L14.9883 35.6345L16.1959 35.17ZM16.0401 34.765L17.2478 34.3006L16.0595 31.2109L14.8376 34.2875L16.0401 34.765ZM15.88 35.1683L14.6775 34.6907L14.6775 34.6907L15.88 35.1683ZM13.7194 40.6086L13.7194 41.9025L14.5977 41.9025L14.9219 41.0862L13.7194 40.6086ZM7.58954 40.6087L7.55736 41.9021L7.57345 41.9025L7.58955 41.9025L7.58954 40.6087ZM7.58738 40.6086L7.61939 39.3151L7.61825 39.3151L7.58738 40.6086ZM6.2862 40.7859L6.67959 42.0185L6.67959 42.0185L6.2862 40.7859ZM5.14233 41.5303L4.1227 40.7337L4.1227 40.7337L5.14233 41.5303ZM5.74615 45.3918L6.8389 44.6989L6.83884 44.6988L5.74615 45.3918ZM5.75065 45.3989L4.6579 46.0917L4.69232 46.146L4.73196 46.1966L5.75065 45.3989ZM5.75584 45.4055L6.77457 44.6078L6.77454 44.6078L5.75584 45.4055ZM13.2587 52.7965L14.0712 51.7895L14.0712 51.7895L13.2587 52.7965ZM23.9235 59.142L23.49 60.3611L23.49 60.3611L23.9235 59.142ZM23.9902 59.1657L23.5568 60.3848L24.0658 60.5658L24.5524 60.331L23.9902 59.1657ZM24.054 59.1349L24.6162 60.3003L24.6162 60.3003L24.054 59.1349ZM42.1742 45.3964L41.1049 44.6679L42.1742 45.3964ZM42.1295 45.1608L41.401 46.2301L41.401 46.2301L42.1295 45.1608ZM41.8939 45.2054L40.8246 44.4769L41.8939 45.2054ZM23.9705 58.7986L23.5331 60.0163L24.0442 60.1998L24.5332 59.9637L23.9705 58.7986ZM13.4717 52.5325L14.2842 51.5255L14.2842 51.5255L13.4717 52.5325ZM6.02812 45.203L4.9349 45.8951L4.96963 45.95L5.00968 46.0011L6.02812 45.203ZM5.40963 41.7391L4.39001 40.9426L4.39 40.9426L5.40963 41.7391ZM6.38933 41.109L6.78272 42.3417L6.78272 42.3417L6.38933 41.109ZM7.58127 40.9478L7.54972 42.2413L7.55765 42.2414L7.56558 42.2415L7.58127 40.9478ZM7.58541 40.9478L7.56972 42.2416L7.57756 42.2417L7.58541 42.2417L7.58541 40.9478ZM13.8345 40.9478L13.8345 42.2417L13.8345 42.2417L13.8345 40.9478ZM13.9496 40.9478L13.9496 42.2417L14.828 42.2417L15.1522 41.4254L13.9496 40.9478ZM13.9921 40.8408L15.1947 41.3184L15.1947 41.3184L13.9921 40.8408ZM16.0351 35.6968L17.2427 35.2323L16.0544 32.1427L14.8325 35.2192L16.0351 35.6968ZM20.2855 46.7478L19.0778 47.2123L19.0778 47.2123L20.2855 46.7478ZM20.4741 47.2382L19.2665 47.7027L20.7053 51.4437L21.7254 47.5675L20.4741 47.2382ZM20.6078 46.7301L21.8591 47.0594L20.6078 46.7301ZM22.669 38.8976L23.8917 38.4744L22.5002 34.4547L21.4177 38.5683L22.669 38.8976ZM26.4522 49.8268L27.6749 49.4035L26.4522 49.8268ZM26.6458 50.3863L25.4231 50.8095L26.9007 55.078L27.9072 50.6746L26.6458 50.3863ZM26.7778 49.8091L28.0391 50.0974L28.0391 50.0974L26.7778 49.8091ZM30.17 34.968L31.394 34.5486L29.921 30.2505L28.9087 34.6797L30.17 34.968ZM32.18 40.8332L33.404 40.4137L33.404 40.4137L32.18 40.8332ZM32.2193 40.9478L30.9953 41.3673L31.295 42.2417L32.2193 42.2417L32.2193 40.9478ZM32.3405 40.9478L32.3405 39.6539L32.3404 39.6539L32.3405 40.9478ZM40.264 40.9478L40.379 39.6591L40.3216 39.6539L40.264 39.6539L40.264 40.9478ZM43.9199 39.6037L44.8112 40.5416L44.8112 40.5416L43.9199 39.6037ZM45.6232 36.9901L46.8439 37.419L46.844 37.419L45.6232 36.9901ZM45.6283 36.9755L46.8491 37.4044L46.8881 37.2932L46.9065 37.1768L45.6283 36.9755ZM45.6307 36.9603L46.9089 37.1616L46.9089 37.1616L45.6307 36.9603ZM36.5396 19.5779L36.4078 20.8651L36.4725 20.8717L36.5376 20.8718L36.5396 19.5779ZM23.9696 27.0452L22.7662 27.5203L24.0192 30.6941L25.1856 27.4875L23.9696 27.0452ZM9.24062 21.6984C11.1286 20.9559 13.7764 20.3654 16.3029 21.006L16.9389 18.4977C13.673 17.6696 10.4313 18.4495 8.29356 19.2901L9.24062 21.6984ZM3.23932 28.5151C3.98516 25.6792 5.74527 23.0729 9.24062 21.6984L8.29356 19.2901C3.89843 21.0186 1.65352 24.3708 0.736671 27.8569L3.23932 28.5151ZM3.45107 36.5971C2.78737 34.4837 2.48175 31.3955 3.23932 28.5151L0.736671 27.8569C-0.164892 31.2848 0.197899 34.8751 0.982198 37.3724L3.45107 36.5971ZM2.04159 35.8613C2.63398 35.6753 3.26503 36.0047 3.45107 36.5971L0.982199 37.3724C1.22437 38.1436 2.04582 38.5724 2.81694 38.3302L2.04159 35.8613ZM1.30582 37.2708C1.11977 36.6784 1.44921 36.0474 2.04159 35.8613L2.81694 38.3302C3.58805 38.088 4.01687 37.2666 3.77469 36.4955L1.30582 37.2708ZM1.06472 27.9431C0.182032 31.2993 0.53732 34.8237 1.30582 37.2708L3.77469 36.4955C3.12681 34.4324 2.82866 31.4101 3.56737 28.6013L1.06472 27.9431ZM8.41771 19.6058C4.14066 21.2878 1.9592 24.5421 1.06472 27.9431L3.56737 28.6013C4.29073 25.8509 5.98716 23.3423 9.36476 22.014L8.41771 19.6058ZM16.8555 18.8265C13.6866 18.023 10.5227 18.778 8.41771 19.6058L9.36476 22.014C11.22 21.2845 13.7899 20.7188 16.2195 21.3348L16.8555 18.8265ZM25.0354 27.161C23.1615 22.068 20.1104 19.6518 16.8555 18.8265L16.2195 21.3348C18.5371 21.9225 20.9861 23.6497 22.6068 28.0546L25.0354 27.161ZM25.2103 27.6365L25.0354 27.161L22.6068 28.0546L22.7817 28.53L25.2103 27.6365ZM22.9041 27.2239L22.7575 27.7088L25.2345 28.4577L25.3811 27.9728L22.9041 27.2239ZM36.646 18.6292C28.2617 17.7661 23.9882 23.638 22.9041 27.2239L25.3811 27.9728C26.2255 25.1798 29.598 20.5051 36.381 21.2033L36.646 18.6292ZM36.6546 18.6301L36.646 18.6292L36.381 21.2033L36.3896 21.2042L36.6546 18.6301ZM36.5308 18.6233L36.5221 18.6233L36.5221 21.211L36.5308 21.211L36.5308 18.6233ZM46.5763 37.0927C48.4384 25.2269 42.0449 18.6233 36.5308 18.6233L36.5308 21.211C39.8397 21.211 45.7417 25.7194 44.0198 36.6915L46.5763 37.0927ZM44.5775 40.2957C45.5851 39.3381 46.2217 38.1574 46.5173 37.3252L44.0788 36.459C43.8939 36.9795 43.4569 37.7907 42.7948 38.4199L44.5775 40.2957ZM40.1698 41.8979C42.063 42.07 43.5432 41.2787 44.5775 40.2957L42.7948 38.4199C42.1536 39.0293 41.3749 39.409 40.4041 39.3207L40.1698 41.8979ZM40.1621 41.8972L40.1698 41.8979L40.4041 39.3207L40.3964 39.32L40.1621 41.8972ZM40.2719 41.9025L40.2796 41.9025L40.279 39.3147L40.2713 39.3147L40.2719 41.9025ZM32.4616 41.9025L40.2716 41.9025L40.2716 39.3147L32.4616 39.3147L32.4616 41.9025ZM29.0738 34.7141L31.2376 41.0281L33.6856 40.1891L31.5218 33.8752L29.0738 34.7141ZM28.8807 34.1508L29.0738 34.7142L31.5218 33.8752L31.3287 33.3118L28.8807 34.1508ZM31.2334 34.6002L31.3661 34.0196L28.8434 33.443L28.7107 34.0236L31.2334 34.6002ZM27.8404 49.4446L31.2334 34.6002L28.7107 34.0236L25.3177 48.868L27.8404 49.4446ZM21.5844 38.683L25.3563 49.5795L27.8017 48.7331L24.0298 37.8365L21.5844 38.683ZM21.4021 38.1561L21.5844 38.683L24.0298 37.8365L23.8474 37.3096L21.4021 38.1561ZM23.7341 38.6013L23.876 38.0621L21.3735 37.4036L21.2316 37.9428L23.7341 38.6013ZM21.6647 46.465L23.7341 38.6013L21.2316 37.9428L19.1622 45.8064L21.6647 46.465ZM14.9883 35.6345L19.2058 46.6002L21.6211 45.6712L17.4035 34.7055L14.9883 35.6345ZM14.8325 35.2295L14.9883 35.6345L17.4035 34.7055L17.2478 34.3006L14.8325 35.2295ZM17.0825 35.6459L17.2426 35.2426L14.8376 34.2875L14.6775 34.6907L17.0825 35.6459ZM14.9219 41.0862L17.0825 35.6459L14.6775 34.6907L12.5169 40.131L14.9219 41.0862ZM7.58955 41.9025L13.7194 41.9025L13.7194 39.3147L7.58953 39.3148L7.58955 41.9025ZM7.55538 41.9021C7.55672 41.9021 7.55795 41.9022 7.55813 41.9022C7.5586 41.9022 7.55806 41.9022 7.55736 41.9021L7.62173 39.3152C7.62031 39.3151 7.61905 39.3151 7.6188 39.3151C7.61826 39.3151 7.61876 39.3151 7.61939 39.3151L7.55538 41.9021ZM6.67959 42.0185C6.95319 41.9312 7.27057 41.8953 7.55652 41.9021L7.61825 39.3151C7.10234 39.3028 6.49055 39.3625 5.89281 39.5533L6.67959 42.0185ZM6.16195 42.3268C6.24198 42.2244 6.40145 42.1073 6.67959 42.0185L5.89281 39.5533C5.29922 39.7427 4.62251 40.094 4.1227 40.7337L6.16195 42.3268ZM6.83884 44.6988C5.73194 42.9533 6.09724 42.4097 6.16196 42.3268L4.1227 40.7337C2.99925 42.1718 3.38728 44.088 4.65346 46.0847L6.83884 44.6988ZM6.8434 44.706L6.8389 44.6989L4.6534 46.0846L4.6579 46.0917L6.8434 44.706ZM6.77454 44.6078L6.76935 44.6011L4.73196 46.1966L4.73714 46.2032L6.77454 44.6078ZM14.0712 51.7895C10.9091 49.2383 8.27793 46.5277 6.77457 44.6078L4.73711 46.2032C6.38031 48.3017 9.15671 51.1495 12.4463 53.8035L14.0712 51.7895ZM24.3569 57.9229C20.8661 56.6816 17.238 54.3445 14.0712 51.7895L12.4463 53.8035C15.7297 56.4525 19.6168 58.9839 23.49 60.3611L24.3569 57.9229ZM24.4236 57.9466L24.3569 57.9228L23.49 60.3611L23.5568 60.3848L24.4236 57.9466ZM23.4918 57.9696L23.428 58.0003L24.5524 60.331L24.6162 60.3003L23.4918 57.9696ZM41.1049 44.6679C36.4493 51.5013 27.8115 55.8855 23.4918 57.9696L24.6162 60.3003C28.8826 58.2419 38.1478 53.6043 43.2435 46.1249L41.1049 44.6679ZM41.401 46.2301C40.8879 45.8805 40.7553 45.1811 41.1049 44.6679L43.2435 46.1249C43.6986 45.457 43.526 44.5465 42.8581 44.0915L41.401 46.2301ZM42.9632 45.9339C42.6136 46.4471 41.9142 46.5797 41.401 46.2301L42.8581 44.0915C42.1901 43.6364 41.2797 43.809 40.8246 44.4769L42.9632 45.9339ZM24.5332 59.9637C28.8319 57.8877 37.9496 53.2929 42.9632 45.9339L40.8246 44.4769C36.2498 51.1917 27.7561 55.5335 23.4078 57.6334L24.5332 59.9637ZM12.6593 53.5395C15.9077 56.1603 19.7336 58.6514 23.5331 60.0163L24.4079 57.5809C20.9859 56.3516 17.4161 54.0524 14.2842 51.5255L12.6593 53.5395ZM5.00968 46.0011C6.6352 48.0755 9.39003 50.9019 12.6593 53.5395L14.2842 51.5255C11.1423 48.9907 8.5325 46.3012 7.04656 44.4049L5.00968 46.0011ZM4.39 40.9426C3.40853 42.1989 3.69129 43.9308 4.9349 45.8951L7.12133 44.5109C6.59889 43.6857 6.43358 43.1525 6.39804 42.8507C6.38117 42.7074 6.3947 42.6273 6.40378 42.5923C6.41227 42.5594 6.42209 42.5448 6.42926 42.5356L4.39 40.9426ZM5.99594 39.8764C5.44342 40.0527 4.83466 40.3734 4.39001 40.9426L6.42926 42.5357C6.45443 42.5034 6.54629 42.4171 6.78272 42.3417L5.99594 39.8764ZM7.61282 39.6543C7.12642 39.6424 6.55215 39.6989 5.99594 39.8764L6.78272 42.3417C7.01431 42.2677 7.29369 42.235 7.54972 42.2413L7.61282 39.6543ZM7.6011 39.654L7.59696 39.654L7.56558 42.2415L7.56972 42.2416L7.6011 39.654ZM13.8345 39.6539L7.58541 39.6539L7.58541 42.2417L13.8345 42.2417L13.8345 39.6539ZM13.9496 39.6539L13.8345 39.6539L13.8345 42.2417L13.9496 42.2417L13.9496 39.6539ZM12.7896 40.3632L12.7471 40.4702L15.1522 41.4254L15.1947 41.3184L12.7896 40.3632ZM14.8325 35.2192L12.7896 40.3632L15.1947 41.3184L17.2376 36.1743L14.8325 35.2192ZM21.4931 46.2834L17.2427 35.2323L14.8274 36.1613L19.0778 47.2123L21.4931 46.2834ZM21.6817 46.7737L21.4931 46.2834L19.0778 47.2123L19.2665 47.7027L21.6817 46.7737ZM19.3565 46.4008L19.2228 46.9089L21.7254 47.5675L21.8591 47.0594L19.3565 46.4008ZM21.4177 38.5683L19.3565 46.4008L21.8591 47.0594L23.9203 39.2269L21.4177 38.5683ZM27.6749 49.4035L23.8917 38.4744L21.4463 39.3208L25.2295 50.25L27.6749 49.4035ZM27.8685 49.963L27.6749 49.4035L25.2295 50.25L25.4231 50.8095L27.8685 49.963ZM25.5164 49.5208L25.3845 50.098L27.9072 50.6746L28.0391 50.0974L25.5164 49.5208ZM28.9087 34.6797L25.5164 49.5208L28.0391 50.0974L31.4314 35.2563L28.9087 34.6797ZM33.404 40.4137L31.394 34.5486L28.946 35.3875L30.956 41.2527L33.404 40.4137ZM33.4433 40.5283L33.404 40.4137L30.956 41.2527L30.9953 41.3673L33.4433 40.5283ZM32.3404 39.6539L32.2193 39.6539L32.2193 42.2417L32.3405 42.2417L32.3404 39.6539ZM40.264 39.6539L32.3405 39.6539L32.3405 42.2417L40.264 42.2417L40.264 39.6539ZM43.0285 38.6658C42.3365 39.3235 41.4675 39.7563 40.379 39.6591L40.1489 42.2366C42.159 42.4161 43.7276 41.5714 44.8112 40.5416L43.0285 38.6658ZM44.4025 36.5612C44.2057 37.1214 43.7411 37.9886 43.0285 38.6658L44.8112 40.5416C45.8712 39.5342 46.5363 38.2947 46.8439 37.419L44.4025 36.5612ZM44.4076 36.5467L44.4025 36.5613L46.844 37.419L46.8491 37.4044L44.4076 36.5467ZM44.3526 36.759L44.3502 36.7743L46.9065 37.1768L46.9089 37.1616L44.3526 36.759ZM36.5376 20.8718C40.135 20.8774 46.1 25.6633 44.3526 36.759L46.9089 37.1616C48.7958 25.1795 42.3482 18.293 36.5416 18.2841L36.5376 20.8718ZM25.1856 27.4875C26.2535 24.5515 29.7316 20.1815 36.4078 20.8651L36.6714 18.2908C28.4701 17.4511 24.0947 22.9164 22.7537 26.6029L25.1856 27.4875ZM16.3029 21.006C18.6713 21.6066 21.113 23.333 22.7662 27.5203L25.1731 26.5701C23.2515 21.7028 20.207 19.3263 16.9389 18.4977L16.3029 21.006Z" fill="#FFFCFC"/>
<path id="Vector 126" d="M23.9682 21.5034C23.2145 19.3551 15.2272 9.29522 18.6645 3.14432C19.4805 1.10439 23.1523 0.288443 23.5603 4.7762C20.7044 7.22408 22.3363 11.7119 22.7443 12.9358C23.0023 13.7099 27.6401 -1.34351 43.9593 2.73629C43.9593 13.3438 33.7835 19.9969 24.3762 15.3837" stroke="#FFFCFC" stroke-width="2.58776" stroke-linecap="round"/>
</g>
</g>
</svg>
