<svg width="63" height="64" viewBox="0 0 63 64" fill="none" xmlns="http://www.w3.org/2000/svg">
<path id="Vector 146" d="M24.8357 62.5842C25.919 58.6926 27.9892 50.2351 27.604 47.539C27.1226 44.1689 26.7615 40.7988 22.3081 41.4006C17.8548 42.0024 16.1697 44.4097 16.0493 44.8911C15.929 45.3725 18.5769 51.0295 14.605 55.844C13.9631 56.165 12.8718 56.3495 13.6421 54.52C14.605 52.2332 15.929 48.3816 14.2439 44.8911C12.6792 45.8941 9.52573 48.3575 9.42944 50.187C9.30908 52.4739 7.02221 50.6685 8.22583 48.863C9.18872 47.4187 9.58993 46.7366 9.67017 46.5762C9.30908 46.0947 8.00918 45.2281 5.69823 45.6133C4.97606 45.4929 3.96503 45.0355 5.69823 44.1689C6.98209 44.0486 9.76646 44.0245 10.6331 44.8911L14.2439 42.2431C14.7254 41.9222 15.279 41.1358 13.6421 40.5581C11.596 39.8359 7.26294 39.5952 4.37426 40.5581C3.13052 40.6784 1.26893 40.5581 3.77245 39.1137C6.34016 38.3514 12.1015 37.2842 14.605 39.1137C17.1085 40.9432 19.0182 40.8389 19.6602 40.5581C20.7836 40.1569 22.6933 38.8489 21.3452 36.8268C19.9972 34.8048 17.2529 35.0214 16.0493 35.3825C15.4876 35.3825 14.1235 35.1659 13.1607 34.2993C12.1978 33.4326 11.0744 32.4938 10.6331 32.1327C10.2319 31.6112 9.18872 30.9773 8.22583 32.6142C7.5839 33.4969 5.45751 35.1659 2.08739 34.7807C1.64606 34.5801 1.0282 34.1067 2.08739 33.8178C3.41136 33.4567 3.65209 33.6975 4.37426 33.4567C5.09643 33.216 5.33715 32.7345 4.37426 32.1327C3.41136 31.531 1.96703 31.1699 1.36522 31.2902C0.883771 30.6483 0.498614 29.4607 2.80956 29.8459C3.45148 30.1267 4.92792 30.881 5.69823 31.6513C6.62101 31.9321 8.29804 31.9642 7.62402 29.8459C6.90185 29.3243 5.04828 28.3534 3.41136 28.6423C2.48859 28.562 0.859698 28.0886 1.7263 26.8368C2.20775 26.0665 3.291 26.7566 3.77245 27.1979C4.53474 27.559 5.89081 27.7757 5.21679 25.7536C4.93594 25.1919 4.18168 23.9241 3.41136 23.3464C2.8898 22.7847 2.35218 21.8298 4.37426 22.5038C5.13655 23.1458 6.75742 24.7666 7.14257 26.1147C7.52773 27.4627 8.82763 28.0405 9.42944 28.1608C10.7534 28.7225 13.8106 30.3995 15.4475 32.6142C15.4876 32.8148 15.9771 33.192 17.614 33.0957C19.6602 32.9753 21.586 33.6974 22.7896 34.7807C24.1136 35.3424 26.4967 35.6954 25.4375 32.6142C24.4345 31.892 22.5007 30.0866 22.7896 28.6423C22.8698 27.7596 22.5248 26.1147 20.5027 26.5961C17.9751 27.0375 11.3793 26.3554 5.21679 20.0966C4.6551 19.1337 4.08539 17.5931 6.30004 19.1337C7.62402 20.3774 10.5608 22.7927 11.7163 22.5038C12.8718 22.215 12.9199 20.7787 12.7996 20.0966V18.4115C12.8798 17.6091 13.281 16.4858 14.2439 18.4115C14.3241 19.2942 14.3161 21.2762 13.6421 22.1428C13.281 22.7847 13.1334 23.7512 15.0864 24.3093C17.614 25.0314 20.1416 25.2722 21.947 24.3093C21.6261 21.4206 20.6471 15.3544 19.2991 14.1989C17.2931 15.1618 12.5829 16.5821 9.79053 14.56L8.22583 13.1156C7.94498 12.5138 7.86474 11.5991 9.79053 12.7546C11.0744 13.6372 14.2439 14.9451 16.6511 13.1156C17.0523 12.7546 17.4937 11.8398 16.0493 11.0695C14.605 10.2992 15.287 10.6683 15.8086 10.9491C15.0463 10.4677 13.4495 9.45663 13.1607 9.26405C12.7996 9.02333 11.8367 7.33827 14.2439 7.94008C14.6852 8.14068 15.616 8.61411 15.8086 8.90297C16.0493 9.26405 17.0122 9.62514 17.1326 8.30116C17.2529 6.97719 17.1326 4.56995 18.2158 4.56995C19.2991 4.56995 18.938 6.49574 18.938 6.97719C18.938 7.36234 18.6973 8.02032 18.5769 8.30116C18.1757 8.70237 17.6862 9.7455 18.938 10.7084C20.5027 11.912 22.7896 14.56 22.7896 15.4025C22.7896 16.245 23.1507 18.4115 24.595 15.7636C26.0393 13.1156 25.1968 6.6161 23.3914 4.56995C22.9902 3.64718 22.7655 2.18679 25.0765 3.72742C26.6813 6.09453 29.0965 11.9601 25.919 16.4858C25.2369 17.2079 23.9451 19.1819 24.2339 21.3002C24.595 23.9482 25.1968 24.1889 25.0765 27.0776C24.9561 29.9663 26.7615 30.5681 28.0855 30.0866C29.4095 29.6052 30.252 28.2812 31.3353 24.7907C30.0514 24.4296 27.243 23.1779 26.2801 21.0595C25.3172 18.9411 26.5208 18.8127 27.243 19.0133C28.2059 21.0996 30.5168 24.7185 32.0574 22.5038C33.5981 20.2892 33.1808 17.9702 32.7796 17.0876C31.2149 14.56 28.0373 8.8789 27.8448 6.37538C27.604 3.24598 28.2059 2.04236 28.6873 2.88489C29.1687 3.72742 29.6502 9.74551 30.8538 10.3473C31.8167 10.8288 32.6994 10.3874 33.0203 10.1066C33.3413 9.70539 34.0314 8.71039 34.2239 7.94008C34.4647 6.97719 35.6683 7.45862 34.9461 8.90297C34.2239 10.3473 33.5018 12.0324 32.4185 13.1156C31.5519 13.9822 33.5018 15.7235 34.585 16.4858C35.0665 16.7265 36.246 16.7506 37.1126 14.9211C37.9792 13.0916 38.7576 9.50478 39.0384 7.94008C37.3533 7.65924 33.7906 6.32724 33.0203 3.24599C32.9401 2.32321 33.1407 0.959098 34.585 2.88489C36.0294 4.81068 38.1557 5.69333 39.0384 5.89393L38.6773 4.20887C38.5569 3.16574 38.7977 1.60906 40.7235 3.72742C41.0444 4.81068 41.4216 7.81972 40.3624 11.1898C40.0815 11.9923 39.9772 13.4526 41.8067 12.8749C43.6362 12.2972 43.4517 10.9491 43.1307 10.3473C42.7696 9.58503 42.0715 7.62714 42.1678 5.89393C42.2882 3.72742 43.9732 4.56996 43.8529 5.89393C43.7325 7.21791 44.575 10.1066 44.9361 10.1066C45.2972 10.1066 45.4176 11.3102 46.6212 9.62514C47.5841 8.27709 48.0655 7.61911 48.1859 7.45863C48.7074 7.05743 49.6784 6.66424 49.3895 8.30117C49.0284 10.3473 45.0565 15.2821 40.0013 14.4396C39.7204 14.56 39.0625 15.1377 38.6773 16.4858C38.1959 18.1708 37.1126 19.4948 36.7515 19.8559C36.3904 20.217 35.909 21.5409 37.9551 21.0595C40.0013 20.578 43.1307 18.7726 43.4918 17.0876C43.8529 15.4025 45.6583 16.6061 44.9361 17.8097C44.2139 19.0133 40.9642 22.845 36.1497 22.9853C32.2981 23.0975 32.2981 29.2106 32.7796 32.2531C33.1808 33.216 34.5369 34.5641 36.7515 32.2531C39.5198 29.3644 44.6954 23.5871 48.0655 21.3002C48.3062 19.7355 49.3173 15.908 51.4356 13.1156C53.554 10.3232 54.0034 11.0695 53.9632 11.7917C52.88 13.3965 50.7375 16.8468 50.8338 17.8097C50.9301 18.7726 51.5961 18.8529 51.9171 18.7726C52.8399 18.5319 54.9021 17.7375 55.7687 16.4858C56.6353 15.234 57.1729 15.9642 57.3334 16.4858C56.8519 17.248 55.6964 18.7726 54.9261 18.7726C53.9632 18.7726 57.0926 20.4577 58.1759 19.3744C59.2591 18.2912 60.5831 20.8188 58.1759 21.0595C55.7687 21.3002 53.4818 20.3373 53.4818 19.8559C53.4818 19.3744 43.0103 26.5961 41.6864 29.8459C41.3012 30.9051 41.9271 31.0896 42.2882 31.0495C44.0133 30.1669 48.2581 28.8589 51.4356 30.6884C52.0374 28.883 54.0595 25.1518 57.3334 24.6703C60.6072 24.1889 60.7837 24.8709 60.4628 25.2722L58.1759 26.235C58.537 26.7566 59.4999 27.872 60.4628 28.1608C61.6664 28.5219 62.0275 29.4848 60.1017 29.4848C59.5801 29.3243 58.2963 28.6663 57.3334 27.3183C56.3705 25.9702 54.5249 28.0405 53.7225 29.2441C53.4818 29.9663 53.4336 31.531 55.1668 32.0124C57.3334 32.6142 59.4999 32.4938 60.4628 32.7346C61.4257 32.9753 63.1107 33.8178 60.9442 34.54C58.7777 35.2622 58.2963 34.54 57.8148 34.54C57.3334 34.54 56.4908 34.9011 57.3334 37.4287C58.0074 39.4507 59.2993 40.6784 59.861 41.0395C60.3825 41.521 61.0646 42.5801 59.6202 42.9653C58.3765 42.3234 55.7446 40.0044 55.1668 35.864L54.9261 33.8178C53.7225 33.216 51.219 32.0124 50.8338 32.0124C50.3524 32.0124 47.5841 32.2531 49.7506 35.3825C51.9171 38.5119 52.5189 39.8359 53.4818 39.9563C54.4447 40.0766 54.3243 41.6413 53.1207 41.0395C51.7165 40.0766 48.6433 37.1879 47.5841 33.3364C47.3835 32.3334 46.2842 30.7125 43.4918 32.2531C41.887 33.0957 39.2069 34.9974 41.3253 35.864C43.9732 36.9472 48.547 37.7898 50.8338 43.6875C51.0344 44.4498 51.8449 45.9021 53.4818 45.6133C55.5279 45.2522 57.0926 45.3725 56.9723 46.3354C56.876 47.1057 55.5681 46.6564 54.9261 46.3354C53.883 46.1749 51.893 46.1429 52.2782 47.2983C52.7596 48.7427 53.6021 50.3074 53.1207 52.835C52.9201 53.2362 52.4467 53.7497 52.1578 52.5942C51.7967 51.1499 52.88 49.8259 50.4727 45.6133C50.0715 45.2923 49.1006 45.2522 48.4266 47.6594C47.5841 50.6684 48.0655 50.7888 48.4266 51.1499C48.7877 51.511 51.4356 54.3997 50.1117 55.1218C49.7907 55.3224 49.0766 55.507 48.7877 54.6404C48.4266 53.5571 47.5841 51.9924 46.8619 51.8721C46.4607 52.5541 45.7786 54.3997 46.2601 56.3254C46.7415 58.2512 46.1397 58.3315 45.7786 58.1309C45.4978 58.1309 44.9361 57.6735 44.9361 55.844C44.9361 53.5571 45.6583 49.2241 46.8619 46.8169C48.0655 44.4096 49.3895 42.1228 46.8619 40.5581C44.3343 38.9934 38.7977 37.549 35.7886 41.7617C33.3814 45.1318 36.3904 57.0476 38.1959 62.5842" stroke="#FFFCFC" stroke-width="1.84848" stroke-linecap="round"/>
</svg>
