<svg width="36" height="68" viewBox="0 0 36 68" fill="none" xmlns="http://www.w3.org/2000/svg">
<g id="Group 1171275552">
<path id="Vector 130" d="M22.0372 2C23.541 2.81285 25.8657 5.77977 23.1345 11.1446M22.0372 9.31569C22.5249 11.673 24.1587 16.7289 26.7924 18.0945L31.1818 20.8989C32.2385 21.4679 34.3763 23.5325 33.4984 27.7268C33.0107 30.057 32.6996 32.1163 29.9625 37.2372C26.1827 44.3091 27.1582 45.8941 26.7924 47.2353M18.883 16.2852C17.745 16.5697 17.16 16.6314 14.2338 18.0945C11.3075 19.5577 9.6005 19.6796 9.11278 19.5577C7.73093 19.6796 5.13793 20.8745 5.82072 24.6786C6.02394 29.4745 6.30844 39.5783 5.82072 41.6266M11.5513 29.068C12.8926 33.0917 12.2341 42.1631 10.0882 44.3091C7.40579 46.9915 -0.031827 53.8195 2.52866 66.5" stroke="#FFFCFC" stroke-width="2.59731" stroke-linecap="round"/>
<path id="Vector 136" d="M24.1674 19.0699C24.1674 19.7075 23.6505 20.2243 23.013 20.2243C22.3755 20.2243 21.8586 19.7075 21.8586 19.0699C21.8586 18.4324 22.3755 17.9156 23.013 17.9156C23.6505 17.9156 24.1674 18.4324 24.1674 19.0699ZM20.4525 42.724L20.6582 42.7921L20.6546 42.8015L20.4525 42.724ZM16.7947 54.3072L15.9213 51.9655L18.3859 52.38L16.7947 54.3072ZM23.5057 19.9805C23.5329 20.0969 23.4604 20.2132 23.344 20.2404C23.2276 20.2675 23.1112 20.1951 23.0841 20.0786L23.5057 19.9805ZM23.3983 22.0365C23.386 21.9176 23.4723 21.8112 23.5912 21.7988C23.7101 21.7865 23.8165 21.8728 23.8289 21.9917L23.3983 22.0365ZM23.9567 24.0097C23.96 24.1291 23.8657 24.2286 23.7462 24.2319C23.6267 24.2351 23.5272 24.1408 23.524 24.0214L23.9567 24.0097ZM23.5173 26.0172C23.5211 25.8977 23.621 25.8039 23.7405 25.8077C23.86 25.8115 23.9538 25.9114 23.95 26.0309L23.5173 26.0172ZM23.8359 28.046C23.8263 28.1651 23.7219 28.254 23.6028 28.2444C23.4836 28.2348 23.3948 28.1304 23.4044 28.0113L23.8359 28.046ZM23.2009 30.0014C23.2155 29.8828 23.3236 29.7985 23.4422 29.8131C23.5608 29.8277 23.6452 29.9357 23.6306 30.0544L23.2009 30.0014ZM23.3453 32.0527C23.3263 32.1707 23.2151 32.2509 23.0971 32.2318C22.9791 32.2127 22.8989 32.1016 22.918 31.9836L23.3453 32.0527ZM22.5646 33.9523C22.5877 33.835 22.7015 33.7587 22.8187 33.7818C22.936 33.8049 23.0124 33.9187 22.9893 34.036L22.5646 33.9523ZM22.5683 36.0078C22.5415 36.1243 22.4253 36.197 22.3088 36.1703C22.1923 36.1435 22.1196 36.0274 22.1464 35.9109L22.5683 36.0078ZM21.6699 37.8535C21.7 37.7379 21.8182 37.6685 21.9339 37.6987C22.0496 37.7288 22.1189 37.847 22.0888 37.9627L21.6699 37.8535ZM21.5548 39.9029C21.5216 40.0177 21.4015 40.0838 21.2867 40.0506C21.1719 40.0173 21.1058 39.8973 21.139 39.7825L21.5548 39.9029ZM20.5568 41.7004C20.5929 41.5865 20.7146 41.5234 20.8285 41.5596C20.9425 41.5958 21.0055 41.7174 20.9694 41.8314L20.5568 41.7004ZM20.2964 43.7474C20.2545 43.8594 20.1298 43.9161 20.0179 43.8742C19.9059 43.8323 19.8491 43.7076 19.891 43.5957L20.2964 43.7474ZM19.1918 45.5017C19.2323 45.3892 19.3563 45.3308 19.4687 45.3713C19.5812 45.4117 19.6396 45.5357 19.5992 45.6482L19.1918 45.5017ZM18.9263 47.5584C18.8873 47.6714 18.7641 47.7315 18.6511 47.6925C18.5381 47.6536 18.478 47.5304 18.517 47.4174L18.9263 47.5584ZM17.8713 49.3443C17.9082 49.2306 18.0303 49.1684 18.144 49.2053C18.2577 49.2422 18.32 49.3643 18.2831 49.478L17.8713 49.3443ZM17.6843 51.4089C17.6507 51.5236 17.5305 51.5894 17.4158 51.5558C17.3011 51.5223 17.2353 51.4021 17.2688 51.2873L17.6843 51.4089ZM16.7512 53.2621C16.7767 53.1453 16.892 53.0713 17.0088 53.0968C17.1256 53.1222 17.1996 53.2376 17.1741 53.3543L16.7512 53.2621ZM23.2155 18.9936C23.317 19.2626 23.4154 19.5923 23.5057 19.9805L23.0841 20.0786C22.997 19.7044 22.9037 19.3936 22.8105 19.1463L23.2155 18.9936ZM23.8289 21.9917C23.8917 22.5954 23.9367 23.2685 23.9567 24.0097L23.524 24.0214C23.5042 23.2905 23.46 22.6285 23.3983 22.0365L23.8289 21.9917ZM23.95 26.0309C23.9299 26.6658 23.8929 27.3377 23.8359 28.046L23.4044 28.0113C23.4608 27.3098 23.4975 26.6449 23.5173 26.0172L23.95 26.0309ZM23.6306 30.0544C23.5515 30.6959 23.457 31.3621 23.3453 32.0527L22.918 31.9836C23.0288 31.2983 23.1226 30.6375 23.2009 30.0014L23.6306 30.0544ZM22.9893 34.036C22.8634 34.6751 22.7234 35.3325 22.5683 36.0078L22.1464 35.9109C22.3005 35.2399 22.4396 34.587 22.5646 33.9523L22.9893 34.036ZM22.0888 37.9627C21.924 38.5953 21.7462 39.2421 21.5548 39.9029L21.139 39.7825C21.3294 39.1254 21.506 38.4824 21.6699 37.8535L22.0888 37.9627ZM20.9694 41.8314C20.8687 42.1486 20.7649 42.4688 20.658 42.792L20.247 42.656C20.3534 42.3345 20.4566 42.016 20.5568 41.7004L20.9694 41.8314ZM20.6546 42.8015C20.5452 43.0866 20.4249 43.4042 20.2964 43.7474L19.891 43.5957C20.0198 43.2515 20.1406 42.9328 20.2504 42.6465L20.6546 42.8015ZM19.5992 45.6482C19.3785 46.2618 19.1508 46.9064 18.9263 47.5584L18.517 47.4174C18.7422 46.7634 18.9705 46.1169 19.1918 45.5017L19.5992 45.6482ZM18.2831 49.478C18.0656 50.1481 17.8623 50.8006 17.6843 51.4089L17.2688 51.2873C17.4483 50.674 17.6529 50.0174 17.8713 49.3443L18.2831 49.478Z" fill="#FFFCFC"/>
</g>
</svg>
