<svg width="36" height="65" viewBox="0 0 36 65" fill="none" xmlns="http://www.w3.org/2000/svg">
<g id="Group 1171275553">
<g id="Group 1171275555">
<path id="Vector 138" d="M29.6084 39.7093C31.4057 36.2945 35.0003 38.4513 35.0003 40.0688V63.9728" stroke="#FFFCFC" stroke-width="1.75" stroke-linecap="round"/>
<path id="Vector 137" d="M27.4864 13.5823L16.7628 8.07155C16.152 7.75764 15.449 7.67272 14.781 7.83213L3.08615 10.6229C1.43298 11.0174 0.480765 12.752 1.03541 14.3585L5.21216 26.4567C2.33649 31.1297 3.77432 34.5445 5.21216 36.7013L10.0077 42.4841C10.8547 43.5055 11.2953 44.8033 11.2453 46.1293L10.7328 59.7091C10.6625 61.5726 12.1541 63.1216 14.0189 63.1216C15.825 63.1216 17.3079 61.6936 17.376 59.8887L17.9199 45.4767C17.9551 44.5447 17.8449 43.6129 17.5935 42.7148L15.4568 35.0837L19.422 41.6924C20.3515 43.2416 20.7924 45.0349 20.6874 46.8385L19.948 59.5321C19.8515 61.1872 21.1678 62.5824 22.8257 62.5824C24.5625 62.8718 26.1726 61.6067 26.3021 59.8507L27.5486 42.9534C27.6329 41.8106 27.351 40.6707 26.7437 39.699L23.5034 34.5146C22.1876 32.4093 22.0511 29.7742 23.1424 27.5443L25.5216 22.6824L27.7052 33.6005C28.0906 35.5271 30.6184 36.0167 31.6951 34.3733C32.0012 33.906 32.1177 33.3396 32.021 32.7895L29.0042 15.6417C28.8483 14.7556 28.2867 13.9935 27.4864 13.5823Z" stroke="#FFFCFC" stroke-width="1.75" stroke-linecap="round"/>
</g>
<circle id="Ellipse 6351" cx="25.7014" cy="5.60811" r="4.15743" stroke="#FFFCFC" stroke-width="1.75"/>
</g>
</svg>
