<svg width="52" height="64" viewBox="0 0 52 64" fill="none" xmlns="http://www.w3.org/2000/svg">
<g id="Union">
<path fill-rule="evenodd" clip-rule="evenodd" d="M7.46017 10.3815C15.886 0.934359 25.6631 0.752971 30.7094 1.23103L30.718 1.23185L30.7266 1.23317C36.2337 2.08042 39.6667 3.56293 42.0448 5.26542C44.1566 6.77723 45.4218 8.45452 46.5522 9.95312L46.5522 9.95315C46.6906 10.1365 46.8269 10.3172 46.9625 10.4946C51.3293 15.3502 51.4968 20.9039 50.4969 25.2898C49.997 27.4831 49.2043 29.3911 48.4935 30.7877C48.138 31.4863 47.8019 32.0589 47.5315 32.4773C47.3964 32.6863 47.2766 32.8584 47.178 32.9893C47.0852 33.1126 46.9966 33.2193 46.9255 33.2795C46.8685 33.3277 46.7488 33.4581 46.5746 33.6626C46.4067 33.8596 46.2047 34.1055 45.9893 34.3678L45.9628 34.4002L45.9628 34.4002L45.9627 34.4002C45.543 34.9117 45.0741 35.4829 44.7386 35.8361L44.7265 35.8488L44.713 35.8601C43.5853 36.7969 40.9216 39.3409 39.3035 41.9963C37.3098 45.2679 37.7131 48.6981 37.9763 50.8041C38.0241 51.186 38.2719 51.9854 38.6477 53.0294C39.0187 54.0603 39.502 55.2966 40.0016 56.5326C41.0006 59.0044 42.0612 61.4657 42.4111 62.2618C42.4773 62.4123 42.4089 62.5879 42.2584 62.654C42.108 62.7202 41.9324 62.6518 41.8662 62.5013C41.5144 61.701 40.4514 59.2341 39.4497 56.7557C38.9489 55.5167 38.4624 54.2724 38.0876 53.231C37.7175 52.2027 37.4432 51.3381 37.3857 50.8779C37.1226 48.7736 36.6838 45.1514 38.7952 41.6865C40.4546 38.9634 43.1582 36.3805 44.3189 35.4136C44.6386 35.0753 45.0908 34.5244 45.5142 34.0085L45.5146 34.008L45.5148 34.0079L45.5293 33.9902C45.7436 33.729 45.9494 33.4785 46.1215 33.2765C46.2873 33.082 46.4397 32.9108 46.541 32.8251C46.5409 32.8252 46.5421 32.8241 46.5449 32.8215L46.5484 32.8181L46.5559 32.8104C46.5653 32.8007 46.5773 32.7875 46.592 32.7704C46.6214 32.7361 46.6584 32.6899 46.7025 32.6313C46.7905 32.5144 46.9021 32.3544 47.0316 32.1541C47.2903 31.7538 47.6163 31.199 47.963 30.5177C48.6568 29.1546 49.4298 27.293 49.9166 25.1575C50.8898 20.8886 50.716 15.5522 46.5121 10.884L46.5041 10.8751L46.4968 10.8656C46.3569 10.6827 46.2172 10.4976 46.0763 10.3109L46.0762 10.3108C44.9446 8.81166 43.7323 7.20548 41.6984 5.74941C39.4156 4.11519 36.0793 2.6599 30.6446 1.8228C25.6918 1.35484 16.1583 1.53598 7.9193 10.761C7.13429 11.9652 6.06105 13.6719 5.48459 16.0213C4.90611 18.3789 4.82417 21.4012 6.07058 25.2235C7.08729 28.3414 6.22583 31.6221 3.63356 34.2588L3.63148 34.261L1.79902 36.1982C1.64493 36.3823 1.42553 36.8801 1.81537 37.3998L1.81859 37.4041L1.81855 37.4042C1.92315 37.549 2.11049 37.7758 2.32327 37.9735C2.53445 38.1698 2.72818 38.2968 2.86794 38.3325C3.17604 38.3251 3.62799 38.3344 4.02917 38.3872C4.2363 38.4145 4.44438 38.4552 4.61588 38.5176C4.70174 38.5489 4.78937 38.5896 4.86573 38.6444C4.94143 38.6987 5.02298 38.7793 5.06633 38.8949C5.07386 38.915 5.08164 38.9352 5.08953 38.9558L5.08956 38.9558C5.15704 39.1314 5.23223 39.327 5.21631 39.5898C5.19943 39.8683 5.08449 40.2025 4.84612 40.7057L4.83495 40.7293L4.81986 40.7505L3.67276 42.3669C3.62012 42.4694 3.57583 42.6512 3.63008 42.8497C3.68347 43.0451 3.84443 43.3001 4.28921 43.5225L4.29313 43.5244L4.29311 43.5245L5.7141 44.2613L5.77076 44.2907C7.23267 44.2461 8.59424 44.2035 9.86175 44.1639H9.86183C14.3938 44.0222 17.7233 43.9181 20.1377 43.8939C21.7239 43.878 22.9275 43.8963 23.8239 43.9626C24.7043 44.0277 25.3456 44.1417 25.7658 44.3518C26.7209 44.8293 27.5147 45.7594 28.1687 46.904C28.8268 48.0556 29.3679 49.4674 29.7973 50.9703C29.7983 50.9738 29.7992 50.9774 29.8001 50.9809C29.866 50.8568 29.9397 50.7314 30.0201 50.6075C30.2852 50.199 30.6414 49.7805 31.0745 49.4683C31.5092 49.1548 32.0408 48.9357 32.6389 48.9719C33.2407 49.0083 33.8452 49.2992 34.4291 49.8831L34.4588 49.9128L34.482 49.9477C35.4655 51.4229 35.1107 53.065 34.0952 55.4344L32.824 58.4005L32.6612 58.7806L32.2772 58.627L28.0399 56.9321L28.0236 56.9255L28.0078 56.9176C27.9572 56.8924 27.904 56.8662 27.8484 56.8389L27.8477 56.8386L27.8466 56.838C27.0111 56.4275 25.66 55.7637 25.2438 54.099C25.0015 53.1297 25.2311 52.0794 26.1023 51.4763C26.7733 51.0118 27.7382 50.8748 28.9685 51.1545C28.5529 49.7102 28.0393 48.3856 27.4329 47.3245C26.8158 46.2445 26.1266 45.4797 25.3868 45.1098C25.129 44.9809 24.6368 44.8725 23.7614 44.8077C22.9019 44.7442 21.7274 44.7255 20.1462 44.7413C17.7417 44.7655 14.4256 44.8691 9.8977 45.0106L9.8969 45.0107C8.5616 45.0524 7.1209 45.0974 5.56713 45.1447C5.47828 45.3733 5.429 45.639 5.46666 45.9109C5.52923 46.3626 5.84315 46.9079 6.80878 47.3612L6.84936 47.3802L6.88252 47.4104C7.17684 47.678 7.47034 48.3567 6.94967 49.1859C6.64812 49.9942 6.49577 51.806 8.15651 52.9047C8.72458 53.2431 10.5461 53.9529 13.0983 53.9117C15.6969 53.8698 17.8461 53.6497 18.5881 53.5461L18.6128 53.5427L18.6377 53.5434C18.9826 53.5532 19.5129 53.6486 20.0191 53.9025C20.5288 54.158 21.0344 54.5856 21.2778 55.267C21.4931 55.8699 21.9621 57.5456 22.3884 59.0995C22.5457 59.6727 22.6969 60.2287 22.8285 60.7122C23.0577 61.5545 23.2271 62.1769 23.2639 62.2874C23.3159 62.4434 23.2316 62.6119 23.0757 62.6639C22.9198 62.7159 22.7512 62.6316 22.6992 62.4757C22.6571 62.3492 22.4749 61.6798 22.2357 60.8009L22.2356 60.8005C22.1073 60.3292 21.9627 59.7975 21.8144 59.257C21.3846 57.6905 20.9229 56.0433 20.7172 55.4672C20.5396 54.9698 20.168 54.643 19.7523 54.4345C19.3452 54.2304 18.9154 54.1507 18.6444 54.1392C17.8556 54.2475 15.7012 54.465 13.1079 54.5069C10.4473 54.5498 8.51102 53.8116 7.84493 53.4119L7.83413 53.4054L7.83427 53.4052C5.81412 52.0737 6.04659 49.8679 6.40484 48.944L6.41587 48.9156L6.43245 48.8899C6.78251 48.3489 6.60657 47.9938 6.50683 47.8767C5.44397 47.3641 4.97268 46.6829 4.87706 45.9926C4.83059 45.6571 4.87562 45.3376 4.96679 45.0569C4.8765 44.982 4.81759 44.8701 4.81375 44.7436C4.81104 44.654 4.83635 44.5701 4.88177 44.5002L4.02302 44.0549L4.0211 44.0539C3.45665 43.7712 3.16203 43.395 3.0559 43.0066C2.9528 42.6294 3.03913 42.2813 3.15914 42.0653L3.1671 42.0509L3.1766 42.0376L4.31924 40.4275C4.54565 39.9464 4.61289 39.7069 4.62217 39.5537C4.62999 39.4248 4.60067 39.347 4.52946 39.1583L4.5178 39.1273C4.50045 39.1151 4.46721 39.097 4.4121 39.0769C4.29985 39.036 4.14084 39.0023 3.95149 38.9774C3.57579 38.9279 3.13746 38.92 2.84913 38.9285L2.81789 38.9294L2.78714 38.9238C2.46518 38.8653 2.15239 38.6273 1.91808 38.4096C1.67314 38.1819 1.46124 37.9258 1.33755 37.7548C0.722755 36.9328 1.08475 36.1168 1.35131 35.8059L1.35606 35.8003L1.36107 35.795L3.20309 33.8477L3.20708 33.8435L3.20713 33.8436C5.66566 31.344 6.44412 28.289 5.50467 25.408C4.22486 21.4833 4.30081 18.348 4.9065 15.8795C5.51119 13.415 6.64017 11.6326 7.43299 10.417L7.44524 10.3982L7.46017 10.3815ZM30.7309 51.0689C30.5049 51.4171 30.36 51.7537 30.3033 51.9804L30.1881 52.4412L29.7434 52.2744C28.1046 51.6598 27.1066 51.8117 26.5847 52.1731C26.0787 52.5233 25.8846 53.1679 26.066 53.8935C26.384 55.1655 27.3942 55.6669 28.2525 56.0928L28.371 56.1517L32.208 57.6866L33.3163 55.1005C34.3237 52.75 34.4849 51.512 33.7998 50.4526C33.3368 49.9999 32.9276 49.8384 32.5877 49.8178C32.2368 49.7966 31.8945 49.9218 31.5701 50.1557C31.244 50.3908 30.9557 50.7226 30.7309 51.0689Z" fill="black"/>
<path d="M30.7094 1.23103L30.7893 0.387355L30.7893 0.387354L30.7094 1.23103ZM7.46017 10.3815L6.82772 9.81739L6.82771 9.8174L7.46017 10.3815ZM30.718 1.23185L30.8468 0.394247L30.8225 0.390498L30.7979 0.388172L30.718 1.23185ZM30.7266 1.23317L30.8554 0.395566L30.8554 0.395564L30.7266 1.23317ZM42.0448 5.26542L41.5515 5.9545L42.0448 5.26542ZM46.5522 9.95312L45.8757 10.4635L45.8829 10.4731L45.8905 10.4825L46.5522 9.95312ZM46.5522 9.95315L47.2288 9.44282L47.2215 9.43318L47.214 9.42375L46.5522 9.95315ZM46.9625 10.4946L46.2892 11.0093L46.3097 11.0361L46.3323 11.0613L46.9625 10.4946ZM50.4969 25.2898L51.3232 25.4782L50.4969 25.2898ZM48.4935 30.7877L49.2488 31.1721V31.1721L48.4935 30.7877ZM47.5315 32.4773L48.2432 32.9373L48.2432 32.9373L47.5315 32.4773ZM47.178 32.9893L47.855 33.4991L47.855 33.4991L47.178 32.9893ZM46.9255 33.2795L46.3781 32.6325L46.3781 32.6326L46.9255 33.2795ZM46.5746 33.6626L47.2197 34.2122L47.2197 34.2122L46.5746 33.6626ZM45.9893 34.3678L45.3343 33.8302L45.3343 33.8302L45.9893 34.3678ZM45.9628 34.4002L46.562 34.9994L46.5915 34.97L46.6179 34.9378L45.9628 34.4002ZM45.9627 34.4002L45.3635 33.801L45.3341 33.8304L45.3077 33.8626L45.9627 34.4002ZM44.7386 35.8361L44.1242 35.2524L44.1242 35.2524L44.7386 35.8361ZM44.7265 35.8488L45.268 36.5007L45.3065 36.4688L45.3409 36.4325L44.7265 35.8488ZM44.713 35.8601L44.1715 35.2082L44.1714 35.2082L44.713 35.8601ZM39.3035 41.9963L38.5798 41.5553L39.3035 41.9963ZM37.9763 50.8041L38.8172 50.699L37.9763 50.8041ZM38.6477 53.0294L39.445 52.7424L39.445 52.7424L38.6477 53.0294ZM40.0016 56.5326L40.7873 56.2151V56.2151L40.0016 56.5326ZM42.4111 62.2618L41.6353 62.6028H41.6353L42.4111 62.2618ZM42.2584 62.654L41.9174 61.8782L41.9174 61.8782L42.2584 62.654ZM41.8662 62.5013L41.0904 62.8423L41.0904 62.8423L41.8662 62.5013ZM39.4497 56.7557L38.664 57.0733L39.4497 56.7557ZM38.0876 53.231L37.2902 53.518V53.518L38.0876 53.231ZM37.3857 50.8779L36.5448 50.983H36.5448L37.3857 50.8779ZM38.7952 41.6865L39.5189 42.1275L38.7952 41.6865ZM44.3189 35.4136L44.8613 36.0648L44.9002 36.0324L44.9349 35.9957L44.3189 35.4136ZM45.5142 34.0085L44.862 33.4674L44.8591 33.4709L45.5142 34.0085ZM45.5146 34.008L46.1668 34.5492L46.1801 34.5331L46.1926 34.5165L45.5146 34.008ZM45.5148 34.0079L44.8598 33.4701L44.848 33.4845L44.8368 33.4994L45.5148 34.0079ZM45.5293 33.9902L46.1842 34.528L46.1843 34.5279L45.5293 33.9902ZM46.1215 33.2765L45.4765 32.7269H45.4765L46.1215 33.2765ZM46.541 32.8251L47.091 33.4699L45.9936 32.1782L46.541 32.8251ZM46.5449 32.8215L47.1305 33.4341L47.1364 33.4284L46.5449 32.8215ZM46.5484 32.8181L47.1399 33.425L47.1463 33.4187L47.1526 33.4123L46.5484 32.8181ZM46.5559 32.8104L47.1602 33.4047L47.1671 33.3975L46.5559 32.8104ZM46.592 32.7704L47.235 33.3224L47.235 33.3224L46.592 32.7704ZM46.7025 32.6313L46.0254 32.1216L46.0254 32.1216L46.7025 32.6313ZM47.0316 32.1541L46.3199 31.6941V31.6941L47.0316 32.1541ZM47.963 30.5177L48.7183 30.9021V30.9021L47.963 30.5177ZM49.9166 25.1575L50.7429 25.3459V25.3459L49.9166 25.1575ZM46.5121 10.884L47.1418 10.3169L47.1418 10.3168L46.5121 10.884ZM46.5041 10.8751L45.8309 11.3899L45.8516 11.417L45.8744 11.4423L46.5041 10.8751ZM46.4968 10.8656L47.17 10.3509L47.17 10.3508L46.4968 10.8656ZM46.0763 10.3109L46.7527 9.80031L46.7455 9.79078L46.738 9.78145L46.0763 10.3109ZM46.0762 10.3108L45.3998 10.8213L45.407 10.8308L45.4144 10.8402L46.0762 10.3108ZM41.6984 5.74941L41.2051 6.43849V6.43849L41.6984 5.74941ZM30.6446 1.8228L30.7736 0.985218L30.7491 0.981435L30.7243 0.979098L30.6446 1.8228ZM7.9193 10.761L7.28723 10.1965L7.24443 10.2444L7.20935 10.2982L7.9193 10.761ZM5.48459 16.0213L4.66154 15.8194L5.48459 16.0213ZM6.07058 25.2235L5.26487 25.4862L6.07058 25.2235ZM3.63356 34.2588L3.02924 33.6647L3.02907 33.6649L3.63356 34.2588ZM3.63148 34.261L3.02699 33.667L3.02135 33.6727L3.01582 33.6786L3.63148 34.261ZM1.79902 36.1982L1.18336 35.6158L1.16568 35.6345L1.14917 35.6543L1.79902 36.1982ZM1.81537 37.3998L2.49343 36.8915L2.49333 36.8914L1.81537 37.3998ZM1.81859 37.4041L2.29602 38.1043L3.02832 37.605L2.49665 36.8958L1.81859 37.4041ZM1.81855 37.4042L1.34111 36.704L0.621771 37.1945L1.13153 37.9003L1.81855 37.4042ZM2.32327 37.9735L2.90015 37.3527L2.90014 37.3527L2.32327 37.9735ZM2.86794 38.3325L2.65812 39.1536L2.77142 39.1826L2.88834 39.1798L2.86794 38.3325ZM4.02917 38.3872L4.13978 37.547H4.13978L4.02917 38.3872ZM4.61588 38.5176L4.90602 37.7214H4.90602L4.61588 38.5176ZM4.86573 38.6444L5.3599 37.9559L5.35988 37.9559L4.86573 38.6444ZM5.06633 38.8949L5.85984 38.5974L5.85983 38.5973L5.06633 38.8949ZM5.08953 38.9558L4.29848 39.2598L4.30379 39.2736L4.30959 39.2872L5.08953 38.9558ZM5.08956 38.9558L5.8806 38.6518L5.87529 38.638L5.8695 38.6243L5.08956 38.9558ZM5.21631 39.5898L6.06222 39.641L5.21631 39.5898ZM4.84612 40.7057L4.08024 40.3429L4.08023 40.3429L4.84612 40.7057ZM4.83495 40.7293L5.52608 41.2197L5.56905 41.1591L5.60083 41.092L4.83495 40.7293ZM4.81986 40.7505L5.51096 41.241L5.51099 41.241L4.81986 40.7505ZM3.67276 42.3669L2.98165 41.8764L2.94654 41.9259L2.91883 41.9799L3.67276 42.3669ZM3.63008 42.8497L4.44756 42.6263L3.63008 42.8497ZM4.28921 43.5225L3.91022 44.2805L3.91027 44.2805L4.28921 43.5225ZM4.29313 43.5244L5.05582 43.8939L5.42066 43.1407L4.67207 42.7664L4.29313 43.5244ZM4.29311 43.5245L3.53042 43.155L3.17093 43.8972L3.90301 44.2768L4.29311 43.5245ZM5.7141 44.2613L5.32401 45.0136H5.32401L5.7141 44.2613ZM5.77076 44.2907L5.38066 45.043L5.57631 45.1444L5.79659 45.1377L5.77076 44.2907ZM9.86175 44.1639V43.3164H9.8485L9.83527 43.3168L9.86175 44.1639ZM9.86183 44.1639V45.0113H9.87507L9.88831 45.0109L9.86183 44.1639ZM20.1377 43.8939L20.1292 43.0465H20.1292L20.1377 43.8939ZM23.8239 43.9626L23.7614 44.8078H23.7614L23.8239 43.9626ZM25.7658 44.3518L25.3868 45.1098L25.7658 44.3518ZM28.1687 46.904L28.9045 46.4835L28.1687 46.904ZM29.7973 50.9703L28.9824 51.2031L28.9824 51.2032L29.7973 50.9703ZM29.8001 50.9809L28.9797 51.1931L29.5257 53.3045L30.5486 51.3784L29.8001 50.9809ZM30.0201 50.6075L29.3093 50.1461L29.3093 50.1461L30.0201 50.6075ZM31.0745 49.4683L31.5701 50.1557L31.0745 49.4683ZM32.6389 48.9719L32.5877 49.8178H32.5877L32.6389 48.9719ZM34.4588 49.9128L35.1639 49.4427L35.1173 49.3729L35.058 49.3135L34.4588 49.9128ZM34.482 49.9477L35.1872 49.4776L35.1871 49.4776L34.482 49.9477ZM34.0952 55.4344L33.3163 55.1005H33.3163L34.0952 55.4344ZM32.824 58.4005L32.0451 58.0666V58.0666L32.824 58.4005ZM32.6612 58.7806L32.3464 59.5674L33.1143 59.8746L33.4401 59.1144L32.6612 58.7806ZM32.2772 58.627L32.5919 57.8401L32.5919 57.8401L32.2772 58.627ZM28.0399 56.9321L27.7252 57.7189L28.0399 56.9321ZM28.0236 56.9255L27.6446 57.6835L27.6761 57.6993L27.7088 57.7124L28.0236 56.9255ZM28.0078 56.9176L27.6288 57.6756L27.6288 57.6756L28.0078 56.9176ZM27.8484 56.8389L27.4746 57.5994L27.4747 57.5995L27.8484 56.8389ZM27.8477 56.8386L27.4734 57.5989L27.4739 57.5991L27.8477 56.8386ZM27.8466 56.838L28.2209 56.0777L28.2203 56.0774L27.8466 56.838ZM25.2438 54.099L24.4217 54.3046L25.2438 54.099ZM26.1023 51.4763L25.6199 50.7795L26.1023 51.4763ZM28.9685 51.1545L28.7806 51.9809L30.1797 52.299L29.7829 50.9202L28.9685 51.1545ZM27.4329 47.3245L26.6972 47.7449L27.4329 47.3245ZM25.3868 45.1098L25.7658 44.3518L25.7658 44.3518L25.3868 45.1098ZM23.7614 44.8077L23.8239 43.9626H23.8239L23.7614 44.8077ZM20.1462 44.7413L20.1377 43.8939H20.1377L20.1462 44.7413ZM9.8977 45.0106L9.92191 45.8578L9.92418 45.8577L9.8977 45.0106ZM9.8969 45.0107L9.8727 44.1636L9.87042 44.1636L9.8969 45.0107ZM5.56713 45.1447L5.54136 44.2976L4.98049 44.3147L4.77722 44.8377L5.56713 45.1447ZM5.46666 45.9109L4.62722 46.0272H4.62722L5.46666 45.9109ZM6.80878 47.3612L6.44869 48.1284L6.44872 48.1284L6.80878 47.3612ZM6.84936 47.3802L7.41943 46.7532L7.32498 46.6673L7.20941 46.6131L6.84936 47.3802ZM6.88252 47.4104L6.31244 48.0375L6.31246 48.0375L6.88252 47.4104ZM6.94967 49.1859L6.23196 48.7352L6.18592 48.8085L6.15566 48.8897L6.94967 49.1859ZM8.15651 52.9047L7.68893 53.6115L7.70559 53.6225L7.72275 53.6327L8.15651 52.9047ZM13.0983 53.9117L13.112 54.7591H13.112L13.0983 53.9117ZM18.5881 53.5461L18.7052 54.3854L18.7052 54.3854L18.5881 53.5461ZM18.6128 53.5427L18.637 52.6956L18.566 52.6935L18.4956 52.7034L18.6128 53.5427ZM18.6377 53.5434L18.6134 54.3905H18.6135L18.6377 53.5434ZM20.0191 53.9025L19.6393 54.66L19.6393 54.66L20.0191 53.9025ZM21.2778 55.267L20.4797 55.5521H20.4797L21.2778 55.267ZM22.3884 59.0995L21.5711 59.3237L22.3884 59.0995ZM22.8285 60.7122L23.6462 60.4896L22.8285 60.7122ZM23.2639 62.2874L24.0679 62.0195L24.0679 62.0195L23.2639 62.2874ZM23.0757 62.6639L23.3437 63.4679H23.3437L23.0757 62.6639ZM22.6992 62.4757L21.8953 62.7437L21.8953 62.7437L22.6992 62.4757ZM22.2357 60.8009L23.0534 60.5783L23.0527 60.5755L22.2357 60.8009ZM22.2356 60.8005L21.4179 61.0231L21.4187 61.0259L22.2356 60.8005ZM21.8144 59.257L22.6316 59.0328L21.8144 59.257ZM20.7172 55.4672L19.9191 55.7523L19.9191 55.7523L20.7172 55.4672ZM19.7523 54.4345L20.1322 53.677L19.7523 54.4345ZM18.6444 54.1392L18.6803 53.2925L18.6044 53.2893L18.5292 53.2996L18.6444 54.1392ZM13.1079 54.5069L13.1216 55.3542H13.1216L13.1079 54.5069ZM7.84493 53.4119L7.40887 54.1386L7.40892 54.1386L7.84493 53.4119ZM7.83413 53.4054L7.12441 52.9423L6.6435 53.6793L7.39806 54.1321L7.83413 53.4054ZM7.83427 53.4052L8.54399 53.8683L9.005 53.1618L8.30064 52.6976L7.83427 53.4052ZM6.40484 48.944L7.19497 49.2504L7.19498 49.2504L6.40484 48.944ZM6.41587 48.9156L5.70439 48.4551L5.65715 48.5281L5.62572 48.6092L6.41587 48.9156ZM6.43245 48.8899L7.14394 49.3503L7.14395 49.3503L6.43245 48.8899ZM6.50683 47.8767L7.15202 47.3272L7.03605 47.1911L6.87495 47.1134L6.50683 47.8767ZM4.87706 45.9926L4.03762 46.1088L4.87706 45.9926ZM4.96679 45.0569L5.77279 45.3187L5.95038 44.772L5.50804 44.4049L4.96679 45.0569ZM4.81375 44.7436L3.96668 44.7693V44.7693L4.81375 44.7436ZM4.88177 44.5002L5.59234 44.962L6.10175 44.1782L5.27188 43.7479L4.88177 44.5002ZM4.02302 44.0549L4.41317 43.3025L4.40239 43.2971L4.02302 44.0549ZM4.0211 44.0539L3.64154 44.8116L3.64173 44.8117L4.0211 44.0539ZM3.0559 43.0066L3.87338 42.7832H3.87338L3.0559 43.0066ZM3.15914 42.0653L3.89995 42.4768L3.89995 42.4768L3.15914 42.0653ZM3.1671 42.0509L2.47598 41.5605L2.44896 41.5986L2.42629 41.6394L3.1671 42.0509ZM3.1766 42.0376L2.48549 41.5471L2.48548 41.5471L3.1766 42.0376ZM4.31924 40.4275L5.01035 40.9179L5.05394 40.8565L5.08601 40.7884L4.31924 40.4275ZM4.62217 39.5537L3.77626 39.5025L4.62217 39.5537ZM4.52946 39.1583L3.73648 39.4572L3.73654 39.4574L4.52946 39.1583ZM4.5178 39.1273L5.31078 38.8284L5.21917 38.5854L5.0071 38.4354L4.5178 39.1273ZM4.4121 39.0769L4.12196 39.8732L4.122 39.8732L4.4121 39.0769ZM3.95149 38.9774L4.06209 38.1372H4.06209L3.95149 38.9774ZM2.84913 38.9285L2.82422 38.0814H2.8242L2.84913 38.9285ZM2.81789 38.9294L2.66635 39.7632L2.75389 39.7791L2.84282 39.7765L2.81789 38.9294ZM2.78714 38.9238L2.63554 39.7576L2.6356 39.7576L2.78714 38.9238ZM1.91808 38.4096L2.49496 37.7888L2.49496 37.7888L1.91808 38.4096ZM1.33755 37.7548L2.02423 37.258L2.0162 37.2472L1.33755 37.7548ZM1.35131 35.8059L1.99475 36.3574L1.99482 36.3573L1.35131 35.8059ZM1.35606 35.8003L0.740389 35.218L0.726087 35.2331L0.712545 35.2489L1.35606 35.8003ZM1.36107 35.795L0.745417 35.2126L0.7454 35.2127L1.36107 35.795ZM3.20309 33.8477L2.58763 33.2652L2.58744 33.2654L3.20309 33.8477ZM3.20708 33.8435L3.78972 33.2281L3.17425 32.6454L2.59162 33.2609L3.20708 33.8435ZM3.20713 33.8436L2.62449 34.459L3.22826 35.0306L3.8113 34.4378L3.20713 33.8436ZM5.50467 25.408L6.31037 25.1453L5.50467 25.408ZM4.9065 15.8795L4.08346 15.6775H4.08346L4.9065 15.8795ZM7.43299 10.417L8.14283 10.8799L8.14284 10.8799L7.43299 10.417ZM7.44524 10.3982L6.81278 9.83413L6.77028 9.88179L6.7354 9.93528L7.44524 10.3982ZM30.7309 51.0689L31.4418 51.5303L31.4418 51.5303L30.7309 51.0689ZM30.1881 52.4412L29.8905 53.2346L30.7799 53.5682L31.0103 52.6467L30.1881 52.4412ZM29.7434 52.2744L30.041 51.4809L30.041 51.4809L29.7434 52.2744ZM26.5847 52.1731L27.067 52.8698H27.067L26.5847 52.1731ZM26.066 53.8935L26.8881 53.6879L26.066 53.8935ZM28.2525 56.0928L28.6298 55.334L28.6293 55.3337L28.2525 56.0928ZM28.371 56.1517L27.9936 56.9106L28.0244 56.9258L28.0562 56.9386L28.371 56.1517ZM32.208 57.6866L31.8933 58.4734L32.6611 58.7806L32.9869 58.0204L32.208 57.6866ZM33.3163 55.1005L32.5374 54.7667L33.3163 55.1005ZM33.7998 50.4526L34.5114 49.9924L34.46 49.9129L34.3923 49.8467L33.7998 50.4526ZM32.5877 49.8178L32.5366 50.6637H32.5366L32.5877 49.8178ZM31.5701 50.1557L31.0745 49.4683V49.4683L31.5701 50.1557ZM30.7893 0.387354C25.6109 -0.103229 15.5079 0.0850731 6.82772 9.81739L8.09262 10.9455C16.2641 1.78365 25.7154 1.60917 30.6294 2.07471L30.7893 0.387354ZM30.7979 0.388172L30.7893 0.387355L30.6294 2.07471L30.6381 2.07553L30.7979 0.388172ZM30.8554 0.395564L30.8468 0.394247L30.5891 2.06946L30.5977 2.07077L30.8554 0.395564ZM42.5382 4.57634C40.026 2.77788 36.4584 1.25756 30.8554 0.395566L30.5977 2.07077C36.0089 2.90327 39.3075 4.34798 41.5515 5.9545L42.5382 4.57634ZM47.2288 9.44278C46.0973 7.94271 44.7652 6.17067 42.5382 4.57634L41.5515 5.9545C43.548 7.38379 44.7464 8.96633 45.8757 10.4635L47.2288 9.44278ZM47.214 9.42375L47.214 9.42372L45.8905 10.4825L45.8905 10.4826L47.214 9.42375ZM47.6358 9.97999C47.5021 9.80511 47.3674 9.62658 47.2288 9.44282L45.8757 10.4635C46.0137 10.6465 46.1516 10.8294 46.2892 11.0093L47.6358 9.97999ZM51.3232 25.4782C52.3618 20.9223 52.2022 15.0535 47.5926 9.92794L46.3323 11.0613C50.4563 15.647 50.6317 20.8856 49.6707 25.1015L51.3232 25.4782ZM49.2488 31.1721C49.9838 29.7278 50.8045 27.7537 51.3232 25.4782L49.6707 25.1015C49.1895 27.2125 48.4247 29.0544 47.7382 30.4033L49.2488 31.1721ZM48.2432 32.9373C48.5303 32.4932 48.8807 31.8952 49.2488 31.1721L47.7382 30.4033C47.3952 31.0773 47.0736 31.6246 46.8198 32.0172L48.2432 32.9373ZM47.855 33.4991C47.9686 33.3482 48.1 33.1588 48.2432 32.9373L46.8198 32.0172C46.6927 32.2138 46.5845 32.3686 46.501 32.4796L47.855 33.4991ZM47.4729 33.9264C47.6243 33.7983 47.763 33.6213 47.855 33.4991L46.501 32.4796C46.4609 32.5329 46.4275 32.5748 46.401 32.6056C46.3879 32.6208 46.3788 32.6307 46.3733 32.6364C46.3672 32.6426 46.369 32.6402 46.3781 32.6325L47.4729 33.9264ZM47.2197 34.2122C47.3031 34.1143 47.3693 34.039 47.4188 33.985C47.4435 33.958 47.4616 33.9391 47.4737 33.9268C47.4881 33.9123 47.4863 33.9151 47.4729 33.9264L46.3781 32.6326C46.2577 32.7344 46.0911 32.9234 45.9295 33.113L47.2197 34.2122ZM46.6444 34.9055C46.8611 34.6415 47.0579 34.4021 47.2197 34.2122L45.9295 33.113C45.7556 33.3171 45.5483 33.5695 45.3343 33.8302L46.6444 34.9055ZM46.6179 34.9378L46.6444 34.9055L45.3343 33.8302L45.3077 33.8625L46.6179 34.9378ZM46.562 34.9995L46.562 34.9994L45.3636 33.8009L45.3635 33.801L46.562 34.9995ZM46.562 34.9995L46.562 34.9995L45.3635 33.801L45.3635 33.801L46.562 34.9995ZM45.353 36.4198C45.7148 36.039 46.2066 35.439 46.6178 34.9379L45.3077 33.8626C44.8794 34.3844 44.4334 34.9269 44.1242 35.2524L45.353 36.4198ZM45.3409 36.4325L45.353 36.4198L44.1242 35.2524L44.1121 35.2652L45.3409 36.4325ZM45.2545 36.5119L45.268 36.5007L44.185 35.197L44.1715 35.2082L45.2545 36.5119ZM40.0272 42.4373C41.5771 39.8937 44.1629 37.4188 45.2545 36.5119L44.1714 35.2082C43.0078 36.1749 40.2661 38.7881 38.5798 41.5553L40.0272 42.4373ZM38.8172 50.699C38.5537 48.5904 38.2012 45.4338 40.0272 42.4373L38.5798 41.5553C36.4185 45.1021 36.8725 48.8058 37.1354 50.9092L38.8172 50.699ZM39.445 52.7424C39.0611 51.6756 38.851 50.9695 38.8172 50.699L37.1354 50.9092C37.1971 51.4026 37.4827 52.2952 37.8503 53.3164L39.445 52.7424ZM40.7873 56.2151C40.2894 54.9832 39.8108 53.7585 39.445 52.7424L37.8503 53.3164C38.2267 54.3622 38.7146 55.61 39.2159 56.8502L40.7873 56.2151ZM43.1869 61.9208C42.8396 61.1307 41.7825 58.6773 40.7873 56.2151L39.2159 56.8502C40.2187 59.3314 41.2827 61.8007 41.6353 62.6028L43.1869 61.9208ZM42.5994 63.4298C43.1784 63.1754 43.4414 62.4997 43.1869 61.9208L41.6353 62.6028C41.5131 62.3248 41.6394 62.0004 41.9174 61.8782L42.5994 63.4298ZM41.0904 62.8423C41.3449 63.4213 42.0205 63.6843 42.5994 63.4298L41.9174 61.8782C42.1954 61.756 42.5198 61.8823 42.642 62.1603L41.0904 62.8423ZM38.664 57.0733C39.6696 59.5611 40.736 62.036 41.0904 62.8423L42.642 62.1603C42.2929 61.366 41.2333 58.907 40.2354 56.4381L38.664 57.0733ZM37.2902 53.518C37.6704 54.5743 38.1615 55.83 38.664 57.0733L40.2354 56.4381C39.7363 55.2033 39.2545 53.9705 38.885 52.944L37.2902 53.518ZM36.5448 50.983C36.6162 51.5544 36.928 52.5118 37.2902 53.518L38.885 52.944C38.5069 51.8937 38.2702 51.1217 38.2266 50.7728L36.5448 50.983ZM38.0715 41.2455C35.7925 44.9854 36.282 48.8808 36.5448 50.983L38.2266 50.7728C37.9633 48.6663 37.5751 45.3174 39.5189 42.1275L38.0715 41.2455ZM43.7765 34.7625C42.5803 35.759 39.7989 38.4109 38.0715 41.2455L39.5189 42.1275C41.1103 39.516 43.7362 37.0021 44.8613 36.0648L43.7765 34.7625ZM44.8591 33.4709C44.4273 33.997 43.9973 34.5201 43.7029 34.8316L44.9349 35.9957C45.2798 35.6306 45.7543 35.0517 46.1693 34.5462L44.8591 33.4709ZM44.8625 33.4668L44.862 33.4674L46.1664 34.5497L46.1668 34.5492L44.8625 33.4668ZM44.8368 33.4994L44.8367 33.4995L46.1926 34.5165L46.1927 34.5163L44.8368 33.4994ZM44.8743 33.4524L44.8598 33.4701L46.1697 34.5456L46.1842 34.528L44.8743 33.4524ZM45.4765 32.7269C45.2983 32.936 45.0872 33.193 44.8742 33.4525L46.1843 34.5279C46.4 34.265 46.6005 34.021 46.7666 33.8262L45.4765 32.7269ZM45.9936 32.1782C45.8292 32.3172 45.6308 32.5457 45.4765 32.7269L46.7666 33.8262C46.8469 33.7319 46.9186 33.6497 46.9796 33.5833C47.0098 33.5503 47.0351 33.5239 47.0554 33.5035C47.0655 33.4935 47.0734 33.4858 47.0795 33.4802C47.0856 33.4744 47.0885 33.472 47.0884 33.472L45.9936 32.1782ZM45.9593 32.2089C45.9632 32.2052 45.9678 32.2009 45.9731 32.1961C45.9757 32.1937 45.9786 32.1912 45.9816 32.1885C45.9831 32.1872 45.9847 32.1858 45.9863 32.1844C45.9871 32.1837 45.988 32.1829 45.9891 32.182C45.9892 32.1819 45.9895 32.1817 45.9898 32.1814C45.9899 32.1813 45.9902 32.181 45.9907 32.1806C45.991 32.1804 45.9917 32.1798 45.9921 32.1794C45.9933 32.1784 46.0045 32.1691 46.0146 32.1609C47.1911 32.2814 47.099 33.4629 47.0964 33.4652C47.0957 33.4658 47.0946 33.4667 47.0943 33.467C47.0938 33.4675 47.0933 33.4678 47.0932 33.4679C47.0929 33.4682 47.0926 33.4684 47.0925 33.4686C47.0919 33.4691 47.0914 33.4695 47.091 33.4699L45.991 32.1803C45.9906 32.1807 45.9901 32.1811 45.9895 32.1816C45.9894 32.1818 45.9891 32.182 45.9888 32.1823C45.9886 32.1824 45.9882 32.1827 45.9877 32.1832C45.9873 32.1835 45.9863 32.1844 45.9856 32.185C45.983 32.1873 45.8909 33.3688 47.0673 33.4893C47.0775 33.4811 47.0886 33.4718 47.0898 33.4708C47.0903 33.4704 47.091 33.4698 47.0913 33.4696C47.0917 33.4692 47.0921 33.4689 47.0922 33.4688C47.0925 33.4685 47.0928 33.4683 47.0929 33.4682C47.094 33.4673 47.0949 33.4665 47.0957 33.4658C47.0974 33.4643 47.0991 33.4629 47.1007 33.4614C47.104 33.4585 47.1073 33.4556 47.1106 33.4526C47.1172 33.4466 47.1238 33.4405 47.1305 33.4341L45.9593 32.2089ZM45.9568 32.2112L45.9534 32.2146L47.1364 33.4284L47.1399 33.425L45.9568 32.2112ZM45.9516 32.2163L45.9441 32.2239L47.1526 33.4123L47.1602 33.4046L45.9516 32.2163ZM45.9489 32.2184C45.9456 32.2222 45.9436 32.2245 45.9427 32.2255C45.9417 32.2266 45.9424 32.2258 45.9447 32.2234L47.1671 33.3975C47.1899 33.3738 47.2127 33.3484 47.235 33.3224L45.9489 32.2184ZM46.0254 32.1216C45.9887 32.1704 45.9633 32.2016 45.9489 32.2184L47.235 33.3224C47.2795 33.2705 47.3281 33.2094 47.3795 33.141L46.0254 32.1216ZM46.3199 31.6941C46.1984 31.8819 46.0985 32.0246 46.0254 32.1216L47.3795 33.141C47.4826 33.0042 47.6058 32.8269 47.7433 32.6142L46.3199 31.6941ZM47.2077 30.1333C46.8735 30.7901 46.562 31.3195 46.3199 31.6941L47.7433 32.6142C48.0187 32.1882 48.359 31.608 48.7183 30.9021L47.2077 30.1333ZM49.0903 24.9692C48.6223 27.0224 47.8772 28.8179 47.2077 30.1333L48.7183 30.9021C49.4363 29.4913 50.2373 27.5636 50.7429 25.3459L49.0903 24.9692ZM45.8823 11.4511C49.8433 15.8494 50.0246 20.8707 49.0903 24.9692L50.7429 25.3459C51.7549 20.9065 51.5887 15.2549 47.1418 10.3169L45.8823 11.4511ZM45.8744 11.4423L45.8824 11.4512L47.1418 10.3168L47.1338 10.3079L45.8744 11.4423ZM45.8236 11.3804L45.8309 11.3899L47.1773 10.3603L47.17 10.3509L45.8236 11.3804ZM45.3999 10.8214C45.5406 11.0078 45.6819 11.195 45.8236 11.3804L47.17 10.3508C47.032 10.1704 46.8939 9.98741 46.7527 9.80031L45.3999 10.8214ZM45.4144 10.8402L45.4145 10.8403L46.738 9.78145L46.7379 9.78135L45.4144 10.8402ZM41.2051 6.43849C43.1235 7.81193 44.2689 9.32302 45.3998 10.8213L46.7526 9.8002C45.6204 8.30029 44.341 6.59904 42.1917 5.06033L41.2051 6.43849ZM30.5156 2.66038C35.8545 3.48271 39.0563 4.90018 41.2051 6.43849L42.1917 5.06033C39.7749 3.3302 36.3042 1.83708 30.7736 0.985218L30.5156 2.66038ZM8.55136 11.3255C16.5362 2.38503 25.7445 2.21105 30.5649 2.6665L30.7243 0.979098C25.6391 0.49863 15.7803 0.686932 7.28723 10.1965L8.55136 11.3255ZM6.30763 16.2233C6.84834 14.0196 7.85446 12.4123 8.62924 11.2237L7.20935 10.2982C6.41411 11.5182 5.27375 13.3243 4.66154 15.8194L6.30763 16.2233ZM6.87628 24.9608C5.67744 21.2843 5.7679 18.423 6.30763 16.2233L4.66154 15.8194C4.04432 18.3349 3.97091 21.5181 5.26487 25.4862L6.87628 24.9608ZM4.23788 34.853C7.02266 32.0204 8.00341 28.4173 6.87628 24.9608L5.26487 25.4862C6.17118 28.2656 5.429 31.2238 3.02924 33.6647L4.23788 34.853ZM4.23598 34.8549L4.23806 34.8528L3.02907 33.6649L3.02699 33.667L4.23598 34.8549ZM2.41469 36.7806L4.24715 34.8433L3.01582 33.6786L1.18336 35.6158L2.41469 36.7806ZM2.49333 36.8914C2.45919 36.8458 2.44986 36.8169 2.44694 36.8057C2.44379 36.7936 2.44349 36.7838 2.44469 36.7737C2.44611 36.7618 2.44987 36.7488 2.45512 36.737C2.46138 36.7231 2.46346 36.7247 2.44887 36.7422L1.14917 35.6543C0.832692 36.0324 0.436447 36.9737 1.13741 37.9083L2.49333 36.8914ZM2.49665 36.8958L2.49343 36.8915L1.13731 37.9082L1.14053 37.9125L2.49665 36.8958ZM2.29599 38.1043L2.29602 38.1043L1.34115 36.704L1.34111 36.704L2.29599 38.1043ZM2.90014 37.3527C2.73462 37.1989 2.58332 37.0156 2.50557 36.908L1.13153 37.9003C1.26298 38.0824 1.48635 38.3527 1.74639 38.5943L2.90014 37.3527ZM3.07775 37.5115C3.11144 37.5201 3.12772 37.5286 3.12428 37.5269C3.12205 37.5258 3.11009 37.5197 3.08836 37.5054C3.04401 37.4762 2.97975 37.4267 2.90015 37.3527L1.74638 38.5943C1.97924 38.8107 2.30304 39.0629 2.65812 39.1536L3.07775 37.5115ZM4.13978 37.547C3.68109 37.4867 3.18247 37.4773 2.84753 37.4853L2.88834 39.1798C3.16962 39.173 3.57489 39.1822 3.91857 39.2275L4.13978 37.547ZM4.90602 37.7214C4.65022 37.6282 4.37233 37.5777 4.13978 37.547L3.91856 39.2275C4.10027 39.2514 4.23854 39.2821 4.32575 39.3139L4.90602 37.7214ZM5.35988 37.9559C5.19921 37.8406 5.03444 37.7682 4.90602 37.7214L4.32575 39.3139C4.34547 39.3211 4.35915 39.3271 4.36788 39.3314C4.37671 39.3358 4.37705 39.3368 4.37159 39.3328L5.35988 37.9559ZM5.85983 38.5973C5.73781 38.272 5.51752 38.069 5.3599 37.9559L4.37157 39.3328C4.36534 39.3284 4.30814 39.2866 4.27283 39.1925L5.85983 38.5973ZM5.88059 38.6518C5.87246 38.6306 5.86594 38.6136 5.85984 38.5974L4.27283 39.1925C4.28177 39.2163 4.29083 39.2399 4.29848 39.2598L5.88059 38.6518ZM5.8695 38.6243L5.86948 38.6243L4.30959 39.2872L4.30962 39.2873L5.8695 38.6243ZM6.06222 39.641C6.09027 39.1781 5.94912 38.8301 5.8806 38.6518L4.29851 39.2598C4.36497 39.4328 4.37419 39.476 4.37041 39.5385L6.06222 39.641ZM5.612 41.0685C5.85504 40.5554 6.03474 40.0944 6.06222 39.641L4.37041 39.5385C4.36411 39.6423 4.31394 39.8495 4.08024 40.3429L5.612 41.0685ZM5.60083 41.092L5.612 41.0685L4.08023 40.3429L4.06907 40.3665L5.60083 41.092ZM5.51099 41.241L5.52608 41.2197L4.14382 40.2388L4.12873 40.2601L5.51099 41.241ZM4.36386 42.8574L5.51096 41.241L4.12875 40.2601L2.98165 41.8764L4.36386 42.8574ZM4.44756 42.6263C4.45345 42.6479 4.4536 42.6672 4.45163 42.6823C4.45064 42.6899 4.44888 42.6984 4.44577 42.7084C4.44282 42.7179 4.43731 42.7332 4.42668 42.7539L2.91883 41.9799C2.78458 42.2414 2.69439 42.6406 2.8126 43.0731L4.44756 42.6263ZM4.6682 42.7645C4.52482 42.6928 4.4661 42.6354 4.44782 42.6147C4.43215 42.597 4.44044 42.6003 4.44756 42.6263L2.8126 43.0731C2.94105 43.5432 3.29248 43.9716 3.91022 44.2805L4.6682 42.7645ZM4.67207 42.7664L4.66815 42.7645L3.91027 44.2805L3.91419 44.2825L4.67207 42.7664ZM5.05581 43.8939L5.05582 43.8939L3.53043 43.155L3.53042 43.155L5.05581 43.8939ZM6.1042 43.5089L4.68321 42.7721L3.90301 44.2768L5.32401 45.0136L6.1042 43.5089ZM6.16086 43.5383L6.1042 43.5089L5.32401 45.0136L5.38066 45.043L6.16086 43.5383ZM5.79659 45.1377C7.25887 45.0931 8.62075 45.0506 9.88822 45.0109L9.83527 43.3168C8.56773 43.3565 7.20647 43.399 5.74493 43.4436L5.79659 45.1377ZM9.86175 45.0113H9.86183V43.3164H9.86175V45.0113ZM9.88831 45.0109C14.4245 44.8691 17.743 44.7654 20.1462 44.7413L20.1292 43.0465C17.7036 43.0708 14.3631 43.1753 9.83535 43.3168L9.88831 45.0109ZM20.1462 44.7413C21.7273 44.7255 22.9019 44.7442 23.7614 44.8078L23.8863 43.1174C22.9532 43.0485 21.7205 43.0305 20.1292 43.0465L20.1462 44.7413ZM23.7614 44.8078C24.6362 44.8724 25.1287 44.9808 25.3868 45.1098L26.1448 43.5938C25.5624 43.3026 24.7724 43.1829 23.8863 43.1174L23.7614 44.8078ZM25.3868 45.1098C26.1266 45.4797 26.8158 46.2445 27.4329 47.3245L28.9045 46.4835C28.2135 45.2742 27.3152 44.179 26.1448 43.5938L25.3868 45.1098ZM27.4329 47.3245C28.0461 48.3974 28.5644 49.7399 28.9824 51.2031L30.6121 50.7375C30.1714 49.1948 29.6075 47.7137 28.9045 46.4835L27.4329 47.3245ZM28.9824 51.2032C28.9814 51.1994 28.9804 51.196 28.9797 51.1931L30.6206 50.7687C30.618 50.7587 30.6152 50.7482 30.6121 50.7374L28.9824 51.2032ZM29.3093 50.1461C29.2153 50.2908 29.1292 50.4375 29.0517 50.5834L30.5486 51.3784C30.6029 51.2761 30.664 51.1721 30.7309 51.0689L29.3093 50.1461ZM30.5789 48.7808C30.0388 49.1701 29.6148 49.6754 29.3093 50.1461L30.7309 51.0689C30.9557 50.7226 31.244 50.3908 31.5701 50.1557L30.5789 48.7808ZM32.69 48.126C31.8446 48.0749 31.1236 48.3881 30.5789 48.7808L31.5701 50.1557C31.8948 49.9216 32.2371 49.7966 32.5877 49.8178L32.69 48.126ZM35.0283 49.2839C34.3362 48.5917 33.5467 48.1778 32.69 48.126L32.5877 49.8178C32.9346 49.8388 33.3542 50.0067 33.8298 50.4823L35.0283 49.2839ZM35.058 49.3135L35.0283 49.2839L33.8298 50.4823L33.8595 50.512L35.058 49.3135ZM35.1871 49.4776L35.1639 49.4427L33.7536 50.3829L33.7769 50.4178L35.1871 49.4776ZM34.8742 55.7682C35.8865 53.4062 36.4428 51.361 35.1872 49.4776L33.7769 50.4178C34.4883 51.4848 34.3349 52.7239 33.3163 55.1005L34.8742 55.7682ZM33.603 58.7343L34.8742 55.7682L33.3163 55.1005L32.0451 58.0666L33.603 58.7343ZM33.4401 59.1144L33.603 58.7343L32.0451 58.0666L31.8822 58.4467L33.4401 59.1144ZM31.9625 59.4138L32.3464 59.5674L32.9759 57.9937L32.5919 57.8401L31.9625 59.4138ZM27.7252 57.7189L31.9625 59.4138L32.5919 57.8401L28.3547 56.1452L27.7252 57.7189ZM27.7088 57.7124L27.7252 57.7189L28.3547 56.1452L28.3383 56.1387L27.7088 57.7124ZM27.6288 57.6756L27.6446 57.6835L28.4025 56.1675L28.3867 56.1596L27.6288 57.6756ZM27.4747 57.5995C27.5308 57.6271 27.5813 57.6519 27.6288 57.6756L28.3868 56.1597C28.3331 56.1328 28.2771 56.1053 28.2222 56.0783L27.4747 57.5995ZM27.4739 57.5991L27.4746 57.5994L28.2222 56.0783L28.2216 56.078L27.4739 57.5991ZM27.4723 57.5983L27.4734 57.5989L28.2221 56.0782L28.2209 56.0777L27.4723 57.5983ZM24.4217 54.3046C24.9421 56.386 26.6535 57.196 27.4729 57.5986L28.2203 56.0774C27.3686 55.659 26.378 55.1414 26.066 53.8935L24.4217 54.3046ZM25.6199 50.7795C24.3815 51.6368 24.1191 53.0942 24.4217 54.3046L26.066 53.8935C25.8839 53.1652 26.0806 52.522 26.5847 52.1731L25.6199 50.7795ZM29.1564 50.3282C27.7878 50.017 26.5531 50.1334 25.6199 50.7795L26.5847 52.1731C26.9934 51.8901 27.6886 51.7326 28.7806 51.9809L29.1564 50.3282ZM29.7829 50.9202C29.3559 49.4363 28.8196 48.043 28.1687 46.904L26.6972 47.7449C27.259 48.7282 27.7498 49.9841 28.1541 51.3889L29.7829 50.9202ZM28.1687 46.904C27.5147 45.7593 26.7209 44.8293 25.7658 44.3518L25.0078 45.8678C25.5323 46.13 26.117 46.7297 26.6972 47.7449L28.1687 46.904ZM25.7658 44.3518C25.3452 44.1415 24.7035 44.0276 23.8239 43.9626L23.6989 45.6529C24.5701 45.7173 24.9128 45.8203 25.0078 45.8678L25.7658 44.3518ZM23.8239 43.9626C22.9275 43.8963 21.7239 43.878 20.1377 43.8939L20.1547 45.5888C21.7308 45.5729 22.8763 45.5921 23.6989 45.6529L23.8239 43.9626ZM20.1377 43.8939C17.722 43.9182 14.3949 44.0222 9.87123 44.1636L9.92418 45.8577C14.4563 45.716 17.7615 45.6128 20.1547 45.5888L20.1377 43.8939ZM9.8735 44.1635L9.8727 44.1636L9.92111 45.8578L9.92191 45.8578L9.8735 44.1635ZM9.87042 44.1636C8.53509 44.2054 7.09473 44.2504 5.54136 44.2976L5.59289 45.9918C7.14707 45.9445 8.5881 45.8995 9.92338 45.8577L9.87042 44.1636ZM6.30611 45.7946C6.29244 45.696 6.30819 45.5774 6.35703 45.4517L4.77722 44.8377C4.64836 45.1693 4.56557 45.5821 4.62722 46.0272L6.30611 45.7946ZM7.16887 46.5941C6.39195 46.2294 6.31966 45.8925 6.30611 45.7946L4.62722 46.0272C4.73879 46.8327 5.29434 47.5865 6.44869 48.1284L7.16887 46.5941ZM7.20941 46.6131L7.16884 46.594L6.44872 48.1284L6.4893 48.1474L7.20941 46.6131ZM7.4526 46.7833L7.41943 46.7532L6.27928 48.0073L6.31244 48.0375L7.4526 46.7833ZM7.66737 49.6365C8.4139 48.4476 8.0399 47.3173 7.45258 46.7833L6.31246 48.0375C6.30906 48.0344 6.32403 48.0479 6.34225 48.0822C6.35934 48.1143 6.37544 48.1575 6.38326 48.2107C6.39696 48.304 6.3928 48.4791 6.23196 48.7352L7.66737 49.6365ZM8.62409 52.1979C7.43185 51.4092 7.51142 50.1047 7.74367 49.4821L6.15566 48.8897C5.78483 49.8837 5.5597 52.2029 7.68893 53.6115L8.62409 52.1979ZM13.0846 53.0644C10.6753 53.1032 9.0113 52.4275 8.59027 52.1766L7.72275 53.6327C8.43785 54.0588 10.4168 54.8025 13.112 54.7591L13.0846 53.0644ZM18.4709 52.7068C17.7642 52.8054 15.6496 53.023 13.0846 53.0644L13.112 54.7591C15.7442 54.7166 17.9279 54.4939 18.7052 54.3854L18.4709 52.7068ZM18.4956 52.7034L18.4709 52.7068L18.7052 54.3854L18.7299 54.382L18.4956 52.7034ZM18.6619 52.6963L18.637 52.6956L18.5885 54.3898L18.6134 54.3905L18.6619 52.6963ZM20.399 53.1449C19.7688 52.8289 19.1146 52.7092 18.6619 52.6963L18.6135 54.3905C18.8505 54.3973 19.257 54.4683 19.6393 54.66L20.399 53.1449ZM22.0759 54.982C21.7388 54.0383 21.0422 53.4674 20.399 53.1449L19.6393 54.66C20.0154 54.8486 20.33 55.1329 20.4797 55.5521L22.0759 54.982ZM23.2057 58.8753C22.7842 57.3393 22.3048 55.623 22.0759 54.982L20.4797 55.5521C20.6814 56.1167 21.1399 57.752 21.5711 59.3237L23.2057 58.8753ZM23.6462 60.4896C23.5147 60.0062 23.3632 59.4495 23.2057 58.8753L21.5711 59.3237C21.7281 59.896 21.8792 60.4511 22.0108 60.9347L23.6462 60.4896ZM24.0679 62.0195C24.0684 62.0209 24.0653 62.0114 24.057 61.9833C24.0496 61.958 24.0399 61.9244 24.028 61.8823C24.0042 61.7982 23.9731 61.6861 23.9354 61.5493C23.8602 61.2761 23.761 60.9113 23.6462 60.4896L22.0108 60.9347C22.2333 61.7525 22.4131 62.4149 22.46 62.5554L24.0679 62.0195ZM23.3437 63.4679C23.9436 63.2679 24.2679 62.6194 24.0679 62.0195L22.46 62.5554C22.3639 62.2673 22.5196 61.956 22.8077 61.8599L23.3437 63.4679ZM21.8953 62.7437C22.0953 63.3436 22.7437 63.6679 23.3437 63.4679L22.8077 61.8599C23.0958 61.7639 23.4072 61.9196 23.5032 62.2077L21.8953 62.7437ZM21.418 61.0234C21.6507 61.8783 21.8432 62.5873 21.8953 62.7437L23.5032 62.2077C23.5035 62.2085 23.5025 62.2054 23.4998 62.1967C23.4973 62.1885 23.494 62.1775 23.4898 62.1635C23.4815 62.1354 23.4709 62.0986 23.458 62.0529C23.4321 61.9618 23.3986 61.8412 23.3584 61.6954C23.2781 61.4039 23.1732 61.0183 23.0534 60.5783L21.418 61.0234ZM21.4187 61.0259L21.4188 61.0262L23.0527 60.5755L23.0526 60.5752L21.4187 61.0259ZM20.9971 59.4812C21.1451 60.0208 21.2896 60.5516 21.4179 61.0231L23.0533 60.578C22.9251 60.1067 22.7802 59.5743 22.6316 59.0328L20.9971 59.4812ZM19.9191 55.7523C20.1112 56.2901 20.5624 57.8968 20.9971 59.4812L22.6316 59.0328C22.2068 57.4843 21.7347 55.7964 21.5153 55.1822L19.9191 55.7523ZM19.3725 55.1921C19.6538 55.3331 19.8349 55.5163 19.9191 55.7523L21.5153 55.1822C21.2442 54.4232 20.6822 53.9528 20.1322 53.677L19.3725 55.1921ZM18.6086 54.9859C18.777 54.993 19.0868 55.0488 19.3725 55.1921L20.1322 53.677C19.6037 53.412 19.0539 53.3083 18.6803 53.2925L18.6086 54.9859ZM13.1216 55.3542C15.7485 55.3118 17.9368 55.0918 18.7597 54.9788L18.5292 53.2996C17.7744 53.4032 15.6539 53.6182 13.0942 53.6595L13.1216 55.3542ZM7.40892 54.1386C8.22332 54.6272 10.3182 55.3994 13.1216 55.3542L13.0942 53.6595C10.5765 53.7001 8.79873 52.9959 8.28094 52.6852L7.40892 54.1386ZM7.39806 54.1321L7.40887 54.1386L8.281 52.6852L8.27019 52.6788L7.39806 54.1321ZM7.12455 52.9421L7.12441 52.9423L8.54385 53.8685L8.54399 53.8683L7.12455 52.9421ZM5.6147 48.6376C5.18658 49.7417 4.86863 52.4655 7.36791 54.1128L8.30064 52.6976C6.7596 51.6819 6.90659 49.9941 7.19497 49.2504L5.6147 48.6376ZM5.62572 48.6092L5.61469 48.6377L7.19498 49.2504L7.20602 49.2219L5.62572 48.6092ZM5.72097 48.4295L5.70439 48.4551L7.12736 49.376L7.14394 49.3503L5.72097 48.4295ZM5.86165 48.4262C5.83219 48.3916 5.81678 48.3636 5.80807 48.3433C5.79832 48.3207 5.79423 48.3012 5.79318 48.2871C5.79207 48.2721 5.79505 48.2723 5.78978 48.2911C5.78423 48.3109 5.76779 48.3572 5.72095 48.4295L7.14395 49.3503C7.40381 48.9487 7.5118 48.5436 7.48345 48.1616C7.45602 47.7921 7.30539 47.5073 7.15202 47.3272L5.86165 48.4262ZM4.03762 46.1088C4.18159 47.1483 4.88924 48.0375 6.13872 48.64L6.87495 47.1134C5.9987 46.6908 5.76377 46.2175 5.7165 45.8763L4.03762 46.1088ZM4.16078 44.7951C4.03702 45.1762 3.97071 45.6258 4.03762 46.1088L5.7165 45.8763C5.69048 45.6884 5.71423 45.499 5.77279 45.3187L4.16078 44.7951ZM5.50804 44.4049C5.59687 44.4786 5.65698 44.5913 5.66082 44.718L3.96668 44.7693C3.97819 45.149 4.15612 45.4854 4.42553 45.709L5.50804 44.4049ZM5.66082 44.718C5.6635 44.8064 5.63799 44.8918 5.59234 44.962L4.17119 44.0384C4.03471 44.2484 3.95857 44.5016 3.96668 44.7693L5.66082 44.718ZM3.6329 44.8072L4.49165 45.2525L5.27188 43.7479L4.41313 43.3026L3.6329 44.8072ZM3.64173 44.8117L3.64365 44.8127L4.40239 43.2971L4.40047 43.2961L3.64173 44.8117ZM2.23842 43.23C2.41985 43.894 2.90557 44.443 3.64154 44.8116L4.40065 43.2962C4.00773 43.0994 3.90422 42.8961 3.87338 42.7832L2.23842 43.23ZM2.41833 41.6537C2.20658 42.0348 2.06893 42.6098 2.23842 43.23L3.87338 42.7832C3.85553 42.7179 3.85398 42.6553 3.8623 42.5987C3.87107 42.5391 3.88945 42.4957 3.89995 42.4768L2.41833 41.6537ZM2.42629 41.6394L2.41833 41.6537L3.89995 42.4768L3.90792 42.4625L2.42629 41.6394ZM2.48548 41.5471L2.47598 41.5605L3.85822 42.5414L3.86772 42.528L2.48548 41.5471ZM3.62813 39.937L2.48549 41.5471L3.8677 42.528L5.01035 40.9179L3.62813 39.937ZM3.77626 39.5025C3.77749 39.4823 3.7797 39.5048 3.74796 39.6003C3.71615 39.6959 3.65774 39.8429 3.55247 40.0666L5.08601 40.7884C5.31715 40.2973 5.44828 39.9317 5.46807 39.605L3.77626 39.5025ZM3.73654 39.4574C3.74561 39.4814 3.75312 39.5013 3.75989 39.5195C3.7666 39.5376 3.77174 39.5517 3.77586 39.5634C3.78445 39.5877 3.78577 39.5937 3.78484 39.59C3.78324 39.5838 3.77964 39.5679 3.77752 39.5462C3.77541 39.5245 3.7759 39.5085 3.77626 39.5025L5.46807 39.605C5.48855 39.2672 5.38414 39.0229 5.32238 38.8592L3.73654 39.4574ZM3.72482 39.4263L3.73648 39.4572L5.32245 38.8593L5.31078 38.8284L3.72482 39.4263ZM4.122 39.8732C4.12472 39.8742 4.11813 39.8719 4.1044 39.8652C4.09247 39.8593 4.06471 39.8449 4.02851 39.8193L5.0071 38.4354C4.9076 38.365 4.79948 38.3161 4.7022 38.2807L4.122 39.8732ZM3.84089 39.8176C4.00509 39.8392 4.09416 39.863 4.12196 39.8732L4.70225 38.2807C4.50554 38.209 4.27659 38.1654 4.06209 38.1372L3.84089 39.8176ZM2.87404 39.7756C3.13417 39.7679 3.52435 39.7759 3.84089 39.8176L4.06209 38.1372C3.62723 38.0799 3.14075 38.0721 2.82422 38.0814L2.87404 39.7756ZM2.84282 39.7765L2.87406 39.7756L2.8242 38.0814L2.79296 38.0823L2.84282 39.7765ZM2.6356 39.7576L2.66635 39.7632L2.96943 38.0956L2.93868 38.09L2.6356 39.7576ZM1.3412 39.0304C1.59029 39.2618 2.05666 39.6524 2.63554 39.7576L2.93874 38.09C2.92259 38.0871 2.86809 38.0709 2.77479 38.0115C2.68517 37.9544 2.58986 37.8769 2.49496 37.7888L1.3412 39.0304ZM0.650961 38.2516C0.801346 38.4594 1.04914 38.759 1.3412 39.0304L2.49496 37.7888C2.29713 37.6049 2.12113 37.3921 2.02415 37.258L0.650961 38.2516ZM0.707871 35.2543C0.284975 35.7477 -0.27608 37.0122 0.658909 38.2624L2.0162 37.2472C1.85119 37.0266 1.8345 36.8438 1.85366 36.7028C1.87664 36.5337 1.95743 36.4009 1.99475 36.3574L0.707871 35.2543ZM0.712545 35.2489L0.707798 35.2544L1.99482 36.3573L1.99957 36.3517L0.712545 35.2489ZM0.7454 35.2127L0.740389 35.218L1.97172 36.3827L1.97674 36.3774L0.7454 35.2127ZM2.58744 33.2654L0.745417 35.2126L1.97672 36.3774L3.81875 34.4301L2.58744 33.2654ZM2.59162 33.2609L2.58763 33.2652L3.81856 34.4303L3.82255 34.4261L2.59162 33.2609ZM3.78976 33.2281L3.78972 33.2281L2.62445 34.4589L2.62449 34.459L3.78976 33.2281ZM4.69897 25.6708C5.52807 28.2134 4.86865 30.9458 2.60295 33.2493L3.8113 34.4378C6.46267 31.7423 7.36017 28.3647 6.31037 25.1453L4.69897 25.6708ZM4.08346 15.6775C3.43902 18.3039 3.3716 21.6002 4.69897 25.6708L6.31037 25.1453C5.07813 21.3664 5.1626 18.392 5.72955 16.0814L4.08346 15.6775ZM6.72315 9.95405C5.92067 11.1845 4.72405 13.0668 4.08346 15.6775L5.72955 16.0814C6.29834 13.7633 7.35968 12.0808 8.14283 10.8799L6.72315 9.95405ZM6.7354 9.93528L6.72315 9.95406L8.14284 10.8799L8.15509 10.8611L6.7354 9.93528ZM6.82771 9.8174L6.81278 9.83413L8.0777 10.9623L8.09263 10.9455L6.82771 9.8174ZM31.1254 52.186C31.1542 52.0708 31.2537 51.82 31.4418 51.5303L30.0201 50.6075C29.7562 51.0141 29.5657 51.4366 29.4811 51.7749L31.1254 52.186ZM31.0103 52.6467L31.1254 52.186L29.4811 51.7749L29.3659 52.2356L31.0103 52.6467ZM29.4459 53.0679L29.8905 53.2346L30.4857 51.6477L30.041 51.4809L29.4459 53.0679ZM27.067 52.8698C27.2566 52.7386 27.9205 52.4959 29.4459 53.0679L30.041 51.4809C28.2887 50.8238 26.9567 50.8848 26.1023 51.4763L27.067 52.8698ZM26.8881 53.6879C26.7688 53.2104 26.9235 52.9692 27.067 52.8698L26.1023 51.4763C25.234 52.0774 25.0004 53.1255 25.2438 54.099L26.8881 53.6879ZM28.6293 55.3337C27.7367 54.8907 27.1004 54.5369 26.8881 53.6879L25.2438 54.099C25.6676 55.794 27.0518 56.443 27.8758 56.8519L28.6293 55.3337ZM28.7483 55.3929L28.6298 55.334L27.8752 56.8517L27.9936 56.9106L28.7483 55.3929ZM32.5227 56.8997L28.6857 55.3649L28.0562 56.9386L31.8933 58.4734L32.5227 56.8997ZM32.5374 54.7667L31.4291 57.3527L32.9869 58.0204L34.0952 55.4344L32.5374 54.7667ZM33.0882 50.9128C33.5106 51.566 33.5484 52.4077 32.5374 54.7667L34.0952 55.4344C35.099 53.0922 35.4592 51.4579 34.5114 49.9924L33.0882 50.9128ZM32.5366 50.6637C32.6282 50.6693 32.8543 50.7134 33.2073 51.0586L34.3923 49.8467C33.8192 49.2864 33.227 49.0075 32.6389 48.9719L32.5366 50.6637ZM32.0657 50.8431C32.2793 50.6891 32.4323 50.6574 32.5366 50.6637L32.6389 48.9719C32.0413 48.9358 31.5097 49.1545 31.0745 49.4683L32.0657 50.8431ZM31.4418 51.5303C31.6262 51.2462 31.8465 51.0011 32.0657 50.8431L31.0745 49.4683C30.6414 49.7805 30.2853 50.199 30.0201 50.6075L31.4418 51.5303Z" fill="white"/>
</g>
</svg>
