<svg width="73" height="64" viewBox="0 0 73 64" fill="none" xmlns="http://www.w3.org/2000/svg">
<path id="Vector 43" d="M31.1977 63.0926C32.4738 60.7773 32.0436 56.5083 31.1977 52.2037C30.7599 49.9757 29.4486 46.2107 25.8241 45.5368C22.1997 44.8629 20.4269 46.0072 18.0487 46.6635C15.6705 47.3198 11.3563 47.6889 9.24671 46.2417C7.76702 45.5932 6.79771 43.9924 10.2555 43.94C10.6869 43.9334 13.5376 44.2025 16.4773 44.0536C20.724 43.8386 24.8562 40.2481 23.8709 40.2202C10.29 39.8365 9.29563 38.2929 4.0661 36.001C-0.946228 32.342 -0.914037 32.2685 14.2819 36.6891C8.17206 34.926 5.11416 27.7666 7.99769 27.9246C10.8812 28.0826 11.143 32.0469 13.2913 32.9885C14.1749 33.5064 16.4986 34.5248 18.7242 34.4549C18.7242 34.4549 16.4192 31.4645 14.6993 29.7757C12.5621 27.677 8.69535 25.0026 8.69535 25.0026C8.10876 24.3536 7.89281 22.6784 9.87113 23.6499C14.7114 26.8166 24.9626 34.4713 27.2451 39.7573C27.8268 41.0139 29.1708 43.7109 29.8939 44.446C30.7979 45.3648 31.0922 45.8857 31.3263 44.1591C31.5135 42.7778 31.7116 42.1653 31.4311 40.9386C30.997 39.0398 28.4941 36.9075 28.4941 36.9075C24.7208 33.2939 20.8182 28.1864 21.1065 27.5288C21.337 27.0026 25.7937 31.6101 25.7207 28.181C25.6154 23.2359 26.0242 21.2173 26.6369 23.1583C26.7592 24.8669 32.2478 39.0753 31.5854 35.5185C31.4291 33.4901 31.4258 22.601 31.5429 21.7377C31.6599 20.8744 33.3282 10.673 34.7213 7.49445C36.1143 4.31586 37.6996 0.698848 39.4262 0.932942C40.1762 1.03463 40.4472 0.988419 40.1109 1.75566C39.7746 2.52291 35.843 10.5993 35.588 12.97C35.3329 15.3408 36.3749 14.7521 37.0054 14.5059C37.636 14.2596 41.4749 11.761 42.3937 10.857C43.3125 9.95312 43.8754 8.37059 44.075 7.02081C44.2347 5.94099 44.4767 4.01746 44.5777 3.19068C44.7863 2.01906 45.3141 0.377584 45.7563 3.18459L45.6034 6.51472C45.6395 7.22739 45.9242 8.40618 46.7746 7.41999C47.6249 6.4338 48.6882 4.64374 49.1135 3.87198C49.772 2.7669 50.8694 1.29664 49.9904 4.25628C49.2924 6.34579 45.744 11.6198 37.1347 15.9997C36.456 16.3556 34.9821 17.5127 34.5149 19.294C34.0478 21.0753 33.8612 23.6677 33.8262 24.7412C33.7617 25.584 34.0014 27.1437 35.4764 26.6404C36.9513 26.137 43.7999 22.7536 47.0398 21.1248C49.0872 19.9316 53.6427 16.9108 55.4863 14.3739C57.3298 11.8369 58.202 10.8604 58.4077 10.6892C59.6488 9.44743 61.6644 7.90924 59.7981 11.6905C58.9499 12.9303 56.8983 15.8028 55.4775 17.3752C54.1133 18.3017 51.944 20.1906 54.1805 20.3346C56.417 20.4785 58.4614 19.5105 59.2041 19.0084C59.5629 18.6866 60.5042 17.5922 61.3989 15.7893C62.5173 13.5356 63.1282 11.8434 63.5667 12.0356C64.0051 12.2277 64.4435 12.4199 63.4693 14.3448C62.495 16.2696 61.2054 18.3176 61.4997 18.8386C61.794 19.3596 61.746 19.4692 62.9246 19.4631C63.8675 19.4582 65.0081 18.9825 65.4605 18.7452C66.4544 18.2662 67.9951 17.7917 66.2067 19.7256C64.5708 20.5765 60.2778 22.2229 56.194 22.001C54.2526 21.7599 49.8148 21.5309 47.594 22.5436C45.3731 23.5563 40.2438 25.8988 37.9567 26.9435C36.6681 27.5982 34.0602 29.5736 33.9378 32.2377C33.7849 35.5679 33.3533 46.0928 33.3804 46.6273C33.4074 47.1618 33.7471 51.7531 35.1672 49.109C36.5874 46.4649 38.3993 42.0326 42.184 38.465C45.9688 34.8973 47.4776 32.9454 60.3712 26.1836C62.0322 25.4743 65.6599 23.9545 66.8826 23.5496C67.4947 23.6437 68.3433 24.033 66.8407 24.8379C62.7305 26.5643 53.8957 30.5841 51.4383 32.852C48.981 35.1199 47.7221 36.3626 47.3998 36.7004C46.9039 37.1364 46.1916 38.0263 47.3098 38.0982C48.7076 38.1882 55.1753 38.9336 57.9919 38.4694C60.2452 38.0981 62.6101 36.4423 63.5219 35.7531L66.3008 33.2248L69.1188 30.8013C69.9345 30.3313 70.8422 31.6873 69.2676 33.6104L64.1872 38.0475C63.7393 38.3738 62.9969 39.0937 63.6107 39.3627C64.2245 39.6317 69.0811 37.5142 70.2186 37.403C71.3972 37.397 73.3365 38.7695 68.8658 40.4899C67.5911 40.7152 62.811 42.6184 59.3469 41.9365C51.9059 41.0272 48.3883 40.3479 47.1163 40.6266C45.5264 40.9751 44.7801 39.9947 40.7267 45.6658C37.8185 49.7347 34.5643 54.7436 38.6279 53.2162C38.2756 54.0199 51.4383 42.5167 50.8118 47.9953C50.6853 49.1018 43.3034 51.9225 43.1546 53.2162C49.6866 56.079 63.0711 52.6552 60.0269 57.3314C58.7033 59.3645 46.0352 55.2738 46.0352 57.3314C51.4383 59.8005 55.2939 63.6503 50.1504 62.6811C49.6393 62.5848 42.5392 58.7296 40.7267 58.4725C37.7471 58.0499 39.993 62.4965 39.8624 63.0926" stroke="#F5F5F5" stroke-width="1.56923" stroke-linecap="round"/>
</svg>
