<svg width="55" height="62" viewBox="0 0 55 62" fill="none" xmlns="http://www.w3.org/2000/svg">
<path id="Vector 69" d="M24.7122 1.39075C23.0503 6.13015 20.0162 16.8092 25.6355 26.3188C27.2358 29.027 31.0827 36.1977 25.6355 41.0909C25.2118 41.4715 22.8288 43.8238 17.5108 38.5058C14.0024 34.9974 5.98848 34.4435 3.47722 44.784C3.20024 46.1996 2.83093 48.1077 2.83093 53.278C2.83093 53.278 2.83093 55.5861 2 57.3403M7.07793 57.8019C6.8625 56.1708 6.56091 52.2808 7.07793 49.7696C7.72421 46.6305 8.27817 44.784 11.048 44.784C10.8941 48.0769 12.4086 54.3734 16.7722 57.8019C19.3573 59.8331 26.0048 62.7875 37.1762 56.3247C42.8081 52.0777 47.277 46.3535 50.9328 38.5058C53.2409 33.551 55.4568 24.7492 46.6858 19.1173C44.1622 17.3533 37.6748 14.8837 31.9136 19.1173C30.3749 18.6865 27.482 16.2737 28.2206 10.0694C28.4668 8.069 29.2546 3.66197 30.4364 2.03703" stroke="white" stroke-width="2.55" stroke-linecap="round"/>
</svg>
