<svg width="77" height="55" viewBox="0 0 77 55" fill="none" xmlns="http://www.w3.org/2000/svg">
<g id="Group 1171275484">
<path id="Vector 72" d="M31.8613 36.6134C31.0171 37.4878 29.5457 40.4305 30.7759 45.2063C32.006 49.9822 32.2231 49.3671 32.7658 51.2666C32.9415 51.8816 32.6754 54.0706 35.9316 53.0757C36.7457 52.8043 38.8623 52.4244 40.8161 53.0757C43.2583 53.8897 43.9819 52.8948 44.2532 51.2666C44.8864 49.548 46.5145 46.7621 46.8763 42.4928C46.8763 40.9852 46.5688 37.7169 45.3387 36.7039" stroke="#FFFCFC" stroke-width="2.0977" stroke-linecap="round"/>
<path id="Vector 70" d="M31.2285 10.0205C32.0245 10.2376 36.2034 10.5331 38.1933 10.6537C40.2918 10.6537 41.3893 10.3522 43.8013 10.0205C45.339 9.80909 46.7501 9.74917 48.0526 9.74917C49.3551 9.74917 48.8968 10.3522 48.5048 10.6537L47.4194 11.3773C45.339 13.0959 44.9772 13.4577 43.8013 14.9954C42.6255 16.5331 41.54 21.2366 41.3591 22.5933C41.1782 23.9501 40.9973 26.0305 40.9973 28.6536C40.9973 30.7521 40.7561 32.7843 40.6355 33.538C40.404 34.9853 39.6405 35.2566 39.6405 36.8848C39.6405 38.5129 40.0928 39.0556 40.8164 39.5079C41.54 39.9601 43.8013 39.5079 44.6154 38.4224C45.4295 37.337 45.339 36.342 45.339 32.0003C45.339 27.6587 46.7862 25.7592 46.9671 25.5783C47.1481 25.3974 49.0475 22.5933 50.0425 20.6939C51.0375 18.7944 50.7661 15.9904 51.3088 13.4577C51.743 11.4316 54.9269 10.2617 56.4646 9.93008C59.7209 9.20646 63.1882 9.32706 64.5148 9.47782C69.3088 10.2014 70.3641 12.0708 70.9369 13.5482C71.359 14.4527 71.4796 17.1662 69.5801 18.8848C67.2859 20.9606 65.6304 21.0255 65.148 20.7843C64.1349 19.6989 62.3561 17.8174 61.9943 17.8174C63.2968 19.1199 64.1229 21.5381 63.9721 21.7793C62.5972 21.4898 60.2282 21.9602 59.8966 22.1411C60.4754 22.9371 63.1882 22.8949 63.7912 22.8647C62.5611 24.0225 62.8032 26.6553 62.8333 27.0473C63.5569 25.6001 68.8867 22.533 70.4847 22.1411C72.8364 21.5642 74.3138 19.2466 74.6454 18.3421C75.5861 15.1582 74.4344 11.9502 73.7409 10.7441C71.9319 7.84968 68.7359 6.97531 66.957 6.94516C63.0676 6.94516 63.6103 7.48787 59.1782 8.03059C54.746 8.5733 52.862 7.6108 51.3088 6.94516C49.4094 6.13109 47.2385 4.32207 43.2586 2.51303C39.3223 0.723806 36.0939 1.85446 34.2734 2.49203L34.2134 2.51303C32.4044 3.14619 30.5049 4.50297 27.4295 6.31201C24.3542 8.12105 19.6507 8.57328 15.0376 7.39741C11.3472 6.45671 8.25372 7.00545 7.1683 7.39741C3.82157 8.7542 2.7663 11.1964 2.28389 12.8245C1.37937 16.9853 2.85675 19.6386 3.64067 20.3321C5.54016 22.1411 8.41323 22.6587 9.42959 22.9551C11.6004 23.5883 13.4999 26.3237 15.0376 27.0473C14.9472 25.6905 13.6808 23.3169 13.1381 22.9551C12.704 22.6657 13.5602 22.5933 14.0426 22.5933C15.0557 22.521 16.9225 21.93 17.1034 21.7793C16.7416 21.5622 14.4949 21.7793 14.0426 21.7793C13.7411 21.7793 13.0839 21.7069 12.8668 21.4175C12.6497 21.128 14.8826 18.8547 15.4253 18.3421C14.3399 18.4868 12.8668 20.513 11.9622 20.6939C9.06778 20.6939 7.37935 19.0657 6.89694 18.3421C4.00248 13.4577 7.16829 10.6356 10.9673 9.74918C13.6808 9.11601 18.1431 9.47782 20.0125 9.74918C26.525 10.7441 25.9823 14.3622 26.2537 17.9803C26.525 21.5984 29.4195 24.9451 30.7762 26.6637C32.133 28.3823 31.9521 33.1762 31.8617 35.3471C31.7712 37.5179 32.7662 39.5079 35.1179 39.7792C37.4697 40.0506 37.7411 36.7039 36.8365 34.3521C36.1129 32.4707 35.932 29.3169 36.0225 28.0205C36.0828 26.724 36.0767 23.1903 34.8466 19.0657C33.6164 14.9411 30.1129 11.7391 28.5149 10.6537C27.2486 9.2969 30.2335 9.74916 31.2285 10.0205Z" stroke="#FFFCFC" stroke-width="2.0977" stroke-linecap="round"/>
<path id="Vector 71" d="M14.4043 19.4275C15.1581 18.9149 17.1721 18.1612 19.1983 19.2466C19.4395 19.3974 22.4411 19.2353 23.816 18.6564M23.816 18.6564C24.2355 18.4798 25.0393 17.8501 25.9137 17.3978M23.816 18.6564C22.2856 19.3008 22.0023 22.5933 19.4696 25.126C18.9269 25.6084 17.2988 26.3561 15.1279 25.4878M62.7056 19.4275C61.8614 19.0054 61.168 18.3421 57.7308 19.4275C57.3087 19.518 55.7415 20.4225 54.0229 19.4275M54.0229 19.4275C52.4852 18.4325 51.9002 18.6064 51.0861 16.9783M54.0229 19.4275C54.837 20.9652 55.7408 24.5833 58.4544 25.3069C60.6252 25.8858 61.8916 25.6687 62.2534 25.4878" stroke="#FFFCFC" stroke-width="2.0977" stroke-linecap="round"/>
</g>
</svg>
