<svg width="53" height="61" viewBox="0 0 53 61" fill="none" xmlns="http://www.w3.org/2000/svg">
<g id="Group 1171275495">
<g id="Group 1171275494">
<g id="Union">
<mask id="path-1-inside-1_307_8905" fill="white">
<path fill-rule="evenodd" clip-rule="evenodd" d="M4.69226 2.70281C4.69226 1.21009 5.90235 0 7.39507 0H26.3147C27.8074 0 29.0175 1.21009 29.0175 2.70281V9.7301C29.0175 11.1407 27.9369 12.2989 26.5584 12.4221V13.772H27.5686C30.5541 13.772 32.9742 16.1922 32.9742 19.1776V57.4368C32.9742 58.9295 31.7641 60.1396 30.2714 60.1396H2.7028C1.21009 60.1396 0 58.9295 0 57.4368V19.1776C0 16.1922 2.42017 13.772 5.40561 13.772H6.88552V12.3849C5.63641 12.1466 4.69226 11.0486 4.69226 9.7301V2.70281Z"/>
</mask>
<path fill-rule="evenodd" clip-rule="evenodd" d="M4.69226 2.70281C4.69226 1.21009 5.90235 0 7.39507 0H26.3147C27.8074 0 29.0175 1.21009 29.0175 2.70281V9.7301C29.0175 11.1407 27.9369 12.2989 26.5584 12.4221V13.772H27.5686C30.5541 13.772 32.9742 16.1922 32.9742 19.1776V57.4368C32.9742 58.9295 31.7641 60.1396 30.2714 60.1396H2.7028C1.21009 60.1396 0 58.9295 0 57.4368V19.1776C0 16.1922 2.42017 13.772 5.40561 13.772H6.88552V12.3849C5.63641 12.1466 4.69226 11.0486 4.69226 9.7301V2.70281Z" fill="#4DBE83"/>
<path d="M26.5584 12.4221L26.3261 9.82294L23.9489 10.0354V12.4221H26.5584ZM26.5584 13.772H23.9489V16.3815H26.5584V13.772ZM6.88552 13.772V16.3815H9.49501V13.772H6.88552ZM6.88552 12.3849H9.49501V10.2262L7.37454 9.82169L6.88552 12.3849ZM7.39507 -2.60949C4.46117 -2.60949 2.08278 -0.231085 2.08278 2.70281H7.30175C7.30175 2.65127 7.34353 2.60949 7.39507 2.60949V-2.60949ZM26.3147 -2.60949H7.39507V2.60949H26.3147V-2.60949ZM31.627 2.70281C31.627 -0.231092 29.2486 -2.60949 26.3147 -2.60949V2.60949C26.3662 2.60949 26.408 2.65127 26.408 2.70281H31.627ZM31.627 9.7301V2.70281H26.408V9.7301H31.627ZM26.7907 15.0212C29.5029 14.7788 31.627 12.504 31.627 9.7301H26.408C26.408 9.74706 26.4052 9.75702 26.4024 9.76411C26.399 9.77265 26.3931 9.78273 26.3839 9.79275C26.3648 9.81351 26.3449 9.82126 26.3261 9.82294L26.7907 15.0212ZM29.1679 13.772V12.4221H23.9489V13.772H29.1679ZM26.5584 16.3815H27.5686V11.1625H26.5584V16.3815ZM27.5686 16.3815C29.1129 16.3815 30.3647 17.6333 30.3647 19.1776H35.5837C35.5837 14.751 31.9952 11.1625 27.5686 11.1625V16.3815ZM30.3647 19.1776V57.4368H35.5837V19.1776H30.3647ZM30.3647 57.4368C30.3647 57.4883 30.323 57.5301 30.2714 57.5301V62.7491C33.2053 62.7491 35.5837 60.3707 35.5837 57.4368H30.3647ZM30.2714 57.5301H2.7028V62.7491H30.2714V57.5301ZM2.7028 57.5301C2.65127 57.5301 2.60949 57.4883 2.60949 57.4368H-2.60949C-2.60949 60.3707 -0.231094 62.7491 2.7028 62.7491V57.5301ZM2.60949 57.4368V19.1776H-2.60949V57.4368H2.60949ZM2.60949 19.1776C2.60949 17.6333 3.86135 16.3815 5.40561 16.3815V11.1625C0.978997 11.1625 -2.60949 14.751 -2.60949 19.1776H2.60949ZM5.40561 16.3815H6.88552V11.1625H5.40561V16.3815ZM4.27603 12.3849V13.772H9.49501V12.3849H4.27603ZM2.08278 9.7301C2.08278 12.3245 3.93999 14.4795 6.3965 14.9482L7.37454 9.82169C7.35948 9.81882 7.33982 9.8096 7.32251 9.7889C7.31459 9.77942 7.30964 9.77024 7.30675 9.76243C7.3043 9.75581 7.30175 9.7462 7.30175 9.7301H2.08278ZM2.08278 2.70281V9.7301H7.30175V2.70281H2.08278Z" fill="white" mask="url(#path-1-inside-1_307_8905)"/>
<path d="M26.5584 12.4221L26.3261 9.82294L23.9489 10.0354V12.4221H26.5584ZM26.5584 13.772H23.9489V16.3815H26.5584V13.772ZM6.88552 13.772V16.3815H9.49501V13.772H6.88552ZM6.88552 12.3849H9.49501V10.2262L7.37454 9.82169L6.88552 12.3849ZM7.39507 -2.60949C4.46117 -2.60949 2.08278 -0.231085 2.08278 2.70281H7.30175C7.30175 2.65127 7.34353 2.60949 7.39507 2.60949V-2.60949ZM26.3147 -2.60949H7.39507V2.60949H26.3147V-2.60949ZM31.627 2.70281C31.627 -0.231092 29.2486 -2.60949 26.3147 -2.60949V2.60949C26.3662 2.60949 26.408 2.65127 26.408 2.70281H31.627ZM31.627 9.7301V2.70281H26.408V9.7301H31.627ZM26.7907 15.0212C29.5029 14.7788 31.627 12.504 31.627 9.7301H26.408C26.408 9.74706 26.4052 9.75702 26.4024 9.76411C26.399 9.77265 26.3931 9.78273 26.3839 9.79275C26.3648 9.81351 26.3449 9.82126 26.3261 9.82294L26.7907 15.0212ZM29.1679 13.772V12.4221H23.9489V13.772H29.1679ZM26.5584 16.3815H27.5686V11.1625H26.5584V16.3815ZM27.5686 16.3815C29.1129 16.3815 30.3647 17.6333 30.3647 19.1776H35.5837C35.5837 14.751 31.9952 11.1625 27.5686 11.1625V16.3815ZM30.3647 19.1776V57.4368H35.5837V19.1776H30.3647ZM30.3647 57.4368C30.3647 57.4883 30.323 57.5301 30.2714 57.5301V62.7491C33.2053 62.7491 35.5837 60.3707 35.5837 57.4368H30.3647ZM30.2714 57.5301H2.7028V62.7491H30.2714V57.5301ZM2.7028 57.5301C2.65127 57.5301 2.60949 57.4883 2.60949 57.4368H-2.60949C-2.60949 60.3707 -0.231094 62.7491 2.7028 62.7491V57.5301ZM2.60949 57.4368V19.1776H-2.60949V57.4368H2.60949ZM2.60949 19.1776C2.60949 17.6333 3.86135 16.3815 5.40561 16.3815V11.1625C0.978997 11.1625 -2.60949 14.751 -2.60949 19.1776H2.60949ZM5.40561 16.3815H6.88552V11.1625H5.40561V16.3815ZM4.27603 12.3849V13.772H9.49501V12.3849H4.27603ZM2.08278 9.7301C2.08278 12.3245 3.93999 14.4795 6.3965 14.9482L7.37454 9.82169C7.35948 9.81882 7.33982 9.8096 7.32251 9.7889C7.31459 9.77942 7.30964 9.77024 7.30675 9.76243C7.3043 9.75581 7.30175 9.7462 7.30175 9.7301H2.08278ZM2.08278 2.70281V9.7301H7.30175V2.70281H2.08278Z" fill="white" mask="url(#path-1-inside-1_307_8905)"/>
</g>
</g>
<g id="Vector 75">
<path d="M17.4502 36.0586C17.5313 42.8083 22.811 45.6471 25.2747 47.2674L30.9044 50.5909L34.0884 44.6579C37.7082 37.6592 35.2068 34.7329 31.5567 28.4755C28.6366 23.4696 25.0827 19.3183 23.6072 17.8429C18.74 25.0121 17.2284 33.9605 17.4502 36.0586Z" fill="#4DBE83"/>
<path d="M17.4502 36.0586C17.5313 42.8083 22.811 45.6471 25.2747 47.2674L30.9044 50.5909L34.0884 44.6579C37.7082 37.6592 35.2068 34.7329 31.5567 28.4755C28.6366 23.4696 25.0827 19.3183 23.6072 17.8429C18.74 25.0121 17.2284 33.9605 17.4502 36.0586Z" stroke="white" stroke-width="2.17457" stroke-linecap="round"/>
<path d="M17.4502 36.0586C17.5313 42.8083 22.811 45.6471 25.2747 47.2674L30.9044 50.5909L34.0884 44.6579C37.7082 37.6592 35.2068 34.7329 31.5567 28.4755C28.6366 23.4696 25.0827 19.3183 23.6072 17.8429C18.74 25.0121 17.2284 33.9605 17.4502 36.0586Z" stroke="white" stroke-width="2.17457" stroke-linecap="round"/>
</g>
<g id="Vector 74">
<path d="M30.6503 31.5803C26.325 37.4003 28.739 44.0321 30.1683 47.3593L31.9685 51.7786L38.8272 49.725C46.5433 46.1073 46.2671 41.9746 47.1585 34.2461C47.8715 28.0632 49.5373 25.7149 50.4981 24.9383C39.081 21.8112 31.8234 29.6428 30.6503 31.5803Z" fill="#4DBE83"/>
<path d="M30.6503 31.5803C26.325 37.4003 28.739 44.0321 30.1683 47.3593L31.9685 51.7786L38.8272 49.725C46.5433 46.1073 46.2671 41.9746 47.1585 34.2461C47.8715 28.0632 49.5373 25.7149 50.4981 24.9383C39.081 21.8112 31.8234 29.6428 30.6503 31.5803Z" stroke="white" stroke-width="2.17457" stroke-linecap="round"/>
<path d="M30.6503 31.5803C26.325 37.4003 28.739 44.0321 30.1683 47.3593L31.9685 51.7786L38.8272 49.725C46.5433 46.1073 46.2671 41.9746 47.1585 34.2461C47.8715 28.0632 49.5373 25.7149 50.4981 24.9383C39.081 21.8112 31.8234 29.6428 30.6503 31.5803Z" stroke="white" stroke-width="2.17457" stroke-linecap="round"/>
</g>
<g id="Vector 76">
<path d="M31.9688 56.205V43.9094C31.9688 39.0019 33.0578 34.8428 40.3297 29.6466" stroke="white" stroke-width="1.47547" stroke-linecap="round"/>
<path d="M31.9688 56.205V43.9094C31.9688 39.0019 33.0578 34.8428 40.3297 29.6466" stroke="white" stroke-width="1.47547" stroke-linecap="round"/>
</g>
</g>
</svg>
