<svg width="57" height="63" viewBox="0 0 57 63" fill="none" xmlns="http://www.w3.org/2000/svg">
<g id="Group 1171275515">
<g id="Group 1171275514">
<g id="Group 1171275507">
<g id="Group 1171275516">
<path id="Vector 85" d="M8.09646 60.7668C9.76467 58.5147 13.7684 48.7557 8.68033 41.7492C4.60989 36.144 2.75817 31.4062 2.34111 29.738C0.472711 17.3265 6.73408 9.44139 10.0983 7.05028C20.4412 -1.42426 33.7036 1.85101 39.0418 4.54795C44.547 7.55074 47.5219 13.6397 48.3004 16.6425C49.8853 21.7306 49.9686 23.8714 49.635 24.5665C48.9677 26.8186 50.3132 28.1532 51.1364 29.321C52.471 31.2142 54.4395 33.992 54.6397 34.3256C54.8899 34.7426 55.307 35.4099 54.6397 36.4109C53.9724 37.4118 52.9714 37.9123 52.2208 38.1625C51.4701 38.4127 51.1364 38.4961 51.1364 39.3302C51.1364 40.1643 51.5535 39.8307 51.8037 40.8316C52.0039 41.6324 50.7194 42.4442 50.0521 42.7501C51.4701 43.751 50.6359 44.9188 50.0521 45.4192C49.4682 45.9197 49.3848 46.9206 49.635 47.6713C49.8852 48.422 50.5525 49.0893 49.635 51.4248C47.5497 54.5944 43.7129 53.6769 41.8778 54.0105C40.0428 54.3442 37.457 54.5944 37.5405 56.7631C37.6072 58.498 37.179 60.1551 36.9566 60.7668" stroke="white" stroke-width="2.69492" stroke-linecap="round"/>
<path id="Union" fill-rule="evenodd" clip-rule="evenodd" d="M26.4554 7.74858C23.4688 6.67792 21.9946 7.64556 21.707 8.00504L21.5236 8.23426C21.6469 8.28764 21.7924 8.32488 21.9551 8.32841C22.307 8.33603 22.7752 8.18655 23.3058 7.6281C23.3904 7.53901 23.5312 7.5354 23.6203 7.62003C23.7094 7.70467 23.713 7.84551 23.6284 7.93461C23.0316 8.56287 22.449 8.78423 21.9455 8.77332C21.45 8.76258 21.0652 8.52723 20.8568 8.30402C20.7965 8.23943 20.7821 8.1485 20.8121 8.07133C20.2578 7.77344 19.6685 7.8232 19.0901 8.06408C18.4601 8.32651 17.912 8.79354 17.6108 9.13772L17.3755 9.40672L17.0274 9.3255C16.3356 9.16409 15.5752 9.36263 14.856 9.74582C14.3822 9.99829 13.9601 10.3134 13.6366 10.5997C13.8594 10.5996 14.0847 10.666 14.2963 10.7656C15.0204 11.1067 15.767 11.9199 16.229 12.5442C16.266 12.5942 16.279 12.6547 16.2699 12.7117C16.7157 12.987 17.0592 13.3845 17.279 13.7482C17.3425 13.8534 17.3088 13.9902 17.2036 14.0537C17.0984 14.1172 16.9616 14.0835 16.8981 13.9783C16.5587 13.4167 15.9298 12.836 15.1434 12.8099C14.3691 12.7842 13.3305 13.2944 12.1595 15.1679C12.0944 15.2721 11.9571 15.3038 11.8529 15.2387C11.7487 15.1735 11.717 15.0362 11.7821 14.932C11.9989 14.5852 12.2144 14.2788 12.4279 14.0099C12.0964 14.2176 11.6535 14.5594 11.2518 15.0059C10.7763 15.5345 10.3726 16.194 10.2625 16.9368C10.0199 18.5743 9.15999 19.752 8.72687 20.1668C8.40874 20.6087 7.89007 21.7521 8.23188 22.9272C8.3187 22.6133 8.42964 22.2631 8.55255 21.906C8.83879 21.0743 9.19444 20.1918 9.47162 19.6249C9.52559 19.5145 9.65885 19.4687 9.76925 19.5227C9.87965 19.5767 9.92539 19.7099 9.87142 19.8203C9.60468 20.3659 9.25573 21.2303 8.97334 22.0508C8.83233 22.4605 8.70905 22.8561 8.62132 23.1927C8.53193 23.5356 8.48481 23.7978 8.48481 23.9503C8.48481 24.1258 8.47519 24.2994 8.46655 24.4554C8.46154 24.5458 8.45686 24.6302 8.45457 24.7057C8.44793 24.9248 8.45741 25.1172 8.51365 25.3181C8.62328 25.7096 8.92453 26.1811 9.76161 26.9224C10.1625 26.5391 10.3504 25.9826 10.4029 25.3612C10.4773 24.4805 10.2708 23.5229 10.0551 22.9118C10.0142 22.7959 10.0749 22.6688 10.1908 22.6279C10.3067 22.587 10.4338 22.6478 10.4747 22.7637C10.704 23.4134 10.9277 24.4362 10.8463 25.3986C10.7648 26.3629 10.3682 27.3199 9.30464 27.7188L9.29625 27.7219L9.28764 27.7244C9.22016 27.7436 9.14932 27.775 9.093 27.8153C9.03603 27.8559 9.00737 27.8957 8.99657 27.9285C8.98331 27.9689 8.96288 28.1329 9.36398 28.448C9.46061 28.5239 9.47739 28.6638 9.40147 28.7604C9.38569 28.7805 9.36715 28.7971 9.34681 28.8102L9.39458 28.8428L9.04553 29.3373C8.92986 29.5011 8.90839 29.6184 8.90969 29.6956C8.91107 29.778 8.93972 29.8718 9.01133 29.9802C9.16595 30.2141 9.45948 30.4203 9.69718 30.5292L9.7321 30.5452L9.76468 30.5656C10.1207 30.7881 10.3777 31.1369 10.5483 31.427C10.6874 31.6635 10.7927 31.9021 10.8614 32.0913C11.1326 32.3549 11.4064 32.3946 11.6637 32.3535C11.9833 32.3024 12.2901 32.1172 12.4638 31.9618L12.4716 31.9549L12.4796 31.9482C12.6807 31.7806 12.8735 31.6508 13.0609 31.5718C13.2427 31.4952 13.4922 31.4368 13.75 31.5313C14.0271 31.6328 14.1652 31.8544 14.2236 32.0262C14.2791 32.1894 14.2809 32.3487 14.2693 32.4649L14.2634 32.5232L14.2463 32.5793C13.8937 33.7359 13.8935 34.5114 14.0455 35.0186C14.1896 35.4995 14.4863 35.7945 14.8888 35.9787C15.3123 36.1726 15.863 36.2451 16.4666 36.2185C17.0641 36.1921 17.6706 36.0703 18.1747 35.9157L18.2979 35.8779L18.4256 35.8944C19.0488 35.9748 19.5726 35.643 20.1632 35.0435C20.3454 34.8586 20.5028 34.6824 20.666 34.4997L20.666 34.4997L20.666 34.4997L20.6661 34.4996C20.7781 34.3742 20.8929 34.2458 21.0202 34.1094C21.3005 33.8092 21.6277 33.4881 22.0001 33.2894L22.107 33.2324L22.2277 33.2217C24.7075 33.0013 26.2637 31.6111 26.6932 31.018L26.8941 30.7406L27.2348 30.7747C28.7036 30.9216 29.8052 29.8829 30.1631 29.3355L30.2958 29.1326L30.5324 29.08C31.5272 28.859 32.0001 28.5327 32.2116 28.2925C32.3161 28.1738 32.3601 28.0733 32.3778 28.0051C32.3869 27.9703 32.3895 27.9424 32.3896 27.9226C32.3897 27.9022 32.387 27.8922 32.387 27.8923L32.2358 27.348C32.2181 27.3521 32.2006 27.3557 32.1836 27.3587C32.0625 27.3801 31.9471 27.2993 31.9258 27.1782C31.9044 27.0572 31.9852 26.9418 32.1062 26.9204L32.1165 26.9185L32.1026 26.8684L32.2001 26.8963C32.4372 26.8175 32.7775 26.5768 32.8914 26.0374C32.939 25.8116 32.9486 25.5276 32.8896 25.1736L32.844 24.9002L33.1208 24.9148C33.5291 24.9363 34.5003 24.7294 34.9847 23.7067C35.0374 23.5956 35.17 23.5482 35.2811 23.6009C35.3921 23.6535 35.4395 23.7861 35.3869 23.8972C34.8869 24.9528 33.9529 25.2933 33.3616 25.3516C33.3755 25.4978 33.3787 25.6352 33.3726 25.7642C33.8323 25.6241 34.3864 25.4899 34.8301 25.4608C34.9714 25.4516 35.1085 25.4525 35.2317 25.4697C35.3523 25.4865 35.477 25.5214 35.5791 25.5933C35.5905 25.6013 35.6015 25.6098 35.6121 25.6186C35.7554 25.4341 35.8687 25.2509 35.9439 25.1079C35.9605 25.0365 35.9858 24.9749 36.0107 24.9256C36.0634 24.8212 36.1342 24.732 36.2061 24.6573C36.3495 24.5084 36.5498 24.3631 36.8031 24.219C37.3129 23.9288 38.1297 23.5918 39.3983 23.2294C40.5967 22.887 41.4041 22.4897 41.9201 22.1483C42.1783 21.9775 42.3597 21.8232 42.48 21.7001C42.5401 21.6387 42.5827 21.5873 42.6113 21.548C42.6411 21.5072 42.6506 21.4865 42.6506 21.4865L42.7152 21.3388C42.4468 21.0805 42.2955 20.6743 42.2083 20.3059C42.1362 20.0018 42.1012 19.6944 42.0889 19.4537C41.6486 19.3804 41.2227 19.1988 40.8867 19.0082C40.8434 19.0862 40.7814 19.1608 40.7048 19.2315C40.4407 19.4754 39.9303 19.7405 39.0324 20.0099C38.1175 20.2844 37.4465 20.2981 36.972 20.1857C36.6647 20.113 36.4341 19.9851 36.2803 19.8379C36.1194 19.992 35.9469 20.1381 35.7621 20.2731L35.4836 19.9267L36.1482 19.3398C37.1739 18.257 37.6603 16.8159 37.7831 16.1355C37.8873 14.5296 37.3868 13.6362 36.7091 13.1652C36.0144 12.6822 35.0799 12.6047 34.2598 12.7474C32.8041 13.0005 31.6991 12.276 31.3147 11.8641C31.2308 11.7743 31.2357 11.6335 31.3255 11.5496C31.4154 11.4658 31.5562 11.4706 31.64 11.5605C31.9479 11.8903 32.9098 12.5305 34.1835 12.3089C35.0693 12.1549 36.1374 12.2258 36.9631 12.7997C37.8042 13.3844 38.3412 14.4532 38.2263 16.1773L38.2255 16.1893L38.2234 16.2011C38.0983 16.9099 37.6155 18.3662 36.5893 19.5174C36.6743 19.5986 36.8255 19.6937 37.0745 19.7527C37.451 19.8418 38.0394 19.8432 38.9045 19.5836C39.7867 19.319 40.2159 19.0773 40.4029 18.9046C40.4871 18.8268 40.5066 18.7775 40.5108 18.7611L40.4328 18.6832L40.4562 18.5664C40.5195 18.2497 40.6409 17.7602 40.8006 17.3164C40.8804 17.0949 40.9721 16.8784 41.0739 16.6987C41.1489 16.5665 41.2397 16.4353 41.3494 16.3407C41.3783 15.6019 41.0029 14.0572 39.1753 13.2509C37.1645 12.3638 34.9845 11.55 34.1476 11.2546L34.1125 11.2422L34.0834 11.2191C33.7372 10.9446 33.1294 10.5391 32.4436 10.2254C31.752 9.90911 31.0136 9.70115 30.3936 9.78202L30.2958 9.79477L30.2207 9.73092C29.7562 9.33612 28.9184 8.88539 27.9345 8.83046C27.0495 8.78106 26.0298 9.05045 25.0366 10.003C25.785 10.169 26.3982 10.549 26.8701 10.974C27.1348 11.2124 27.3573 11.4668 27.5364 11.7095C27.6364 11.3706 27.8794 11.0414 28.3488 10.8403C28.7983 10.6476 29.3716 10.5589 29.8913 10.5224C30.4147 10.4857 30.9047 10.5007 31.2 10.5264C31.3224 10.5371 31.413 10.6449 31.4024 10.7674C31.3917 10.8898 31.2838 10.9804 31.1614 10.9698C30.888 10.946 30.4213 10.9314 29.9224 10.9663C29.4197 11.0016 28.9052 11.0859 28.5241 11.2493C28.1725 11.3999 28.0202 11.6298 27.9592 11.8496C27.8951 12.0807 27.9291 12.3151 27.9784 12.4533L27.9809 12.4603L27.9808 12.4603C28.0145 12.5656 28.059 12.6906 28.1127 12.8248H29.1039C29.2268 12.8248 29.3264 12.9245 29.3264 13.0473C29.3264 13.1702 29.2268 13.2699 29.1039 13.2699H28.3122C28.4108 13.4665 28.5219 13.6558 28.64 13.811C28.831 14.0619 28.9917 14.1599 29.1039 14.1599C29.2268 14.1599 29.3264 14.2595 29.3264 14.3824C29.3264 14.5053 29.2268 14.6049 29.1039 14.6049C28.7635 14.6049 28.4859 14.3432 28.2859 14.0805C28.0748 13.8031 27.8945 13.4506 27.7594 13.1349C27.6771 12.9424 27.6097 12.7593 27.5609 12.6082C27.41 12.2765 27.0775 11.7596 26.5723 11.3047C26.0634 10.8464 25.389 10.4593 24.5575 10.3761C23.6593 10.2863 22.9938 10.1674 22.5247 10.0539C22.0642 9.94253 21.7745 9.83213 21.6432 9.75007C21.539 9.68494 21.5073 9.54766 21.5725 9.44345C21.6376 9.33924 21.7749 9.30756 21.8791 9.37269C21.9456 9.41424 22.1751 9.51152 22.6293 9.62139C23.0562 9.72465 23.6658 9.83537 24.4914 9.92202C25.6409 8.69424 26.8738 8.32555 27.9593 8.38614C29.0065 8.44459 29.8987 8.90107 30.434 9.32999C31.1531 9.26551 31.9435 9.50732 32.6287 9.82074C33.3321 10.1425 33.9558 10.5543 34.3304 10.8472C35.1987 11.1549 37.3582 11.9628 39.355 12.8438C41.4778 13.7803 41.8673 15.6393 41.7859 16.4806L41.7748 16.5952L41.6748 16.6523C41.6253 16.6806 41.55 16.7613 41.4611 16.9182C41.3764 17.0674 41.2947 17.258 41.2193 17.4672C41.0911 17.8233 40.9879 18.2154 40.9229 18.51C41.2839 18.7438 41.8146 18.9908 42.3255 19.0356C42.797 19.077 43.2305 18.9476 43.5288 18.4888C43.5852 18.402 43.6919 18.3676 43.7857 18.3989L43.7851 18.3764L43.8154 18.2812C43.9976 17.7087 43.8232 17.1193 43.4362 16.4245C43.2843 16.1518 43.1151 15.8888 42.9391 15.6152C42.8918 15.5417 42.844 15.4674 42.796 15.392C42.5785 15.0507 42.3526 14.6818 42.2005 14.3125C42.0537 13.9559 41.7044 13.5837 41.2558 13.2478C40.8186 12.9205 40.3532 12.6766 40.0715 12.5575L39.8764 12.4749L39.7773 12.2877C39.3179 11.42 38.5125 10.7628 37.6447 10.2927C36.779 9.82381 35.9034 9.56961 35.3826 9.48097L35.2787 9.46328L35.1871 9.41095C34.439 8.98348 34.0063 8.83369 33.6746 8.776C33.4202 8.73174 33.2208 8.73602 32.9301 8.74226C32.8108 8.74483 32.6761 8.74772 32.5158 8.74772H32.5113H32.5068H32.5023H32.4978H32.4933H32.4888H32.4844H32.4799H32.4755H32.471H32.4666H32.4622H32.4578H32.4534H32.449H32.4446H32.4402H32.4358H32.4315H32.4271H32.4228H32.4184H32.4141H32.4098H32.4055H32.4012H32.3969H32.3926H32.3884H32.3841H32.3798H32.3756H32.3713H32.3671H32.3629H32.3587H32.3545H32.3503H32.3461H32.3419H32.3377H32.3336H32.3294H32.3253H32.3212H32.317H32.3129H32.3088H32.3047H32.3006H32.2965H32.2924H32.2884H32.2843H32.2803H32.2762H32.2722H32.2682H32.2641H32.2601H32.2561H32.2521H32.2482H32.2442H32.2402H32.2363H32.2323H32.2284H32.2244H32.2205H32.2166H32.2127H32.2088H32.2049H32.201H32.1972H32.1933H32.1894H32.1856H32.1817H32.1779H32.1741H32.1703H32.1665H32.1627H32.1589H32.1551H32.1513H32.1476H32.1438H32.1401H32.1363H32.1326H32.1289H32.1252H32.1215H32.1178H32.1141H32.1104H32.1067H32.1031H32.0994H32.0957H32.0921H32.0885H32.0849H32.0812H32.0776H32.074H32.0704H32.0669H32.0633H32.0597H32.0562H32.0526H32.0491H32.0456H32.042H32.0385H32.035H32.0315H32.028H32.0245H32.0211H32.0176H32.0141H32.0107H32.0073H32.0038H32.0004H31.997H31.9936H31.9902H31.9868H31.9834H31.98H31.9767H31.9733H31.9699H31.9666H31.9633H31.9599H31.9566H31.9533H31.95H31.9467H31.9434H31.9402H31.9369H31.9336H31.9304H31.9271H31.9239H31.9207H31.9174H31.9142H31.911H31.9078H31.9046H31.9015H31.8983H31.8951H31.892H31.8888H31.8857H31.8825H31.8794H31.8763H31.8732H31.8701H31.867H31.8639H31.8608H31.8578H31.8547H31.8517H31.8486H31.8456H31.8426H31.8395H31.8365H31.8335H31.8305H31.8275H31.8246H31.8216H31.8186H31.8157H31.8127H31.8098H31.8068H31.8039H31.801H31.7981H31.7952H31.7923H31.7894H31.7865H31.7837H31.7808H31.778H31.7751H31.7723H31.7695H31.7666H31.7638H31.761H31.7582H31.7554H31.7527H31.7499H31.7471H31.7444H31.7416H31.7389H31.7361H31.7334H31.7307H31.728H31.7253H31.7226H31.7199H31.7172H31.7145H31.7119H31.7092H31.7066H31.7039H31.7013H31.6987H31.6961H31.6934H31.6908H31.6883H31.6857H31.6831H31.6805H31.678H31.6754H31.6729H31.6703H31.6678H31.6653H31.6627H31.6602H31.6577H31.6552H31.6528H31.6503H31.6478H31.6454H31.6429H31.6405H31.638H31.6356H31.6332H31.6307H31.6283H31.6259H31.6235H31.6212H31.6188H31.6164H31.6141H31.6117H31.6094H31.607H31.6047H31.6024H31.6H31.5977H31.5954H31.5931H31.5909H31.5886H31.5863H31.584H31.5818H31.5795H31.5773H31.5751H31.5729H31.5706H31.5684H31.5662H31.564H31.5618H31.5597H31.5575H31.5553H31.5532H31.551H31.5489H31.5468H31.5446H31.5425H31.5404H31.5383H31.5362H31.5341H31.532H31.53H31.5279H31.5258H31.5238H31.5217H31.5197H31.5177H31.5157H31.5136H31.5116H31.5096H31.5076H31.5057H31.5037H31.5017H31.4998H31.4978H31.4959H31.4939H31.492H31.4901H31.4881H31.4862H31.4843H31.4824H31.4806H31.4787H31.4768H31.4749H31.4731H31.4712H31.4694H31.4676H31.4657H31.4639H31.4621H31.4603H31.4585H31.4567H31.4549H31.4531H31.4514H31.4496H31.4479H31.4461H31.4444H31.4426H31.4409H31.4392H31.4375H31.4358H31.4341H31.4324H31.4307H31.4291H31.4274H31.4257H31.4241H31.4224H31.4208H31.4192H31.4175H31.4159H31.4143H31.4127H31.4111H31.4095H31.408H31.4064H31.4048H31.4033H31.4017H31.4002H31.3986H31.3971H31.3956H31.3941H31.3926H31.3911H31.3896H31.3881H31.3866H31.3852H31.3837H31.3822H31.3808H31.3793H31.3779H31.3765H31.3751H31.3737H31.3722H31.3708H31.3695H31.3681H31.3667H31.3653H31.364H31.3626H31.3613H31.3599H31.3586H31.3573H31.3559H31.3546H31.3533H31.352H31.3507H31.3494H31.3482H31.3469H31.3456H31.3444H31.3431H31.3419H31.3406H31.3394H31.3382H31.337H31.3358H31.3346H31.3334H31.3322H31.331H31.3298H31.3287H31.3275H31.3264H31.3252H31.3241H31.323H31.3218H31.3207H31.3196H31.3185H31.3174H31.3163H31.3152H31.3142H31.3131H31.312H31.311H31.3099H31.3089H31.3079H31.3068H31.3058H31.3048H31.3038H31.3028H31.3018H31.3008H31.2999H31.2989H31.2979H31.297H31.296H31.2951H31.2941H31.2932H31.2923H31.2914H31.2905H31.2896H31.2887H31.2878H31.2869H31.286H31.2852H31.2843H31.2835H31.2826H31.2818H31.2809H31.2801H31.2793H31.2785H31.2777H31.2769H31.2761H31.2753H31.2745H31.2738H31.273H31.2722H31.2715H31.2707H31.27H31.2693H31.2685H31.2678H31.2671H31.2664H31.2657H31.265H31.2643H31.2637H31.263H31.2623H31.2617H31.261H31.2604H31.2597H31.2591H31.2585H31.2579H31.2573H31.2567H31.2561H31.2555H31.2549H30.9836L30.8055 8.54297C30.35 8.0191 29.6307 7.75014 28.8312 7.65715C28.0387 7.56497 27.2562 7.65735 26.7943 7.76732L26.6221 7.80833L26.4554 7.74858ZM43.7843 18.8932C43.4419 19.3144 42.9913 19.4755 42.5366 19.4871C42.55 19.6949 42.5816 19.9515 42.6413 20.2033C42.728 20.5694 42.8634 20.8788 43.046 21.0385C43.0766 21.0653 43.0981 21.0987 43.1103 21.1347C43.1559 21.1215 43.2276 21.0807 43.3188 20.9471C43.4255 20.7907 43.5228 20.5563 43.6008 20.2568C43.7152 19.8176 43.7686 19.3156 43.7843 18.8932ZM11.4802 12.3818C11.6804 12.1135 12.0241 11.7738 12.5926 11.4071C12.5238 11.5684 12.4667 11.7532 12.421 11.9613C12.3947 12.0813 12.4706 12.2 12.5906 12.2263C12.7107 12.2527 12.8293 12.1768 12.8557 12.0567C12.9839 11.4727 13.185 11.2111 13.374 11.1088C13.5577 11.0094 13.7998 11.0237 14.1066 11.1682C14.5978 11.3996 15.1346 11.9106 15.5616 12.4173C15.4323 12.3879 15.2978 12.3698 15.1582 12.3652C14.4092 12.3403 13.5781 12.7045 12.7091 13.6757C12.7049 13.6524 12.6969 13.6293 12.6848 13.6074C12.6255 13.4998 12.4901 13.4607 12.3825 13.5201C12.0035 13.7292 11.431 14.1412 10.9209 14.7083C10.4111 15.275 9.94959 16.0123 9.8223 16.8716C9.59317 18.4182 8.77027 19.5163 8.40683 19.857L8.39197 19.8709L8.37988 19.8873C8.29998 19.9958 8.208 20.1434 8.1174 20.3224C8.12451 19.9062 8.16276 19.3299 8.25568 18.7956C8.30773 18.4963 8.3741 18.227 8.45402 18.013C8.53869 17.7861 8.61635 17.6824 8.65447 17.6491L8.93314 17.4052L8.83773 17.0475C8.80394 16.9207 8.76226 16.6587 8.77567 16.3537C8.78909 16.0487 8.85568 15.7445 8.99922 15.4984C9.48827 14.66 10.0864 13.9454 10.9181 13.4976L11.2804 13.3025L11.226 12.8945C11.2267 12.8992 11.2268 12.8982 11.2277 12.8918C11.2324 12.8587 11.258 12.6796 11.4802 12.3818ZM8.11615 23.2757V23.2693C8.1269 23.2654 8.13718 23.2607 8.14695 23.2553C8.13599 23.3013 8.1257 23.3464 8.11615 23.3904V23.3889V23.3814V23.374V23.3665V23.359V23.3515V23.3439V23.3364V23.3289V23.3213V23.3137V23.3061V23.2985V23.2909V23.2833V23.2757ZM8.56166 28.1123C8.24912 27.6128 7.88983 26.6325 8.01327 25.0048C8.02221 25.1449 8.04318 25.2883 8.08511 25.438C8.22525 25.9385 8.5863 26.464 9.39356 27.1904C9.31925 27.2309 9.24016 27.2673 9.15609 27.2992C9.05282 27.3296 8.93717 27.3797 8.83434 27.4531C8.72906 27.5283 8.6236 27.6382 8.57383 27.7895C8.53887 27.8958 8.53556 28.0036 8.56166 28.1123ZM33.1244 27.1604L32.7891 27.0646C33.001 26.887 33.1927 26.6242 33.296 26.2553C33.774 26.0979 34.3979 25.9351 34.8592 25.9049C34.9824 25.8968 35.087 25.8988 35.1701 25.9104C35.2463 25.9211 35.2912 25.9381 35.3149 25.952C35.0485 26.2096 34.7743 26.3684 34.5187 26.4004L34.2232 26.4373L34.0755 26.6958C34.0184 26.7957 33.884 26.9617 33.702 27.0737C33.5346 27.1766 33.3477 27.2242 33.1244 27.1604ZM26.6937 6.57016C23.9276 5.62551 22.0455 6.18259 21.1373 6.90667C20.2548 6.52769 19.3637 6.65995 18.6322 6.96463C17.9445 7.25106 17.3553 7.70349 16.9502 8.10379C15.9838 7.98417 15.0503 8.29277 14.296 8.69469C13.4926 9.12276 12.8217 9.69332 12.4143 10.1254C11.4884 10.6452 10.8911 11.1796 10.5256 11.6696C10.286 11.9908 10.1303 12.3161 10.0675 12.6151C9.12626 13.2038 8.47062 14.0408 7.97045 14.8983C7.69865 15.3642 7.60454 15.8758 7.58581 16.3014C7.57397 16.5707 7.59153 16.8229 7.62251 17.0338C7.49919 17.2114 7.40798 17.4096 7.33823 17.5964C7.22344 17.9039 7.14148 18.2511 7.08228 18.5915C6.96379 19.2729 6.92514 19.9943 6.92514 20.4644V20.4685V20.4728V20.477V20.4813V20.4856V20.4899V20.4943V20.4987V20.5031V20.5075V20.512V20.5165V20.5211V20.5256V20.5302V20.5348V20.5395V20.5442V20.5489V20.5536V20.5583V20.5631V20.5679V20.5728V20.5776V20.5825V20.5875V20.5924V20.5974V20.6024V20.6074V20.6125V20.6175V20.6226V20.6278V20.6329V20.6381V20.6433V20.6486V20.6538V20.6591V20.6644V20.6697V20.6751V20.6805V20.6859V20.6913V20.6968V20.7023V20.7078V20.7133V20.7189V20.7245V20.7301V20.7357V20.7414V20.747V20.7527V20.7585V20.7642V20.77V20.7758V20.7816V20.7874V20.7933V20.7992V20.8051V20.811V20.817V20.8229V20.8289V20.835V20.841V20.8471V20.8531V20.8593V20.8654V20.8715V20.8777V20.8839V20.8901V20.8963V20.9026V20.9089V20.9152V20.9215V20.9278V20.9342V20.9406V20.947V20.9534V20.9598V20.9663V20.9727V20.9792V20.9858V20.9923V20.9989V21.0054V21.012V21.0186V21.0253V21.0319V21.0386V21.0453V21.052V21.0587V21.0654V21.0722V21.079V21.0858V21.0926V21.0994V21.1063V21.1131V21.12V21.1269V21.1339V21.1408V21.1477V21.1547V21.1617V21.1687V21.1757V21.1828V21.1898V21.1969V21.204V21.2111V21.2182V21.2253V21.2325V21.2396V21.2468V21.254V21.2612V21.2684V21.2757V21.2829V21.2902V21.2975V21.3048V21.3121V21.3194V21.3268V21.3341V21.3415V21.3489V21.3563V21.3637V21.3711V21.3785V21.386V21.3935V21.4009V21.4084V21.4159V21.4235V21.431V21.4385V21.4461V21.4537V21.4612V21.4688V21.4764V21.4841V21.4917V21.4993V21.507V21.5146V21.5223V21.53V21.5377V21.5454V21.5531V21.5609V21.5686V21.5764V21.5841V21.5919V21.5997V21.6075V21.6153V21.6231V21.6309V21.6388V21.6466V21.6545V21.6623V21.6702V21.6781V21.686V21.6939V21.7018V21.7097V21.7176V21.7256V21.7335V21.7415V21.7494V21.7574V21.7654V21.7734V21.7814V21.7894V21.7974V21.8054V21.8134V21.8215V21.8295V21.8376V21.8456V21.8537V21.8617V21.8698V21.8779V21.886V21.8941V21.9022V21.9103V21.9184V21.9265V21.9347V21.9428V21.9509V21.9591V21.9672V21.9754V21.9835V21.9917V21.9999V22.0081V22.0162V22.0244V22.0326V22.0408V22.049V22.0572V22.0654V22.0736V22.0818V22.0901V22.0983V22.1065V22.1147V22.123V22.1312V22.1395V22.1477V22.1559V22.1642V22.1724V22.1807V22.189V22.1972V22.2055V22.2137V22.222V22.2303V22.2386V22.2468V22.2551V22.2634V22.2717V22.2799V22.2882V22.2965V22.3048V22.3131V22.3214V22.3296V22.3379V22.3462V22.3545V22.3628V22.3711V22.3794V22.3877V22.396V22.4043V22.4125V22.4208V22.4291V22.4374V22.4457V22.454V22.4623V22.4705V22.4788V22.4871V22.4954V22.5037V22.512V22.5202V22.5285V22.5368V22.545V22.5533V22.5616V22.5698V22.5781V22.5864V22.5946V22.6029V22.6111V22.6194V22.6276V22.6359V22.6441V22.6523V22.6606V22.6688V22.677V22.6852V22.6935V22.7017V22.7099V22.7181V22.7263V22.7345V22.7427V22.7509V22.7591V22.7672V22.7754V22.7836V22.7917V22.7999V22.808V22.8162V22.8243V22.8325V22.8406V22.8487V22.8568V22.8649V22.8731V22.8812V22.8892V22.8973V22.9054V22.9135V22.9215V22.9296V22.9377V22.9457V22.9537V22.9618V22.9698V22.9778V22.9858V22.9938V23.0018V23.0098V23.0178V23.0257V23.0337V23.0416V23.0496V23.0575V23.0654V23.0733V23.0813V23.0892V23.097V23.1049V23.1128V23.1206V23.1285V23.1363V23.1442V23.152V23.1598V23.1676V23.1754V23.1832V23.1909V23.1987V23.2064V23.2142V23.2219V23.2296V23.2373V23.245V23.2527V23.2604V23.268V23.2757V23.2833V23.2909V23.2985V23.3061V23.3137V23.3213V23.3289V23.3364V23.3439V23.3515V23.359V23.3665V23.374V23.3814V23.3889V23.3963V23.4038V23.4112V23.4186V23.426V23.4334V23.4407V23.4481V23.4554V23.4627V23.47V23.4773V23.4846V23.4919V23.4991V23.5063V23.5136V23.5208V23.5279V23.5351V23.5423V23.5494V23.5565V23.5636V23.5707V23.5778V23.5849V23.5919V23.5989V23.606V23.6129V23.6199V23.6269V23.6338V23.6408V23.6477V23.6546V23.6614V23.6683V23.6751V23.682V23.6888V23.6955V23.7023V23.7091V23.7158V23.7225V23.7292V23.7359V23.7425V23.7492V23.7558V23.7624V23.769V23.7756V23.7821V23.7886V23.7951V23.8016V23.8081V23.8145V23.821V23.8274V23.8338V23.8401V23.8465V23.8528V23.8591V23.8654V23.8717V23.8779V23.8841V23.8903V23.8965V23.9027V23.9088V23.9149V23.921V23.9271V23.9331V23.9392V23.9452V23.9512V23.9571V23.9631V23.969V23.9749V23.9808V23.9866V23.9924V23.9982V24.004V24.0098V24.0155V24.0212V24.0269V24.0326V24.0382V24.0438V24.0494V24.0528C6.52604 26.6626 7.14049 28.3242 7.82269 29.1187C7.75035 29.3147 7.71547 29.5146 7.71884 29.7156C7.72488 30.0748 7.85199 30.3861 8.01772 30.6369C8.32495 31.1017 8.8049 31.4224 9.15747 31.5916C9.27055 31.6711 9.39938 31.8227 9.52165 32.0307C9.64734 32.2444 9.7331 32.4611 9.76992 32.5808L9.80766 32.7034L9.89256 32.7996C10.4868 33.4732 11.2118 33.6318 11.8515 33.5296C12.2448 33.4668 12.5986 33.3085 12.8791 33.1324C12.7076 34.0051 12.7199 34.7441 12.9046 35.3605C13.1577 36.2049 13.7139 36.7508 14.3931 37.0617C15.0512 37.3629 15.8108 37.4396 16.5191 37.4083C17.186 37.3789 17.8465 37.2519 18.4062 37.0894C19.5543 37.1805 20.3983 36.5021 21.0117 35.8793C21.2046 35.6835 21.4074 35.4574 21.5913 35.2522C21.6996 35.1314 21.8014 35.0179 21.8908 34.9222C22.1204 34.6761 22.307 34.5023 22.4696 34.3948C24.9793 34.1315 26.6946 32.8379 27.4467 31.9796C29.1901 32.0132 30.4577 30.9139 31.0157 30.1893C32.03 29.9328 32.6997 29.5404 33.1055 29.0796C33.3062 28.8516 33.4388 28.609 33.5118 28.3707C33.8223 28.3382 34.0977 28.2285 34.326 28.0882C34.5887 27.9266 34.7976 27.7204 34.9477 27.5269C35.4878 27.3816 35.9286 27.0357 36.2498 26.7007C36.632 26.3022 36.9113 25.8507 37.0586 25.5414L37.1036 25.4469C37.1544 25.4038 37.2444 25.3382 37.3921 25.2541C37.786 25.03 38.502 24.7241 39.7255 24.3746C41.0192 24.0049 41.9424 23.5616 42.5773 23.1416C43.0438 22.8329 43.3855 22.516 43.5901 22.2268C43.9011 22.097 44.1343 21.865 44.3025 21.6185C44.5167 21.3046 44.6577 20.9244 44.7534 20.557C44.9343 19.862 44.9857 19.0842 44.9799 18.5432C45.2635 17.5228 44.8921 16.5909 44.4767 15.8449C44.3045 15.5358 44.1087 15.2315 43.9303 14.9545L43.9303 14.9544L43.9303 14.9544C43.8856 14.8851 43.8421 14.8175 43.8004 14.752C43.5821 14.4095 43.4093 14.1202 43.3018 13.859C43.0333 13.2069 42.4802 12.6767 41.9696 12.2944C41.533 11.9676 41.0764 11.7111 40.7273 11.5466C40.1103 10.4946 39.1437 9.75025 38.2119 9.24549C37.2772 8.73916 36.3304 8.4481 35.688 8.3259C34.926 7.89793 34.3804 7.68985 33.8787 7.6026C33.5011 7.53693 33.1461 7.54484 32.8151 7.55221C32.713 7.55449 32.6132 7.55671 32.5158 7.55671H32.5113H32.5068H32.5023H32.4978H32.4933H32.4888H32.4844H32.4799H32.4755H32.471H32.4666H32.4622H32.4578H32.4534H32.449H32.4446H32.4402H32.4358H32.4315H32.4271H32.4228H32.4184H32.4141H32.4098H32.4055H32.4012H32.3969H32.3926H32.3884H32.3841H32.3798H32.3756H32.3713H32.3671H32.3629H32.3587H32.3545H32.3503H32.3461H32.3419H32.3377H32.3336H32.3294H32.3253H32.3212H32.317H32.3129H32.3088H32.3047H32.3006H32.2965H32.2924H32.2884H32.2843H32.2803H32.2762H32.2722H32.2682H32.2641H32.2601H32.2561H32.2521H32.2482H32.2442H32.2402H32.2363H32.2323H32.2284H32.2244H32.2205H32.2166H32.2127H32.2088H32.2049H32.201H32.1972H32.1933H32.1894H32.1856H32.1817H32.1779H32.1741H32.1703H32.1665H32.1627H32.1589H32.1551H32.1513H32.1476H32.1438H32.1401H32.1363H32.1326H32.1289H32.1252H32.1215H32.1178H32.1141H32.1104H32.1067H32.1031H32.0994H32.0957H32.0921H32.0885H32.0849H32.0812H32.0776H32.074H32.0704H32.0669H32.0633H32.0597H32.0562H32.0526H32.0491H32.0456H32.042H32.0385H32.035H32.0315H32.028H32.0245H32.0211H32.0176H32.0141H32.0107H32.0073H32.0038H32.0004H31.997H31.9936H31.9902H31.9868H31.9834H31.98H31.9767H31.9733H31.9699H31.9666H31.9633H31.9599H31.9566H31.9533H31.95H31.9467H31.9434H31.9402H31.9369H31.9336H31.9304H31.9271H31.9239H31.9207H31.9174H31.9142H31.911H31.9078H31.9046H31.9015H31.8983H31.8951H31.892H31.8888H31.8857H31.8825H31.8794H31.8763H31.8732H31.8701H31.867H31.8639H31.8608H31.8578H31.8547H31.8517H31.8486H31.8456H31.8426H31.8395H31.8365H31.8335H31.8305H31.8275H31.8246H31.8216H31.8186H31.8157H31.8127H31.8098H31.8068H31.8039H31.801H31.7981H31.7952H31.7923H31.7894H31.7865H31.7837H31.7808H31.778H31.7751H31.7723H31.7695H31.7666H31.7638H31.761H31.7582H31.7554H31.7527H31.7499H31.7471H31.7444H31.7416H31.7389H31.7361H31.7334H31.7307H31.728H31.7253H31.7226H31.7199H31.7172H31.7145H31.7119H31.7092H31.7066H31.7039H31.7013H31.6987H31.6961H31.6934H31.6908H31.6883H31.6857H31.6831H31.6805H31.678H31.6754H31.6729H31.6703H31.6678H31.6653H31.6627H31.6602H31.6577H31.6552H31.6528H31.6503H31.6478H31.6454H31.6429H31.6405H31.638H31.6356H31.6332H31.6307H31.6283H31.6259H31.6235H31.6212H31.6188H31.6164H31.6141H31.6117H31.6094H31.607H31.6047H31.6024H31.6H31.5977H31.5954H31.5931H31.5909H31.5886H31.5863H31.584H31.5818H31.5795H31.5773H31.5751H31.5729H31.5706H31.5684H31.5662H31.564H31.5618H31.5597H31.5575H31.5553H31.5532H31.551H31.5489H31.5468H31.5446H31.5425H31.5404H31.5383H31.5362H31.5341H31.532H31.53H31.5279H31.5258H31.5238H31.5217H31.5197H31.5177H31.5157H31.5136H31.5116H31.5098C30.7926 6.8647 29.8317 6.57447 28.9688 6.47411C28.1096 6.37417 27.2724 6.45275 26.6937 6.57016ZM13.5342 32.6653L13.5309 32.6663L13.5335 32.6655C13.534 32.6653 13.5342 32.6653 13.5342 32.6653ZM10.8574 16.8849C10.8468 16.7625 10.7389 16.6719 10.6165 16.6825C10.4941 16.6932 10.4034 16.8011 10.4141 16.9235C10.4664 17.5245 10.8142 18.9913 11.8006 20.1626C12.3897 20.8622 12.8636 21.501 13.1982 22.0618C13.5355 22.6269 13.7192 23.0931 13.7518 23.4513C13.7817 23.7806 13.8468 24.1032 13.9401 24.3991C13.8677 24.3856 13.7901 24.4083 13.7363 24.4663C13.2225 25.0186 12.631 25.9548 12.5646 26.9674C12.531 27.4794 12.6321 28.0112 12.9454 28.5145C13.2572 29.0155 13.7701 29.474 14.5371 29.8582C14.4204 30.0107 14.3175 30.1679 14.2369 30.326C14.0791 30.6351 13.9892 30.9815 14.0898 31.313C14.193 31.653 14.477 31.9154 14.9304 32.0935C15.2252 32.2093 15.4971 32.2338 15.7525 32.1783C16.0051 32.1235 16.2233 31.9945 16.4188 31.8333C16.6132 31.6729 16.794 31.4732 16.9699 31.2667C17.0336 31.1918 17.0961 31.1169 17.1587 31.0417C17.2736 30.9038 17.3891 30.7652 17.514 30.6255C17.8946 30.1995 18.3188 29.8151 18.8831 29.6136C19.4427 29.4138 20.1688 29.3839 21.1705 29.7237C22.8423 30.2909 23.8884 30.3542 24.5197 30.1575C24.8423 30.0569 25.0645 29.8856 25.1948 29.6731C25.3239 29.4626 25.3503 29.2318 25.3185 29.0328C25.2991 28.9115 25.185 28.8288 25.0636 28.8483C24.9423 28.8677 24.8597 28.9818 24.8791 29.1031C24.8967 29.2132 24.8811 29.3335 24.8155 29.4405C24.7511 29.5455 24.626 29.6582 24.3873 29.7326C23.8962 29.8857 22.9644 29.8624 21.3135 29.3023C20.2384 28.9375 19.407 28.954 18.7334 29.1945C18.0647 29.4334 17.5803 29.8834 17.1822 30.3289C17.0527 30.4738 16.9276 30.6238 16.8093 30.7658L16.8092 30.766C16.7479 30.8395 16.6884 30.9108 16.6311 30.9782C16.4581 31.1813 16.2982 31.3559 16.1357 31.4899C15.9743 31.623 15.8193 31.7084 15.6581 31.7434C15.4998 31.7778 15.3175 31.7675 15.0931 31.6793C14.7157 31.5311 14.5658 31.3491 14.5156 31.1837C14.4628 31.0098 14.4999 30.7897 14.6333 30.5283C14.901 30.0036 15.4874 29.4499 15.9604 29.0982C16.059 29.0249 16.0795 28.8855 16.0061 28.7869C15.9328 28.6883 15.7934 28.6678 15.6948 28.7411C15.4235 28.9428 15.1031 29.2171 14.8177 29.5261C14.7978 29.5001 14.7717 29.478 14.7404 29.4623C14.0264 29.1053 13.5826 28.6961 13.3232 28.2794C13.0648 27.8642 12.9804 27.4271 13.0087 26.9965C13.0659 26.124 13.5869 25.2802 14.0621 24.7694C14.0657 24.7655 14.0691 24.7615 14.0724 24.7575C14.2047 25.0661 14.37 25.3291 14.5577 25.5169C14.6446 25.6038 14.7855 25.6038 14.8724 25.5169C14.9593 25.43 14.9593 25.2891 14.8724 25.2022C14.552 24.8817 14.2665 24.198 14.195 23.411C14.1534 22.9533 13.9292 22.4182 13.5804 21.8337C13.2289 21.2448 12.7386 20.5857 12.141 19.876C11.2287 18.7926 10.9041 17.4211 10.8574 16.8849ZM25.3174 21.3218C25.3404 21.2011 25.2611 21.0846 25.1404 21.0616C25.0197 21.0386 24.9032 21.1178 24.8802 21.2385C24.8236 21.5357 24.783 21.7665 24.7506 21.9505L24.7221 22.1114C24.6849 22.3195 24.659 22.4495 24.6258 22.5613C24.5644 22.7685 24.4772 22.9211 24.2118 23.3852L24.1639 23.469C23.6761 24.3227 23.4964 25.0546 23.4682 25.3374C23.4559 25.4596 23.5451 25.5687 23.6674 25.5809C23.7897 25.5931 23.8987 25.5039 23.911 25.3816C23.9321 25.1699 24.0887 24.4976 24.5503 23.6898L24.6171 23.573L24.6172 23.5729L24.6172 23.5729C24.8609 23.1473 24.9758 22.9465 25.0525 22.6877C25.0936 22.5492 25.1232 22.3964 25.1602 22.1897L25.1892 22.0258C25.2215 21.8421 25.2614 21.6155 25.3174 21.3218ZM31.4278 21.1402C31.3505 21.0447 31.2104 21.0299 31.1148 21.1072C31.0193 21.1846 31.0046 21.3247 31.0819 21.4202C31.4431 21.8664 31.9787 23.2596 30.8454 25.0164C30.5893 25.4132 30.3206 25.6515 30.0604 25.7842C29.8015 25.9163 29.5379 25.9506 29.2789 25.9194C28.655 25.844 28.0582 25.3859 27.7142 24.9909C27.6335 24.8982 27.4929 24.8885 27.4002 24.9692C27.3076 25.0499 27.2979 25.1905 27.3786 25.2831C27.7392 25.6972 28.3834 26.2172 29.1196 26.3455L30.3259 28.224C30.3923 28.3274 30.53 28.3574 30.6334 28.291C30.7368 28.2246 30.7668 28.0869 30.7004 27.9835L29.66 26.3635C29.8604 26.3405 30.0629 26.2825 30.2626 26.1806C30.6071 26.0049 30.9304 25.7055 31.2193 25.2576C32.4594 23.3355 31.9072 21.7323 31.4278 21.1402ZM29.9399 22.2414C30.0202 22.1483 30.0099 22.0078 29.9168 21.9276C29.8238 21.8473 29.6833 21.8576 29.603 21.9507C28.3161 23.4423 27.2445 24.0278 26.4511 24.1805C25.6614 24.3326 25.1326 24.0606 24.8914 23.7994C24.8081 23.7091 24.6673 23.7034 24.577 23.7868C24.4867 23.8701 24.4811 24.0109 24.5644 24.1012C24.9167 24.4828 25.6042 24.7967 26.5352 24.6175C27.4625 24.439 28.616 23.7759 29.9399 22.2414ZM17.9823 25.5677C17.7927 25.6656 17.6063 25.7531 17.43 25.8275C17.0817 25.9746 16.7545 26.0785 16.5153 26.1003C16.1077 26.1373 15.6707 26.1913 15.3026 26.3283C14.9378 26.464 14.671 26.6693 14.5533 26.9931C14.5113 27.1086 14.3837 27.1682 14.2682 27.1262C14.1527 27.0842 14.0931 26.9565 14.1351 26.841C14.314 26.3489 14.7148 26.0721 15.1474 25.9112C15.5766 25.7515 16.0667 25.6942 16.475 25.6571C16.6436 25.6417 16.9191 25.5602 17.2569 25.4176C17.5891 25.2773 17.964 25.0855 18.3259 24.8638C18.6882 24.6418 19.0325 24.3931 19.3063 24.1403C19.5842 23.8836 19.771 23.6396 19.8457 23.4304C20.1663 22.5328 20.756 22.2444 21.0936 22.2444C21.1473 22.2444 21.1965 22.2634 21.235 22.295C21.1868 22.0667 21.1406 21.8669 21.1031 21.7162C21.0509 21.5736 20.9961 21.4388 20.9392 21.3114C20.9258 21.4718 20.8925 21.6466 20.8313 21.8103C20.7581 22.006 20.6372 22.2056 20.4417 22.3327C20.2378 22.4652 19.9841 22.4985 19.6939 22.4148C19.4114 22.3333 19.0904 22.1408 18.722 21.8185L18.7164 21.8136L18.7112 21.8083C18.2786 21.3758 17.6733 20.6378 17.2573 19.8198C16.8942 19.1059 16.6514 18.283 16.856 17.5431C16.6907 17.5136 16.5071 17.4591 16.3341 17.3681C16.0357 17.2113 15.7559 16.9376 15.6823 16.4957C15.6739 16.4455 15.6498 16.3874 15.6101 16.3257L15.5299 15.6355C15.8159 15.8304 16.0695 16.1122 16.1213 16.4226C16.1663 16.6928 16.3315 16.864 16.5412 16.9742C16.7568 17.0875 17.0052 17.1267 17.1626 17.1267H17.5094L17.3649 17.4419C17.0828 18.0573 17.2587 18.8408 17.6539 19.618C18.0422 20.3815 18.613 21.0797 19.0206 21.4884C19.3616 21.7858 19.6235 21.9313 19.8172 21.9872C20.0043 22.0412 20.1206 22.0106 20.1992 21.9595C20.2861 21.903 20.3602 21.7995 20.4145 21.6544C20.4681 21.5112 20.4949 21.3465 20.5004 21.1978C20.505 21.075 20.6082 20.9791 20.731 20.9836C20.7495 20.9843 20.7673 20.9872 20.7843 20.9921C20.1005 19.6921 19.2025 19.3104 18.8475 19.2766L18.4048 19.2344L18.7039 18.9054C18.8141 18.7842 18.9018 18.5847 18.9605 18.3132C19.0183 18.0457 19.0432 17.7305 19.0447 17.4001C19.0477 16.7393 18.9571 16.0459 18.8726 15.6116C18.8492 15.491 18.928 15.3741 19.0486 15.3507C19.1692 15.3272 19.286 15.406 19.3095 15.5266C19.3981 15.9824 19.4929 16.7056 19.4897 17.4021C19.4881 17.7503 19.4621 18.0989 19.3955 18.4072C19.3571 18.5846 19.3037 18.7565 19.2289 18.9097C19.9029 19.1359 20.9068 19.8743 21.5253 21.575L21.5292 21.5858L21.532 21.597C21.6806 22.1913 21.9837 23.6238 21.9837 24.5436C21.9837 24.6665 21.884 24.7661 21.7612 24.7661C21.6383 24.7661 21.5386 24.6665 21.5386 24.5436C21.5386 23.9867 21.417 23.2094 21.291 22.5697C21.2539 22.6408 21.1794 22.6894 21.0936 22.6894C20.9863 22.6894 20.5376 22.8163 20.2648 23.5801C20.1541 23.89 19.9051 24.1931 19.6082 24.4672C19.3072 24.7452 18.9376 25.0109 18.5583 25.2433C18.5341 25.2581 18.5099 25.2727 18.4857 25.2873C18.5066 25.3485 18.5008 25.4183 18.4639 25.4774C18.4413 25.5135 18.3902 25.6589 18.4402 25.9269C18.4889 26.1881 18.6323 26.5526 18.9724 27.0061C19.0461 27.1044 19.0262 27.2438 18.9279 27.3176C18.8296 27.3913 18.6901 27.3714 18.6164 27.2731C18.2444 26.7771 18.0665 26.3505 18.0027 26.0085C17.972 25.8442 17.9673 25.6956 17.9823 25.5677ZM21.097 25.3209L20.9518 26.1449C20.8574 26.2287 20.7116 26.265 20.5129 26.2481C20.29 26.2291 20.0468 26.1449 19.8581 26.0505C19.7482 25.9956 19.6145 26.0401 19.5596 26.15C19.5046 26.2599 19.5492 26.3936 19.6591 26.4486C19.8809 26.5595 20.1796 26.6663 20.4751 26.6915C20.7201 26.7124 20.9967 26.6786 21.2127 26.5072C21.8961 26.7689 22.7838 27.1881 23.3898 27.6519C23.7167 27.902 23.9312 28.1426 24.0104 28.3534C24.0479 28.453 24.0531 28.5403 24.0315 28.6209C24.0095 28.7028 23.9545 28.7978 23.8379 28.9022C23.7463 28.9841 23.7385 29.1248 23.8204 29.2163C23.9024 29.3079 24.043 29.3157 24.1346 29.2338C24.2998 29.086 24.412 28.92 24.4613 28.7362C24.5109 28.5511 24.4914 28.3681 24.427 28.1968C24.3025 27.8656 24.0046 27.562 23.6603 27.2985C23.0389 26.8229 22.1665 26.4044 21.4782 26.133C21.5579 25.9198 21.577 25.6523 21.5369 25.3319L21.097 25.3209ZM26.0573 28.8696C26.0422 28.8042 26.0347 28.7348 26.0386 28.6778C26.041 28.6423 26.047 28.6224 26.0509 28.6127C26.0581 28.6127 26.0696 28.6136 26.0867 28.617C26.1537 28.6304 26.2688 28.6778 26.4459 28.7993C27.0701 29.335 28.7048 30.0666 30.3521 28.7993C30.4495 28.7244 30.4678 28.5847 30.3928 28.4873C30.3179 28.3899 30.1782 28.3717 30.0808 28.4466C28.6514 29.5461 27.2486 28.9076 26.7282 28.4551L26.7189 28.447L26.7088 28.44C26.5057 28.2994 26.329 28.2117 26.1741 28.1807C26.0108 28.1479 25.8507 28.1765 25.735 28.2951C25.6321 28.4006 25.6019 28.5406 25.5946 28.6474C25.5869 28.7596 25.6017 28.8744 25.6237 28.9697C25.6513 29.0894 25.7708 29.1641 25.8905 29.1365C26.0103 29.1088 26.0849 28.9893 26.0573 28.8696ZM26.0405 28.6141C26.0404 28.614 26.0414 28.6135 26.0437 28.6132C26.0418 28.6141 26.0406 28.6142 26.0405 28.6141ZM10.4846 29.6262C10.4652 29.5048 10.3511 29.4222 10.2297 29.4416C10.1084 29.461 10.0258 29.5751 10.0452 29.6965C10.1032 30.0589 10.3345 30.5446 10.8402 30.8479C11.3513 31.1544 12.1022 31.251 13.1518 30.9114C13.2687 30.8736 13.3329 30.7481 13.295 30.6312C13.2572 30.5143 13.1317 30.4502 13.0148 30.488C12.047 30.8011 11.4381 30.6876 11.0691 30.4662C10.6946 30.2417 10.5255 29.8818 10.4846 29.6262ZM24.5628 31.2295C24.6096 31.1159 24.5555 30.9859 24.4419 30.939C24.3283 30.8922 24.1982 30.9463 24.1514 31.0599C23.9089 31.6479 23.483 31.9789 23.042 32.1574C22.7705 32.2672 22.4952 32.3182 22.2592 32.3335C22.3305 32.2273 22.401 32.1168 22.4707 32.0016L22.0959 31.7619L21.6542 32.4165C20.4277 34.0405 19.0999 34.3171 18.5964 34.2612C18.4743 34.2476 18.3643 34.3356 18.3507 34.4578C18.3371 34.5799 18.4252 34.6899 18.5473 34.7035C19.2229 34.7786 20.6531 34.4225 21.9371 32.7787C22.2756 32.8002 22.7459 32.7573 23.209 32.5699C23.7403 32.3549 24.267 31.9469 24.5628 31.2295ZM20.2339 8.28485C20.3072 8.1862 20.2866 8.04682 20.1879 7.97354C20.0893 7.90026 19.9499 7.92082 19.8766 8.01947L18.7704 9.5086C18.7427 9.43179 18.726 9.36348 18.718 9.3074C18.7006 9.18575 18.5879 9.10122 18.4662 9.1186C18.3446 9.13598 18.26 9.24869 18.2774 9.37034C18.3049 9.56289 18.3893 9.80338 18.5445 10.0505C18.9046 10.6243 19.6493 11.2407 20.991 11.4138L21.2043 11.4411C22.2201 11.5707 23.4271 11.7247 24.2913 12.1191C24.7506 12.3288 25.0803 12.5924 25.2424 12.9259C25.3998 13.2495 25.4204 13.6831 25.1699 14.2852L24.6817 15.1644L25.0608 15.3968C25.2136 15.1701 25.3413 14.9544 25.4453 14.7491L26.2108 15.4378C26.3022 15.52 26.4429 15.5126 26.5251 15.4213C26.6073 15.3299 26.5998 15.1892 26.5085 15.107L25.6342 14.3204C25.8645 13.6976 25.8561 13.1703 25.6426 12.7313C25.4163 12.2658 24.9805 11.9445 24.4761 11.7143C23.5468 11.2901 22.2738 11.1284 21.2758 11.0015L21.0479 10.9724C19.938 10.8292 19.3223 10.3623 19.0061 9.9376L20.2339 8.28485ZM18.8761 12.1574C18.7533 12.1533 18.6503 12.2495 18.6462 12.3723C18.642 12.4951 18.7382 12.598 18.861 12.6022C19.5405 12.6252 20.5365 12.9283 21.29 13.7638C22.0364 14.5915 22.5714 15.9719 22.2831 18.2032C22.2054 18.5974 22.1636 19.2174 22.2886 19.8232C22.4145 20.4328 22.718 21.0632 23.3634 21.4029C23.4722 21.4601 23.6067 21.4184 23.664 21.3096C23.7212 21.2009 23.6794 21.0663 23.5707 21.0091C23.0888 20.7555 22.836 20.2733 22.7245 19.7332C22.6282 19.267 22.6438 18.7838 22.6946 18.4366C23.3996 18.342 24.0114 18.3422 24.5304 18.3873C24.8846 18.525 25.6586 19.1071 25.7671 20.4086C25.7773 20.5311 25.8848 20.6221 26.0073 20.6119C26.1298 20.6017 26.2208 20.4941 26.2106 20.3717C26.1396 19.5204 25.8145 18.9192 25.4548 18.5248C25.6383 18.5635 25.8027 18.6049 25.9479 18.6443C26.0359 18.6681 26.117 18.6911 26.1917 18.7125L26.2242 18.7218L26.2245 18.7219C26.2863 18.7397 26.3445 18.7563 26.3973 18.7708C26.5126 18.8023 26.6332 18.8326 26.7305 18.8326C26.7438 18.8326 26.7973 18.8442 26.8988 18.9013C26.992 18.9537 27.0999 19.0295 27.213 19.1186C27.4386 19.2963 27.6654 19.5117 27.8042 19.655L27.8171 19.6683L27.8321 19.6793C28.128 19.8972 28.6278 20.0678 29.1476 19.8348C29.6636 19.6034 30.1279 19.0052 30.4317 17.8508C30.6781 16.9143 31.0141 16.3749 31.3327 16.0766C31.7553 15.6812 32.1594 15.6959 32.3589 15.7757C32.473 15.8213 32.6025 15.7658 32.6482 15.6517C32.6938 15.5376 32.6383 15.4082 32.5242 15.3625C32.2435 15.2502 31.8356 15.2404 31.4168 15.4681C31.3623 15.1992 31.2105 14.874 30.9011 14.5302C30.8188 14.4389 30.6782 14.4315 30.5868 14.5137C30.4955 14.5959 30.4881 14.7366 30.5703 14.8279C31.0128 15.3196 31.0109 15.6781 30.987 15.7917C30.6039 16.1694 30.2521 16.7847 30.0013 17.7376C29.7117 18.8379 29.3015 19.2781 28.9656 19.4287C28.6407 19.5743 28.3183 19.4784 28.11 19.3311C27.9604 19.1779 27.726 18.9563 27.4884 18.769C27.3892 18.6909 27.2862 18.6162 27.1863 18.5544C27.3998 18.3857 27.6416 18.1689 27.8672 17.9193C28.2208 17.528 28.5551 17.0338 28.6551 16.5002C28.6778 16.3794 28.5982 16.2631 28.4774 16.2404C28.3566 16.2178 28.2404 16.2974 28.2177 16.4181C28.1398 16.8339 27.8683 17.2544 27.5371 17.6209C27.2377 17.9521 26.9063 18.2208 26.6739 18.3803C26.6381 18.3735 26.5869 18.3612 26.5147 18.3415C26.4646 18.3278 26.4093 18.3119 26.347 18.2941L26.3142 18.2847C26.239 18.2632 26.1554 18.2394 26.0642 18.2147C25.6981 18.1156 25.2092 18.002 24.5997 17.9467C24.0735 17.8989 23.4592 17.8948 22.757 17.98C22.9799 15.8086 22.4384 14.3727 21.6204 13.4657C20.7731 12.5261 19.6553 12.1839 18.8761 12.1574ZM33.8938 13.9416C33.7732 13.9178 33.6562 13.9963 33.6325 14.1169C33.6087 14.2375 33.6872 14.3545 33.8078 14.3782C34.3547 14.4859 34.9482 14.8394 35.0864 15.5215C35.2253 16.207 34.93 17.3226 33.4693 19.0157L32.4814 18.8362C32.3605 18.8142 32.2446 18.8944 32.2226 19.0153C32.2007 19.1362 32.2809 19.252 32.4018 19.274L33.3684 19.4497L33.6334 20.6602C33.6597 20.7803 33.7783 20.8563 33.8984 20.83C34.0184 20.8037 34.0944 20.6851 34.0681 20.5651L33.7954 19.319C35.2885 17.5921 35.7045 16.3313 35.5226 15.4332C35.3344 14.5043 34.5336 14.0676 33.8938 13.9416ZM15.2793 16.0033C15.4328 16.1079 15.5434 16.222 15.6101 16.3257L16.2892 22.1673C14.5249 20.6678 13.8104 18.4869 13.6748 17.5428C13.5854 16.7884 13.6863 16.3344 13.8478 16.0767C14.0011 15.8321 14.227 15.736 14.4833 15.736C14.7492 15.736 15.0424 15.842 15.2793 16.0033ZM16.2892 22.1673L16.362 22.7935C16.5517 22.9358 16.8327 23.1745 17.0563 23.4239C17.1685 23.5489 17.2602 23.6701 17.3195 23.778C17.3818 23.8913 17.392 23.9604 17.3874 23.993C17.37 24.1146 17.4545 24.2273 17.5762 24.2447C17.6979 24.2621 17.8106 24.1776 17.8279 24.0559C17.853 23.8808 17.7884 23.707 17.7095 23.5635C17.6275 23.4145 17.5116 23.265 17.3876 23.1268C17.1392 22.8498 16.8345 22.5916 16.6286 22.4372L16.6278 22.4366C16.5109 22.3497 16.3981 22.2598 16.2892 22.1673ZM41.2451 20.0132C41.3647 19.9848 41.4385 19.8648 41.41 19.7452C41.3816 19.6257 41.2616 19.5519 41.142 19.5803C40.8086 19.6597 40.2724 19.8683 39.9165 20.2352C39.6746 20.4846 39.5046 20.8212 39.5641 21.2375L39.9938 21.281L40.1871 20.7407C40.3424 20.8659 40.5047 21.0289 40.6224 21.2128C40.7972 21.4861 40.8574 21.7742 40.701 22.0647C40.6427 22.1729 40.6832 22.3078 40.7914 22.3661C40.8996 22.4244 41.0345 22.3839 41.0928 22.2757C41.3517 21.7948 41.2249 21.3289 40.9972 20.973C40.8424 20.7309 40.6337 20.5255 40.4393 20.3727C40.6986 20.1887 41.0179 20.0673 41.2451 20.0132ZM30.35 19.6188C30.2517 19.545 30.1122 19.565 30.0385 19.6633C29.9647 19.7616 29.9847 19.901 30.083 19.9748C30.6709 20.4157 31.5409 21.1281 32.2393 21.8302C32.5892 22.1819 32.8893 22.5244 33.0896 22.8241C33.1897 22.974 33.2605 23.1067 33.3012 23.2195C33.3426 23.3341 33.3468 23.411 33.3365 23.4586L33.1636 24.2656L33.7188 23.6549C33.9651 23.3839 34.5347 22.7198 34.7857 22.2806C35.0246 21.8625 35.4522 21.651 36.3029 21.651C36.7444 21.651 37.1657 21.6366 37.5368 21.5143C37.921 21.3876 38.2425 21.1489 38.4925 20.7258C38.555 20.62 38.52 20.4836 38.4142 20.4211C38.3084 20.3586 38.1719 20.3936 38.1094 20.4994C37.9144 20.8294 37.6796 20.9986 37.3974 21.0916C37.1021 21.189 36.7469 21.206 36.3029 21.206C35.3824 21.206 34.7537 21.4395 34.3993 22.0598C34.2468 22.3266 33.9484 22.7048 33.6953 23.005C33.638 22.8659 33.5565 22.7219 33.4596 22.5769C33.2362 22.2425 32.9132 21.8766 32.5548 21.5163C31.8366 20.7944 30.9488 20.0679 30.35 19.6188Z" fill="white"/>
</g>
</g>
</g>
</g>
</svg>
