<svg width="58" height="64" viewBox="0 0 58 64" fill="none" xmlns="http://www.w3.org/2000/svg">
<g id="Group 1171275517">
<g id="Group 1171275524">
<g id="Group 1171275513">
<path id="Vector 85" d="M8.21149 61.7197C9.91118 59.4252 13.9904 49.482 8.80638 42.3433C4.65913 36.6323 3.05118 34.7796 2.34755 30.1055C0.443894 17.4598 6.8234 9.42591 10.2511 6.98969C20.7892 -1.64474 34.3017 1.69232 39.7408 4.44015C45.3497 7.4996 48.3808 13.7035 49.174 16.7629C50.7887 21.947 50.8737 24.1282 50.5338 24.8364C49.8539 27.131 51.2248 28.4908 52.0635 29.6806C53.4233 31.6095 55.4289 34.4397 55.6329 34.7796C55.8878 35.2046 56.3127 35.8844 55.6329 36.9043C54.953 37.9241 53.9332 38.434 53.1683 38.6889C52.4035 38.9439 52.0635 39.0289 52.0635 39.8787C52.0635 40.7286 52.4884 40.3886 52.7434 41.4084C52.9474 42.2243 51.6386 43.0515 50.9587 43.3631C52.4035 44.3829 51.5536 45.5727 50.9587 46.0826C50.3638 46.5925 50.2788 47.6123 50.5338 48.3772C50.7887 49.142 51.4686 49.8219 50.5338 52.2015C48.4091 55.4309 44.4999 54.4961 42.6302 54.836C40.7606 55.1759 38.126 55.4309 38.211 57.6405C38.279 59.4082 37.8428 61.0965 37.6161 61.7197" stroke="white" stroke-width="2.59374" stroke-linecap="round"/>
</g>
</g>
<path id="Vector 95" d="M24.4926 19.0557C24.96 17.8872 26.5959 14.8491 29.4004 16.672C30.5689 17.9573 31.8543 20.8436 27.6476 22.1056C22.7398 23.5779 18.5331 15.9007 27.6476 14.3934C30.137 13.9817 35.0093 15.5502 33.9576 21.2292C32.7307 24.91 23.2306 27.1536 19.5848 20.0023C18.9421 18.0158 19.0239 13.7974 24.4926 12.8158C29.9613 11.8343 33.7823 13.4585 35.0093 14.3934C36.7576 15.7254 38.585 18.4248 37.4632 21.2292C36.8205 23.391 33.6772 27.4691 26.2454 26.4875C23.0319 26.0201 17.6441 23.8818 16.7803 19.4764C16.0792 15.9007 17.1706 14.3934 19.091 12.8158C20.727 11.472 23.8235 9.31027 30.6273 10.1165C33.2565 10.4671 38.7602 12.7808 39.7418 17.5484C40.2092 20.0607 39.7068 26.172 33.9576 27.9949C31.0947 29.105 21.5129 30.4488 16.7803 25.0853C15.0276 23.0988 11.8928 18.0362 14.8843 13.3417C17.163 9.76597 24.7886 5.86641 32.2048 7.38221C38.7222 8.7143 42.1109 12.8626 42.7536 15.1996C43.4547 17.3614 43.4577 22.2809 42.1957 25.0853C39.7418 28.7662 36.7971 30.5891 31.3284 31.5706C25.8598 32.5522 20.5196 30.9279 18.5331 29.9931C14.8843 28.276 12.4685 25.1554 11.3467 22.6314C9.94449 19.4764 8.39906 13.6221 15.4102 8.36374C21.0191 4.15706 29.6341 4.63619 32.9059 4.92832C38.5469 6.08512 42.8968 8.85455 45.0001 13.3417C47.6293 18.9506 46.4665 24.5945 43.2794 29.3971C41.0864 32.7018 33.7823 35.1813 27.6476 35.3566C21.5129 35.5319 16.2545 33.2532 12.7489 30.6241C9.24337 27.9949 7.17208 25.0853 5.76985 19.0557C4.77661 15.9007 9.06661 5.03431 19.9339 2.22986" stroke="white" stroke-width="1.29687" stroke-linecap="round"/>
</g>
</svg>
