<svg width="57" height="63" viewBox="0 0 57 63" fill="none" xmlns="http://www.w3.org/2000/svg">
<g id="Group 1171275521">
<g id="Group 1171275512">
<path id="Vector 85" d="M8.09646 61.3245C9.76467 59.0725 13.7684 49.3134 8.68033 42.3069C4.60989 36.7017 2.75817 31.964 2.34111 30.2957C0.472711 17.8842 6.73408 9.99912 10.0983 7.60802C20.4412 -0.866517 33.7036 2.40875 39.0418 5.10569C44.547 8.10848 47.5219 14.1975 48.3004 17.2003C49.8853 22.2883 49.9686 24.4292 49.635 25.1243C48.9677 27.3764 50.3132 28.7109 51.1364 29.8787C52.471 31.7719 54.4395 34.5497 54.6397 34.8833C54.8899 35.3004 55.307 35.9677 54.6397 36.9686C53.9724 37.9695 52.9714 38.47 52.2208 38.7202C51.4701 38.9705 51.1364 39.0539 51.1364 39.888C51.1364 40.7221 51.5535 40.3884 51.8037 41.3894C52.0039 42.1901 50.7194 43.002 50.0521 43.3078C51.4701 44.3087 50.6359 45.4765 50.0521 45.977C49.4682 46.4774 49.3848 47.4784 49.635 48.2291C49.8852 48.9798 50.5525 49.647 49.635 51.9825C47.5497 55.1521 43.7129 54.2346 41.8778 54.5683C40.0428 54.9019 37.457 55.1521 37.5405 57.3208C37.6072 59.0558 37.179 60.7129 36.9566 61.3245" stroke="white" stroke-width="2.52381" stroke-linecap="round"/>
</g>
<path id="Vector 96" d="M46.1426 16.8844H37.5228C39.8567 10.5753 31.444 10.888 33.9679 16.8844H26.4671M26.4671 16.8844V22.8807H24.968C24.2184 21.8813 21.5674 21.5358 21.2203 24.0357C20.9282 26.1388 22.9067 28.2001 24.968 26.1388H26.4671V30.3452M26.4671 16.8844H18.4044L19.2456 18.988C20.0869 22.8807 11.6742 22.7738 15.2239 16.8844L7.3537 16.697M26.4671 16.8844V12.5745H24.968C24.2184 13.6988 21.2203 13.9404 21.2203 10.996C21.2203 10.1547 22.1901 7.21026 24.968 9.73407H26.4671V5.82861" stroke="white" stroke-width="1.2619" stroke-linecap="round"/>
</g>
</svg>
