<svg width="69" height="62" viewBox="0 0 69 62" fill="none" xmlns="http://www.w3.org/2000/svg">
<g id="Group 1171275565">
<g id="Vector 123">
<path d="M46.318 44.6153H50.458C52.4566 41.777 56.9393 42.6738 56.5966 47.4705C56.4845 49.0408 53.77 52.5813 50.458 49.0408H46.318" stroke="#FFFCFC" stroke-width="2.69092" stroke-linecap="round"/>
<path d="M46.318 44.6153H50.458C52.4566 41.777 56.9393 42.6738 56.5966 47.4705C56.4845 49.0408 53.77 52.5813 50.458 49.0408H46.318" stroke="#FFFCFC" stroke-width="2.69092" stroke-linecap="round"/>
</g>
<g id="Group 1171275542">
<g id="Rectangle 40878">
<rect x="23.9646" y="39.839" width="21.0072" height="13.8692" rx="2.93733" stroke="#FFFCFC" stroke-width="2.69092"/>
<rect x="23.9646" y="39.839" width="21.0072" height="13.8692" rx="2.93733" stroke="#FFFCFC" stroke-width="2.69092"/>
</g>
<g id="Vector 121">
<path d="M22.4769 44.3467H18.3369C16.6238 41.4915 11.8556 42.4052 12.1982 47.2019C12.3104 48.7722 15.0249 52.3127 18.3369 48.7722H22.4769" stroke="#FFFCFC" stroke-width="2.69092" stroke-linecap="round"/>
<path d="M22.4769 44.3467H18.3369C16.6238 41.4915 11.8556 42.4052 12.1982 47.2019C12.3104 48.7722 15.0249 52.3127 18.3369 48.7722H22.4769" stroke="#FFFCFC" stroke-width="2.69092" stroke-linecap="round"/>
</g>
<g id="Vector 125">
<path d="M2.33019 20.0776L8.61161 23.0755M1.47363 27.6438H8.61161M2.33019 36.3522L8.61161 32.9259M60.1478 23.0755L67.0002 19.9348M60.1478 27.7866H67.0002M60.1478 32.6404L67.0002 35.7811" stroke="#FFFCFC" stroke-width="2.69092" stroke-linecap="round"/>
<path d="M2.33019 20.0776L8.61161 23.0755M1.47363 27.6438H8.61161M2.33019 36.3522L8.61161 32.9259M60.1478 23.0755L67.0002 19.9348M60.1478 27.7866H67.0002M60.1478 32.6404L67.0002 35.7811" stroke="#FFFCFC" stroke-width="2.69092" stroke-linecap="round"/>
</g>
<g id="Rectangle 40878_2">
<rect x="23.9646" y="20.9947" width="21.0072" height="13.8692" rx="2.93733" stroke="#FFFCFC" stroke-width="2.69092"/>
<rect x="23.9646" y="20.9947" width="21.0072" height="13.8692" rx="2.93733" stroke="#FFFCFC" stroke-width="2.69092"/>
</g>
<g id="Vector 121_2">
<path d="M22.4769 25.5025H18.3369C16.6238 22.6473 11.8556 23.5609 12.1982 28.3577C12.3104 29.928 15.0249 33.4684 18.3369 29.928H22.4769" stroke="#FFFCFC" stroke-width="2.69092" stroke-linecap="round"/>
<path d="M22.4769 25.5025H18.3369C16.6238 22.6473 11.8556 23.5609 12.1982 28.3577C12.3104 29.928 15.0249 33.4684 18.3369 29.928H22.4769" stroke="#FFFCFC" stroke-width="2.69092" stroke-linecap="round"/>
</g>
<g id="Vector 123_2">
<path d="M46.318 25.771H50.458C52.4566 22.9328 56.9393 23.8295 56.5966 28.6262C56.4845 30.1966 53.77 33.737 50.458 30.1966H46.318" stroke="#FFFCFC" stroke-width="2.69092" stroke-linecap="round"/>
<path d="M46.318 25.771H50.458C52.4566 22.9328 56.9393 23.8295 56.5966 28.6262C56.4845 30.1966 53.77 33.737 50.458 30.1966H46.318" stroke="#FFFCFC" stroke-width="2.69092" stroke-linecap="round"/>
</g>
<g id="Rectangle 40878_3">
<rect x="23.8044" y="2.15051" width="21.0072" height="13.8692" rx="2.93733" stroke="#FFFCFC" stroke-width="2.69092"/>
<rect x="23.8044" y="2.15051" width="21.0072" height="13.8692" rx="2.93733" stroke="#FFFCFC" stroke-width="2.69092"/>
</g>
<g id="Vector 121_3">
<path d="M22.3167 6.65823H18.1767C16.4636 3.80304 11.6954 4.71669 12.0381 9.51341C12.1502 11.0838 14.8647 14.6242 18.1767 11.0838H22.3167" stroke="#FFFCFC" stroke-width="2.69092" stroke-linecap="round"/>
<path d="M22.3167 6.65823H18.1767C16.4636 3.80304 11.6954 4.71669 12.0381 9.51341C12.1502 11.0838 14.8647 14.6242 18.1767 11.0838H22.3167" stroke="#FFFCFC" stroke-width="2.69092" stroke-linecap="round"/>
</g>
<g id="Vector 123_3">
<path d="M46.1578 6.92681H50.2978C52.2965 4.08852 56.7791 4.98527 56.4365 9.78199C56.3243 11.3523 53.6098 14.8928 50.2978 11.3523H46.1578" stroke="#FFFCFC" stroke-width="2.69092" stroke-linecap="round"/>
<path d="M46.1578 6.92681H50.2978C52.2965 4.08852 56.7791 4.98527 56.4365 9.78199C56.3243 11.3523 53.6098 14.8928 50.2978 11.3523H46.1578" stroke="#FFFCFC" stroke-width="2.69092" stroke-linecap="round"/>
</g>
<g id="Vector 124">
<path d="M28.7578 58.6226V54.6254H40.6069V58.6226C40.6069 59.4111 39.9677 60.0502 39.1793 60.0502H30.1854C29.397 60.0502 28.7578 59.4111 28.7578 58.6226Z" fill="#4DBE83"/>
<path d="M28.7578 54.6254V58.6226C28.7578 59.4111 29.397 60.0502 30.1854 60.0502H39.1793C39.9677 60.0502 40.6069 59.4111 40.6069 58.6226V54.6254M28.7578 54.6254H40.6069M28.7578 54.6254V58.6226C28.7578 59.4111 29.397 60.0502 30.1854 60.0502H39.1793C39.9677 60.0502 40.6069 59.4111 40.6069 58.6226V54.6254" stroke="#FFFCFC" stroke-width="2.69092" stroke-linecap="round"/>
<path d="M28.7578 54.6254V58.6226C28.7578 59.4111 29.397 60.0502 30.1854 60.0502H39.1793C39.9677 60.0502 40.6069 59.4111 40.6069 58.6226V54.6254M28.7578 54.6254H40.6069M28.7578 54.6254V58.6226C28.7578 59.4111 29.397 60.0502 30.1854 60.0502H39.1793C39.9677 60.0502 40.6069 59.4111 40.6069 58.6226V54.6254" stroke="#FFFCFC" stroke-width="2.69092" stroke-linecap="round"/>
</g>
<g id="Vector 124_2">
<path d="M28.7578 39.7785V35.7812H40.6069V39.7785C40.6069 40.567 39.9677 41.2061 39.1793 41.2061H30.1854C29.397 41.2061 28.7578 40.567 28.7578 39.7785Z" fill="#4DBE83"/>
<path d="M28.7578 35.7812V39.7785C28.7578 40.567 29.397 41.2061 30.1854 41.2061H39.1793C39.9677 41.2061 40.6069 40.567 40.6069 39.7785V35.7812M28.7578 35.7812H40.6069M28.7578 35.7812V39.7785C28.7578 40.567 29.397 41.2061 30.1854 41.2061H39.1793C39.9677 41.2061 40.6069 40.567 40.6069 39.7785V35.7812" stroke="#FFFCFC" stroke-width="2.69092" stroke-linecap="round"/>
<path d="M28.7578 35.7812V39.7785C28.7578 40.567 29.397 41.2061 30.1854 41.2061H39.1793C39.9677 41.2061 40.6069 40.567 40.6069 39.7785V35.7812M28.7578 35.7812H40.6069M28.7578 35.7812V39.7785C28.7578 40.567 29.397 41.2061 30.1854 41.2061H39.1793C39.9677 41.2061 40.6069 40.567 40.6069 39.7785V35.7812" stroke="#FFFCFC" stroke-width="2.69092" stroke-linecap="round"/>
</g>
<g id="Vector 124_3">
<path d="M28.5977 20.9342V16.9369H40.4467V20.9342C40.4467 21.7226 39.8075 22.3618 39.0191 22.3618H30.0253C29.2368 22.3618 28.5977 21.7226 28.5977 20.9342Z" fill="#4DBE83"/>
<path d="M28.5977 16.9369V20.9342C28.5977 21.7226 29.2368 22.3618 30.0253 22.3618H39.0191C39.8075 22.3618 40.4467 21.7226 40.4467 20.9342V16.9369M28.5977 16.9369H40.4467M28.5977 16.9369V20.9342C28.5977 21.7226 29.2368 22.3618 30.0253 22.3618H39.0191C39.8075 22.3618 40.4467 21.7226 40.4467 20.9342V16.9369" stroke="#FFFCFC" stroke-width="2.69092" stroke-linecap="round"/>
<path d="M28.5977 16.9369V20.9342C28.5977 21.7226 29.2368 22.3618 30.0253 22.3618H39.0191C39.8075 22.3618 40.4467 21.7226 40.4467 20.9342V16.9369M28.5977 16.9369H40.4467M28.5977 16.9369V20.9342C28.5977 21.7226 29.2368 22.3618 30.0253 22.3618H39.0191C39.8075 22.3618 40.4467 21.7226 40.4467 20.9342V16.9369" stroke="#FFFCFC" stroke-width="2.69092" stroke-linecap="round"/>
</g>
</g>
</g>
</svg>
