<svg width="58" height="66" viewBox="0 0 58 66" fill="none" xmlns="http://www.w3.org/2000/svg">
<g id="Group 1171275560">
<g id="Group 1171275562">
<g id="Group 1171275561">
<g id="Group 1171275563">
<path id="Vector 143" d="M25.4961 49.0001C24.6632 48.0747 22.9049 45.4835 25.0334 43.1699" stroke="#FFFCFC" stroke-width="1.85406" stroke-linecap="round"/>
<path id="Vector 141" d="M11.0588 44.2804C11.0588 45.0208 12.3544 47.4269 13.0023 48.9076C13.5205 50.0921 12.7863 51.0669 12.3544 51.4063C11.1514 51.4063 11.1514 50.9435 11.0588 50.0181C10.9848 49.2778 9.4856 46.3781 8.74526 45.0208C3.85897 45.0208 2.76079 40.9489 2.82249 38.9129C-0.1389 36.0996 1.2184 32.8668 2.26723 31.602C-0.0278441 28.5666 1.31095 26.2036 2.26723 25.4016C0.194259 22.8844 1.40349 20.2192 2.26723 19.2012C0.268293 17.1282 1.43434 14.3889 2.26723 13.2784C0.0461878 8.92889 2.45231 7.4482 2.26723 6.80039C2.08214 6.15259 3.00757 3.00612 5.4137 1.43288C7.3386 0.174296 9.79408 1.9573 10.7812 3.00612C14.2608 1.82157 17.105 3.80816 18.0921 4.94953C21.4977 2.95059 25.2488 4.54851 26.6987 5.59733C29.8822 2.63595 34.0096 3.93155 35.6754 4.94953C37.8964 2.65446 41.0429 3.56138 42.3385 4.30173C44.1153 2.08069 47.089 2.94442 48.3538 3.65392C54.2025 -0.12185 54.9861 4.85698 54.6467 7.81836C56.9418 10.7057 55.603 13.5869 54.6467 14.6666C56.2015 16.8876 55.603 19.3554 55.1094 20.3117C57.8487 23.7173 56.2508 26.1728 55.1094 26.9748C57.1084 33.1197 53.1043 35.7664 50.8525 36.3217C50.4823 41.5041 46.1328 42.1211 44.0043 41.7818C41.413 45.8537 37.6805 44.8357 36.1381 43.8177C35.8419 46.0387 34.2255 46.8408 33.4543 46.9642C34.0466 49.0371 33.7011 49.9256 33.4543 50.1107C36.7859 54.2751 32.1587 57.7917 30.9557 59.1799C29.9932 60.2904 29.9994 62.8508 30.1228 63.9922C28.9382 64.9546 27.7166 64.3932 27.2539 63.9922C27.7722 60.9567 27.4699 59.0874 27.2539 58.5321C21.5533 52.3872 23.6447 49.5554 25.4031 48.9076" stroke="#FFFCFC" stroke-width="1.85406" stroke-linecap="round"/>
<path id="Vector 142" d="M25.0324 43.0775C24.5697 40.2086 28.2715 35.674 32.8986 37.895C33.7932 36.9079 36.5633 35.0817 40.4872 35.674C40.6723 34.255 41.8383 31.4355 45.0218 31.5095C44.9292 30.0289 45.466 26.8824 48.3533 26.142C47.7672 25.0007 46.9467 22.2737 48.3533 20.4969C47.7364 19.2938 46.8727 16.5175 48.3533 15.0368C47.8289 13.8029 47.3169 11.15 49.4639 10.4097C50.2351 10.3171 51.907 9.89143 52.4253 8.92898M4.30273 7.17065C4.86101 8.13494 6.34195 9.7547 8.37464 9.84564M49.4639 8.92898C48.2793 12.4086 44.8984 12.3531 43.356 11.8904C40.3946 14.2595 36.9397 13.3711 35.5824 12.6307C32.3989 14.4075 28.5182 12.8775 26.9758 11.8904C23.052 14.3335 18.9863 12.2297 17.4439 10.8724C13.9643 11.8348 10.8733 10.4714 9.76279 9.66932C9.2769 9.81378 8.81294 9.86525 8.37464 9.84564M8.37464 9.84564C8.8682 10.8357 9.55919 13.1675 8.37464 14.5741C8.83736 15.5921 9.48516 18.0537 8.37464 19.7565C9.14583 20.6203 10.2255 23.1066 8.37464 26.142C9.48516 26.8515 11.3175 29.1404 9.76279 32.6201C10.6882 33.1445 12.2615 34.73 11.1509 36.8771C11.8913 37.4323 15.7781 39.0055 11.1509 44.2805" stroke="#FFFCFC" stroke-width="1.85406" stroke-linecap="round"/>
</g>
</g>
</g>
</g>
</svg>
