<svg width="56" height="65" viewBox="0 0 56 65" fill="none" xmlns="http://www.w3.org/2000/svg">
<g id="Group 1171275557">
<g id="Group 1171275558">
<path id="Vector 139" d="M10.3163 44.2723C10.3163 44.991 12.0234 46.6082 12.6523 48.0458C13.1554 49.1958 12.4426 50.1421 12.0234 50.4716C10.8554 50.4716 10.8554 50.0223 10.7655 49.1239C10.6936 48.4051 9.23816 45.59 8.5194 44.2723C3.7756 44.2723 2.70945 40.3191 2.76934 38.3425C-0.105689 35.6112 1.21203 32.4727 2.23028 31.2448C0.00212813 28.2979 1.30188 26.0039 2.23028 25.2252C0.217755 22.7814 1.39173 20.1939 2.23028 19.2056C0.28963 17.1931 1.42167 14.5337 2.23028 13.4555C0.0740011 9.23284 2.40996 7.79532 2.23028 7.16641C2.05059 6.5375 2.94903 3.48278 5.285 1.95542C7.15377 0.73353 9.53765 2.46454 10.496 3.48278C13.8742 2.33277 16.6354 4.26143 17.5937 5.36952C20.9 3.42887 24.5417 4.98019 25.9493 5.99843C29.0399 3.1234 33.047 4.38123 34.6642 5.36952C36.8205 3.14137 39.8752 4.02185 41.133 4.7406C42.8581 2.58433 45.7451 3.42288 46.9729 4.11168C52.6511 0.446019 53.4118 5.27967 53.0824 8.1547C55.3105 10.9579 54.0108 13.755 53.0824 14.8032C54.5918 16.9595 54.0108 19.3553 53.5316 20.2837C56.191 23.59 54.6397 25.9739 53.5316 26.7526C55.4722 32.7182 51.585 35.2878 49.3987 35.8269C49.0394 40.8582 44.8167 41.4571 42.7502 41.1277C40.2346 45.0809 36.6109 44.0926 35.1134 43.1043C34.8259 45.2606 33.2567 46.0392 32.5079 46.159C33.083 48.1715 32.7475 49.034 32.5079 49.2137C35.7424 53.2567 31.2501 56.6708 30.0821 58.0185C29.1478 59.0967 29.1537 61.5824 29.2735 62.6904C28.1235 63.6248 26.9376 63.0798 26.4883 62.6904C26.9915 59.7435 26.698 57.9287 26.4883 57.3896C20.9539 51.4239 22.9844 48.6747 24.6915 48.0458C22.2477 46.1051 23.3138 43.0444 24.1524 41.7566" stroke="#FFFCFC" stroke-width="1.83528" stroke-linecap="round"/>
<path id="Vector 140" d="M23.9729 42.0261C24.5718 40.1394 27.0096 36.5636 31.969 37.3542C32.8375 36.3959 35.5269 34.6229 39.3363 35.1979C39.516 33.8203 40.648 31.083 43.7387 31.1549C43.6489 29.7174 44.17 26.6627 46.9731 25.9439C46.4041 24.8358 45.6075 22.1884 46.9731 20.4634C46.3742 19.2954 45.5356 16.6001 46.9731 15.1626C46.464 13.9646 45.9669 11.3891 48.0513 10.6703C48.8 10.5805 50.4232 10.1672 50.9263 9.23281M4.20703 7.52576C4.74902 8.46193 6.18678 10.0345 8.1602 10.1227M48.0513 9.23281C46.9012 12.611 43.6189 12.5571 42.1215 12.1078C39.2465 14.4079 35.8923 13.5454 34.5745 12.8266C31.4839 14.5516 27.7164 13.0662 26.219 12.1078C22.4096 14.4797 18.4624 12.4373 16.965 11.1195C13.5868 12.0539 10.586 10.7302 9.50787 9.95156C9.03615 10.0918 8.58572 10.1418 8.1602 10.1227M8.1602 10.1227C8.63937 11.0839 9.31021 13.3477 8.1602 14.7133C8.60942 15.7016 9.23834 18.0915 8.1602 19.7446C8.9089 20.5832 9.95709 22.997 8.1602 25.9439C9.23834 26.6327 11.0173 28.8549 9.50787 32.2331C10.4063 32.7422 11.9337 34.2815 10.8555 36.3659C11.0942 36.8642 14.3059 39.1583 10.1766 43.7465" stroke="#FFFCFC" stroke-width="1.83528" stroke-linecap="round"/>
<path id="Vector 144" d="M14.3594 11.479C15.737 12.9165 18.1329 16.7798 16.6954 20.733M25.6798 13.0962C26.3088 13.6353 27.0634 15.7376 25.0509 19.8346M33.4963 13.0962C36.3414 15.3423 40.7558 20.6971 35.6526 24.1471C37.0302 22.8893 40.5941 20.9486 43.8285 23.2487M40.5941 16.5103C41.2829 17.7681 43.3253 19.7627 45.9847 17.6783M11.6641 14.8931C12.6823 15.552 14.4133 17.6424 13.1914 20.733C11.6641 24.5963 16.6055 26.4831 18.4024 23.1588C20.1993 19.8346 20.7384 19.3853 22.8947 18.3072" stroke="#FFFCFC" stroke-width="0.917639" stroke-linecap="round"/>
<path id="Vector 145" d="M16.9649 24.6861C17.1746 25.0455 18.4204 25.6564 21.7267 25.2252C25.8596 24.6861 26.5783 24.4166 29.9026 26.0338M31.8792 15.9712C31.0406 16.1209 29.8666 16.8337 31.8792 18.4868C34.3948 20.5532 35.5628 21.8111 31.8792 23.2486C28.9322 24.3986 30.0523 26.5429 30.9807 27.4713C32.1187 28.5794 35.2573 29.8432 38.7074 26.0338C42.1574 22.2244 44.4574 24.8658 45.1762 26.6627M8.69922 25.2252C10.6459 27.082 15.797 30.562 20.8283 29.6276C27.1174 28.4596 28.2854 27.9205 29.094 30.526M29.094 30.526C29.7409 32.6104 27.3869 32.5924 26.1291 32.3229M29.094 30.526C30.3332 29.9064 32.5927 29.4992 33.5726 31.6042M34.0354 33.7604C33.9914 32.8502 33.8242 32.1444 33.5726 31.6042M13.6407 31.6042C13.7904 32.5924 15.1321 34.4073 19.3009 33.7604C24.5119 32.9518 26.5783 35.2878 26.9377 37.8933M10.9453 36.4558C12.8021 37.8334 20.9499 42.4646 24.3999 39.1583M33.5726 31.6042C35.5537 31.4544 39.8933 30.562 41.4027 28.1901M41.8519 12.1977C42.9301 12.3774 44.9426 13.3836 44.3676 15.9712M23.2541 22.6197C24.0926 21.9309 26.5963 20.9665 29.9026 22.6197M21.7267 13.3657C21.9962 13.8748 22.5173 15.1087 22.4455 15.9712M20.8283 19.2954C20.5887 19.0259 20.1095 18.0735 20.1095 16.4204M8.69922 13.3657C9.02865 12.4373 9.93908 10.6344 10.9453 10.85M12.293 31.0651C12.4727 31.5626 13.2454 32.2591 14.8985 31.0651M30.9807 37.2644C30.6812 36.5756 30.262 34.9104 30.9807 33.7604M42.5707 22.6197C42.96 22.1405 44.0262 21.1103 45.1762 20.8228" stroke="#FFFCFC" stroke-width="0.917639" stroke-linecap="round"/>
</g>
</g>
</svg>
