<svg width="75" height="49" viewBox="0 0 75 49" fill="none" xmlns="http://www.w3.org/2000/svg">
<g id="Group 1171275520">
<path id="Vector 97" d="M17.5503 27.1695C16.8584 27.1695 14.7575 27.094 11.8892 26.792C9.02094 26.4901 4.89822 23.3747 7.06411 18.6098C5.70545 18.0059 4.46504 14.7112 5.3314 12.9784C1.4328 9.51301 1.44763 7.54427 1.13312 6.41204C-0.225551 1.2793 9.15157 0.876701 13.995 3.01534C21.6941 5.12882 31.3202 18.0281 35.1572 23.3747V26.4146M17.5503 27.1695C14.8456 27.5469 9.8135 29.5471 11.3231 34.5289C11.0086 35.4724 10.908 37.4349 13.0215 37.7369C12.5812 38.8691 12.3799 41.1335 15.0972 41.1335C14.6569 42.4544 14.6821 44.9453 18.3052 44.3415C18.1794 45.4737 20.2299 48.1533 23.4002 46.7946C25.7904 45.914 31.1747 42.4544 35.0998 35.6611L35.1572 30.7548V26.4146M17.5503 27.1695C20.2305 26.6662 27.504 25.8108 35.1572 26.4146" stroke="white" stroke-width="1.73271" stroke-linecap="round"/>
<path id="Rectangle 40867" d="M36.6309 16.2457C36.6929 15.7597 37.1077 15.3926 37.6128 15.3926C38.1098 15.3926 38.5081 15.7494 38.5647 16.2144L39.4247 16.1097L38.5647 16.2144C38.8802 18.8055 39.4274 24.4235 39.3123 31.4955C39.1974 38.5528 38.7538 44.1673 38.5109 46.7885C38.4671 47.2609 38.0693 47.6266 37.5764 47.6266C37.0917 47.6266 36.695 47.2751 36.6356 46.8101C36.2335 43.6638 35.3996 36.5255 35.3996 31.5096C35.3996 26.5133 36.227 19.4109 36.6309 16.2457Z" stroke="white" stroke-width="1.73271"/>
<path id="Vector 100" d="M32.269 24.1501C31.7309 23.5921 29.5017 20.5616 26.8017 17.7866C25.0983 16.0359 24.1176 15.0099 22.8338 14.1488C16.9945 8.63446 8.08063 3.95885 7.36012 7.92161C6.99942 9.90543 8.86968 15.6794 13.0211 21.0365C17.6968 26.2258 29.8159 25.0936 26.4192 20.3761C24.0604 17.362 17.6968 12.6392 16.2292 11.6957C14.5309 10.6038 12.0935 9.46189 11.3229 9.80865C10.3384 10.2517 11.5022 13.0166 12.2664 14.7149C13.9648 18.489 14.7565 18.9421 16.7008 20.114C17.8328 20.7962 18.9697 21.0365 20.281 21.0365C20.8917 21.0365 21.6719 20.8162 21.8692 20.1454C22.089 19.3983 21.9845 18.725 21.5495 18.0644C20.933 17.1283 19.6138 15.898 18.4725 15.6794C17.6571 15.5233 16.5951 15.9672 16.4179 16.602C16.2623 17.1596 17.2531 18.0986 17.6968 18.489C18.2253 18.9541 18.7407 19.2438 19.437 19.2438" stroke="white" stroke-width="1.73271" stroke-linecap="round"/>
<path id="Vector 101" d="M33.4018 29.5453C28.6842 28.2244 22.7184 28.3407 18.3055 29.9227C17.0016 30.3902 15.0976 32.1872 15.2863 34.2629C14.9415 35.4265 16.5128 45.3964 25.5706 41.8635C26.7073 41.2951 28.0663 40.4476 28.9673 39.5466C30.2475 38.2664 31.1798 36.9629 32.0285 35.3427C32.3084 34.8083 32.647 34.0779 32.647 33.4662C32.2696 29.734 27.556 30.1811 26.5665 30.4155C20.7587 31.2437 17.4291 33.8646 18.4942 36.5274C18.846 37.4067 20.3813 38.4144 22.0796 38.4144C24.9102 38.2257 25.6907 37.2463 26.9335 36.2024C27.7286 35.5344 28.9673 34.473 28.9673 33.3666C28.4221 32.5646 27.3095 32.5646 26.6504 32.5646C22.1949 33.4662 24.0167 35.4895 24.344 35.4895" stroke="white" stroke-width="1.73271" stroke-linecap="round"/>
<path id="Vector 102" d="M57.4246 27.1729C58.1165 27.1729 60.2174 27.0975 63.0857 26.7955C65.954 26.4936 70.3085 22.9415 67.7095 18.6097C73.3408 16.4438 70.3714 13.0555 70.3085 12.112C72.0412 10.8125 73.366 8.21342 73.8419 6.41553C75.2005 1.28279 67.5589 0.446666 60.3454 3.88168C51.2487 8.21347 43.6547 17.5949 39.8178 22.9415V26.4181M57.4246 27.1729C60.1294 27.5503 65.1615 29.5506 63.6519 34.5324C63.9664 35.4759 64.067 37.4384 61.9535 37.7403C62.3938 38.8726 62.5951 41.137 59.8778 41.137C60.3181 42.4579 60.2929 44.9488 56.6698 44.345C56.7956 45.4772 54.745 48.1568 51.5748 46.7981C49.1846 45.9175 43.8002 42.4579 39.8752 35.6646L39.8178 30.7583V26.4181M57.4246 27.1729C54.7445 26.6697 47.4709 25.8143 39.8178 26.4181" stroke="white" stroke-width="1.73271" stroke-linecap="round"/>
<path id="Vector 103" d="M42.7056 24.1537C43.2437 23.5956 45.4729 20.5651 48.1729 17.7902C49.8763 16.0394 50.857 15.0135 52.1408 14.1524C57.9801 8.638 66.894 3.96239 67.6145 7.92515C67.9752 9.90897 66.1049 15.683 61.9535 21.0401C57.2778 26.2294 45.1587 25.0972 48.5554 20.3796C50.9142 17.3656 57.2778 12.6427 58.7454 11.6992C60.4437 10.6073 62.8811 9.46543 63.6517 9.81219C64.6362 10.2552 63.4724 13.0202 62.7082 14.7185C61.0099 18.4926 60.2181 18.9456 58.2738 20.1175C57.1418 20.7998 56.005 21.0401 54.6937 21.0401C54.0829 21.0401 53.3027 20.8197 53.1054 20.149C52.8856 19.4018 52.9901 18.7285 53.4251 18.068C54.0416 17.1319 55.3608 15.9015 56.5021 15.683C57.3175 15.5268 58.3795 15.9707 58.5567 16.6055C58.7123 17.1631 57.7215 18.1022 57.2778 18.4926C56.7493 18.9577 56.2339 19.2474 55.5376 19.2474" stroke="white" stroke-width="1.73271" stroke-linecap="round"/>
<path id="Vector 104" d="M41.5728 29.5489C46.2904 28.228 52.2562 28.3443 56.6691 29.9263C57.973 30.3937 59.877 32.1907 59.6883 34.2665C60.0331 35.4301 58.4618 45.4 49.404 41.867C48.2673 41.2987 46.9083 40.4512 46.0073 39.5502C44.7271 38.2699 43.7948 36.9664 42.9461 35.3463C42.6662 34.8118 42.3276 34.0815 42.3276 33.4697C42.705 29.7376 47.4186 30.1846 48.4081 30.419C54.216 31.2472 57.5455 33.8681 56.4804 36.5309C56.1286 37.4103 54.5933 38.418 52.895 38.418C50.0644 38.2292 49.2839 37.2498 48.0412 36.2059C47.246 35.538 46.0073 34.4766 46.0073 33.3701C46.5525 32.5681 47.6651 32.5681 48.3242 32.5681C52.7797 33.4697 50.9579 35.493 50.6306 35.493" stroke="white" stroke-width="1.73271" stroke-linecap="round"/>
<path id="Vector 105" d="M36.515 15.1868C36.1376 13.849 34.911 6.03466 30.1934 3.2041" stroke="white" stroke-width="1.73271" stroke-linecap="round"/>
<path id="Vector 106" d="M38.6855 15.2811C38.836 15.1006 40.7613 4.90242 45.4789 3.01538" stroke="white" stroke-width="1.73271" stroke-linecap="round"/>
</g>
</svg>
