<svg width="61" height="61" viewBox="0 0 61 61" fill="none" xmlns="http://www.w3.org/2000/svg">
<g id="Group 1171275482">
<g id="Group 1171275473">
<path id="Vector 45" d="M14.5002 37C9.50018 32 15.5002 8 36.2138 21.1758C50.3867 8.15983 69.6053 28.2642 52.4114 44.6044L36.2138 59L22.0002 47.5" stroke="#FEFEFE" stroke-width="3" stroke-linecap="round"/>
</g>
<path id="Ellipse 6338" d="M58.1041 2.68422C58.1048 2.68427 58.1009 2.68911 58.0901 2.69857C58.0981 2.68889 58.1035 2.68416 58.1041 2.68422ZM56.9312 2.786C57.1673 2.86043 57.3658 2.93235 57.5301 3C57.3658 3.06765 57.1673 3.13957 56.9312 3.214C55.8741 3.54724 54.2929 3.86141 52.2777 4.13009C48.262 4.66552 42.6833 5 36.5 5C30.3167 5 24.738 4.66552 20.7223 4.13009C18.7071 3.86141 17.1259 3.54724 16.0688 3.214C15.8327 3.13956 15.6342 3.06765 15.4699 3C15.6342 2.93235 15.8327 2.86044 16.0688 2.786C17.1259 2.45276 18.7071 2.13859 20.7223 1.86991C24.738 1.33448 30.3167 1 36.5 1C42.6833 1 48.262 1.33448 52.2777 1.86991C54.2929 2.13859 55.8741 2.45276 56.9312 2.786ZM14.8959 2.68422C14.8965 2.68416 14.9019 2.68889 14.9099 2.69858C14.8991 2.68912 14.8952 2.68427 14.8959 2.68422ZM14.8959 3.31578C14.8952 3.31573 14.8991 3.31088 14.9099 3.30142C14.9019 3.31111 14.8965 3.31584 14.8959 3.31578ZM58.0901 3.30142C58.1009 3.31088 58.1048 3.31573 58.1041 3.31578C58.1035 3.31584 58.0981 3.3111 58.0901 3.30142Z" stroke="white" stroke-width="2"/>
<path id="Vector 59" d="M2 37.5H19.5L22.5 26L26.5 45.5L30 30L33 43.5L34.5 37.5H49.5" stroke="white" stroke-width="3" stroke-linecap="round"/>
</g>
</svg>
