<svg width="42" height="64" viewBox="0 0 42 64" fill="none" xmlns="http://www.w3.org/2000/svg">
<g id="Group 1171275480">
<g id="Group 1171275475">
<g id="Group 1171275474">
<path id="Vector 48" d="M5.50534 8.49854C7.52777 12.2333 12.1668 21.6893 7.71162 29.4474C-2.9521 48.017 4.58605 62.7256 4.58605 62.7256" stroke="#FFFCFC" stroke-width="2.48575" stroke-linecap="round"/>
<path id="Vector 55" d="M36.6094 7.75226C34.587 11.4871 29.948 20.943 34.4031 28.7011C45.0669 47.2707 37.2147 62.5857 37.2147 62.5857" stroke="#FFFCFC" stroke-width="2.48575" stroke-linecap="round"/>
<path id="Vector 50" d="M20.7652 62.9999V51.5102M20.7652 51.5102L13.5947 44.1559M20.7652 51.5102L27.5679 44.1559" stroke="#FFFCFC" stroke-width="1.65716" stroke-linecap="round"/>
<path id="Vector 51" d="M5.13799 1.68494C3.91228 7.50708 5.13799 15.8419 19.1111 7.0168M36.5776 1.68494C37.8033 7.50708 36.5776 15.8419 22.6044 7.0168" stroke="#FFFCFC" stroke-width="2.48575" stroke-linecap="round"/>
<path id="Vector 52" d="M9.73438 36.434C12.8599 39.1918 23.6708 40.9936 32.3488 36.434" stroke="#FFFCFC" stroke-width="0.828582" stroke-linecap="round" stroke-dasharray="1.47 1.47"/>
</g>
</g>
<ellipse id="Ellipse 6336" cx="21.0571" cy="29.916" rx="0.828582" ry="1.24287" fill="#FFFCFC"/>
</g>
</svg>
