<svg width="43" height="64" viewBox="0 0 43 64" fill="none" xmlns="http://www.w3.org/2000/svg">
<g id="Union">
<mask id="path-1-inside-1_307_8932" fill="white">
<path fill-rule="evenodd" clip-rule="evenodd" d="M7.51904 1.99941C8.14334 0.958891 10.4208 0.0409181 10.7446 2.41561C10.9974 4.26944 9.13465 4.14424 8.25134 4.08487C8.04395 4.07094 7.89055 4.06063 7.83119 4.08041C7.7916 4.09361 7.68339 4.10346 7.52331 4.11802C6.42132 4.21832 2.86167 4.5423 2.31655 7.72214C2.14314 10.7396 2.69114 17.6693 6.27045 21.6648H7.20689C7.24876 21.7151 7.29163 21.7668 7.33562 21.8199L7.33787 21.8226L7.33797 21.8227C8.36763 23.0657 10.0031 25.04 13.4585 25.4906C17.3423 25.0241 19.0688 22.952 20.0927 21.7233L20.109 21.7037H21.0455C24.6248 17.7082 25.1728 10.7785 24.9994 7.76105C24.4542 4.58121 20.8946 4.25723 19.7926 4.15693C19.6325 4.14236 19.5243 4.13251 19.4847 4.11931C19.4254 4.09953 19.272 4.10984 19.0646 4.12378C18.1813 4.18315 16.3185 4.30835 16.5713 2.45452C16.8952 0.0798226 19.1726 0.997796 19.7969 2.03831C26.6642 2.76666 27.4966 6.72056 27.2885 9.1137C26.8723 16.9174 24.271 20.8366 22.6062 23.0564L22.3981 24.2009C22.3115 24.3309 22.2628 24.4431 22.2133 24.557C22.0253 24.9904 21.8261 25.4493 19.4847 27.0102C18.2166 27.8557 16.376 28.4925 14.609 28.6541L15.3228 49.9664C15.3228 65.0536 35.4044 63.701 35.4044 49.9664V30.2188C32.2786 29.7203 29.8898 27.012 29.8898 23.7458C29.8898 20.1255 32.8246 17.1907 36.4449 17.1907C40.0652 17.1907 43 20.1255 43 23.7458C43 26.9024 40.7688 29.5379 37.7975 30.1612V50.9028C37.7975 50.9028 37.2773 63.701 25.2075 63.701C13.1377 63.701 12.6175 49.9664 12.6175 49.9664L12.4128 28.581C11.0128 28.4741 9.23648 27.9082 7.83119 26.9713C5.48977 25.4104 5.29062 24.9515 5.10257 24.5181C5.05312 24.4042 5.00445 24.292 4.9178 24.162L4.7097 23.0175C3.0449 20.7977 0.443659 16.8785 0.0274567 9.0748C-0.180639 6.68165 0.651756 2.72776 7.51904 1.99941Z"/>
</mask>
<path d="M10.7446 2.41561L8.33294 2.74447V2.74447L10.7446 2.41561ZM7.51904 1.99941L7.77575 4.41979L8.98205 4.29185L9.60616 3.25165L7.51904 1.99941ZM8.25134 4.08487L8.08811 6.51336H8.08811L8.25134 4.08487ZM7.52331 4.11802L7.3027 1.69408L7.3027 1.69408L7.52331 4.11802ZM2.31655 7.72214L-0.0824126 7.31089L-0.105543 7.44582L-0.113398 7.58249L2.31655 7.72214ZM6.27045 21.6648L4.45755 23.2889L5.18309 24.0988H6.27045V21.6648ZM7.20689 21.6648L9.07669 20.1066L8.34688 19.2309H7.20689V21.6648ZM7.33562 21.8199L5.46126 23.3726L5.46161 23.3731L7.33562 21.8199ZM7.33787 21.8226L9.21868 20.2777L9.21189 20.2695L7.33787 21.8226ZM7.33797 21.8227L5.45717 23.3677L5.46359 23.3754L7.33797 21.8227ZM13.4585 25.4906L13.1437 27.9041L13.446 27.9435L13.7487 27.9072L13.4585 25.4906ZM20.0927 21.7233L18.2229 20.1651L18.2228 20.1652L20.0927 21.7233ZM20.109 21.7037V19.2698H18.9691L18.2392 20.1455L20.109 21.7037ZM21.0455 21.7037V24.1377H22.1328L22.8584 23.3278L21.0455 21.7037ZM24.9994 7.76105L27.4293 7.6214L27.4215 7.48472L27.3983 7.3498L24.9994 7.76105ZM19.7926 4.15693L20.0132 1.73299L20.0132 1.73299L19.7926 4.15693ZM19.4847 4.11931L18.715 6.42837L18.715 6.42837L19.4847 4.11931ZM19.0646 4.12378L19.2278 6.55226L19.0646 4.12378ZM16.5713 2.45452L18.983 2.78337V2.78337L16.5713 2.45452ZM19.7969 2.03831L17.7098 3.29056L18.3339 4.33076L19.5402 4.4587L19.7969 2.03831ZM27.2885 9.1137L24.8636 8.90285L24.8601 8.94342L24.858 8.98407L27.2885 9.1137ZM22.6062 23.0564L20.659 21.596L20.3143 22.0556L20.2115 22.621L22.6062 23.0564ZM22.3981 24.2009L24.4233 25.551L24.7027 25.1319L24.7928 24.6363L22.3981 24.2009ZM22.2133 24.557L19.9806 23.5881L19.9805 23.5881L22.2133 24.557ZM19.4847 27.0102L20.8348 29.0354L19.4847 27.0102ZM14.609 28.6541L14.3873 26.2302L12.0995 26.4394L12.1764 28.7355L14.609 28.6541ZM15.3228 49.9664H17.7567V49.9256L17.7554 49.8849L15.3228 49.9664ZM35.4044 30.2188H37.8383V28.1423L35.7877 27.8153L35.4044 30.2188ZM37.7975 30.1612L37.2978 27.7791L35.3636 28.1849V30.1612H37.7975ZM37.7975 50.9028L40.2295 51.0017L40.2315 50.9523V50.9028H37.7975ZM12.6175 49.9664L10.1836 49.9897L10.184 50.0241L10.1853 50.0585L12.6175 49.9664ZM12.4128 28.581L14.8467 28.5577L14.8253 26.3242L12.5982 26.1541L12.4128 28.581ZM7.83119 26.9713L9.18131 24.9462H9.18131L7.83119 26.9713ZM5.10257 24.5181L7.33537 23.5492L7.33537 23.5492L5.10257 24.5181ZM4.9178 24.162L2.52309 24.5974L2.6132 25.093L2.89263 25.5121L4.9178 24.162ZM4.7097 23.0175L7.1044 22.5821L7.00162 22.0167L6.65687 21.5571L4.7097 23.0175ZM0.0274567 9.0748L2.45796 8.94517L2.4558 8.90451L2.45227 8.86395L0.0274567 9.0748ZM13.1562 2.08675C13.0235 1.11309 12.6366 0.0961936 11.7806 -0.641418C10.9034 -1.39733 9.86626 -1.57395 9.02348 -1.4971C8.21186 -1.4231 7.49049 -1.11653 6.9326 -0.760935C6.37991 -0.408641 5.8216 0.0976896 5.43193 0.74716L9.60616 3.25165C9.52863 3.38087 9.48911 3.38226 9.54914 3.34399C9.60398 3.30904 9.58925 3.33943 9.46551 3.35071C9.3106 3.36484 8.94259 3.33895 8.60294 3.04628C8.28454 2.77192 8.3038 2.53078 8.33294 2.74447L13.1562 2.08675ZM8.08811 6.51336C8.41808 6.53554 9.63311 6.65316 10.7372 6.26179C11.366 6.03889 12.1327 5.596 12.6579 4.74401C13.1846 3.88946 13.2727 2.94098 13.1562 2.08675L8.33294 2.74447C8.34285 2.81716 8.29293 2.54822 8.51391 2.18972C8.7333 1.83379 9.02649 1.70349 9.11081 1.67359C9.1735 1.65137 9.1474 1.67177 8.97585 1.67693C8.81528 1.68177 8.64462 1.67185 8.41456 1.65639L8.08811 6.51336ZM8.60088 6.38947C8.43898 6.44344 8.30547 6.46805 8.22851 6.47991C8.14643 6.49256 8.08121 6.49777 8.04219 6.50017C8.00137 6.50268 7.97058 6.50322 7.95385 6.50335C7.93641 6.50348 7.92544 6.50321 7.92307 6.50315C7.92029 6.50308 7.93058 6.50333 7.96353 6.50527C7.99595 6.50718 8.03376 6.50971 8.08811 6.51336L8.41456 1.65639C8.32937 1.65067 8.18179 1.64028 8.04844 1.63684C7.97933 1.63506 7.86935 1.63367 7.74324 1.64143C7.65122 1.64709 7.37933 1.66541 7.06151 1.77135L8.60088 6.38947ZM7.74393 6.54197C7.81314 6.53567 7.91231 6.52679 7.99829 6.51698C8.0425 6.51194 8.10989 6.50372 8.18534 6.49126C8.23671 6.48278 8.40391 6.45513 8.60088 6.38947L7.06151 1.77135C7.16312 1.73748 7.24479 1.71814 7.28782 1.70863C7.33505 1.69819 7.37189 1.69174 7.39245 1.68835C7.43147 1.6819 7.45438 1.67953 7.44658 1.68042C7.44207 1.68094 7.42914 1.68233 7.40195 1.68492C7.37514 1.68748 7.34413 1.69031 7.3027 1.69408L7.74393 6.54197ZM4.71552 8.13339C4.81095 7.57671 5.10451 7.25611 5.70638 6.98643C6.39303 6.67875 7.18864 6.59251 7.74393 6.54197L7.3027 1.69408C6.756 1.74384 5.22078 1.86974 3.71583 2.54408C2.1261 3.25642 0.367272 4.68774 -0.0824126 7.31089L4.71552 8.13339ZM8.08335 20.0408C6.69167 18.4873 5.78476 16.2211 5.26548 13.8135C4.75215 11.4335 4.67148 9.16718 4.74651 7.86179L-0.113398 7.58249C-0.211792 9.29455 -0.105161 12.0018 0.506979 14.8399C1.11316 17.6504 2.26991 20.8469 4.45755 23.2889L8.08335 20.0408ZM7.20689 19.2309H6.27045V24.0988H7.20689V19.2309ZM9.20998 20.2672C9.16641 20.2146 9.12123 20.1601 9.07669 20.1066L5.33708 23.223C5.37628 23.2701 5.41686 23.319 5.46126 23.3726L9.20998 20.2672ZM9.21189 20.2695L9.20963 20.2668L5.46161 23.3731L5.46387 23.3758L9.21189 20.2695ZM9.21876 20.2778L9.21866 20.2777L5.45709 23.3676L5.45719 23.3677L9.21876 20.2778ZM13.7732 23.077C11.2893 22.7531 10.1699 21.426 9.21236 20.2701L5.46359 23.3754C6.56538 24.7055 8.7168 27.3268 13.1437 27.9041L13.7732 23.077ZM18.2228 20.1652C17.312 21.2583 16.1028 22.7215 13.1682 23.074L13.7487 27.9072C18.5818 27.3266 20.8257 24.6458 21.9626 23.2815L18.2228 20.1652ZM18.2392 20.1455L18.2229 20.1651L21.9625 23.2816L21.9788 23.2619L18.2392 20.1455ZM21.0455 19.2698H20.109V24.1377H21.0455V19.2698ZM22.5694 7.9007C22.6444 9.20609 22.5638 11.4724 22.0504 13.8524C21.5312 16.26 20.6242 18.5262 19.2326 20.0797L22.8584 23.3278C25.046 20.8858 26.2028 17.6893 26.8089 14.8788C27.4211 12.0407 27.5277 9.33345 27.4293 7.6214L22.5694 7.9007ZM19.572 6.58087C20.1273 6.63141 20.9229 6.71765 21.6095 7.02533C22.2114 7.29502 22.505 7.61561 22.6004 8.1723L27.3983 7.3498C26.9486 4.72664 25.1898 3.29532 23.6001 2.58299C22.0951 1.90864 20.5599 1.78274 20.0132 1.73299L19.572 6.58087ZM18.715 6.42837C18.912 6.49403 19.0792 6.52169 19.1306 6.53017C19.206 6.54262 19.2734 6.55084 19.3176 6.55589C19.4036 6.56569 19.5028 6.57457 19.572 6.58087L20.0132 1.73299C19.9718 1.72921 19.9408 1.72639 19.914 1.72383C19.8868 1.72123 19.8738 1.71984 19.8693 1.71933C19.8615 1.71844 19.8844 1.72081 19.9235 1.72725C19.944 1.73065 19.9809 1.73709 20.0281 1.74753C20.0711 1.75704 20.1528 1.77638 20.2544 1.81025L18.715 6.42837ZM19.2278 6.55226C19.2822 6.54861 19.32 6.54608 19.3524 6.54418C19.3853 6.54224 19.3956 6.54198 19.3928 6.54206C19.3905 6.54212 19.3795 6.54238 19.3621 6.54225C19.3453 6.54212 19.3145 6.54158 19.2737 6.53907C19.2347 6.53667 19.1695 6.53147 19.0874 6.51882C19.0104 6.50696 18.8769 6.48234 18.715 6.42837L20.2544 1.81026C19.9366 1.70432 19.6647 1.686 19.5727 1.68034C19.4466 1.67258 19.3366 1.67397 19.2675 1.67575C19.1341 1.67918 18.9865 1.68957 18.9014 1.6953L19.2278 6.55226ZM14.1597 2.12566C14.0432 2.97988 14.1313 3.92836 14.6581 4.78292C15.1832 5.63491 15.9499 6.0778 16.5787 6.3007C17.6828 6.69206 18.8978 6.57444 19.2278 6.55226L18.9014 1.6953C18.6713 1.71076 18.5006 1.72067 18.3401 1.71584C18.1685 1.71067 18.1424 1.69028 18.2051 1.7125C18.2894 1.74239 18.5826 1.8727 18.802 2.22863C19.023 2.58712 18.9731 2.85607 18.983 2.78337L14.1597 2.12566ZM21.884 0.786064C21.4943 0.136594 20.936 -0.369736 20.3833 -0.72203C19.8254 -1.07763 19.1041 -1.38419 18.2924 -1.4582C17.4497 -1.53504 16.4126 -1.35843 15.5353 -0.602513C14.6793 0.135099 14.2925 1.152 14.1597 2.12566L18.983 2.78337C19.0121 2.56969 19.0314 2.81082 18.713 3.08519C18.3733 3.37786 18.0053 3.40374 17.8504 3.38962C17.7267 3.37833 17.7119 3.34794 17.7668 3.3829C17.8268 3.42116 17.7873 3.41977 17.7098 3.29056L21.884 0.786064ZM29.7133 9.32455C29.8479 7.77669 29.6679 5.51167 28.1387 3.48547C26.5756 1.41434 23.9361 0.0297084 20.0536 -0.382076L19.5402 4.4587C22.5249 4.77527 23.7353 5.73175 24.2532 6.41794C24.805 7.14907 24.9372 8.05757 24.8636 8.90285L29.7133 9.32455ZM24.5534 24.5167C26.4236 22.0231 29.2705 17.6517 29.719 9.24333L24.858 8.98407C24.474 16.1831 22.1184 19.6502 20.659 21.596L24.5534 24.5167ZM24.7928 24.6363L25.0009 23.4918L20.2115 22.621L20.0034 23.7655L24.7928 24.6363ZM24.4461 25.5259C24.4526 25.511 24.4571 25.5007 24.4613 25.491C24.4654 25.4818 24.4681 25.4756 24.4701 25.4713C24.4739 25.4627 24.4735 25.4641 24.4701 25.4709C24.4664 25.4783 24.4601 25.4905 24.4514 25.5056C24.4427 25.5207 24.4332 25.5361 24.4233 25.551L20.373 22.8508C20.1537 23.1797 20.0312 23.4713 19.9806 23.5881L24.4461 25.5259ZM20.8348 29.0354C22.0406 28.2316 22.8351 27.6215 23.373 27.0864C24.026 26.437 24.2749 25.9205 24.4462 25.5259L19.9805 23.5881C19.9349 23.6933 19.9523 23.6458 19.9836 23.5967C20.0155 23.5466 20.0204 23.5552 19.9401 23.6351C19.7461 23.8281 19.2703 24.228 18.1346 24.9851L20.8348 29.0354ZM14.8306 31.0779C16.9593 30.8833 19.1963 30.1278 20.8348 29.0354L18.1346 24.9851C17.2369 25.5836 15.7927 26.1017 14.3873 26.2302L14.8306 31.0779ZM17.7554 49.8849L17.0416 28.5726L12.1764 28.7355L12.8902 50.0479L17.7554 49.8849ZM32.9704 49.9664C32.9704 55.3746 29.1421 58.212 25.2816 58.342C23.3418 58.4073 21.488 57.7757 20.1328 56.4942C18.8059 55.2395 17.7567 53.1712 17.7567 49.9664H12.8888C12.8888 54.3052 14.3499 57.7255 16.7882 60.0312C19.1983 62.3102 22.3649 63.3109 25.4455 63.2071C31.6258 62.999 37.8383 58.2927 37.8383 49.9664H32.9704ZM32.9704 30.2188V49.9664H37.8383V30.2188H32.9704ZM35.7877 27.8153C33.8246 27.5021 32.3237 25.797 32.3237 23.7458H27.4558C27.4558 28.2271 30.7326 31.9384 35.021 32.6224L35.7877 27.8153ZM32.3237 23.7458C32.3237 21.4698 34.1688 19.6247 36.4449 19.6247V14.7567C31.4804 14.7567 27.4558 18.7813 27.4558 23.7458H32.3237ZM36.4449 19.6247C38.721 19.6247 40.5661 21.4698 40.5661 23.7458H45.434C45.434 18.7813 41.4094 14.7567 36.4449 14.7567V19.6247ZM40.5661 23.7458C40.5661 25.7275 39.165 27.3874 37.2978 27.7791L38.2972 32.5434C42.3727 31.6884 45.434 28.0774 45.434 23.7458H40.5661ZM40.2315 50.9028V30.1612H35.3636V50.9028H40.2315ZM25.2075 66.1349C28.6818 66.1349 31.4651 65.2052 33.6451 63.7073C35.8027 62.2246 37.2405 60.2751 38.195 58.4115C39.1469 56.553 39.6488 54.7224 39.9153 53.3749C40.0497 52.6957 40.1271 52.1245 40.1715 51.7141C40.1937 51.5086 40.2077 51.3422 40.2164 51.2216C40.2207 51.1612 40.2238 51.1122 40.2258 51.0753C40.2269 51.0569 40.2276 51.0414 40.2282 51.0291C40.2285 51.023 40.2288 51.0176 40.229 51.013C40.2291 51.0107 40.2292 51.0087 40.2293 51.0068C40.2293 51.0058 40.2294 51.0046 40.2294 51.0041C40.2294 51.0029 40.2295 51.0017 37.7975 50.9028C35.3656 50.804 35.3656 50.8029 35.3657 50.8019C35.3657 50.8016 35.3657 50.8006 35.3657 50.8001C35.3658 50.799 35.3658 50.798 35.3658 50.7973C35.3659 50.7958 35.3659 50.7951 35.3659 50.7951C35.3659 50.7951 35.3658 50.798 35.3655 50.8038C35.3648 50.8153 35.3635 50.8382 35.3611 50.8716C35.3562 50.9384 35.3473 51.047 35.3317 51.1914C35.3004 51.4809 35.2429 51.9096 35.14 52.4302C34.9318 53.4824 34.5492 54.8513 33.8623 56.1923C33.1781 57.5283 32.2227 58.7782 30.8882 59.6952C29.5759 60.5969 27.7681 61.267 25.2075 61.267V66.1349ZM12.6175 49.9664C10.1853 50.0585 10.1853 50.0596 10.1854 50.0608C10.1854 50.0612 10.1854 50.0624 10.1855 50.0633C10.1855 50.0651 10.1856 50.0672 10.1857 50.0694C10.1859 50.0739 10.1861 50.0792 10.1864 50.0854C10.1869 50.0977 10.1877 50.1134 10.1887 50.1323C10.1906 50.1701 10.1936 50.2209 10.1978 50.2838C10.2062 50.4094 10.2199 50.5839 10.2417 50.8003C10.2852 51.2323 10.3613 51.8354 10.4937 52.5537C10.7564 53.9786 11.2511 55.9154 12.1897 57.882C13.1289 59.8498 14.5507 61.9261 16.7038 63.5138C18.8872 65.124 21.6941 66.1349 25.2075 66.1349V61.267C22.686 61.267 20.9017 60.5611 19.5929 59.596C18.2539 58.6085 17.2826 57.2512 16.5829 55.7853C15.8828 54.3183 15.493 52.8214 15.281 51.6712C15.176 51.1018 15.1173 50.6319 15.0851 50.3128C15.0691 50.1536 15.0598 50.033 15.0548 49.9575C15.0522 49.9198 15.0508 49.8934 15.05 49.8793C15.0496 49.8722 15.0495 49.8681 15.0494 49.8673C15.0494 49.8668 15.0494 49.8672 15.0495 49.8684C15.0495 49.8689 15.0495 49.8697 15.0496 49.8707C15.0496 49.8712 15.0496 49.8721 15.0496 49.8723C15.0497 49.8733 15.0497 49.8743 12.6175 49.9664ZM9.97899 28.6043L10.1836 49.9897L15.0513 49.9431L14.8467 28.5577L9.97899 28.6043ZM6.48107 28.9965C8.24049 30.1695 10.4193 30.8698 12.2275 31.0079L12.5982 26.1541C11.6062 26.0783 10.2325 25.6469 9.18131 24.9462L6.48107 28.9965ZM2.86976 25.487C3.04099 25.8816 3.28994 26.3981 3.94289 27.0475C4.48083 27.5826 5.27531 28.1927 6.48107 28.9965L9.18131 24.9462C8.04565 24.1891 7.56984 23.7892 7.37583 23.5962C7.29549 23.5163 7.30042 23.5077 7.33229 23.5578C7.36357 23.6069 7.38102 23.6544 7.33537 23.5492L2.86976 25.487ZM2.89263 25.5121C2.8827 25.4972 2.8732 25.4818 2.8645 25.4667C2.85585 25.4516 2.84956 25.4394 2.84586 25.432C2.84244 25.4252 2.84198 25.4238 2.84584 25.4324C2.8478 25.4367 2.85054 25.4429 2.85458 25.4521C2.85883 25.4618 2.86331 25.4721 2.86977 25.487L7.33537 23.5492C7.28471 23.4324 7.16227 23.1408 6.94296 22.8119L2.89263 25.5121ZM2.315 23.4528L2.52309 24.5974L7.3125 23.7266L7.1044 22.5821L2.315 23.4528ZM-2.40305 9.20442C-1.9546 17.6128 0.892281 21.9842 2.76253 24.4778L6.65687 21.5571C5.19752 19.6113 2.84192 16.1442 2.45796 8.94517L-2.40305 9.20442ZM7.26233 -0.42098C3.37981 -0.00919634 0.740335 1.37544 -0.822781 3.44657C-2.35199 5.47277 -2.53195 7.73779 -2.39736 9.28565L2.45227 8.86395C2.37877 8.01866 2.51095 7.11016 3.06274 6.37904C3.58062 5.69285 4.79099 4.73636 7.77575 4.41979L7.26233 -0.42098Z" fill="white" mask="url(#path-1-inside-1_307_8932)"/>
</g>
</svg>
