<svg width="61" height="58" viewBox="0 0 61 58" fill="none" xmlns="http://www.w3.org/2000/svg">
<g id="Group 1171275473">
<path id="Union" fill-rule="evenodd" clip-rule="evenodd" d="M35.4753 30.8036L35.4787 30.8076C35.8211 31.2132 35.7698 31.8195 35.3643 32.1619L24.1672 41.6139C24.4875 43.8712 26.057 47.375 27.6288 49.1215C35.8951 58.3062 44.4164 53.4587 47.9883 50.4992C54.0556 45.482 54.9536 37.9358 54.0981 32.9975C53.8011 33.0311 53.4991 33.0484 53.1929 33.0484C48.8813 33.0484 45.3859 29.6216 45.3859 25.3944C45.3859 21.1673 48.8813 17.7405 53.1929 17.7405C57.5046 17.7405 60.9999 21.1673 60.9999 25.3944C60.9999 28.2949 59.3543 30.8186 56.9284 32.117C58.6706 45.5249 50.2504 55.879 40.0282 57.0816C28.5345 58.4338 22.2372 47.5824 21.3474 41.8481L9.89921 31.9877C9.51566 31.6573 9.45679 31.0901 9.75267 30.6895C8.15643 29.5306 4.3117 25.8005 1.31502 18.5041C-1.89293 10.6933 2.27601 5.20654 4.03784 3.6086C9.06685 -0.952606 15.0725 0.918508 17.3643 2.70524C17.6438 2.56577 17.9591 2.48731 18.2927 2.48731C19.4426 2.48731 20.3748 3.41952 20.3748 4.56947C20.3748 5.71942 19.4426 6.65163 18.2927 6.65163C17.1427 6.65163 16.2105 5.71942 16.2105 4.56947C16.2105 4.34375 16.2464 4.12642 16.3128 3.92289C11.6366 0.455759 6.73124 3.1025 4.83867 4.88993C-3.05063 12.937 5.53687 24.6629 10.6941 29.6546C11.0424 29.4328 11.5084 29.454 11.8374 29.7374L22.6252 39.029L33.4485 29.8925C33.7669 29.6237 34.209 29.5975 34.55 29.7949C39.6886 24.8857 48.5153 13.0133 40.5512 4.88992C38.6586 3.10249 33.7533 0.45575 29.077 3.92287C29.1435 4.12641 29.1794 4.34374 29.1794 4.56946C29.1794 5.71941 28.2472 6.65162 27.0972 6.65162C25.9473 6.65162 25.015 5.71941 25.015 4.56946C25.015 3.41951 25.9473 2.48729 27.0972 2.48729C27.4308 2.48729 27.7461 2.56575 28.0256 2.70522C30.3174 0.918493 36.323 -0.952616 41.352 3.60859C43.1139 5.20652 47.2828 10.6933 44.0748 18.5041C40.9714 26.0604 36.9584 29.7919 35.4753 30.8036ZM58.5507 25.3943C58.5507 28.2688 56.1519 30.599 53.1929 30.599C50.2339 30.599 47.8352 28.2688 47.8352 25.3943C47.8352 22.5199 50.2339 20.1897 53.1929 20.1897C56.1519 20.1897 58.5507 22.5199 58.5507 25.3943Z" fill="#FFFCFC"/>
</g>
</svg>
