<svg width="102" height="102" viewBox="0 0 102 102" fill="none" xmlns="http://www.w3.org/2000/svg">
<g id="briefcase-arrow-right 1" clip-path="url(#clip0_423_10098)">
<path id="Vector" d="M82.875 17H74.2475C73.185 7.4375 65.0675 0 55.25 0H44.625C34.8075 0 26.69 7.4375 25.6275 17H19.125C8.585 17 0 25.585 0 36.125V82.875C0 93.415 8.585 102 19.125 102H82.875C93.415 102 102 93.415 102 82.875V36.125C102 25.585 93.415 17 82.875 17ZM44.625 4.25H55.25C62.73 4.25 68.935 9.8175 69.955 17H29.92C30.94 9.8175 37.145 4.25 44.625 4.25ZM97.75 82.875C97.75 91.0775 91.0775 97.75 82.875 97.75H19.125C10.9225 97.75 4.25 91.0775 4.25 82.875V36.125C4.25 27.9225 10.9225 21.25 19.125 21.25H82.875C91.0775 21.25 97.75 27.9225 97.75 36.125V82.875ZM73.44 54.145C75.395 56.1 76.5 58.7775 76.5 61.625C76.5 64.4725 75.395 67.15 73.3975 69.1475L63.1975 80.07C62.7725 80.5375 62.22 80.75 61.625 80.75C61.115 80.75 60.605 80.58 60.18 80.1975C59.33 79.39 59.2875 78.0725 60.095 77.18L70.3375 66.1725C71.06 65.45 71.57 64.6425 71.91 63.75H27.625C26.435 63.75 25.5 62.815 25.5 61.625C25.5 60.435 26.435 59.5 27.625 59.5H71.8675C71.57 58.6075 71.06 57.8 70.38 57.12L60.0525 46.07C59.245 45.22 59.2875 43.86 60.1375 43.0525C60.9875 42.245 62.3475 42.2875 63.155 43.1375L73.3975 54.145H73.44Z" fill="#4DBE83" fill-opacity="0.1"/>
</g>
<defs>
<clipPath id="clip0_423_10098">
<rect width="102" height="102" fill="white"/>
</clipPath>
</defs>
</svg>
