<svg width="106" height="106" viewBox="0 0 106 106" fill="none" xmlns="http://www.w3.org/2000/svg">
<g id="chart-user 1" clip-path="url(#clip0_423_10096)">
<path id="Vector" d="M30.7399 61.8333C40.5007 61.8333 48.4066 53.9275 48.4066 44.1667C48.4066 34.4058 40.5007 26.5 30.7399 26.5C20.9791 26.5 13.0732 34.4058 13.0732 44.1667C13.0732 53.9275 20.9791 61.8333 30.7399 61.8333ZM30.7399 30.9167C38.0274 30.9167 43.9899 36.8792 43.9899 44.1667C43.9899 51.4542 38.0274 57.4167 30.7399 57.4167C23.4524 57.4167 17.4899 51.4542 17.4899 44.1667C17.4899 36.8792 23.4524 30.9167 30.7399 30.9167ZM61.6566 101.583V103.792C61.6566 105.028 60.6849 106 59.4482 106C58.2116 106 57.2399 105.028 57.2399 103.792V101.583C57.2399 86.9642 45.3591 75.0833 30.7399 75.0833C16.1207 75.0833 4.23991 86.9642 4.23991 101.583V103.792C4.23991 105.028 3.26824 106 2.03158 106C0.794909 106 -0.176758 105.028 -0.176758 103.792V101.583C-0.176758 84.535 13.6916 70.6667 30.7399 70.6667C47.7882 70.6667 61.6566 84.535 61.6566 101.583ZM106 19.875L105.823 59.625C105.823 70.5783 96.9016 79.5 85.9482 79.5H63.8649C62.6282 79.5 61.6566 78.5283 61.6566 77.2917C61.6566 76.055 62.6282 75.0833 63.8649 75.0833H85.9482C94.4724 75.0833 101.407 68.1492 101.407 59.625L101.583 19.875C101.583 11.3508 94.6491 4.41667 86.1249 4.41667H41.7816C34.7149 4.41667 28.5757 9.18667 26.8091 15.9883C26.4999 17.1808 25.3074 17.8875 24.1149 17.5783C22.9224 17.2692 22.2157 16.0767 22.5249 14.8842C24.7774 6.095 32.6832 -0.0441666 41.7816 -0.0441666H86.1249C97.0783 -0.0441666 106 8.8775 106 19.8308V19.875ZM63.4232 48.1417L85.0649 26.5H68.3257C67.0891 26.5 66.1174 25.5283 66.1174 24.2917C66.1174 23.055 67.0891 22.0833 68.3257 22.0833H85.9924C89.6582 22.0833 92.6174 25.0425 92.6174 28.7083V46.375C92.6174 47.6117 91.6458 48.5833 90.4091 48.5833C89.1724 48.5833 88.2008 47.6117 88.2008 46.375V29.6358L66.5591 51.2775C65.2782 52.5583 63.5557 53.2208 61.8774 53.2208C60.1991 53.2208 58.4766 52.5583 57.1957 51.2775L55.9149 49.9967C55.0316 49.1133 55.0316 47.7442 55.9149 46.8608C56.7982 45.9775 58.1674 45.9775 59.0507 46.8608L60.3316 48.1417C61.2149 48.9808 62.5841 48.9808 63.4674 48.1417H63.4232Z" fill="#4DBE83" fill-opacity="0.1"/>
</g>
<defs>
<clipPath id="clip0_423_10096">
<rect width="106" height="106" fill="white"/>
</clipPath>
</defs>
</svg>
