<svg width="50" height="50" viewBox="0 0 50 50" fill="none" xmlns="http://www.w3.org/2000/svg">
<g id="fi_3055362" clip-path="url(#clip0_512_17099)">
<g id="Group">
<path id="Vector" d="M45.178 48.5126H33.8022L33.6328 46.7322L32.1729 46.8712L32.4687 49.9791H46.5116L47.0835 43.9735L45.6236 43.8345L45.178 48.5126Z" fill="#74EEAE"/>
<path id="Vector_2" d="M32.6592 20.4989L29.5465 48.5125H27.3969L30.6462 16.4923L33.2399 15.2719L32.821 19.0414L34.2785 19.2033L34.9867 12.8293L33.8637 13.3577C33.7561 10.6219 31.498 8.42922 28.7363 8.42922C28.6536 8.42922 28.5708 8.43127 28.488 8.43528C27.9494 7.29955 27.0053 6.3924 25.8466 5.90123C25.2695 2.51819 22.3441 0.0214844 18.8621 0.0214844C16.8771 0.0214844 15.0273 0.830973 13.69 2.2642C12.9162 1.81849 12.0462 1.58571 11.1387 1.58571C8.34898 1.58571 6.07195 3.82295 6.00742 6.5975C5.28622 7.16688 4.72827 7.92084 4.39676 8.77413C2.48331 9.51 1.20162 11.2942 1.12185 13.3572L0 12.8291L1.59395 27.1746L3.05142 27.0127L1.74695 15.272L4.34064 16.4926L7.58993 48.5125H5.44029L3.21332 28.4701L1.75585 28.632L4.12771 49.979H10.6516V48.5125H9.06393L5.81013 16.4482L9.18261 14.8609L12.6212 16.4791L12.95 25.4089C12.4087 26.1507 12.0442 27.0291 11.9195 27.982H8.93898V35.3143H11.9195C12.0781 36.5265 12.6246 37.6181 13.4296 38.4609L13.7997 48.5125H12.1182V49.979H30.859L34.1166 20.6608L32.6592 20.4989ZM9.18252 13.2402L5.02821 15.1955L2.6196 14.062C2.59701 13.8958 2.5843 13.7286 2.5843 13.5617C2.5843 11.9344 3.6296 10.5242 5.18532 10.0528L5.56054 9.93909L5.67434 9.56387C5.91983 8.75438 6.44531 8.04833 7.154 7.57554L7.50449 7.34169L7.47897 6.9212C7.47467 6.85022 7.47252 6.78189 7.47252 6.71824C7.47252 4.69667 9.11711 3.05208 11.1387 3.05208C11.9556 3.05208 12.7301 3.31644 13.3785 3.8164L13.9596 4.26465L14.4073 3.68315C15.4815 2.28796 17.1052 1.48775 18.8622 1.48775C21.7469 1.48775 24.1497 3.64786 24.4514 6.51245L24.5017 6.98925L24.9586 7.13443C26.0663 7.48628 26.9499 8.35443 27.3222 9.45652L27.522 10.0481L28.1378 9.94505C28.3344 9.9122 28.5357 9.89549 28.7364 9.89549C30.7579 9.89549 32.4025 11.5401 32.4025 13.5616C32.4025 13.7284 32.3898 13.8956 32.3672 14.0617L29.9579 15.1954L25.8024 13.2401L21.6475 15.1954L17.4924 13.2401L13.3375 15.1954L9.18252 13.2402ZM20.8987 16.464L20.6196 24.0454C19.7251 23.4446 18.6495 23.0938 17.4934 23.0938C16.3372 23.0938 15.2617 23.4446 14.3672 24.0454L14.0879 16.463L17.4922 14.8609L20.8987 16.464ZM19.7196 48.5125H15.2672L14.9385 39.5864C15.7056 39.9795 16.5737 40.2025 17.4934 40.2025C18.413 40.2025 19.2811 39.9795 20.0482 39.5864L19.7196 48.5125ZM17.4934 38.7361C15.2023 38.7361 13.3384 36.8722 13.3384 34.5811V33.8478H10.4054V29.4485H13.3384V28.7152C13.3384 26.4241 15.2023 24.5602 17.4934 24.5602C19.7845 24.5602 21.6483 26.4241 21.6483 28.7152V29.4485H24.5813V33.8478H21.6483V34.5811C21.6483 36.8722 19.7845 38.7361 17.4934 38.7361ZM21.1871 48.5125L21.5572 38.4609C22.3622 37.6181 22.9087 36.5265 23.0673 35.3143H26.0478V27.982H23.0673C22.9426 27.029 22.5781 26.1506 22.0369 25.4089L22.3657 16.4782L25.8024 14.8609L29.1767 16.4486L25.9229 48.5125H21.1871Z" fill="#74EEAE"/>
<path id="Vector_3" d="M13.7129 7.66608C13.9776 7.17188 14.4899 6.8649 15.0495 6.8649C15.8851 6.8649 16.5649 7.54466 16.5649 8.38025H18.0313C18.0313 6.73605 16.6937 5.39844 15.0495 5.39844C14.1628 5.39844 13.3368 5.78979 12.7769 6.4494C12.5618 6.40062 12.3411 6.37608 12.1166 6.37608C10.4724 6.37608 9.13477 7.71369 9.13477 9.35789C9.13477 11.0021 10.4724 12.3397 12.1166 12.3397V10.8732C11.281 10.8732 10.6012 10.1935 10.6012 9.35789C10.6012 8.5223 11.281 7.84255 12.1166 7.84255C12.3398 7.84255 12.5551 7.89016 12.7563 7.98421L13.3851 8.27769L13.7129 7.66608Z" fill="#74EEAE"/>
<path id="Vector_4" d="M19.9844 9.20004L21.2386 9.95987C21.5877 9.38355 22.3407 9.19877 22.9169 9.54799C23.1961 9.71712 23.3927 9.98489 23.4706 10.3018C23.5484 10.6189 23.498 10.9472 23.3289 11.2264L24.5831 11.9863C24.9553 11.3722 25.0659 10.6498 24.8948 9.95234C24.7237 9.25489 24.2911 8.66586 23.6768 8.29367C22.409 7.52563 20.7525 7.93214 19.9844 9.20004Z" fill="#74EEAE"/>
<path id="Vector_5" d="M40.2237 25.0489V19.9001L46.05 17.2602L45.4447 15.9243L38.7572 18.9547V25.0489H35.5641V26.5153H48.5336V27.9818H35.2383V29.4483H46.9941L46.8543 30.9147H44.5742V32.3812H46.7147L46.575 33.8476H43.01V35.3141H46.4353L45.763 42.3744L47.2228 42.5134L48.4672 29.4483H50.0001V25.0489H40.2237Z" fill="#74EEAE"/>
<path id="Vector_6" d="M40.0771 33.8477H41.5436V35.3141H40.0771V33.8477Z" fill="#74EEAE"/>
<path id="Vector_7" d="M13.8271 30.915H15.2936V32.3815H13.8271V30.915Z" fill="#74EEAE"/>
<path id="Vector_8" d="M16.7598 30.915H18.2262V32.3815H16.7598V30.915Z" fill="#74EEAE"/>
<path id="Vector_9" d="M19.6934 30.915H21.1598V32.3815H19.6934V30.915Z" fill="#74EEAE"/>
<path id="Vector_10" d="M19.5469 3.93213H21.0133V5.39859H19.5469V3.93213Z" fill="#74EEAE"/>
<path id="Vector_11" d="M14.5605 10.2866H16.027V11.7531H14.5605V10.2866Z" fill="#74EEAE"/>
</g>
</g>
<defs>
<clipPath id="clip0_512_17099">
<rect width="50" height="50" fill="white"/>
</clipPath>
</defs>
</svg>
