<svg width="50" height="50" viewBox="0 0 50 50" fill="none" xmlns="http://www.w3.org/2000/svg">
<g id="fi_2281385" clip-path="url(#clip0_510_16764)">
<g id="Group">
<path id="Vector" d="M45.9121 35.2938C48.1662 35.2938 50 33.4596 50 31.2049V4.78857C50 2.53451 48.1662 0.700684 45.9121 0.700684H4.0873C1.83373 0.700684 0.000390904 2.53451 0.000390904 4.78857V6.53395C0.000390904 6.93874 0.328457 7.2669 0.733337 7.2669C1.13822 7.2669 1.46628 6.93874 1.46628 6.53395V4.78857C1.46628 3.34281 2.64203 2.16658 4.0873 2.16658H45.912C47.3578 2.16658 48.534 3.34281 48.534 4.78857V31.2049C48.534 32.6512 47.3578 33.8279 45.912 33.8279H43.9244C43.7821 31.3791 41.7456 29.4302 39.2618 29.4302H35.0047C33.3513 29.4302 31.8967 30.2945 31.0663 31.5943C30.236 30.2946 28.7814 29.4302 27.128 29.4302H22.872C21.2181 29.4302 19.7632 30.2946 18.9327 31.5944C18.1023 30.2946 16.6477 29.4302 14.9942 29.4302H10.7382C8.25385 29.4302 6.21694 31.3791 6.07465 33.8279H4.0873C2.64203 33.8279 1.46628 32.6512 1.46628 31.2049V9.46574C1.46628 9.06096 1.13822 8.73279 0.733337 8.73279C0.328457 8.73279 0.000390904 9.06096 0.000390904 9.46574V31.2049C0.000390904 33.4596 1.83383 35.2938 4.0873 35.2938H6.06625V37.0855H4.6715C2.09554 37.0855 0 39.1811 0 41.7571V48.5659C0 48.9706 0.328067 49.2988 0.732946 49.2988L49.2671 49.2989C49.6719 49.2989 50 48.9707 50 48.566V43.0923C50 42.6875 49.6719 42.3594 49.2671 42.3594C48.8622 42.3594 48.5341 42.6875 48.5341 43.0923V47.833H37.8664V41.7571C37.8664 41.7565 37.8664 41.7559 37.8664 41.7553C37.8675 39.9882 39.305 38.551 41.0717 38.551H45.3288C46.6083 38.551 47.7635 39.3104 48.2719 40.4857C48.4328 40.8571 48.8641 41.0283 49.2356 40.8674C49.6071 40.7066 49.7781 40.2752 49.6173 39.9037C48.8765 38.1914 47.1932 37.0851 45.3287 37.0851H43.9332V35.2938H45.9121ZM22.8722 30.8961H27.1282C28.8957 30.8961 30.3336 32.334 30.3336 34.1015V37.0855H28.9386C27.2846 37.0855 25.8298 37.9503 24.9995 39.2505C24.1578 37.9387 22.6817 37.0851 21.0614 37.0851H19.6659V34.1015C19.6657 32.334 21.1041 30.8961 22.8722 30.8961ZM7.53214 34.1015C7.53214 32.334 8.97057 30.8961 10.7385 30.8961H14.9945C16.762 30.8961 18.1999 32.334 18.1999 34.1015V37.0851H16.8054C15.1848 37.0851 13.7086 37.9386 12.8667 39.2501C12.0363 37.9501 10.5816 37.0855 8.92787 37.0855H7.53214V34.1015ZM1.46589 41.7571C1.46589 39.9895 2.90393 38.5514 4.6715 38.5514H8.92787C10.6931 38.5514 12.1295 39.9856 12.1334 41.75C12.1334 41.7524 12.1332 41.7549 12.1332 41.7574V47.8329H1.46589V41.7571ZM24.2667 47.833H13.5994V41.7571C13.5994 41.7547 13.5992 41.7523 13.5992 41.75C13.5997 41.5178 13.6245 41.2888 13.6733 41.0692C13.6735 41.0684 13.6735 41.0675 13.6737 41.0667H13.6739C13.9928 39.609 15.3098 38.551 16.8054 38.551H18.9329H21.0613C22.5564 38.551 23.873 39.6091 24.1924 41.0692C24.2417 41.2911 24.2668 41.5227 24.2668 41.7574L24.2667 47.833ZM25.7328 41.7571C25.7328 39.9895 27.1709 38.5514 28.9385 38.5514H33.1948C34.9619 38.5514 36.3996 39.9885 36.4004 41.7553V41.7574V47.8329H25.7328V41.7571ZM41.0716 37.0851C39.4182 37.0851 37.9638 37.9496 37.1333 39.2496C36.3028 37.9499 34.8482 37.0855 33.1947 37.0855H31.7994V34.1015C31.7994 32.334 33.2373 30.8961 35.0048 30.8961H39.2619C41.0293 30.8961 42.4673 32.334 42.4673 34.1015V37.0851H41.0716Z" fill="#74EEAE"/>
<path id="Vector_2" d="M21.2028 24.0928C21.7155 24.3888 22.2778 24.5368 22.8402 24.5368C23.4026 24.5368 23.965 24.3888 24.4776 24.0928L31.504 20.0361C32.5293 19.4442 33.1414 18.3839 33.1414 17.2C33.1414 16.0161 32.5293 14.9559 31.504 14.364L24.4776 10.3073C23.4524 9.71524 22.2281 9.71534 21.2028 10.3073C20.1776 10.8992 19.5654 11.9594 19.5654 13.1433V21.2567C19.5654 22.4406 20.1776 23.5009 21.2028 24.0928ZM21.0313 13.1433C21.0313 12.4894 21.3695 11.9037 21.9358 11.5767C22.2189 11.4132 22.5296 11.3315 22.8402 11.3315C23.1509 11.3315 23.4615 11.4132 23.7447 11.5767L30.7711 15.6334C31.3374 15.9604 31.6756 16.546 31.6756 17.2C31.6756 17.854 31.3374 18.4396 30.7711 18.7665L23.7447 22.8232C23.1784 23.1501 22.5021 23.1502 21.9358 22.8232C21.3695 22.4963 21.0313 21.9107 21.0313 21.2567V13.1433Z" fill="#74EEAE"/>
</g>
</g>
<defs>
<clipPath id="clip0_510_16764">
<rect width="50" height="50" fill="white"/>
</clipPath>
</defs>
</svg>
