<svg width="30" height="30" viewBox="0 0 30 30" fill="none" xmlns="http://www.w3.org/2000/svg">
<g id="layer">
<path id="Vector (Stroke)" fill-rule="evenodd" clip-rule="evenodd" d="M14.2059 2.23353C13.652 2.23353 13.1599 2.33037 12.8457 2.47105L12.8426 2.47245L4.0549 6.37477C2.90142 6.88366 2.82239 7.34407 2.82239 7.39298C2.82239 7.44189 2.90142 7.9023 4.0549 8.41118L4.05737 8.41227L12.8457 12.3149C13.1599 12.4556 13.652 12.5524 14.2059 12.5524C14.7598 12.5524 15.252 12.4556 15.5662 12.3149L15.5693 12.3135L24.3545 8.41228L24.357 8.41118C25.5105 7.9023 25.5895 7.44189 25.5895 7.39298C25.5895 7.34407 25.5105 6.88366 24.357 6.37477L15.5693 2.47245L15.5662 2.47105C15.252 2.33037 14.7598 2.23353 14.2059 2.23353ZM16.4773 0.431794C15.7941 0.126301 14.9692 0 14.2059 0C13.4427 0 12.6178 0.126301 11.9346 0.431794C11.9341 0.432042 11.9335 0.432291 11.933 0.43254L3.15336 4.33127C3.15297 4.33145 3.15375 4.3311 3.15336 4.33127C1.77601 4.93921 0.588867 5.96072 0.588867 7.39298C0.588867 8.82518 1.77474 9.84615 3.15203 10.4541C3.15159 10.4539 3.15247 10.4543 3.15203 10.4541L11.933 14.3534C11.9336 14.3537 11.9342 14.354 11.9349 14.3543C12.618 14.6597 13.4428 14.786 14.2059 14.786C14.9692 14.786 15.794 14.6597 16.4771 14.3542C16.4777 14.3539 16.4783 14.3537 16.4789 14.3534L25.2585 10.4547C25.2581 10.4549 25.2589 10.4545 25.2585 10.4547C26.6359 9.84674 27.823 8.82524 27.823 7.39298C27.823 5.96067 26.637 4.93966 25.2596 4.33173C25.2592 4.33158 25.2599 4.33188 25.2596 4.33173L16.4789 0.43254C16.4784 0.432291 16.4778 0.432042 16.4773 0.431794Z" fill="#1A932E" fill-opacity="0.18"/>
<path id="Vector (Stroke)_2" fill-rule="evenodd" clip-rule="evenodd" d="M1.11676 12.3663C1.73354 12.3663 2.23353 12.8663 2.23353 13.4831C2.23353 13.8455 2.3769 14.3108 2.66519 14.7539C2.95348 15.197 3.32061 15.5163 3.65249 15.6629L3.65523 15.6641L13.7636 20.16C13.7632 20.1598 13.7639 20.1601 13.7636 20.16C14.2527 20.376 14.8006 20.3727 15.2649 20.1633L15.2702 20.1609L25.3806 15.6641L25.3834 15.6629C25.7153 15.5163 26.0824 15.197 26.3707 14.7539C26.659 14.3108 26.8023 13.8455 26.8023 13.4831C26.8023 12.8663 27.3023 12.3663 27.9191 12.3663C28.5359 12.3663 29.0359 12.8663 29.0359 13.4831C29.0359 14.3714 28.7102 15.2537 28.2428 15.972C27.7757 16.69 27.1009 17.3457 26.2868 17.7055C26.2864 17.7057 26.2873 17.7053 26.2868 17.7055L16.1831 22.1993C16.1822 22.1998 16.1812 22.2002 16.1802 22.2007C15.1268 22.6747 13.9183 22.6706 12.8601 22.2026L2.75029 17.7061C2.74978 17.7058 2.74927 17.7056 2.74877 17.7054C1.93478 17.3455 1.26015 16.6899 0.793054 15.972C0.325673 15.2537 0 14.3714 0 13.4831C0 12.8663 0.499992 12.3663 1.11676 12.3663Z" fill="#1A932E" fill-opacity="0.18"/>
<path id="Vector (Stroke)_3" fill-rule="evenodd" clip-rule="evenodd" d="M1.11676 19.8114C1.73354 19.8114 2.23353 20.3114 2.23353 20.9282C2.23353 21.8674 2.78885 22.7215 3.65634 23.1097C3.65606 23.1095 3.65662 23.1098 3.65634 23.1097L13.7636 27.6051C13.7632 27.6049 13.7639 27.6052 13.7636 27.6051C14.2527 27.8211 14.8006 27.8178 15.2649 27.6084L15.2702 27.606L25.3787 23.11C25.3784 23.1102 25.379 23.1099 25.3787 23.11C26.2461 22.7218 26.8023 21.8674 26.8023 20.9282C26.8023 20.3114 27.3023 19.8114 27.9191 19.8114C28.5359 19.8114 29.0359 20.3114 29.0359 20.9282C29.0359 22.7582 27.9536 24.4055 26.2903 25.1491L26.2883 25.1499L16.1831 29.6444C16.1822 29.6449 16.1812 29.6453 16.1802 29.6458C15.1268 30.1198 13.9183 30.1157 12.8601 29.6477L2.7456 25.1491C1.08224 24.4055 0 22.7582 0 20.9282C0 20.3114 0.499992 19.8114 1.11676 19.8114Z" fill="#1A932E" fill-opacity="0.18"/>
</g>
</svg>
