<svg width="30" height="30" viewBox="0 0 30 30" fill="none" xmlns="http://www.w3.org/2000/svg">
<g id="piggy-bank 2" clip-path="url(#clip0_423_10125)">
<path id="Vector" d="M11.25 5H8.75C8.75 2.2425 10.9925 0 13.75 0C16.5075 0 18.75 2.2425 18.75 5H16.25C16.25 3.62125 15.1287 2.5 13.75 2.5C12.3713 2.5 11.25 3.62125 11.25 5ZM21.25 13.75C20.56 13.75 20 14.31 20 15C20 15.69 20.56 16.25 21.25 16.25C21.94 16.25 22.5 15.69 22.5 15C22.5 14.31 21.94 13.75 21.25 13.75ZM30 13.75V21.25H28.0163C27.185 23.2925 25.6812 25.0163 23.75 26.135V30H16.25V27.5H13.75V30H6.25V26.15C3.18875 24.375 1.25 21.0625 1.25 17.5C1.25 16.0338 1.5675 14.64 2.13625 13.385C0.87375 12.7812 0 11.4913 0 10C0 7.9325 1.6825 6.25 3.75 6.25V8.75C3.06125 8.75 2.5 9.31 2.5 10C2.5 10.595 2.9175 11.0938 3.475 11.2188C5.31 8.95125 8.11375 7.5 11.25 7.5H18.75C18.89 7.5 19.03 7.50375 19.17 7.50875C20.5613 3.7575 25 3.75 25 3.75V9.71625C26.3125 10.7687 27.3662 12.1488 28.0175 13.75H30ZM27.5 16.25H26.2L25.9338 15.3562C24.995 12.2037 22.04 10 18.7487 10H11.2487C7.1125 10 3.74875 13.3638 3.74875 17.5C3.74875 20.3725 5.43125 23.0287 8.03625 24.2675L8.74875 24.6062V27.4988H11.2487V24.9988H18.7487V27.4988H21.2488V24.5925L21.96 24.2537C23.8875 23.3337 25.335 21.6525 25.9338 19.6437L26.2 18.75H27.5V16.25Z" fill="#1A932E" fill-opacity="0.18"/>
</g>
<defs>
<clipPath id="clip0_423_10125">
<rect width="30" height="30" fill="white"/>
</clipPath>
</defs>
</svg>
