<svg width="50" height="50" viewBox="0 0 50 50" fill="none" xmlns="http://www.w3.org/2000/svg">
<g id="fi_3837379" clip-path="url(#clip0_512_17083)">
<g id="Group">
<path id="Vector" d="M49.2661 21.2077C49.6715 21.2077 50 20.8792 50 20.4738V12.8107C50 11.5968 49.0124 10.6092 47.7984 10.6092H47.0359L45.6655 6.06914C45.3148 4.90713 44.0845 4.24658 42.9218 4.59765L37.3988 6.26465C37.0107 6.38174 36.7912 6.79121 36.9083 7.1792C37.0254 7.56718 37.4346 7.78701 37.8229 7.66963L43.3458 6.00273C43.7332 5.88554 44.1436 6.10586 44.2604 6.49316L45.5028 10.6092H28.0846L35.0145 8.51748C35.4025 8.40039 35.6221 7.99091 35.505 7.60293C35.3878 7.21484 34.9783 6.99482 34.5904 7.1124L23.0056 10.6091H10.3325C9.92725 10.6091 9.59863 10.9376 9.59863 11.343C9.59863 11.7483 9.92725 12.0769 10.3325 12.0769H47.7984C48.2031 12.0769 48.5323 12.4061 48.5323 12.8107V19.7911C45.9782 20.1493 44.0063 22.3487 44.0063 25C44.0063 27.6513 45.9783 29.8506 48.5323 30.2089V37.1899C48.5323 37.5946 48.2031 37.9238 47.7984 37.9238H41.2579C40.8525 37.9238 40.524 38.2523 40.524 38.6577C40.524 39.0631 40.8525 39.3916 41.2579 39.3916H47.7984C49.0124 39.3916 50 38.4039 50 37.19V29.5261C50 29.1207 49.6715 28.7922 49.2661 28.7922C47.1751 28.7922 45.4739 27.091 45.4739 25C45.474 22.9089 47.1751 21.2077 49.2661 21.2077Z" fill="#74EEAE"/>
<path id="Vector_2" d="M38.3226 37.9234H2.20156C1.79688 37.9234 1.46768 37.5942 1.46768 37.1896V12.8105C1.46768 12.4059 1.79688 12.0767 2.20156 12.0767H7.39707C7.80234 12.0767 8.13096 11.7481 8.13096 11.3428C8.13096 10.9374 7.80234 10.6089 7.39707 10.6089H2.20156C0.987598 10.609 0 11.5966 0 12.8105V37.1896C0 38.4035 0.987598 39.3912 2.20156 39.3912H2.96396L4.33428 43.9312C4.62129 44.8822 5.49736 45.4968 6.44307 45.4968C6.65313 45.4968 26.9943 39.3911 26.9943 39.3911H38.3225C38.7278 39.3911 39.0564 39.0626 39.0564 38.6572C39.0564 38.2519 38.7278 37.9234 38.3226 37.9234ZM6.654 43.9977C6.2668 44.1146 5.85635 43.8943 5.73945 43.5072L4.49707 39.3912H21.9154L6.654 43.9977Z" fill="#74EEAE"/>
<path id="Vector_3" d="M30.5156 19.1171C30.5156 19.5225 30.8441 19.851 31.2495 19.851C31.6549 19.851 31.9834 19.5225 31.9834 19.1171V17.6494C31.9834 17.244 31.6549 16.9155 31.2495 16.9155C30.8441 16.9155 30.5156 17.244 30.5156 17.6494V19.1171Z" fill="#74EEAE"/>
<path id="Vector_4" d="M30.5156 27.9237C30.5156 28.3291 30.8441 28.6576 31.2495 28.6576C31.6549 28.6576 31.9834 28.3291 31.9834 27.9237V26.4561C31.9834 26.0507 31.6549 25.7222 31.2495 25.7222C30.8441 25.7222 30.5156 26.0507 30.5156 26.4561V27.9237Z" fill="#74EEAE"/>
<path id="Vector_5" d="M30.5156 36.7299C30.5156 37.1353 30.8441 37.4638 31.2495 37.4638C31.6549 37.4638 31.9834 37.1353 31.9834 36.7299V35.2622C31.9834 34.8568 31.6549 34.5283 31.2495 34.5283C30.8441 34.5283 30.5156 34.8568 30.5156 35.2622V36.7299Z" fill="#74EEAE"/>
<path id="Vector_6" d="M30.5156 32.3266C30.5156 32.7319 30.8441 33.0604 31.2495 33.0604C31.6549 33.0604 31.9834 32.7319 31.9834 32.3266V30.8589C31.9834 30.4535 31.6549 30.125 31.2495 30.125C30.8441 30.125 30.5156 30.4535 30.5156 30.8589V32.3266Z" fill="#74EEAE"/>
<path id="Vector_7" d="M31.2495 15.4481C31.6549 15.4481 31.9834 15.1196 31.9834 14.7143V13.2466C31.9834 12.8412 31.6549 12.5127 31.2495 12.5127C30.8441 12.5127 30.5156 12.8412 30.5156 13.2466V14.7143C30.5157 15.1196 30.8441 15.4481 31.2495 15.4481Z" fill="#74EEAE"/>
<path id="Vector_8" d="M30.5156 23.5204C30.5156 23.9258 30.8441 24.2543 31.2495 24.2543C31.6549 24.2543 31.9834 23.9258 31.9834 23.5204V22.0527C31.9834 21.6474 31.6549 21.3188 31.2495 21.3188C30.8441 21.3188 30.5156 21.6474 30.5156 22.0527V23.5204Z" fill="#74EEAE"/>
<path id="Vector_9" d="M37.3076 30.4072V19.8867C37.3076 19.4813 36.9791 19.1528 36.5737 19.1528C36.1684 19.1528 35.8398 19.4813 35.8398 19.8867V30.4072C35.8398 30.8126 36.1684 31.1411 36.5737 31.1411C36.9791 31.1411 37.3076 30.8125 37.3076 30.4072Z" fill="#74EEAE"/>
<path id="Vector_10" d="M40.8301 27.9544V22.3389C40.8301 21.9335 40.5016 21.605 40.0962 21.605C39.6908 21.605 39.3623 21.9335 39.3623 22.3389V27.9544C39.3623 28.3598 39.6908 28.6883 40.0962 28.6883C40.5016 28.6883 40.8301 28.3598 40.8301 27.9544Z" fill="#74EEAE"/>
<path id="Vector_11" d="M8.13086 21.6424V23.613C8.13086 24.4793 8.77812 25.1955 9.61406 25.3081V31.6361C9.61406 32.8501 10.6017 33.8377 11.8156 33.8377H21.4687C22.6826 33.8377 23.6702 32.8501 23.6702 31.6361V25.3081C24.5062 25.1955 25.1533 24.4792 25.1533 23.613V21.6424C25.1533 20.6982 24.3853 19.9301 23.441 19.9301H23.2173C23.2326 19.5805 23.2333 19.1525 23.1906 18.7009C23.0022 16.7028 22.1284 15.8749 21.4286 15.5321C19.8148 14.7418 18.4904 15.9646 17.8404 16.974H15.4437C14.7938 15.9644 13.4693 14.7413 11.8555 15.5321C11.1557 15.8749 10.2819 16.7028 10.0935 18.7009C10.0509 19.1525 10.0515 19.5805 10.0668 19.9301H9.84307C8.89902 19.9301 8.13086 20.6982 8.13086 21.6424ZM9.59854 21.6424C9.59854 21.5074 9.7083 21.3978 9.84316 21.3978H15.8399V23.8576H9.84316C9.7083 23.8576 9.59854 23.748 9.59854 23.613V21.6424ZM11.0817 31.6362V25.3254H15.8399V32.3701H11.8156C11.4109 32.37 11.0817 32.0409 11.0817 31.6362ZM22.2025 31.6362C22.2025 32.0409 21.8733 32.3701 21.4687 32.3701H17.3076V25.3254H22.2025V31.6362ZM23.6857 21.6424V23.613C23.6857 23.748 23.576 23.8576 23.4411 23.8576H17.3076V21.3978H23.4411C23.576 21.3978 23.6857 21.5075 23.6857 21.6424ZM20.7831 16.8502C21.6818 17.2904 21.8001 18.9049 21.7497 19.9301H18.9981V17.897C19.2299 17.5042 19.9516 16.4431 20.7831 16.8502ZM17.5306 19.9301H15.7538V18.4417H17.5306V19.9301ZM12.5011 16.8502C13.0116 16.4195 14.0382 17.3462 14.286 17.8993V19.9301H11.5345C11.4842 18.9044 11.6025 17.2903 12.5011 16.8502Z" fill="#74EEAE"/>
</g>
</g>
<defs>
<clipPath id="clip0_512_17083">
<rect width="50" height="50" fill="white"/>
</clipPath>
</defs>
</svg>
