<svg width="29" height="29" viewBox="0 0 29 29" fill="none" xmlns="http://www.w3.org/2000/svg">
<g id="ticket 23" clip-path="url(#clip0_510_16930)">
<path id="Vector" d="M25.9792 26.5834H3.02083C1.35575 26.5834 0 25.2276 0 23.5625V21.1459C0 20.8124 0.270667 20.5417 0.604167 20.5417H1.20833C2.54113 20.5417 3.625 19.4578 3.625 18.125C3.625 16.7922 2.54113 15.7084 1.20833 15.7084H0.604167C0.270667 15.7084 0 15.4377 0 15.1042V12.6875C0 11.0224 1.35575 9.66669 3.02083 9.66669H25.9792C27.6443 9.66669 29 11.0224 29 12.6875V15.1042C29 15.4377 28.7293 15.7084 28.3958 15.7084H27.7917C26.4589 15.7084 25.375 16.7922 25.375 18.125C25.375 18.7703 25.6263 19.3769 26.0831 19.8336C26.5386 20.2904 27.1452 20.5417 27.7905 20.5417H28.3946C28.7281 20.5417 28.9988 20.8124 28.9988 21.1459V23.5625C29 25.2276 27.6443 26.5834 25.9792 26.5834ZM1.20833 21.75V23.5625C1.20833 24.5618 2.02154 25.375 3.02083 25.375H25.9792C26.9785 25.375 27.7917 24.5618 27.7917 23.5625V21.75C26.8238 21.75 25.9127 21.373 25.2288 20.6891C24.5437 20.004 24.1667 19.0929 24.1667 18.125C24.1667 16.1264 25.7931 14.5 27.7917 14.5V12.6875C27.7917 11.6882 26.9785 10.875 25.9792 10.875H3.02083C2.02154 10.875 1.20833 11.6882 1.20833 12.6875V14.5C3.20692 14.5 4.83333 16.1264 4.83333 18.125C4.83333 20.1236 3.20692 21.75 1.20833 21.75Z" fill="#569A59"/>
<path id="Vector_2" d="M10.2712 12.0834C9.93766 12.0834 9.66699 11.8127 9.66699 11.4792V10.2709C9.66699 9.93735 9.93766 9.66669 10.2712 9.66669C10.6047 9.66669 10.8753 9.93735 10.8753 10.2709V11.4792C10.8753 11.8127 10.6047 12.0834 10.2712 12.0834Z" fill="#569A59"/>
<path id="Vector_3" d="M10.2712 22.307C9.93766 22.307 9.66699 22.0364 9.66699 21.7029V19.6596C9.66699 19.3261 9.93766 19.0554 10.2712 19.0554C10.6047 19.0554 10.8753 19.3249 10.8753 19.6596V21.7041C10.8753 22.0376 10.6047 22.307 10.2712 22.307ZM10.2712 17.1958C9.93766 17.1958 9.66699 16.9251 9.66699 16.5916V14.5471C9.66699 14.2136 9.93766 13.9429 10.2712 13.9429C10.6047 13.9429 10.8753 14.2136 10.8753 14.5471V16.5916C10.8753 16.9251 10.6047 17.1958 10.2712 17.1958Z" fill="#569A59"/>
<path id="Vector_4" d="M10.2712 26.5834C9.93766 26.5834 9.66699 26.3127 9.66699 25.9792V24.7709C9.66699 24.4374 9.93766 24.1667 10.2712 24.1667C10.6047 24.1667 10.8753 24.4374 10.8753 24.7709V25.9792C10.8753 26.3127 10.6047 26.5834 10.2712 26.5834Z" fill="#569A59"/>
<path id="Vector_5" d="M3.02114 10.875C2.77585 10.875 2.54506 10.7252 2.45564 10.4823C2.33844 10.1693 2.49673 9.82133 2.80969 9.70533L22.0222 2.53145C22.9562 2.18104 24.0534 2.70545 24.3724 3.64674L26.551 10.0763C26.6574 10.3929 26.4882 10.7348 26.1728 10.8424C25.8599 10.9499 25.5143 10.7795 25.4067 10.4642L23.2281 4.03462C23.1218 3.72045 22.7569 3.54887 22.4439 3.66245L3.23139 10.8363C3.16252 10.8629 3.09123 10.875 3.02114 10.875Z" fill="#569A59"/>
</g>
<defs>
<clipPath id="clip0_510_16930">
<rect width="29" height="29" fill="white"/>
</clipPath>
</defs>
</svg>
